<?xml version="1.0" standalone="no"?>
<!DOCTYPE svg PUBLIC "-//W3C//DTD SVG 1.1//EN" "http://www.w3.org/Graphics/SVG/1.1/DTD/svg11.dtd" >
<svg xmlns="http://www.w3.org/2000/svg" xmlns:xlink="http://www.w3.org/1999/xlink" version="1.1">
<metadata></metadata>
<defs>
<font id="sf_ui_textmedium_italic" horiz-adv-x="1359" >
<font-face units-per-em="2048" ascent="1638" descent="-410" />
<missing-glyph horiz-adv-x="560" />
<glyph horiz-adv-x="0" />
<glyph unicode="&#xd;" horiz-adv-x="0" />
<glyph unicode=" "  horiz-adv-x="560" />
<glyph unicode="&#x09;" horiz-adv-x="560" />
<glyph unicode="&#xa0;" horiz-adv-x="560" />
<glyph unicode="!" horiz-adv-x="669" d="M142 127q0 67 43 111.5t111 44.5t111 -43.5t43 -107.5q0 -67 -43 -111t-111 -44t-111 43t-43 107zM270 478l185 966h243l-226 -966h-202z" />
<glyph unicode="&#x22;" horiz-adv-x="939" d="M291 872l120 571h192l-120 -571h-192zM698 872l120 571h193l-120 -571h-193z" />
<glyph unicode="#" horiz-adv-x="1319" d="M89 400l70 178h209l130 304h-207l68 177h209l162 384h178l-161 -384h273l162 384h180l-163 -384h210l-70 -177h-210l-131 -304h209l-69 -178h-210l-167 -400h-179l168 400h-274l-168 -400h-178l167 400h-208zM537 567h285l138 324h-287z" />
<glyph unicode="$" horiz-adv-x="1360" d="M162 402h218q12 -82 66.5 -137.5t141.5 -79.5l99 467l-53 20q-147 56 -226 152t-79 222q0 185 142.5 303t374.5 118h15l27 128h136l-31 -146q153 -38 246.5 -147t95.5 -250h-215q-11 75 -54.5 126.5t-114.5 74.5l-92 -433l28 -11q171 -67 257.5 -160.5t86.5 -227.5 q0 -202 -149.5 -323.5t-386.5 -121.5h-15l-25 -116h-136l28 132q-166 37 -272 147.5t-113 262.5zM558 1064q0 -66 43.5 -112t132.5 -83l85 403q-115 -2 -188 -61t-73 -147zM721 170q130 3 205.5 65t75.5 158q0 71 -45 119t-144 91z" />
<glyph unicode="%" horiz-adv-x="1680" d="M147 0l718 756l626 687h233l-730 -768l-613 -675h-234zM257 1065q0 170 104 288.5t255 118.5q128 0 205.5 -84t77.5 -223q0 -169 -105 -288t-254 -119q-128 0 -205.5 84t-77.5 223zM438 1065q0 -68 30 -109t81 -41q69 0 119 75t50 178q0 68 -29 107.5t-79 39.5 q-70 0 -121 -74.5t-51 -175.5zM973 279q0 170 104.5 288t254.5 118q128 0 205.5 -84t77.5 -223q0 -169 -104.5 -288t-253.5 -119q-129 0 -206.5 84t-77.5 224zM1154 279q0 -69 30.5 -110t80.5 -41q69 0 119.5 75t50.5 178q0 69 -29 108.5t-80 39.5q-70 0 -121 -74.5 t-51 -175.5z" />
<glyph unicode="&#x26;" horiz-adv-x="1482" d="M107 372q0 284 368 428l66 27q-116 168 -116 290q0 149 118 252t293 103q158 0 262 -84t104 -212q0 -131 -96.5 -239.5t-292.5 -177.5l265 -377q112 134 128 335l4 45h195l-4 -51q-26 -288 -218 -492l145 -219h-246l-58 87q-178 -114 -421 -114q-137 0 -250.5 52 t-179.5 143.5t-66 203.5zM320 390q0 -104 81 -170.5t216 -66.5q185 0 312 86l-300 443q-48 -16 -54 -19q-124 -45 -189.5 -115.5t-65.5 -157.5zM626 1104q0 -82 99 -214q141 44 209.5 115t68.5 151q0 67 -48 107t-123 40q-85 0 -145.5 -58.5t-60.5 -140.5z" />
<glyph unicode="'" horiz-adv-x="531" d="M291 872l120 571h192l-120 -571h-192z" />
<glyph unicode="(" horiz-adv-x="755" d="M188 317q0 316 119.5 614t334.5 512h234q-222 -224 -345 -520t-123 -619q0 -307 90 -581h-195q-50 106 -82.5 273t-32.5 321z" />
<glyph unicode=")" horiz-adv-x="754" d="M-11 -277q221 224 344 520t123 619q0 305 -90 581h195q51 -105 83 -272t32 -322q0 -316 -119.5 -614t-334.5 -512h-233z" />
<glyph unicode="*" horiz-adv-x="1032" d="M238 930l315 107l-257 158l115 145l221 -208l44 316l165 -9l-93 -318l300 160l52 -160l-314 -106l256 -159l-114 -145l-223 205l-42 -311l-165 9l91 314l-299 -159z" />
<glyph unicode="+" d="M199 484l40 196h421l91 423h191l-90 -423h426l-41 -196h-424l-91 -424h-191l91 424h-423z" />
<glyph unicode="," horiz-adv-x="662" d="M44 -376l215 598h233l-268 -598h-180z" />
<glyph unicode="-" horiz-adv-x="976" d="M196 476l43 211h656l-42 -211h-657z" />
<glyph unicode="." horiz-adv-x="645" d="M117 129q0 64 42 108t105 44t105 -43t42 -104q0 -64 -42 -107.5t-105 -43.5q-62 0 -104.5 43t-42.5 103z" />
<glyph unicode="/" horiz-adv-x="734" d="M-78 -309l804 1752h197l-807 -1752h-194z" />
<glyph unicode="0" horiz-adv-x="1330" d="M196 500q0 276 90 501t243.5 351t337.5 126q209 0 332 -146t123 -391q0 -208 -52.5 -390t-142.5 -310t-213.5 -202t-262.5 -74q-209 0 -332 145.5t-123 389.5zM420 494q0 -156 64 -244t179 -88t215.5 106.5t160 288.5t59.5 391q0 155 -63.5 243.5t-176.5 88.5 q-116 0 -217 -107t-161 -289t-60 -390z" />
<glyph unicode="1" horiz-adv-x="989" d="M257 931l50 244l437 268h224l-307 -1443h-224l254 1184h-17z" />
<glyph unicode="2" horiz-adv-x="1266" d="M94 0l35 176l594 503q196 167 256 242.5t60 155.5q0 90 -68.5 148t-175.5 58q-109 0 -188 -64t-99 -170v-3q-16 0 -103 0.5t-111 0.5q20 190 165 310.5t354 120.5q194 0 323 -107.5t129 -270.5q0 -127 -86 -241.5t-332 -322.5l-387 -319l-4 -17h676l-40 -200h-998z" />
<glyph unicode="3" horiz-adv-x="1314" d="M155 365q0 19 3 44h213v-6q-3 -105 80.5 -172.5t217.5 -67.5q145 0 232.5 74.5t87.5 199.5q0 94 -79.5 153t-205.5 59h-157l37 186h203q125 0 208.5 72t83.5 180q0 88 -70 142.5t-183 54.5q-98 0 -177 -56t-107 -145h-214q38 179 179 287t339 108t328 -103.5t130 -260.5 q0 -142 -92.5 -245t-241.5 -128l-3 -17q120 -26 184.5 -102t64.5 -191q0 -205 -156 -335.5t-400 -130.5q-217 0 -360.5 114t-144.5 286z" />
<glyph unicode="4" horiz-adv-x="1352" d="M111 279l36 218q232 305 799 946h333l-206 -964h199l-40 -200h-199l-61 -279h-216l61 279h-706zM367 474h492l166 772h-13q-376 -418 -643 -758z" />
<glyph unicode="5" horiz-adv-x="1301" d="M174 372q0 12 2 32h214v-5q1 -106 80.5 -171.5t206.5 -65.5q147 0 239 97t92 247q0 119 -77 190.5t-196 71.5q-82 0 -153.5 -32.5t-119.5 -87.5h-213l243 795h833l-42 -200h-649l-125 -398l16 -2q113 105 279 105q179 0 302.5 -118t123.5 -297q0 -250 -154.5 -409 t-408.5 -159q-210 0 -351.5 117t-141.5 290z" />
<glyph unicode="6" horiz-adv-x="1341" d="M195 513q0 184 46.5 355t131.5 306q92 147 225.5 225.5t292.5 78.5q200 0 333 -115.5t140 -295.5h-225q-11 98 -82 155.5t-182 57.5q-156 0 -269.5 -135.5t-164.5 -381.5l17 -1q67 89 165 137.5t211 48.5q189 0 309.5 -117t120.5 -300q0 -157 -75 -287t-205.5 -204.5 t-288.5 -74.5q-231 0 -365.5 147.5t-134.5 400.5zM422 426q0 -118 77.5 -191t203.5 -73q141 0 238.5 100t97.5 245q0 113 -75.5 184.5t-194.5 71.5q-145 0 -246 -98t-101 -239z" />
<glyph unicode="7" horiz-adv-x="1193" d="M137 0l902 1227l3 17h-725l41 199h958l-41 -203l-894 -1240h-244z" />
<glyph unicode="8" horiz-adv-x="1347" d="M142 355q0 163 110 281t282 139l4 17q-88 39 -137.5 111t-49.5 158q0 180 145.5 298.5t365.5 118.5q197 0 332 -103.5t135 -255.5q0 -140 -89 -241.5t-234 -127.5l-4 -17q111 -41 174 -123.5t63 -188.5q0 -199 -161 -327.5t-409 -128.5q-231 0 -379 109t-148 281z M377 382q0 -106 81.5 -168t220.5 -62q144 0 238 78.5t94 199.5q0 103 -84 167.5t-218 64.5q-144 0 -238 -79.5t-94 -200.5zM568 1041q0 -89 70 -144.5t182 -55.5q122 0 203 72t81 181q0 88 -70.5 143t-183.5 55q-123 0 -202.5 -70.5t-79.5 -180.5z" />
<glyph unicode="9" horiz-adv-x="1341" d="M153 369h225q9 -94 81 -150t185 -56q157 0 271 135t164 380l-17 2q-67 -90 -164 -138t-211 -48q-190 0 -312 117.5t-122 301.5q0 158 74.5 287.5t205.5 203.5t291 74q231 0 364.5 -147t133.5 -402q0 -181 -46.5 -353.5t-131.5 -307.5q-92 -147 -225.5 -225t-291.5 -78 q-198 0 -332 113.5t-142 290.5zM479 935q0 -113 75.5 -184.5t194.5 -71.5q144 0 245 98t101 240q0 118 -77 190t-204 72q-141 0 -238 -99.5t-97 -244.5z" />
<glyph unicode=":" horiz-adv-x="645" d="M117 129q0 64 42 108t105 44t105 -43t42 -104q0 -64 -42 -107.5t-105 -43.5q-62 0 -104.5 43t-42.5 103zM276 885q0 63 42 107t105 44t105 -43t42 -104q0 -63 -42 -107t-105 -44q-62 0 -104.5 43.5t-42.5 103.5z" />
<glyph unicode=";" horiz-adv-x="645" d="M-20 -376l215 598h233l-268 -598h-180zM276 885q0 63 42 107t105 44t105 -43t42 -104q0 -63 -42 -107t-105 -44q-62 0 -104.5 43.5t-42.5 103.5z" />
<glyph unicode="&#x3c;" d="M269 532l37 183l1014 445l-49 -239l-766 -306l-3 -17l612 -396l-46 -231z" />
<glyph unicode="=" horiz-adv-x="1360" d="M159 270l39 197h1032l-40 -197h-1031zM247 698l40 197h1031l-39 -197h-1032z" />
<glyph unicode="&#x3e;" horiz-adv-x="1360" d="M149 -29l48 240l766 306l3 17l-612 395l47 231l798 -561l-36 -182z" />
<glyph unicode="?" horiz-adv-x="1083" d="M241 1073q32 175 156.5 279t320.5 104q193 0 313 -98t120 -245q0 -127 -78.5 -232.5t-209.5 -164.5q-109 -49 -155 -95t-60 -121l-10 -52h-212l16 74q25 126 83 193t179 121q115 53 166 114t51 142q0 72 -57.5 121.5t-158.5 49.5q-93 0 -160.5 -50.5t-93.5 -139.5h-210z M314 127q0 69 43.5 113t112.5 44q67 0 110.5 -42t43.5 -108q0 -67 -43 -112t-111 -45q-69 0 -112.5 42t-43.5 108z" />
<glyph unicode="@" horiz-adv-x="1887" d="M228 495q0 201 71 376.5t194 300t296 196.5t371 72q159 0 298 -50t238 -137.5t156 -210.5t57 -264q0 -179 -62 -327.5t-170 -233t-239 -84.5q-98 0 -162 47.5t-64 120.5q0 3 0.5 10t0.5 10l-17 -1q-78 -140 -241 -140q-139 0 -223 92t-84 244q0 138 53.5 253.5t147 182 t205.5 66.5q88 0 156 -46t84 -116l17 -1l26 125h175l-128 -583q-4 -24 -4 -34q0 -87 100 -87q70 0 133.5 70t102.5 185t39 240q0 230 -171.5 378.5t-437.5 148.5q-157 0 -299 -61.5t-244 -166.5t-162 -251t-60 -308q0 -275 191.5 -442t506.5 -166q125 0 193 20l-30 -142 q-103 -21 -214 -21q-174 0 -322.5 54.5t-253.5 150.5t-164.5 233t-59.5 297zM833 527q0 -86 46.5 -137t124.5 -51q104 0 177 92.5t73 222.5q0 91 -49 145.5t-129 54.5q-101 0 -172 -95.5t-71 -231.5z" />
<glyph unicode="A" horiz-adv-x="1423" d="M6 0l836 1443h232l212 -1443h-224l-50 383h-554l-215 -383h-237zM554 571h440l-82 608h-16z" />
<glyph unicode="B" horiz-adv-x="1373" d="M115 0l307 1443h532q185 0 297 -86t112 -229q0 -139 -87.5 -241t-229.5 -128l-4 -17q118 -21 185.5 -97t67.5 -188q0 -200 -156 -328.5t-398 -128.5h-626zM380 193h339q148 0 246 74.5t98 187.5q0 100 -69.5 151.5t-204.5 51.5h-308zM518 834h277q150 0 244.5 68 t94.5 176q0 177 -262 177h-262z" />
<glyph unicode="C" horiz-adv-x="1488" d="M193 560q0 197 58.5 367.5t160.5 291.5t245.5 190t308.5 69q239 0 398.5 -140t159.5 -350q0 -14 -1 -22h-223q1 1 1 7q-10 134 -105.5 214t-245.5 80q-146 0 -266.5 -90t-190 -248t-69.5 -349q0 -187 98.5 -296t266.5 -109q138 0 244.5 66t144.5 175h229 q-52 -208 -224 -329.5t-416 -121.5q-259 0 -416.5 162.5t-157.5 432.5z" />
<glyph unicode="D" horiz-adv-x="1504" d="M116 0l306 1443h442q291 0 453 -162.5t162 -449.5q0 -235 -97.5 -425.5t-269 -298t-382.5 -107.5h-614zM383 202h342q226 0 374.5 172t148.5 437q0 202 -110 316t-308 114h-221z" />
<glyph unicode="E" horiz-adv-x="1238" d="M115 0l307 1443h917l-41 -204h-690l-91 -408h654l-40 -194h-653l-96 -433h691l-40 -204h-918z" />
<glyph unicode="F" horiz-adv-x="1193" d="M115 0l307 1443h902l-42 -204h-674l-98 -443h618l-40 -198h-619l-127 -598h-227z" />
<glyph unicode="G" horiz-adv-x="1540" d="M195 567q0 262 99 470t275 324.5t397 116.5q230 0 388.5 -130t169.5 -328q1 -8 1 -35h-223q-9 128 -105 205t-247 77q-147 0 -267 -88.5t-188.5 -244.5t-68.5 -347q0 -190 102.5 -300.5t279.5 -110.5q161 0 278 93.5t149 247.5l9 42h-367l39 188h590l-40 -191 q-59 -288 -235 -439.5t-450 -151.5q-263 0 -424.5 165.5t-161.5 436.5z" />
<glyph unicode="H" horiz-adv-x="1552" d="M115 0l307 1443h227l-130 -606h737l130 606h228l-307 -1443h-229l137 633h-738l-136 -633h-226z" />
<glyph unicode="I" horiz-adv-x="587" d="M115 0l307 1443h227l-307 -1443h-227z" />
<glyph unicode="J" horiz-adv-x="1148" d="M92 357v13h222v-4q2 -86 57.5 -136.5t149.5 -50.5q193 0 246 243l218 1021h223l-225 -1063q-42 -201 -164.5 -308t-316.5 -107q-187 0 -303 111q-108 103 -108 257q0 12 1 24z" />
<glyph unicode="K" horiz-adv-x="1387" d="M115 0l307 1443h223l-145 -672h17l731 672h279l-690 -643l425 -800h-257l-349 657l-216 -194l-102 -463h-223z" />
<glyph unicode="L" horiz-adv-x="1184" d="M115 0l307 1443h227l-266 -1237h675l-42 -206h-901z" />
<glyph unicode="M" horiz-adv-x="1823" d="M115 0l307 1443h252l223 -1096h17l696 1096h275l-307 -1443h-212l225 1042h-14l-639 -1000h-170l-204 1000h-13l-225 -1042h-211z" />
<glyph unicode="N" horiz-adv-x="1539" d="M115 0l307 1443h196l514 -1055h17l229 1055h223l-307 -1443h-198l-514 1051h-17l-228 -1051h-222z" />
<glyph unicode="O" horiz-adv-x="1593" d="M194 569q0 260 102 468t281 324.5t401 116.5q174 0 310.5 -78t211 -215.5t74.5 -310.5q0 -196 -59 -365.5t-162.5 -288.5t-248.5 -187t-311 -68q-173 0 -310.5 78.5t-213 216t-75.5 309.5zM427 587q0 -185 104.5 -298t275.5 -113q151 0 273.5 88t191.5 243.5t69 347.5 q0 184 -104 297.5t-272 113.5q-150 0 -273.5 -89t-194 -244.5t-70.5 -345.5z" />
<glyph unicode="P" horiz-adv-x="1327" d="M115 0l307 1443h514q190 0 312.5 -111t122.5 -293q0 -169 -78 -295.5t-211.5 -192t-302.5 -65.5h-333l-104 -486h-227zM486 683h284q169 0 269.5 89.5t100.5 245.5q0 108 -72 167.5t-198 59.5h-261z" />
<glyph unicode="Q" horiz-adv-x="1593" d="M194 569q0 195 60 364.5t164 288.5t249 187.5t311 68.5q174 0 310 -78t211 -215.5t75 -310.5q0 -255 -99 -460.5t-275 -323.5l120 -243h-226l-77 149q-101 -31 -224 -31q-262 0 -430.5 171t-168.5 433zM426 587q0 -185 105 -298.5t275 -113.5q67 0 123 14l-128 254h223 l79 -142q113 87 176 232.5t63 322.5q0 185 -104.5 298.5t-272.5 113.5q-150 0 -274 -89t-194.5 -245.5t-70.5 -346.5z" />
<glyph unicode="R" horiz-adv-x="1367" d="M115 0l307 1443h524q198 0 318.5 -108.5t120.5 -285.5q0 -165 -102.5 -293t-273.5 -175l204 -581h-243l-182 550h-328l-118 -550h-227zM498 741h318q149 0 243 80.5t94 206.5q0 101 -63 159.5t-172 58.5h-309z" />
<glyph unicode="S" horiz-adv-x="1307" d="M115 405h221q22 -110 116.5 -175.5t230.5 -65.5q140 0 226 62.5t86 163.5q0 78 -57 131t-189 96l-142 48q-152 51 -235.5 150.5t-83.5 230.5q0 186 151 309t379 123q217 0 362.5 -120.5t159.5 -311.5h-219q-23 108 -106.5 171t-207.5 63t-205.5 -59.5t-81.5 -150.5 q0 -69 53 -121t165 -90l137 -47q180 -62 266 -157t86 -234q0 -204 -156 -330t-406 -126q-231 0 -379 117.5t-171 322.5z" />
<glyph unicode="T" horiz-adv-x="1312" d="M291 1239l41 204h1131l-41 -204h-452l-265 -1239h-228l266 1239h-452z" />
<glyph unicode="U" horiz-adv-x="1538" d="M225 423v8q0 55 13 119l187 893h228l-186 -882q-12 -60 -12 -112v-8q4 -124 86 -194.5t236 -70.5q150 0 255 86t139 239l201 942h227l-210 -992q-50 -232 -213 -359t-426 -127q-245 0 -384 128.5t-141 329.5z" />
<glyph unicode="V" horiz-adv-x="1415" d="M312 1443h224l155 -1159h17l629 1159h250l-820 -1443h-245z" />
<glyph unicode="W" horiz-adv-x="2013" d="M331 1443h214l43 -1105h14l539 1105h192l81 -1105h14l506 1105h231l-689 -1443h-218l-88 1059h-13l-527 -1059h-216z" />
<glyph unicode="X" horiz-adv-x="1427" d="M25 0l645 749l-318 694h254l236 -539h16l469 539h253l-644 -729l329 -714h-245l-251 542h-16l-478 -542h-250z" />
<glyph unicode="Y" horiz-adv-x="1383" d="M312 1443h234l242 -631h17l497 631h251l-693 -881l-120 -562h-227l126 582z" />
<glyph unicode="Z" horiz-adv-x="1365" d="M76 0l32 161l1000 1061l3 17h-746l41 204h1041l-32 -161l-998 -1061l-2 -17h785l-41 -204h-1083z" />
<glyph unicode="[" horiz-adv-x="791" d="M77 -240l358 1684h496l-35 -174h-288l-288 -1337h300l-35 -173h-508z" />
<glyph unicode="\" horiz-adv-x="733" d="M301 1443h189l52 -1752h-187z" />
<glyph unicode="]" horiz-adv-x="790" d="M-18 -240l35 174h290l288 1337h-297l35 172h506l-358 -1683h-499z" />
<glyph unicode="^" horiz-adv-x="885" d="M164 818l411 606h210l153 -606h-193l-88 424h-17l-272 -424h-204z" />
<glyph unicode="_" horiz-adv-x="926" d="M-129 -278l33 171h941l-34 -171h-940z" />
<glyph unicode="`" horiz-adv-x="1085" d="M557 1615h247l191 -344h-216z" />
<glyph unicode="a" horiz-adv-x="1153" d="M98 281q0 163 123.5 258t350.5 103l295 12l15 71q6 31 6 46q0 71 -57 111.5t-157 40.5q-83 0 -140.5 -30.5t-81.5 -88.5h-215q35 141 158 223.5t296 82.5q186 0 299 -85.5t113 -226.5q0 -46 -9 -88l-150 -710h-209l30 139h-17q-54 -73 -139 -115t-182 -42 q-141 0 -235 85.5t-94 213.5zM314 310q0 -65 53.5 -107t138.5 -42q110 0 195.5 63.5t107.5 159.5l25 112l-265 -12q-120 -5 -187.5 -51.5t-67.5 -122.5z" />
<glyph unicode="b" horiz-adv-x="1288" d="M97 0l322 1514h215l-121 -575h17q121 168 336 168q165 0 272.5 -117t107.5 -302q0 -198 -72.5 -360t-199 -254t-279.5 -92q-114 0 -206.5 60.5t-123.5 156.5h-17l-43 -199h-208zM414 447q0 -126 67.5 -198t182.5 -72q152 0 255 136t103 339q0 125 -64 194t-176 69 q-154 0 -261 -136.5t-107 -331.5z" />
<glyph unicode="c" horiz-adv-x="1161" d="M148 439q0 190 74 343t207.5 240.5t301.5 87.5q170 0 288.5 -94.5t139.5 -232.5q2 -14 4 -46h-212q-7 80 -73.5 130.5t-162.5 50.5q-150 0 -248.5 -130.5t-98.5 -325.5q0 -137 67.5 -213.5t180.5 -76.5q94 0 161.5 43t95.5 122h215q-32 -158 -165.5 -258t-322.5 -100 q-205 0 -328.5 126t-123.5 334z" />
<glyph unicode="d" horiz-adv-x="1293" d="M144 416q0 196 74 355t201.5 247.5t281.5 88.5q118 0 205 -59t115 -153h17l131 619h218l-322 -1514h-208l32 150h-17q-59 -79 -147.5 -123.5t-191.5 -44.5q-167 0 -278 118.5t-111 315.5zM368 452q0 -125 68.5 -201.5t178.5 -76.5q154 0 259.5 136t105.5 332 q0 126 -68 198t-182 72q-154 0 -258 -130.5t-104 -329.5z" />
<glyph unicode="e" horiz-adv-x="1203" d="M149 440q0 299 160 484.5t414 185.5q184 0 306.5 -121t123.5 -326q0 -78 -14 -170h-775q-1 -14 -1 -44q0 -140 75 -211t181 -71q185 0 252 126h218q-36 -140 -165 -227t-319 -87q-130 0 -232 53t-163 159t-61 249zM390 651h547q3 18 3 43q0 100 -61.5 166.5t-169.5 66.5 q-114 0 -199 -75t-120 -201z" />
<glyph unicode="f" horiz-adv-x="775" d="M166 0l191 903h-178l37 181h176l22 114q31 161 123.5 233.5t261.5 72.5q66 0 143 -15l-34 -171q-37 10 -110 10q-141 0 -170 -149l-19 -95h239l-36 -181h-237l-190 -903h-219z" />
<glyph unicode="g" horiz-adv-x="1276" d="M54 -96h221q10 -62 77.5 -102.5t175.5 -40.5q129 0 205.5 58t100.5 161l46 197l-17 1q-114 -160 -325 -160q-167 0 -278 118.5t-111 306.5q0 189 71 341.5t194.5 237.5t274.5 85q114 0 207.5 -60t124.5 -154h17l42 196h209l-245 -1138q-36 -171 -175.5 -268.5 t-355.5 -97.5q-197 0 -325 92t-134 227zM372 474q0 -128 66 -202t179 -74q152 0 253.5 125.5t101.5 318.5q0 124 -69 197t-185 73q-151 0 -248.5 -121t-97.5 -317z" />
<glyph unicode="h" horiz-adv-x="1267" d="M97 0l323 1510h217l-127 -584h17q124 183 337 183q154 0 249.5 -93.5t95.5 -227.5q0 -57 -14 -127l-140 -661h-217l133 623q12 60 12 96q0 90 -60 143.5t-162 53.5q-115 0 -198.5 -72t-108.5 -186l-140 -658h-217z" />
<glyph unicode="i" horiz-adv-x="546" d="M98 0l233 1089h218l-232 -1089h-219zM369 1410q0 56 39.5 94.5t99.5 38.5t99.5 -37.5t39.5 -92.5q0 -56 -39.5 -94.5t-99.5 -38.5t-99.5 37.5t-39.5 92.5z" />
<glyph unicode="j" horiz-adv-x="546" d="M-170 -380l38 184q40 -4 57 -4q71 0 108.5 33t53.5 110l245 1146h215l-251 -1173q-64 -303 -367 -303q-57 0 -99 7zM369 1410q0 56 39.5 94.5t99.5 38.5t99.5 -37.5t39.5 -92.5q0 -56 -39.5 -94.5t-99.5 -38.5t-99.5 37.5t-39.5 92.5z" />
<glyph unicode="k" horiz-adv-x="1131" d="M97 0l322 1514h216l-182 -854h17l510 429h268l-552 -472l350 -617h-244l-280 490l-123 -94l-85 -396h-217z" />
<glyph unicode="l" horiz-adv-x="544" d="M97 0l322 1514h218l-321 -1514h-219z" />
<glyph unicode="m" horiz-adv-x="1822" d="M88 0l231 1093h209l-36 -173h16q47 85 129.5 137.5t174.5 52.5q112 0 188.5 -58t96.5 -139h17q56 90 144 143.5t205 53.5q133 0 219.5 -84.5t86.5 -214.5q0 -57 -14 -127l-145 -684h-217l138 647q12 62 12 96q0 75 -48 124t-131 49q-92 0 -166.5 -65.5t-98.5 -176.5 l-143 -674h-213l137 647q12 62 12 96q0 75 -48 124t-131 49q-91 0 -165.5 -64.5t-97.5 -169.5l-145 -682h-217z" />
<glyph unicode="n" horiz-adv-x="1249" d="M88 0l231 1093h209l-35 -167h17q55 83 141 133.5t199 50.5q152 0 247 -93.5t95 -228.5q0 -60 -15 -127l-139 -661h-217l132 623q12 54 12 96q0 88 -59 142.5t-158 54.5q-113 0 -195.5 -72t-107.5 -186l-140 -658h-217z" />
<glyph unicode="o" horiz-adv-x="1243" d="M148 441q0 137 41.5 259t116.5 213t187 144t245 53q206 0 331.5 -128t125.5 -333q0 -180 -69.5 -331.5t-205.5 -245t-313 -93.5q-206 0 -332.5 128t-126.5 334zM374 456q0 -127 68 -206t186 -79q136 0 238 129t102 319q0 141 -65.5 220.5t-180.5 79.5 q-157 0 -252.5 -131.5t-95.5 -331.5z" />
<glyph unicode="p" horiz-adv-x="1283" d="M16 -353l307 1442h208l-31 -150h16q59 79 149 123.5t194 44.5q165 0 273.5 -117.5t108.5 -301.5q0 -148 -43 -279.5t-116.5 -225t-176 -147.5t-217.5 -54q-117 0 -204 60t-116 157h-16l-120 -552h-216zM409 447q0 -126 67.5 -198t181.5 -72q153 0 256 136t103 339 q0 125 -64 194t-176 69q-154 0 -261 -136.5t-107 -331.5z" />
<glyph unicode="q" horiz-adv-x="1282" d="M144 413q0 145 43 274t116.5 221t176 145.5t217.5 53.5t207 -60t123 -152h16l42 194h208l-306 -1442h-215l106 503h-17q-123 -168 -337 -168q-165 0 -272.5 120t-107.5 311zM367 449q0 -131 64 -203t176 -72q154 0 261 136.5t107 331.5q0 126 -67.5 198t-181.5 72 q-153 0 -256 -132.5t-103 -330.5z" />
<glyph unicode="r" horiz-adv-x="833" d="M81 0l232 1089h208l-30 -143h17q101 161 283 161q89 0 132 -18l-45 -210q-64 20 -147 20q-122 0 -195.5 -67t-104.5 -207l-133 -625h-217z" />
<glyph unicode="s" horiz-adv-x="1087" d="M92 301h215q18 -66 80.5 -107t154.5 -41q101 0 164 40.5t63 105.5q0 44 -29 75.5t-98 53.5l-167 56q-129 43 -191.5 112.5t-62.5 176.5q0 150 119 243.5t304 93.5q180 0 293 -84t131 -225h-206q-14 62 -73 98t-147 36q-91 0 -150 -39.5t-59 -100.5q0 -85 141 -130 l157 -54q135 -44 196 -113.5t61 -177.5q0 -150 -126.5 -245.5t-324.5 -95.5q-190 0 -312.5 89t-132.5 233z" />
<glyph unicode="t" horiz-adv-x="781" d="M180 899l37 181h179l56 269h217l-57 -269h244l-36 -181h-244l-116 -535q-11 -49 -11 -82q0 -108 142 -108q33 0 63 3l-37 -179q-53 -8 -103 -8q-138 0 -216 57.5t-78 167.5q0 41 11 94l128 590h-179z" />
<glyph unicode="u" horiz-adv-x="1247" d="M160 296q0 63 15 140l136 653h218l-131 -618q-13 -63 -13 -106q0 -94 53 -141.5t154 -47.5q117 0 202.5 74t111.5 193l138 646h216l-230 -1089h-208l34 155h-17q-48 -80 -137.5 -128t-205.5 -48q-148 0 -242 88.5t-94 228.5z" />
<glyph unicode="v" horiz-adv-x="1136" d="M228 1089h217l103 -835h17l441 835h235l-618 -1089h-237z" />
<glyph unicode="w" horiz-adv-x="1640" d="M231 1089h202l34 -824h16l391 824h214l46 -831h16l374 831h216l-531 -1089h-224l-57 797h-17l-391 -797h-221z" />
<glyph unicode="x" horiz-adv-x="1117" d="M9 0l476 550l-248 539h235l160 -382h17l313 382h248l-475 -545l248 -544h-226l-169 383h-17l-316 -383h-246z" />
<glyph unicode="y" horiz-adv-x="1146" d="M25 -388l33 185q31 -9 95 -9q63 0 112 35.5t95 119.5l33 60l-164 1086h216l105 -842h17l448 842h233l-666 -1173q-97 -177 -194 -245t-240 -68q-57 0 -123 9z" />
<glyph unicode="z" horiz-adv-x="1124" d="M66 0l30 146l737 744l2 17h-571l38 182h852l-34 -157l-719 -733l-3 -17h567l-37 -182h-862z" />
<glyph unicode="{" horiz-adv-x="860" d="M151 498l47 229q97 0 145 46t74 165l53 239q39 183 157 263t325 80h67l-35 -175h-45q-122 0 -185 -50t-88 -167l-59 -270q-25 -114 -83.5 -171t-157.5 -66l-3 -17q69 -13 108 -55.5t39 -109.5q0 -33 -10 -83l-65 -301q-11 -50 -11 -83q0 -71 45.5 -104t144.5 -33h45 l-35 -171h-66q-159 0 -253 68.5t-94 181.5q0 57 14 117l56 258q12 57 12 96q0 61 -33.5 87t-108.5 26z" />
<glyph unicode="|" horiz-adv-x="703" d="M124 -310l373 1753h191l-373 -1753h-191z" />
<glyph unicode="}" horiz-adv-x="860" d="M-38 -336l35 175h45q122 0 185.5 50t88.5 167l59 270q24 113 82.5 170.5t157.5 67.5l3 17q-69 13 -108 55t-39 109q0 33 10 83l66 301q10 53 10 83q0 71 -45 104t-145 33h-45l35 171h66q160 0 253.5 -68.5t93.5 -180.5q0 -56 -13 -118l-57 -258q-12 -55 -12 -95 q0 -62 33.5 -88t108.5 -26l-46 -229q-98 0 -146 -46t-74 -164l-53 -240q-39 -183 -157 -263t-324 -80h-68z" />
<glyph unicode="~" horiz-adv-x="1210" d="M49 565q23 175 113 271t214 96q56 0 104 -24t81 -58t61.5 -67.5t59 -57.5t61.5 -24q102 0 133 164h192q-23 -176 -111.5 -271.5t-213.5 -95.5q-57 0 -105.5 23.5t-81.5 57.5t-62 68t-59.5 57.5t-61.5 23.5q-52 0 -84 -39.5t-48 -123.5h-192z" />
<glyph unicode="&#xa1;" horiz-adv-x="669" d="M76 -333l226 966h202l-185 -966h-243zM324 979q0 67 43 111t111 44t111 -43.5t43 -106.5q0 -67 -43 -111.5t-111 -44.5t-111 43.5t-43 107.5z" />
<glyph unicode="&#xa2;" d="M275 619q0 276 151.5 464t389.5 206l33 156h197l-37 -176q114 -37 188 -119t89 -187q2 -13 4 -45h-212q-7 80 -73 130.5t-162 50.5q-150 0 -248.5 -131t-98.5 -326q0 -138 67 -215.5t180 -77.5q94 0 161.5 42.5t95.5 121.5h215q-30 -148 -149.5 -245.5t-292.5 -110.5 l-38 -180h-197l42 200q-142 42 -223.5 159t-81.5 283z" />
<glyph unicode="&#xa3;" horiz-adv-x="1360" d="M90 2l39 198q64 8 128.5 37.5t121 76.5t92.5 117t39 151q0 31 -4 64h-313l35 175h264q-13 128 -13 174q0 227 142.5 355t421.5 128q98 0 203.5 -20.5t166.5 -49.5l-41 -193q-48 27 -138.5 46t-176.5 19q-164 0 -257 -72t-93 -215q0 -62 11 -172h412l-35 -175h-366 q2 -30 2 -43q-1 -154 -70 -250t-190 -135l-3 -16h746l-40 -200h-1084z" />
<glyph unicode="&#xa5;" horiz-adv-x="1360" d="M279 242l31 150h276l32 152h-275l31 150h215l-288 749h233l242 -631h17l497 631h252l-594 -749h200l-32 -150h-272l-33 -152h273l-32 -150h-271l-51 -242h-228l52 242h-275z" />
<glyph unicode="&#xa7;" horiz-adv-x="1032" d="M42 52h204q15 -66 72.5 -107.5t141.5 -41.5q93 0 151 42t58 108q0 46 -26 78.5t-91 57.5l-152 64q-237 97 -237 288q0 108 73 184.5t194 102.5l3 18q-81 51 -116 106t-35 133q0 146 112.5 237t287.5 91q168 0 274.5 -86t123.5 -229h-199q-11 64 -65.5 102.5t-135.5 38.5 q-84 0 -138 -40.5t-54 -103.5q0 -85 129 -135l136 -60q124 -51 184 -118.5t60 -168.5q0 -105 -70.5 -187.5t-191.5 -109.5l-3 -14q80 -51 113 -106t33 -133q0 -146 -119.5 -240t-304.5 -94q-171 0 -288 90t-124 233zM367 575q0 -93 132 -145l97 -43q88 17 141 67t53 118 q0 100 -118 146l-93 40q-91 -11 -151.5 -61.5t-60.5 -121.5z" />
<glyph unicode="&#xa8;" horiz-adv-x="1085" d="M427 1399q0 57 38.5 96t94.5 39q57 0 95.5 -39t38.5 -96t-38.5 -95.5t-95.5 -38.5q-56 0 -94.5 38.5t-38.5 95.5zM854 1399q0 57 38.5 96t94.5 39q57 0 95.5 -39t38.5 -96t-38.5 -95.5t-95.5 -38.5q-56 0 -94.5 38.5t-38.5 95.5z" />
<glyph unicode="&#xa9;" horiz-adv-x="1742" d="M163 561q0 182 67.5 343.5t184 276.5t279 182t346.5 67q155 0 292 -54.5t234.5 -149.5t154 -227.5t56.5 -282.5q0 -244 -114.5 -443.5t-316 -313.5t-447.5 -114q-152 0 -288 56t-234.5 151t-156 228t-57.5 281zM315 574q0 -162 78.5 -295t215.5 -209t304 -76 q146 0 278 55.5t227 150t151 226t56 276.5q0 164 -77.5 296.5t-214 207.5t-306.5 75q-146 0 -278 -55.5t-227 -150t-151 -225.5t-56 -276zM596 578q0 206 119 341.5t301 135.5q138 0 225 -76.5t91 -199.5h-151q-4 62 -53 101.5t-121 39.5q-109 0 -182.5 -95.5t-73.5 -236.5 q0 -100 49 -157.5t135 -57.5q140 0 186 113h155q-27 -115 -122.5 -183t-228.5 -68q-148 0 -238.5 94.5t-90.5 248.5z" />
<glyph unicode="&#xaa;" horiz-adv-x="974" d="M183 770q0 137 103 216t291 85l243 8q9 45 13 57q5 30 4 38q1 56 -43.5 87.5t-122.5 31.5q-135 0 -174 -92h-198q31 122 133 191.5t250 69.5q162 0 259 -73.5t97 -195.5q0 -41 -7 -73l-126 -590h-194l23 111l-15 1q-43 -59 -112 -92t-149 -33q-119 0 -197 71.5t-78 181.5 zM384 797q0 -52 42 -85t110 -33q86 0 152.5 49t83.5 125l19 88l-206 -8q-95 -5 -148 -40.5t-53 -95.5z" />
<glyph unicode="&#xab;" horiz-adv-x="1410" d="M200 561l2 8l431 414h248l-448 -429l-2 -13l247 -393h-216zM690 561l2 8l435 414h243l-448 -431l-3 -14l249 -390h-216z" />
<glyph unicode="&#xac;" horiz-adv-x="1360" d="M227 484l39 196h983l-121 -583h-186l82 387h-797z" />
<glyph unicode="&#xad;" horiz-adv-x="976" d="M196 476l43 211h656l-42 -211h-657z" />
<glyph unicode="&#xae;" horiz-adv-x="1261" d="M229 891q0 219 153 371.5t372 152.5q146 0 266.5 -68.5t189.5 -189t69 -266.5q0 -143 -69.5 -263.5t-190.5 -190t-265 -69.5q-146 0 -266.5 68.5t-189.5 188.5t-69 266zM344 891q0 -173 117 -290.5t291 -117.5q172 0 292.5 119t120.5 289q0 174 -118 291t-293 117 q-171 0 -290.5 -118.5t-119.5 -289.5zM494 659l105 494h243q66 0 110.5 -41t44.5 -98q0 -66 -40.5 -110.5t-105.5 -56.5l91 -188h-128l-85 175h-90l-38 -175h-107zM658 923h116q102 0 102 77q0 25 -18.5 41t-53.5 16h-117z" />
<glyph unicode="&#xaf;" horiz-adv-x="1086" d="M405 1299l32 155h696l-32 -155h-696z" />
<glyph unicode="&#xb0;" horiz-adv-x="815" d="M304 1187q0 122 84.5 207.5t205.5 85.5t206 -85.5t85 -207.5t-85 -207.5t-206 -85.5t-205.5 85.5t-84.5 207.5zM445 1187q0 -60 44.5 -103t104.5 -43q62 0 106 43t44 103q0 61 -44 103.5t-106 42.5q-60 0 -104.5 -43t-44.5 -103z" />
<glyph unicode="&#xb1;" horiz-adv-x="1360" d="M130 94l36 182h1011l-37 -182h-1010zM249 657l35 174h411l59 266h188l-59 -266h412l-35 -174h-412l-58 -267h-188l58 267h-411z" />
<glyph unicode="&#xb2;" horiz-adv-x="877" d="M236 898l32 155l344 269q128 99 169 146.5t41 94.5t-35 76.5t-90 29.5q-58 0 -100 -35t-53 -94v-2h-191q11 131 112.5 215t249.5 84q136 0 224 -72t88 -182q0 -83 -55 -155.5t-209 -189.5q-192 -149 -205 -158l-2 -11h388l-35 -171h-673z" />
<glyph unicode="&#xb3;" horiz-adv-x="895" d="M270 1181h195q-1 -60 40.5 -97t110.5 -37q73 0 117.5 37.5t44.5 99.5q0 48 -40 78.5t-104 30.5h-99l30 151h119q68 0 112 35.5t44 90.5q0 46 -36.5 74t-95.5 28q-53 0 -93.5 -28t-55.5 -74h-190q25 122 122 194.5t234 72.5q138 0 227 -68.5t89 -173.5q0 -89 -61 -153.5 t-155 -75.5l-1 -12q76 -17 117.5 -66t41.5 -123q0 -128 -103.5 -210t-264.5 -82q-163 0 -262 88.5t-83 219.5z" />
<glyph unicode="&#xb4;" horiz-adv-x="1085" d="M495 1271l324 344h252l-354 -344h-222z" />
<glyph unicode="&#xb6;" horiz-adv-x="1399" d="M328 920q0 229 162.5 374t423.5 149h233l-357 -1680h-216l164 762q-183 7 -296.5 117t-113.5 278zM945 -237l356 1680h216l-356 -1680h-216z" />
<glyph unicode="&#xb7;" horiz-adv-x="663" d="M267 734q0 70 43.5 115.5t113.5 45.5q69 0 112 -44.5t43 -111.5q0 -70 -43 -115t-112 -45q-70 0 -113.5 44t-43.5 111z" />
<glyph unicode="&#xb8;" horiz-adv-x="1086" d="M180 -456l25 119q63 -27 145 -27q46 0 72.5 17t26.5 47q0 67 -127 67h-54l14 102l107 166h156l-105 -165q172 -23 172 -160q0 -90 -70.5 -146t-182.5 -56q-100 0 -179 36z" />
<glyph unicode="&#xb9;" horiz-adv-x="708" d="M328 1453l41 199l269 160h207l-194 -914h-208l151 705h-12z" />
<glyph unicode="&#xba;" horiz-adv-x="1053" d="M222 916q0 235 145 392.5t362 157.5q181 0 285.5 -111t104.5 -303q0 -235 -144.5 -392t-359.5 -157q-181 0 -287 111.5t-106 301.5zM435 929q0 -116 52 -181.5t144 -65.5q115 0 195.5 106.5t80.5 258.5q0 111 -53 175t-144 64q-117 0 -196 -102.5t-79 -254.5z" />
<glyph unicode="&#xbb;" horiz-adv-x="1413" d="M150 148l449 431l2 14l-249 390h216l262 -414l-2 -8l-434 -413h-244zM642 148l447 429l3 13l-248 393h217l262 -414l-2 -8l-432 -413h-247z" />
<glyph unicode="&#xbf;" horiz-adv-x="1082" d="M36 -2q0 127 78.5 232.5t209.5 164.5q110 49 156 94.5t60 120.5l10 52h212l-16 -73q-25 -127 -83.5 -193.5t-178.5 -120.5q-115 -54 -166.5 -115t-51.5 -141q0 -72 58 -121.5t159 -49.5q93 0 160 50t93 139h210q-31 -174 -155.5 -278t-320.5 -104q-193 0 -313.5 98 t-120.5 245zM563 977q0 67 43.5 112t111.5 45t111.5 -42t43.5 -107q0 -69 -43.5 -113.5t-111.5 -44.5t-111.5 42t-43.5 108z" />
<glyph unicode="&#xc0;" horiz-adv-x="1423" d="M6 0l836 1443h232l212 -1443h-224l-50 383h-554l-215 -383h-237zM554 571h440l-82 608h-16zM665 1888h242l181 -306h-213z" />
<glyph unicode="&#xc1;" horiz-adv-x="1423" d="M6 0l836 1443h232l212 -1443h-224l-50 383h-554l-215 -383h-237zM554 571h440l-82 608h-16zM876 1582l362 306h258l-390 -306h-230z" />
<glyph unicode="&#xc2;" horiz-adv-x="1423" d="M6 0l836 1443h232l212 -1443h-224l-50 383h-554l-215 -383h-237zM554 571h440l-82 608h-16zM608 1582l316 314h234l185 -314h-208l-100 188h-17l-179 -188h-231z" />
<glyph unicode="&#xc3;" horiz-adv-x="1423" d="M6 0l836 1443h232l212 -1443h-224l-50 383h-554l-215 -383h-237zM554 571h440l-82 608h-16zM605 1619q19 123 91.5 193.5t171.5 70.5q46 0 85.5 -16t67.5 -38.5t52 -45.5t49 -39t49 -16q86 0 108 112h156q-18 -122 -90.5 -193t-171.5 -71q-46 0 -86.5 16t-68 39 t-51.5 45.5t-49 38.5t-49 16q-86 0 -108 -112h-156z" />
<glyph unicode="&#xc4;" horiz-adv-x="1423" d="M6 0l836 1443h232l212 -1443h-224l-50 383h-554l-215 -383h-237zM554 571h440l-82 608h-16zM668 1711q0 57 38.5 96t94.5 39q57 0 95.5 -39t38.5 -96t-38.5 -95.5t-95.5 -38.5q-56 0 -94.5 38.5t-38.5 95.5zM1095 1711q0 57 38.5 96t94.5 39q57 0 95.5 -39t38.5 -96 t-38.5 -95.5t-95.5 -38.5q-56 0 -94.5 38.5t-38.5 95.5z" />
<glyph unicode="&#xc5;" horiz-adv-x="1423" d="M6 0l836 1443h232l212 -1443h-224l-50 383h-554l-215 -383h-237zM554 571h440l-82 608h-16zM798 1808q0 99 68.5 166t168.5 67t168.5 -67t68.5 -166t-69 -166.5t-168 -67.5t-168 67.5t-69 166.5zM919 1808q0 -50 33 -82.5t83 -32.5t83 32.5t33 82.5q0 49 -33 81.5 t-83 32.5t-83 -32.5t-33 -81.5z" />
<glyph unicode="&#xc6;" horiz-adv-x="1999" d="M5 0l938 1443h1163l-42 -204h-655l-91 -415h619l-40 -195h-618l-95 -425h656l-41 -204h-871l92 417h-505l-280 -417h-230zM629 606h429l139 647h-141z" />
<glyph unicode="&#xc7;" horiz-adv-x="1490" d="M193 560q0 197 58.5 367.5t160.5 291.5t245.5 190t308.5 69q239 0 398.5 -140t159.5 -350q0 -14 -1 -22h-223q1 1 1 7q-10 134 -105.5 214t-245.5 80q-146 0 -266.5 -90t-190 -248t-69.5 -349q0 -187 98.5 -296t266.5 -109q138 0 244.5 66t144.5 175h229 q-47 -190 -196.5 -309t-365.5 -139l-63 -99q172 -23 172 -160q0 -90 -70.5 -146t-182.5 -56q-100 0 -179 36l25 119q63 -27 145 -27q46 0 72.5 17t26.5 47q0 67 -127 67h-54l14 102l65 101q-227 25 -361.5 184t-134.5 407z" />
<glyph unicode="&#xc8;" horiz-adv-x="1239" d="M115 0l307 1443h917l-41 -204h-690l-91 -408h654l-40 -194h-653l-96 -433h691l-40 -204h-918zM587 1888h242l181 -306h-213z" />
<glyph unicode="&#xc9;" horiz-adv-x="1239" d="M115 0l307 1443h917l-41 -204h-690l-91 -408h654l-40 -194h-653l-96 -433h691l-40 -204h-918zM798 1582l362 306h258l-390 -306h-230z" />
<glyph unicode="&#xca;" horiz-adv-x="1239" d="M115 0l307 1443h917l-41 -204h-690l-91 -408h654l-40 -194h-653l-96 -433h691l-40 -204h-918zM530 1582l316 314h234l185 -314h-208l-100 188h-17l-179 -188h-231z" />
<glyph unicode="&#xcb;" horiz-adv-x="1239" d="M115 0l307 1443h917l-41 -204h-690l-91 -408h654l-40 -194h-653l-96 -433h691l-40 -204h-918zM590 1711q0 57 38.5 96t94.5 39q57 0 95.5 -39t38.5 -96t-38.5 -95.5t-95.5 -38.5q-56 0 -94.5 38.5t-38.5 95.5zM1017 1711q0 57 38.5 96t94.5 39q57 0 95.5 -39t38.5 -96 t-38.5 -95.5t-95.5 -38.5q-56 0 -94.5 38.5t-38.5 95.5z" />
<glyph unicode="&#xcc;" horiz-adv-x="587" d="M115 0l307 1443h227l-307 -1443h-227zM243 1888h242l181 -306h-213z" />
<glyph unicode="&#xcd;" horiz-adv-x="587" d="M115 0l307 1443h227l-307 -1443h-227zM454 1582l362 306h258l-390 -306h-230z" />
<glyph unicode="&#xce;" horiz-adv-x="587" d="M115 0l307 1443h227l-307 -1443h-227zM186 1582l316 314h234l185 -314h-208l-100 188h-17l-179 -188h-231z" />
<glyph unicode="&#xcf;" horiz-adv-x="587" d="M115 0l307 1443h227l-307 -1443h-227zM246 1711q0 57 38.5 96t94.5 39q57 0 95.5 -39t38.5 -96t-38.5 -95.5t-95.5 -38.5q-56 0 -94.5 38.5t-38.5 95.5zM673 1711q0 57 38.5 96t94.5 39q57 0 95.5 -39t38.5 -96t-38.5 -95.5t-95.5 -38.5q-56 0 -94.5 38.5t-38.5 95.5z " />
<glyph unicode="&#xd0;" horiz-adv-x="1497" d="M62 643l39 191h192l129 609h442q291 0 453 -162.5t162 -449.5q0 -235 -97.5 -425.5t-269 -298t-382.5 -107.5h-614l136 643h-190zM383 202h342q226 0 374.5 172t148.5 437q0 202 -110 316t-308 114h-221l-89 -407h192l-39 -191h-194z" />
<glyph unicode="&#xd1;" horiz-adv-x="1539" d="M115 0l307 1443h196l514 -1055h17l229 1055h223l-307 -1443h-198l-514 1051h-17l-228 -1051h-222zM658 1619q19 123 91.5 193.5t171.5 70.5q46 0 85.5 -16t67.5 -38.5t52 -45.5t49 -39t49 -16q86 0 108 112h156q-18 -122 -90.5 -193t-171.5 -71q-46 0 -86.5 16t-68 39 t-51.5 45.5t-49 38.5t-49 16q-86 0 -108 -112h-156z" />
<glyph unicode="&#xd2;" horiz-adv-x="1593" d="M194 569q0 260 102 468t281 324.5t401 116.5q174 0 310.5 -78t211 -215.5t74.5 -310.5q0 -196 -59 -365.5t-162.5 -288.5t-248.5 -187t-311 -68q-173 0 -310.5 78.5t-213 216t-75.5 309.5zM427 587q0 -185 104.5 -298t275.5 -113q151 0 273.5 88t191.5 243.5t69 347.5 q0 184 -104 297.5t-272 113.5q-150 0 -273.5 -89t-194 -244.5t-70.5 -345.5zM683 1886h242l181 -306h-213z" />
<glyph unicode="&#xd3;" horiz-adv-x="1593" d="M194 569q0 260 102 468t281 324.5t401 116.5q174 0 310.5 -78t211 -215.5t74.5 -310.5q0 -196 -59 -365.5t-162.5 -288.5t-248.5 -187t-311 -68q-173 0 -310.5 78.5t-213 216t-75.5 309.5zM427 587q0 -185 104.5 -298t275.5 -113q151 0 273.5 88t191.5 243.5t69 347.5 q0 184 -104 297.5t-272 113.5q-150 0 -273.5 -89t-194 -244.5t-70.5 -345.5zM894 1580l362 306h258l-390 -306h-230z" />
<glyph unicode="&#xd4;" horiz-adv-x="1593" d="M194 569q0 260 102 468t281 324.5t401 116.5q174 0 310.5 -78t211 -215.5t74.5 -310.5q0 -196 -59 -365.5t-162.5 -288.5t-248.5 -187t-311 -68q-173 0 -310.5 78.5t-213 216t-75.5 309.5zM427 587q0 -185 104.5 -298t275.5 -113q151 0 273.5 88t191.5 243.5t69 347.5 q0 184 -104 297.5t-272 113.5q-150 0 -273.5 -89t-194 -244.5t-70.5 -345.5zM626 1580l316 314h234l185 -314h-208l-100 188h-17l-179 -188h-231z" />
<glyph unicode="&#xd5;" horiz-adv-x="1593" d="M194 569q0 260 102 468t281 324.5t401 116.5q174 0 310.5 -78t211 -215.5t74.5 -310.5q0 -196 -59 -365.5t-162.5 -288.5t-248.5 -187t-311 -68q-173 0 -310.5 78.5t-213 216t-75.5 309.5zM427 587q0 -185 104.5 -298t275.5 -113q151 0 273.5 88t191.5 243.5t69 347.5 q0 184 -104 297.5t-272 113.5q-150 0 -273.5 -89t-194 -244.5t-70.5 -345.5zM623 1617q19 123 91.5 193.5t171.5 70.5q46 0 85.5 -16t67.5 -38.5t52 -45.5t49 -39t49 -16q86 0 108 112h156q-18 -122 -90.5 -193t-171.5 -71q-46 0 -86.5 16t-68 39t-51.5 45.5t-49 38.5 t-49 16q-86 0 -108 -112h-156z" />
<glyph unicode="&#xd6;" horiz-adv-x="1593" d="M194 569q0 260 102 468t281 324.5t401 116.5q174 0 310.5 -78t211 -215.5t74.5 -310.5q0 -196 -59 -365.5t-162.5 -288.5t-248.5 -187t-311 -68q-173 0 -310.5 78.5t-213 216t-75.5 309.5zM427 587q0 -185 104.5 -298t275.5 -113q151 0 273.5 88t191.5 243.5t69 347.5 q0 184 -104 297.5t-272 113.5q-150 0 -273.5 -89t-194 -244.5t-70.5 -345.5zM686 1709q0 57 38.5 96t94.5 39q57 0 95.5 -39t38.5 -96t-38.5 -95.5t-95.5 -38.5q-56 0 -94.5 38.5t-38.5 95.5zM1113 1709q0 57 38.5 96t94.5 39q57 0 95.5 -39t38.5 -96t-38.5 -95.5 t-95.5 -38.5q-56 0 -94.5 38.5t-38.5 95.5z" />
<glyph unicode="&#xd8;" horiz-adv-x="1566" d="M194 569q0 260 102 468t281 324.5t401 116.5q180 0 320 -84l74 102l101 -64l-80 -110q87 -82 134 -197t47 -251q0 -196 -59 -365.5t-162.5 -288.5t-248.5 -187t-311 -68q-181 0 -323 86l-78 -107l-101 71l81 111q-85 82 -131.5 196t-46.5 247zM427 587q0 -162 83 -272 l655 897q-86 54 -200 54q-150 0 -273.5 -89t-194 -244.5t-70.5 -345.5zM601 232q89 -56 206 -56q151 0 273.5 88t191.5 243.5t69 347.5q0 166 -86 277z" />
<glyph unicode="&#xd9;" horiz-adv-x="1538" d="M225 423q-1 58 13 127l187 893h228l-186 -882q-13 -65 -12 -120q4 -124 86 -194.5t236 -70.5q150 0 255 86t139 239l201 942h227l-210 -992q-50 -232 -213 -359t-426 -127q-245 0 -384 128.5t-141 329.5zM717 1888h242l181 -306h-213z" />
<glyph unicode="&#xda;" horiz-adv-x="1538" d="M225 423q-1 58 13 127l187 893h228l-186 -882q-13 -65 -12 -120q4 -124 86 -194.5t236 -70.5q150 0 255 86t139 239l201 942h227l-210 -992q-50 -232 -213 -359t-426 -127q-245 0 -384 128.5t-141 329.5zM928 1582l362 306h258l-390 -306h-230z" />
<glyph unicode="&#xdb;" horiz-adv-x="1538" d="M225 423q-1 58 13 127l187 893h228l-186 -882q-13 -65 -12 -120q4 -124 86 -194.5t236 -70.5q150 0 255 86t139 239l201 942h227l-210 -992q-50 -232 -213 -359t-426 -127q-245 0 -384 128.5t-141 329.5zM660 1582l316 314h234l185 -314h-208l-100 188h-17l-179 -188 h-231z" />
<glyph unicode="&#xdc;" horiz-adv-x="1538" d="M225 423q-1 58 13 127l187 893h228l-186 -882q-13 -65 -12 -120q4 -124 86 -194.5t236 -70.5q150 0 255 86t139 239l201 942h227l-210 -992q-50 -232 -213 -359t-426 -127q-245 0 -384 128.5t-141 329.5zM720 1711q0 57 38.5 96t94.5 39q57 0 95.5 -39t38.5 -96 t-38.5 -95.5t-95.5 -38.5q-56 0 -94.5 38.5t-38.5 95.5zM1147 1711q0 57 38.5 96t94.5 39q57 0 95.5 -39t38.5 -96t-38.5 -95.5t-95.5 -38.5q-56 0 -94.5 38.5t-38.5 95.5z" />
<glyph unicode="&#xdd;" horiz-adv-x="1383" d="M312 1443h234l242 -631h17l497 631h251l-693 -881l-120 -562h-227l126 582zM850 1582l362 306h258l-390 -306h-230z" />
<glyph unicode="&#xde;" horiz-adv-x="1317" d="M116 0l307 1443h223l-55 -251h310q177 0 289.5 -104.5t112.5 -269.5q0 -218 -156.5 -356.5t-406.5 -138.5h-331l-70 -323h-223zM449 521h274q164 0 257 73t93 201q0 94 -62.5 146t-182.5 52h-277z" />
<glyph unicode="&#xdf;" horiz-adv-x="1362" d="M143 0l230 1079q35 166 162 261.5t314 95.5q185 0 306 -98t121 -248q0 -136 -89.5 -231t-230.5 -111l-4 -19q142 -19 224 -100t82 -204q0 -195 -142 -319t-363 -124q-125 0 -223 37l39 188q76 -33 178 -33q125 0 210.5 73t85.5 180q0 95 -77 150.5t-207 55.5h-72l41 202 h77q105 0 179.5 63.5t74.5 154.5q0 85 -60.5 137t-158.5 52q-103 0 -172.5 -61.5t-94.5 -174.5l-214 -1006h-216z" />
<glyph unicode="&#xe0;" horiz-adv-x="1153" d="M98 281q0 163 123.5 258t350.5 103l295 12l15 71q6 31 6 46q0 71 -57 111.5t-157 40.5q-83 0 -140.5 -30.5t-81.5 -88.5h-215q35 141 158 223.5t296 82.5q186 0 299 -85.5t113 -226.5q0 -46 -9 -88l-150 -710h-209l30 139h-17q-54 -73 -139 -115t-182 -42 q-141 0 -235 85.5t-94 213.5zM314 310q0 -65 53.5 -107t138.5 -42q110 0 195.5 63.5t107.5 159.5l25 112l-265 -12q-120 -5 -187.5 -51.5t-67.5 -122.5zM397 1615h247l191 -344h-216z" />
<glyph unicode="&#xe1;" horiz-adv-x="1153" d="M98 281q0 163 123.5 258t350.5 103l295 12l15 71q6 31 6 46q0 71 -57 111.5t-157 40.5q-83 0 -140.5 -30.5t-81.5 -88.5h-215q35 141 158 223.5t296 82.5q186 0 299 -85.5t113 -226.5q0 -46 -9 -88l-150 -710h-209l30 139h-17q-54 -73 -139 -115t-182 -42 q-141 0 -235 85.5t-94 213.5zM314 310q0 -65 53.5 -107t138.5 -42q110 0 195.5 63.5t107.5 159.5l25 112l-265 -12q-120 -5 -187.5 -51.5t-67.5 -122.5zM636 1271l324 344h252l-354 -344h-222z" />
<glyph unicode="&#xe2;" horiz-adv-x="1153" d="M98 281q0 163 123.5 258t350.5 103l295 12l15 71q6 31 6 46q0 71 -57 111.5t-157 40.5q-83 0 -140.5 -30.5t-81.5 -88.5h-215q35 141 158 223.5t296 82.5q186 0 299 -85.5t113 -226.5q0 -46 -9 -88l-150 -710h-209l30 139h-17q-54 -73 -139 -115t-182 -42 q-141 0 -235 85.5t-94 213.5zM314 310q0 -65 53.5 -107t138.5 -42q110 0 195.5 63.5t107.5 159.5l25 112l-265 -12q-120 -5 -187.5 -51.5t-67.5 -122.5zM330 1238l352 346h234l207 -346h-210l-120 219h-17l-213 -219h-233z" />
<glyph unicode="&#xe3;" horiz-adv-x="1153" d="M98 281q0 163 123.5 258t350.5 103l295 12l15 71q6 31 6 46q0 71 -57 111.5t-157 40.5q-83 0 -140.5 -30.5t-81.5 -88.5h-215q35 141 158 223.5t296 82.5q186 0 299 -85.5t113 -226.5q0 -46 -9 -88l-150 -710h-209l30 139h-17q-54 -73 -139 -115t-182 -42 q-141 0 -235 85.5t-94 213.5zM314 310q0 -65 53.5 -107t138.5 -42q110 0 195.5 63.5t107.5 159.5l25 112l-265 -12q-120 -5 -187.5 -51.5t-67.5 -122.5zM372 1273q15 133 88 208.5t177 75.5q58 0 105.5 -27.5t73.5 -60t58 -60t63 -27.5q84 0 108 132h157 q-16 -132 -88.5 -208t-177.5 -76q-48 0 -88 18t-66 44t-49 51.5t-47.5 43.5t-49.5 18q-83 0 -107 -132h-157z" />
<glyph unicode="&#xe4;" horiz-adv-x="1153" d="M98 281q0 163 123.5 258t350.5 103l295 12l15 71q6 31 6 46q0 71 -57 111.5t-157 40.5q-83 0 -140.5 -30.5t-81.5 -88.5h-215q35 141 158 223.5t296 82.5q186 0 299 -85.5t113 -226.5q0 -46 -9 -88l-150 -710h-209l30 139h-17q-54 -73 -139 -115t-182 -42 q-141 0 -235 85.5t-94 213.5zM314 310q0 -65 53.5 -107t138.5 -42q110 0 195.5 63.5t107.5 159.5l25 112l-265 -12q-120 -5 -187.5 -51.5t-67.5 -122.5zM419 1372q0 57 38.5 96t94.5 39q57 0 95.5 -39t38.5 -96t-38.5 -95.5t-95.5 -38.5q-56 0 -94.5 38.5t-38.5 95.5z M846 1372q0 57 38.5 96t94.5 39q57 0 95.5 -39t38.5 -96t-38.5 -95.5t-95.5 -38.5q-56 0 -94.5 38.5t-38.5 95.5z" />
<glyph unicode="&#xe5;" horiz-adv-x="1153" d="M98 281q0 163 123.5 258t350.5 103l295 12l15 71q6 31 6 46q0 71 -57 111.5t-157 40.5q-83 0 -140.5 -30.5t-81.5 -88.5h-215q35 141 158 223.5t296 82.5q186 0 299 -85.5t113 -226.5q0 -46 -9 -88l-150 -710h-209l30 139h-17q-54 -73 -139 -115t-182 -42 q-141 0 -235 85.5t-94 213.5zM314 310q0 -65 53.5 -107t138.5 -42q110 0 195.5 63.5t107.5 159.5l25 112l-265 -12q-120 -5 -187.5 -51.5t-67.5 -122.5zM563 1472q0 99 68.5 166t168.5 67t168.5 -67t68.5 -166t-69 -166.5t-168 -67.5t-168 67.5t-69 166.5zM684 1472 q0 -50 33 -82.5t83 -32.5t83 32.5t33 82.5q0 49 -33 81.5t-83 32.5t-83 -32.5t-33 -81.5z" />
<glyph unicode="&#xe6;" horiz-adv-x="1887" d="M98 283q0 166 123 260t352 102l294 12l16 68q5 25 5 46q0 71 -56.5 111.5t-156.5 40.5q-173 0 -222 -119h-216q36 142 157.5 224t294.5 82q120 0 210 -42.5t133 -120.5h17q141 163 363 163q180 0 302.5 -121.5t123.5 -325.5q0 -84 -15 -170h-774q-2 -28 -2 -45 q0 -72 22 -127.5t59 -88t81.5 -49t94.5 -16.5q184 0 251 126h218q-35 -140 -166 -227t-326 -87q-125 0 -233.5 61.5t-151.5 161.5h-16q-59 -95 -172.5 -159t-244.5 -64q-160 0 -262.5 87t-102.5 217zM314 310q0 -66 54 -109t138 -43q111 0 196.5 64.5t107.5 161.5l25 112 l-266 -12q-120 -5 -187.5 -51t-67.5 -123zM1075 651h547q2 12 2 43q0 100 -61 166.5t-169 66.5q-114 0 -199 -75t-120 -201z" />
<glyph unicode="&#xe7;" horiz-adv-x="1170" d="M148 439q0 190 74 343t207.5 240.5t301.5 87.5q170 0 288.5 -94.5t139.5 -232.5q2 -14 4 -46h-212q-7 80 -73.5 130.5t-162.5 50.5q-150 0 -248.5 -130.5t-98.5 -325.5q0 -137 67.5 -213.5t180.5 -76.5q94 0 161.5 43t95.5 122h215q-30 -152 -154.5 -250.5t-303.5 -106.5 l-70 -111q172 -23 172 -160q0 -90 -70.5 -146t-182.5 -56q-100 0 -179 36l25 119q63 -27 145 -27q46 0 72.5 17t26.5 47q0 67 -127 67h-54l14 102l80 123q-155 35 -244.5 154t-89.5 294z" />
<glyph unicode="&#xe8;" horiz-adv-x="1198" d="M149 440q0 299 160 484.5t414 185.5q184 0 306.5 -121t123.5 -326q0 -78 -14 -170h-775q-1 -14 -1 -44q0 -140 75 -211t181 -71q185 0 252 126h218q-36 -140 -165 -227t-319 -87q-130 0 -232 53t-163 159t-61 249zM390 651h547q3 18 3 43q0 100 -61.5 166.5t-169.5 66.5 q-114 0 -199 -75t-120 -201zM395 1615h247l191 -344h-216z" />
<glyph unicode="&#xe9;" horiz-adv-x="1198" d="M149 440q0 299 160 484.5t414 185.5q184 0 306.5 -121t123.5 -326q0 -78 -14 -170h-775q-1 -14 -1 -44q0 -140 75 -211t181 -71q185 0 252 126h218q-36 -140 -165 -227t-319 -87q-130 0 -232 53t-163 159t-61 249zM390 651h547q3 18 3 43q0 100 -61.5 166.5t-169.5 66.5 q-114 0 -199 -75t-120 -201zM634 1271l324 344h252l-354 -344h-222z" />
<glyph unicode="&#xea;" horiz-adv-x="1198" d="M149 440q0 299 160 484.5t414 185.5q184 0 306.5 -121t123.5 -326q0 -78 -14 -170h-775q-1 -14 -1 -44q0 -140 75 -211t181 -71q185 0 252 126h218q-36 -140 -165 -227t-319 -87q-130 0 -232 53t-163 159t-61 249zM340 1238l352 346h234l207 -346h-210l-120 219h-17 l-213 -219h-233zM390 651h547q3 18 3 43q0 100 -61.5 166.5t-169.5 66.5q-114 0 -199 -75t-120 -201z" />
<glyph unicode="&#xeb;" horiz-adv-x="1198" d="M149 440q0 299 160 484.5t414 185.5q184 0 306.5 -121t123.5 -326q0 -78 -14 -170h-775q-1 -14 -1 -44q0 -140 75 -211t181 -71q185 0 252 126h218q-36 -140 -165 -227t-319 -87q-130 0 -232 53t-163 159t-61 249zM390 651h547q3 18 3 43q0 100 -61.5 166.5t-169.5 66.5 q-114 0 -199 -75t-120 -201zM429 1372q0 57 38.5 96t94.5 39q57 0 95.5 -39t38.5 -96t-38.5 -95.5t-95.5 -38.5q-56 0 -94.5 38.5t-38.5 95.5zM856 1372q0 57 38.5 96t94.5 39q57 0 95.5 -39t38.5 -96t-38.5 -95.5t-95.5 -38.5q-56 0 -94.5 38.5t-38.5 95.5z" />
<glyph unicode="&#xec;" horiz-adv-x="546" d="M100 0l231 1089h215l-231 -1089h-215zM117 1615h247l191 -344h-216z" />
<glyph unicode="&#xed;" horiz-adv-x="546" d="M100 0l231 1089h215l-231 -1089h-215zM356 1271l324 344h252l-354 -344h-222z" />
<glyph unicode="&#xee;" horiz-adv-x="546" d="M62 1238l352 346h234l207 -346h-210l-120 219h-17l-213 -219h-233zM100 0l231 1089h215l-231 -1089h-215z" />
<glyph unicode="&#xef;" horiz-adv-x="546" d="M100 0l231 1089h215l-231 -1089h-215zM151 1372q0 57 38.5 96t94.5 39q57 0 95.5 -39t38.5 -96t-38.5 -95.5t-95.5 -38.5q-56 0 -94.5 38.5t-38.5 95.5zM578 1372q0 57 38.5 96t94.5 39q57 0 95.5 -39t38.5 -96t-38.5 -95.5t-95.5 -38.5q-56 0 -94.5 38.5t-38.5 95.5z " />
<glyph unicode="&#xf0;" horiz-adv-x="1229" d="M136 422q0 179 68 326.5t188.5 232t268.5 84.5q112 0 205.5 -50.5t127.5 -129.5l16 -1q-6 167 -108 354l-337 -101l-13 138l274 83q-44 59 -135 152h241q53 -59 78 -93l240 75l14 -139l-183 -56q128 -252 128 -507q0 -171 -41 -315q-63 -232 -212.5 -364t-351.5 -132 q-205 0 -336.5 126t-131.5 317zM362 445q0 -124 69.5 -197t188.5 -73q90 0 171.5 60.5t131 161t49.5 211.5q0 119 -76 194.5t-195 75.5q-144 0 -241.5 -125.5t-97.5 -307.5z" />
<glyph unicode="&#xf1;" horiz-adv-x="1247" d="M88 0l231 1093h209l-35 -167h17q55 83 141 133.5t199 50.5q152 0 247 -93.5t95 -228.5q0 -60 -15 -127l-139 -661h-217l132 623q12 54 12 96q0 88 -59 142.5t-158 54.5q-113 0 -195.5 -72t-107.5 -186l-140 -658h-217zM434 1275q15 133 88 208.5t177 75.5 q58 0 105.5 -27.5t73.5 -60t58 -60t63 -27.5q84 0 108 132h157q-16 -132 -88.5 -208t-177.5 -76q-48 0 -88 18t-66 44t-49 51.5t-47.5 43.5t-49.5 18q-83 0 -107 -132h-157z" />
<glyph unicode="&#xf2;" horiz-adv-x="1238" d="M148 441q0 137 41.5 259t116.5 213t187 144t245 53q206 0 331.5 -128t125.5 -333q0 -180 -69.5 -331.5t-205.5 -245t-313 -93.5q-206 0 -332.5 128t-126.5 334zM374 456q0 -127 68 -206t186 -79q136 0 238 129t102 319q0 141 -65.5 220.5t-180.5 79.5 q-157 0 -252.5 -131.5t-95.5 -331.5zM412 1615h247l191 -344h-216z" />
<glyph unicode="&#xf3;" horiz-adv-x="1238" d="M148 441q0 137 41.5 259t116.5 213t187 144t245 53q206 0 331.5 -128t125.5 -333q0 -180 -69.5 -331.5t-205.5 -245t-313 -93.5q-206 0 -332.5 128t-126.5 334zM374 456q0 -127 68 -206t186 -79q136 0 238 129t102 319q0 141 -65.5 220.5t-180.5 79.5 q-157 0 -252.5 -131.5t-95.5 -331.5zM651 1271l324 344h252l-354 -344h-222z" />
<glyph unicode="&#xf4;" horiz-adv-x="1238" d="M148 441q0 137 41.5 259t116.5 213t187 144t245 53q206 0 331.5 -128t125.5 -333q0 -180 -69.5 -331.5t-205.5 -245t-313 -93.5q-206 0 -332.5 128t-126.5 334zM357 1238l352 346h234l207 -346h-210l-120 219h-17l-213 -219h-233zM374 456q0 -127 68 -206t186 -79 q136 0 238 129t102 319q0 141 -65.5 220.5t-180.5 79.5q-157 0 -252.5 -131.5t-95.5 -331.5z" />
<glyph unicode="&#xf5;" horiz-adv-x="1238" d="M148 441q0 137 41.5 259t116.5 213t187 144t245 53q206 0 331.5 -128t125.5 -333q0 -180 -69.5 -331.5t-205.5 -245t-313 -93.5q-206 0 -332.5 128t-126.5 334zM374 456q0 -127 68 -206t186 -79q136 0 238 129t102 319q0 141 -65.5 220.5t-180.5 79.5 q-157 0 -252.5 -131.5t-95.5 -331.5zM399 1273q15 133 88 208.5t177 75.5q58 0 105.5 -27.5t73.5 -60t58 -60t63 -27.5q84 0 108 132h157q-16 -132 -88.5 -208t-177.5 -76q-48 0 -88 18t-66 44t-49 51.5t-47.5 43.5t-49.5 18q-83 0 -107 -132h-157z" />
<glyph unicode="&#xf6;" horiz-adv-x="1238" d="M148 441q0 137 41.5 259t116.5 213t187 144t245 53q206 0 331.5 -128t125.5 -333q0 -180 -69.5 -331.5t-205.5 -245t-313 -93.5q-206 0 -332.5 128t-126.5 334zM374 456q0 -127 68 -206t186 -79q136 0 238 129t102 319q0 141 -65.5 220.5t-180.5 79.5 q-157 0 -252.5 -131.5t-95.5 -331.5zM446 1372q0 57 38.5 96t94.5 39q57 0 95.5 -39t38.5 -96t-38.5 -95.5t-95.5 -38.5q-56 0 -94.5 38.5t-38.5 95.5zM873 1372q0 57 38.5 96t94.5 39q57 0 95.5 -39t38.5 -96t-38.5 -95.5t-95.5 -38.5q-56 0 -94.5 38.5t-38.5 95.5z" />
<glyph unicode="&#xf7;" horiz-adv-x="1360" d="M200 491l36 182h1041l-37 -182h-1040zM512 207q0 62 39.5 103t100.5 41t100 -40t39 -99q0 -63 -39 -103.5t-100 -40.5t-100.5 40t-39.5 99zM668 952q0 62 39.5 102.5t100.5 40.5t100 -40t39 -99q0 -62 -39 -102.5t-100 -40.5t-100.5 39.5t-39.5 99.5z" />
<glyph unicode="&#xf8;" horiz-adv-x="1243" d="M135 14l110 127q-97 122 -97 300q0 137 41.5 259t116.5 213t187 144t245 53q163 0 277 -82l99 114l88 -62l-108 -125q101 -123 101 -306q0 -180 -69.5 -331.5t-205.5 -245t-313 -93.5q-164 0 -282 85l-101 -117zM374 456q0 -76 26 -137l475 548q-61 52 -153 52 q-157 0 -252.5 -131.5t-95.5 -331.5zM466 227q64 -56 162 -56q136 0 238 129t102 319q0 90 -28 157z" />
<glyph unicode="&#xf9;" horiz-adv-x="1247" d="M160 296q0 63 15 140l136 653h218l-131 -618q-13 -63 -13 -106q0 -94 53 -141.5t154 -47.5q117 0 202.5 74t111.5 193l138 646h216l-230 -1089h-208l34 155h-17q-48 -80 -137.5 -128t-205.5 -48q-148 0 -242 88.5t-94 228.5zM458 1615h247l191 -344h-216z" />
<glyph unicode="&#xfa;" horiz-adv-x="1247" d="M160 296q0 63 15 140l136 653h218l-131 -618q-13 -63 -13 -106q0 -94 53 -141.5t154 -47.5q117 0 202.5 74t111.5 193l138 646h216l-230 -1089h-208l34 155h-17q-48 -80 -137.5 -128t-205.5 -48q-148 0 -242 88.5t-94 228.5zM697 1271l324 344h252l-354 -344h-222z" />
<glyph unicode="&#xfb;" horiz-adv-x="1247" d="M160 296q0 63 15 140l136 653h218l-131 -618q-13 -63 -13 -106q0 -94 53 -141.5t154 -47.5q117 0 202.5 74t111.5 193l138 646h216l-230 -1089h-208l34 155h-17q-48 -80 -137.5 -128t-205.5 -48q-148 0 -242 88.5t-94 228.5zM403 1238l352 346h234l207 -346h-210 l-120 219h-17l-213 -219h-233z" />
<glyph unicode="&#xfc;" horiz-adv-x="1247" d="M160 296q0 63 15 140l136 653h218l-131 -618q-13 -63 -13 -106q0 -94 53 -141.5t154 -47.5q117 0 202.5 74t111.5 193l138 646h216l-230 -1089h-208l34 155h-17q-48 -80 -137.5 -128t-205.5 -48q-148 0 -242 88.5t-94 228.5zM492 1372q0 57 38.5 96t94.5 39 q57 0 95.5 -39t38.5 -96t-38.5 -95.5t-95.5 -38.5q-56 0 -94.5 38.5t-38.5 95.5zM919 1372q0 57 38.5 96t94.5 39q57 0 95.5 -39t38.5 -96t-38.5 -95.5t-95.5 -38.5q-56 0 -94.5 38.5t-38.5 95.5z" />
<glyph unicode="&#xfd;" horiz-adv-x="1146" d="M25 -388l33 185q31 -9 95 -9q63 0 112 35.5t95 119.5l33 60l-164 1086h216l105 -842h17l448 842h233l-666 -1173q-97 -177 -194 -245t-240 -68q-57 0 -123 9zM656 1271l324 344h252l-354 -344h-222z" />
<glyph unicode="&#xfe;" horiz-adv-x="1288" d="M20 -353l397 1859h214l-119 -567h17q123 169 336 169q164 0 272 -117.5t108 -302.5q0 -148 -43 -279.5t-116.5 -225t-176 -147.5t-217.5 -54q-117 0 -204 60t-115 157h-17l-120 -552h-216zM413 447q0 -126 67.5 -198t182.5 -72q152 0 255 136t103 339q0 125 -64 194 t-176 69q-154 0 -261 -136.5t-107 -331.5z" />
<glyph unicode="&#xff;" horiz-adv-x="1146" d="M25 -388l33 185q31 -9 95 -9q63 0 112 35.5t95 119.5l33 60l-164 1086h216l105 -842h17l448 842h233l-666 -1173q-97 -177 -194 -245t-240 -68q-57 0 -123 9zM451 1372q0 57 38.5 96t94.5 39q57 0 95.5 -39t38.5 -96t-38.5 -95.5t-95.5 -38.5q-56 0 -94.5 38.5 t-38.5 95.5zM878 1372q0 57 38.5 96t94.5 39q57 0 95.5 -39t38.5 -96t-38.5 -95.5t-95.5 -38.5q-56 0 -94.5 38.5t-38.5 95.5z" />
<glyph unicode="&#x131;" horiz-adv-x="546" d="M100 0l231 1089h215l-231 -1089h-215z" />
<glyph unicode="&#x152;" horiz-adv-x="2320" d="M195 569q0 194 59.5 363t163.5 288.5t249.5 188.5t312.5 69q159 0 283 -71.5t188 -188.5l17 1l49 224h898l-42 -204h-690l-91 -408h654l-40 -194h-652l-96 -433h690l-40 -204h-898l27 123h-15q-75 -73 -185.5 -115.5t-241.5 -42.5q-261 0 -430.5 170t-169.5 434zM428 587 q0 -186 104.5 -299t275.5 -113q152 0 274.5 88.5t192 244.5t69.5 348q0 185 -104.5 298.5t-272.5 113.5q-150 0 -274 -89t-194.5 -245.5t-70.5 -346.5z" />
<glyph unicode="&#x153;" horiz-adv-x="2012" d="M148 440q0 193 75.5 346t210 238.5t303.5 85.5q126 0 221.5 -55.5t146.5 -158.5h17q145 214 410 214q190 0 309.5 -124.5t120.5 -322.5q0 -87 -15 -170h-774q-2 -40 -2 -45q0 -129 70 -205t187 -76q184 0 251 126h219q-37 -143 -168.5 -228.5t-315.5 -85.5 q-126 0 -223.5 53.5t-153.5 153.5h-16q-153 -207 -416 -207q-205 0 -331 127t-126 334zM374 456q0 -130 69.5 -208t184.5 -78q140 0 240 132t100 317q0 140 -65.5 220t-180.5 80q-154 0 -251 -129.5t-97 -333.5zM1199 651h547q2 12 2 43q0 104 -63.5 168.5t-166.5 64.5 q-113 0 -198.5 -74t-120.5 -202z" />
<glyph unicode="&#x178;" horiz-adv-x="1383" d="M312 1443h234l242 -631h17l497 631h251l-693 -881l-120 -562h-227l126 582zM642 1711q0 57 38.5 96t94.5 39q57 0 95.5 -39t38.5 -96t-38.5 -95.5t-95.5 -38.5q-56 0 -94.5 38.5t-38.5 95.5zM1069 1711q0 57 38.5 96t94.5 39q57 0 95.5 -39t38.5 -96t-38.5 -95.5 t-95.5 -38.5q-56 0 -94.5 38.5t-38.5 95.5z" />
<glyph unicode="&#x192;" horiz-adv-x="1360" d="M35 21l42 194q91 -39 194 -39q97 0 156.5 44.5t96.5 146.5l125 334h-332l36 176h357l77 210q135 380 502 380q119 0 212 -35l-41 -187q-81 29 -184 29q-108 0 -172 -50.5t-103 -157.5l-70 -189h358l-36 -176h-384l-129 -348q-70 -196 -185.5 -284.5t-299.5 -88.5 q-90 0 -220 41z" />
<glyph unicode="&#x2c6;" horiz-adv-x="1086" d="M344 1238l352 346h234l207 -346h-210l-120 219h-17l-213 -219h-233z" />
<glyph unicode="&#x2c7;" horiz-adv-x="1086" d="M417 1584h208l120 -219h16l214 219h235l-353 -346h-234z" />
<glyph unicode="&#x2d8;" horiz-adv-x="1086" d="M438 1532q0 22 3 44h171q-2 -16 -2 -30q0 -73 52.5 -117t139.5 -44q97 0 156 49t73 142h174q-15 -154 -125 -246t-285 -92q-164 0 -260.5 83t-96.5 211z" />
<glyph unicode="&#x2d9;" horiz-adv-x="1086" d="M640 1425q0 60 41 101.5t99 41.5q59 0 99.5 -41.5t40.5 -101.5t-41 -102t-99 -42t-99 42t-41 102z" />
<glyph unicode="&#x2da;" horiz-adv-x="1086" d="M553 1472q0 99 68.5 166t168.5 67t168.5 -67t68.5 -166t-69 -166.5t-168 -67.5t-168 67.5t-69 166.5zM674 1472q0 -50 33 -82.5t83 -32.5t83 32.5t33 82.5q0 49 -33 81.5t-83 32.5t-83 -32.5t-33 -81.5z" />
<glyph unicode="&#x2db;" horiz-adv-x="1086" d="M249 -245q0 87 66.5 174.5t173.5 137.5l136 -24q-87 -50 -139.5 -116.5t-52.5 -125.5q0 -47 32.5 -71t92.5 -24q26 0 44 2l-28 -139q-28 -11 -88 -11q-111 0 -174 52.5t-63 144.5z" />
<glyph unicode="&#x2dc;" horiz-adv-x="1086" d="M378 1297q15 133 88 208.5t177 75.5q58 0 105.5 -27.5t73.5 -60t58 -60t63 -27.5q84 0 108 132h157q-16 -132 -88.5 -208t-177.5 -76q-48 0 -88 18t-66 44t-49 51.5t-47.5 43.5t-49.5 18q-83 0 -107 -132h-157z" />
<glyph unicode="&#x2dd;" horiz-adv-x="1085" d="M307 1271l311 344h228l-339 -344h-200zM720 1271l311 344h228l-339 -344h-200z" />
<glyph unicode="&#x3a9;" horiz-adv-x="1617" d="M88 0l41 199h302l4 18q-111 79 -171 201.5t-60 277.5q0 230 96.5 408t271.5 276t401 98q274 0 435.5 -155.5t161.5 -413.5q0 -213 -107 -401t-288 -291l-4 -18h306l-41 -199h-550l52 251q196 106 298 267t102 368q0 176 -104 279t-288 103q-233 0 -373.5 -158 t-140.5 -419q0 -143 64 -255.5t188 -184.5l-51 -251h-545z" />
<glyph unicode="&#x3c0;" horiz-adv-x="1413" d="M200 895l40 194h1243l-39 -194h-221l-126 -580q-10 -53 -10 -67q0 -39 20.5 -55.5t71.5 -16.5q29 0 57 5l-37 -178q-42 -13 -116 -13q-212 0 -212 190q0 34 17 119l128 596h-412l-192 -895h-206l191 895h-197z" />
<glyph unicode="&#x401;" horiz-adv-x="1259" d="M125 0l307 1443h917l-41 -204h-690l-91 -408h654l-40 -194h-653l-96 -433h691l-40 -204h-918zM600 1711q0 57 38.5 96t94.5 39q57 0 95.5 -39t38.5 -96t-38.5 -95.5t-95.5 -38.5q-56 0 -94.5 38.5t-38.5 95.5zM1027 1711q0 57 38.5 96t94.5 39q57 0 95.5 -39t38.5 -96 t-38.5 -95.5t-95.5 -38.5q-56 0 -94.5 38.5t-38.5 95.5z" />
<glyph unicode="&#x402;" horiz-adv-x="1762" d="M303 1239l42 204h1124l-42 -204h-448l-102 -466h13q60 59 149 96.5t192 37.5q212 0 325.5 -117.5t113.5 -311.5q0 -144 -69 -262t-194.5 -187t-283.5 -69q-53 0 -94 4t-55 8l-15 5l41 198q37 -15 123 -15q140 0 228.5 86.5t88.5 214.5q0 109 -63 173.5t-191 64.5 q-111 0 -211 -56.5t-151 -130.5l-111 -512h-227l265 1239h-448z" />
<glyph unicode="&#x403;" horiz-adv-x="1188" d="M125 0l307 1443h892l-42 -204h-664l-265 -1239h-228zM715 1575l362 306h258l-390 -306h-230z" />
<glyph unicode="&#x404;" horiz-adv-x="1505" d="M220.5 420.5q-23.5 147.5 11.5 336.5q53 325 254 523t502 198q143 0 264 -59.5t195 -169.5t77 -247v-19h-224q-7 130 -100 207.5t-234 77.5q-176 0 -309 -119t-186 -316h623l-40 -196h-614q-21 -216 72 -339.5t276 -123.5q137 0 241 73t153 188h224q-66 -217 -238 -343.5 t-404 -126.5q-147 0 -262 53t-186.5 154t-95 248.5z" />
<glyph unicode="&#x405;" horiz-adv-x="1331" d="M127 405h221q22 -110 116.5 -175.5t230.5 -65.5q140 0 226 62.5t86 163.5q0 78 -57 131t-189 96l-142 48q-152 51 -235.5 150.5t-83.5 230.5q0 186 151 309t379 123q217 0 362.5 -120.5t159.5 -311.5h-219q-23 108 -106.5 171t-207.5 63t-205.5 -59.5t-81.5 -150.5 q0 -69 53 -121t165 -90l137 -47q180 -62 266 -157t86 -234q0 -204 -156 -330t-406 -126q-231 0 -379 117.5t-171 322.5z" />
<glyph unicode="&#x406;" horiz-adv-x="607" d="M125 0l307 1443h227l-307 -1443h-227z" />
<glyph unicode="&#x407;" horiz-adv-x="608" d="M125 0l307 1443h227l-307 -1443h-227zM256 1711q0 57 38.5 96t94.5 39q57 0 95.5 -39t38.5 -96t-38.5 -95.5t-95.5 -38.5q-56 0 -94.5 38.5t-38.5 95.5zM683 1711q0 57 38.5 96t94.5 39q57 0 95.5 -39t38.5 -96t-38.5 -95.5t-95.5 -38.5q-56 0 -94.5 38.5t-38.5 95.5z " />
<glyph unicode="&#x408;" horiz-adv-x="1168" d="M102 357v13h222v-4q2 -86 57.5 -136.5t149.5 -50.5q193 0 246 243l218 1021h223l-225 -1063q-42 -201 -164.5 -308t-316.5 -107q-187 0 -303 111t-107 281z" />
<glyph unicode="&#x409;" horiz-adv-x="2188" d="M-22 1l42 209q28 -7 58 -7q56 0 100.5 26.5t78 78t58 113t47.5 147.5l236 875h915l-106 -491h253q213 0 342.5 -114t129.5 -307q0 -105 -42 -201.5t-115.5 -169.5t-181.5 -116.5t-233 -43.5h-581l266 1239h-484l-190 -685q-30 -113 -61.5 -196.5t-75 -156t-95.5 -117.5 t-122 -70t-157 -25q-48 0 -82 12zM1246 197h299q152 0 254.5 88t102.5 217q0 125 -77.5 188.5t-211.5 63.5h-245z" />
<glyph unicode="&#x40a;" horiz-adv-x="2209" d="M125 0l307 1443h227l-129 -601h663l129 601h227l-129 -601h275q201 0 324 -100.5t123 -268.5q0 -95 -38.5 -180.5t-108 -150.5t-173.5 -103.5t-227 -38.5h-580l137 641h-664l-137 -641h-226zM1282 197h300q151 0 240.5 70.5t89.5 180.5q0 98 -70 148t-191 50h-271z" />
<glyph unicode="&#x40b;" horiz-adv-x="1785" d="M303 1239l42 204h1124l-42 -204h-448l-102 -465h16q163 133 356 133q231 0 337 -145.5t55 -381.5l-81 -380h-228l83 385q32 147 -27 230.5t-199 83.5q-107 0 -206 -53t-159 -134l-111 -512h-227l265 1239h-448z" />
<glyph unicode="&#x40c;" horiz-adv-x="1390" d="M125 0l307 1443h227l-133 -622h43l691 622h279l-802 -718l522 -725h-257l-470 636h-44l-136 -636h-227zM820 1575l362 306h258l-390 -306h-230z" />
<glyph unicode="&#x40e;" horiz-adv-x="1367" d="M195 2l40 203q27 -9 80 -9q77 0 138.5 30.5t116.5 98.5l-248 1118h235l171 -867h17l535 867h250l-682 -1061q-65 -102 -120.5 -169.5t-122.5 -121t-145 -78t-174 -24.5q-65 0 -91 13zM635 1892h178q-16 -76 24 -122.5t117 -46.5q78 0 137.5 46.5t75.5 122.5h179 q-30 -145 -140 -226.5t-267 -81.5q-163 0 -248.5 85t-55.5 223z" />
<glyph unicode="&#x40f;" horiz-adv-x="1550" d="M125 0l307 1443h224l-266 -1238h720l265 1238h226l-307 -1443h-480l-61 -285h-209l61 285h-480z" />
<glyph unicode="&#x410;" horiz-adv-x="1444" d="M16 0l836 1443h232l212 -1443h-224l-50 383h-554l-215 -383h-237zM564 571h440l-82 608h-16z" />
<glyph unicode="&#x411;" horiz-adv-x="1350" d="M125 0l307 1443h894l-42 -204h-666l-78 -355h266q213 0 342.5 -104t129.5 -281q0 -99 -42 -189.5t-115.5 -159t-181.5 -109.5t-233 -41h-581zM392 197h299q152 0 254.5 79.5t102.5 194.5q0 109 -76.5 164t-209.5 55h-262z" />
<glyph unicode="&#x412;" horiz-adv-x="1393" d="M125 0l307 1443h532q185 0 297 -86t112 -229q0 -139 -87.5 -241t-229.5 -128l-4 -17q118 -21 185.5 -97t67.5 -188q0 -200 -156 -328.5t-398 -128.5h-626zM390 193h339q148 0 246 74.5t98 187.5q0 100 -69.5 151.5t-204.5 51.5h-308zM528 834h277q150 0 244.5 68 t94.5 176q0 177 -262 177h-262z" />
<glyph unicode="&#x413;" horiz-adv-x="1188" d="M125 0l307 1443h892l-42 -204h-664l-265 -1239h-228z" />
<glyph unicode="&#x414;" horiz-adv-x="1543" d="M-86 -285l101 489h105q84 45 137 134.5t94 240.5l239 864h948l-266 -1239h180l-102 -489h-205l61 285h-1026l-61 -285h-205zM384 204h661l224 1035h-519l-191 -672q-37 -131 -75 -211.5t-97 -137.5z" />
<glyph unicode="&#x415;" horiz-adv-x="1259" d="M125 0l307 1443h917l-41 -204h-690l-91 -408h654l-40 -194h-653l-96 -433h691l-40 -204h-918z" />
<glyph unicode="&#x416;" horiz-adv-x="2105" d="M-10 0l816 764l-432 679h246l392 -625h44l134 625h223l-134 -625h44l660 625h279l-767 -721l473 -722h-257l-423 637h-45l-137 -637h-223l138 637h-45l-698 -637h-288z" />
<glyph unicode="&#x417;" horiz-adv-x="1309" d="M132 401h214q2 -103 79.5 -170.5t218.5 -67.5q149 0 244 73t95 188q0 105 -72 160.5t-210 55.5h-188l40 198h197q141 0 232 69.5t91 175.5q0 94 -60.5 146.5t-177.5 52.5q-119 0 -207.5 -60.5t-121.5 -165.5h-212q52 198 204 310t363 112q208 0 325 -103t117 -263 q0 -144 -92.5 -242.5t-247.5 -124.5l-4 -17q121 -24 188.5 -100.5t67.5 -198.5q0 -199 -162 -331.5t-414 -132.5q-240 0 -372.5 121.5t-134.5 314.5z" />
<glyph unicode="&#x418;" horiz-adv-x="1571" d="M125 0l307 1443h223l-229 -1060h16l958 1060h222l-307 -1443h-224l230 1057h-17l-957 -1057h-222z" />
<glyph unicode="&#x419;" horiz-adv-x="1571" d="M125 0l307 1443h223l-229 -1060h16l958 1060h222l-307 -1443h-224l230 1057h-17l-957 -1057h-222zM730 1892h178q-16 -76 24 -122.5t117 -46.5q78 0 137.5 46.5t75.5 122.5h179q-30 -145 -140 -226.5t-267 -81.5q-163 0 -248.5 85t-55.5 223z" />
<glyph unicode="&#x41a;" horiz-adv-x="1392" d="M125 0l307 1443h227l-133 -622h43l691 622h279l-802 -718l522 -725h-257l-470 636h-44l-136 -636h-227z" />
<glyph unicode="&#x41b;" horiz-adv-x="1470" d="M-22 1l42 209q28 -7 58 -7q45 0 83 18t66.5 49t53.5 78.5t43.5 99.5t37.5 120l236 875h923l-307 -1443h-227l265 1239h-491l-190 -685q-30 -112 -61.5 -195.5t-74.5 -156t-95.5 -117.5t-122.5 -70.5t-157 -25.5q-48 0 -82 12z" />
<glyph unicode="&#x41c;" horiz-adv-x="1844" d="M125 0l307 1443h252l223 -1096h17l696 1096h275l-307 -1443h-212l225 1042h-14l-639 -1000h-170l-204 1000h-13l-225 -1042h-211z" />
<glyph unicode="&#x41d;" horiz-adv-x="1572" d="M125 0l307 1443h227l-130 -606h737l130 606h228l-307 -1443h-229l137 633h-738l-136 -633h-226z" />
<glyph unicode="&#x41e;" horiz-adv-x="1619" d="M206 569q0 260 102 468t281 324.5t401 116.5q174 0 310.5 -78t211 -215.5t74.5 -310.5q0 -196 -59 -365.5t-162.5 -288.5t-248.5 -187t-311 -68q-173 0 -310.5 78.5t-213 216t-75.5 309.5zM439 587q0 -185 104.5 -298t275.5 -113q151 0 273.5 88t191.5 243.5t69 347.5 q0 184 -104 297.5t-272 113.5q-150 0 -273.5 -89t-194 -244.5t-70.5 -345.5z" />
<glyph unicode="&#x41f;" horiz-adv-x="1550" d="M125 0l307 1443h1169l-307 -1443h-223l265 1238h-720l-265 -1238h-226z" />
<glyph unicode="&#x420;" horiz-adv-x="1349" d="M124 0l307 1443h514q190 0 312.5 -111t122.5 -293q0 -169 -78 -295.5t-211.5 -192t-302.5 -65.5h-333l-104 -486h-227zM495 683h284q169 0 269.5 89.5t100.5 245.5q0 108 -72 167.5t-198 59.5h-261z" />
<glyph unicode="&#x421;" horiz-adv-x="1513" d="M210 569q0 259 98.5 467t274 325t393.5 117q160 0 288.5 -64.5t200.5 -178.5t72 -257v-7h-224q-10 136 -105 216t-246 80q-145 0 -265 -89.5t-188.5 -245.5t-68.5 -345q0 -191 98.5 -303t267.5 -112q138 0 242.5 66t142.5 178h230q-54 -211 -225 -332.5t-414 -121.5 q-259 0 -415.5 165.5t-156.5 441.5z" />
<glyph unicode="&#x422;" horiz-adv-x="1338" d="M301 1239l41 204h1131l-41 -204h-452l-265 -1239h-228l266 1239h-452z" />
<glyph unicode="&#x423;" horiz-adv-x="1367" d="M195 2l40 203q27 -9 80 -9q77 0 138.5 30.5t116.5 98.5l-248 1118h235l171 -867h17l535 867h250l-682 -1061q-65 -102 -120.5 -169.5t-122.5 -121t-145 -78t-174 -24.5q-65 0 -91 13z" />
<glyph unicode="&#x424;" horiz-adv-x="1760" d="M198 629q0 194 100.5 350t280 246.5t406.5 97.5l30 145h222l-31 -145q247 -10 390 -145t143 -357q0 -194 -100 -349.5t-279.5 -246t-406.5 -97.5l-33 -153h-221l32 153q-247 10 -390 144.5t-143 356.5zM427 636q0 -138 91.5 -220t253.5 -88l173 795 q-225 -10 -371.5 -147.5t-146.5 -339.5zM992 328q225 10 372 147t147 337q0 140 -92 222.5t-254 88.5z" />
<glyph unicode="&#x425;" horiz-adv-x="1447" d="M35 0l645 749l-318 694h254l236 -539h16l469 539h253l-644 -729l329 -714h-245l-251 542h-16l-478 -542h-250z" />
<glyph unicode="&#x426;" horiz-adv-x="1607" d="M124 0l309 1443h223l-265 -1238h719l266 1238h226l-266 -1239h180l-102 -489h-205l61 285h-1146z" />
<glyph unicode="&#x427;" horiz-adv-x="1455" d="M297 1071l79 372h224l-79 -373q-33 -154 30.5 -248t220.5 -94q128 0 234.5 54.5t164.5 137.5l112 523h224l-307 -1443h-224l140 650h-17q-167 -132 -384 -132q-237 0 -353 156t-65 397z" />
<glyph unicode="&#x428;" horiz-adv-x="2019" d="M125 0l307 1443h227l-266 -1239h478l266 1239h228l-267 -1239h479l266 1239h227l-307 -1443h-1638z" />
<glyph unicode="&#x429;" horiz-adv-x="2076" d="M126 0l307 1443h227l-267 -1239h479l266 1239h227l-266 -1239h478l267 1239h227l-266 -1239h180l-102 -489h-205l61 285h-1613z" />
<glyph unicode="&#x42a;" horiz-adv-x="1540" d="M265 1239l42 204h558l-106 -491h252q213 0 343 -114t130 -307q0 -105 -42 -201.5t-115.5 -169.5t-182 -116.5t-233.5 -43.5h-580l266 1239h-332zM598 197h299q152 0 254 88t102 217q0 125 -77 188.5t-211 63.5h-245z" />
<glyph unicode="&#x42b;" horiz-adv-x="1823" d="M125 0l307 1443h227l-106 -491h252q213 0 343 -114t130 -307q0 -105 -42 -201.5t-115.5 -169.5t-182 -116.5t-233.5 -43.5h-580zM392 197h299q152 0 254.5 88t102.5 217q0 125 -77.5 188.5t-211.5 63.5h-245zM1340 0l307 1443h227l-307 -1443h-227z" />
<glyph unicode="&#x42c;" horiz-adv-x="1334" d="M125 0l307 1443h227l-106 -491h252q213 0 343 -114t130 -307q0 -105 -42 -201.5t-115.5 -169.5t-182 -116.5t-233.5 -43.5h-580zM392 197h299q152 0 254.5 88t102.5 217q0 125 -77.5 188.5t-211.5 63.5h-245z" />
<glyph unicode="&#x42d;" horiz-adv-x="1504" d="M157 435h225q16 -120 107 -190t224 -70q183 0 318.5 126.5t184.5 335.5h-623l40 196h609q14 204 -79.5 320t-271.5 116q-143 0 -249.5 -78.5t-156.5 -207.5h-225q66 235 240.5 365t414.5 130q147 0 262 -53t187 -154t95.5 -248.5t-11.5 -336.5q-53 -325 -254 -523 t-502 -198q-141 0 -259.5 57t-193.5 165.5t-82 247.5z" />
<glyph unicode="&#x42e;" horiz-adv-x="2137" d="M125 0l307 1443h227l-130 -606h247q68 287 267.5 464t474.5 177q163 0 296 -74.5t210.5 -213t77.5 -315.5q0 -184 -56 -350.5t-154.5 -290t-241 -196.5t-306.5 -73q-263 0 -430 164t-167 448q0 37 1 56h-261l-136 -633h-226zM977 602q0 -200 104 -314t266 -114 q144 0 265.5 92.5t190.5 248t69 335.5q0 193 -103.5 306t-264.5 113q-146 0 -267 -87.5t-190.5 -241t-69.5 -338.5z" />
<glyph unicode="&#x42f;" horiz-adv-x="1393" d="M30 0l516 563q-121 46 -189.5 141.5t-68.5 226.5q0 101 42 194t116 163.5t182.5 112.5t233.5 42h582l-307 -1443h-227l112 523h-230l-481 -523h-281zM518 953q0 -119 77 -179t211 -60h255l116 532h-302q-152 0 -254.5 -85t-102.5 -208z" />
<glyph unicode="&#x430;" horiz-adv-x="1173" d="M108 281q0 163 123.5 258t350.5 103l295 12l15 71q6 31 6 46q0 71 -57 111.5t-157 40.5q-83 0 -140.5 -30.5t-81.5 -88.5h-215q35 141 158 223.5t296 82.5q186 0 299 -85.5t113 -226.5q0 -46 -9 -88l-150 -710h-209l30 139h-17q-54 -73 -139 -115t-182 -42 q-141 0 -235 85.5t-94 213.5zM324 310q0 -65 53.5 -107t138.5 -42q110 0 195.5 63.5t107.5 159.5l25 112l-265 -12q-120 -5 -187.5 -51.5t-67.5 -122.5z" />
<glyph unicode="&#x431;" horiz-adv-x="1260" d="M161 421q-4 154 60 389q34 125 71.5 218t92 175t122.5 134.5t161 84.5t209 37l139 5q77 4 150.5 17t108 23.5t36.5 12.5l-38 -190q-9 -5 -27.5 -13.5t-92 -24t-165.5 -19.5l-137 -5q-96 -4 -168 -32t-123 -82t-85 -118t-67 -157h16q132 184 349 184q194 0 308.5 -125 t114.5 -322q0 -131 -39 -246t-111 -202.5t-184.5 -138t-250.5 -50.5q-197 0 -320 122.5t-130 322.5zM376 449q0 -130 68.5 -204.5t189.5 -74.5q138 0 237.5 118t99.5 286q0 142 -65.5 221t-183.5 79q-155 0 -250.5 -121.5t-95.5 -303.5z" />
<glyph unicode="&#x432;" horiz-adv-x="1161" d="M98 0l231 1089h457q151 0 235 -66t84 -182q0 -96 -68.5 -168t-174.5 -91l-3 -17q96 -12 148.5 -68.5t52.5 -138.5q0 -158 -125.5 -258t-336.5 -100h-500zM349 165h255q107 0 170.5 50t63.5 132q0 71 -48 104t-144 33h-229zM450 642h210q106 0 164 47.5t58 118.5 q0 116 -152 116h-218z" />
<glyph unicode="&#x433;" horiz-adv-x="958" d="M98 0l231 1089h704l-36 -181h-486l-195 -908h-218z" />
<glyph unicode="&#x434;" horiz-adv-x="1304" d="M-91 -285l98 466h88q58 33 110 122t85 206l165 580h793l-194 -908h169l-98 -466h-199l61 285h-817l-61 -285h-200zM335 181h501l158 727h-387l-121 -410q-61 -209 -147 -300z" />
<glyph unicode="&#x435;" horiz-adv-x="1218" d="M158 440q0 299 160 484.5t414 185.5q184 0 306.5 -121t123.5 -326q0 -78 -14 -170h-775q-1 -14 -1 -44q0 -140 75 -211t181 -71q185 0 252 126h218q-36 -140 -165 -227t-319 -87q-130 0 -232 53t-163 159t-61 249zM399 651h547q3 18 3 43q0 100 -61.5 166.5t-169.5 66.5 q-114 0 -199 -75t-120 -201z" />
<glyph unicode="&#x436;" horiz-adv-x="1675" d="M-17 0l572 597l-285 492h224l256 -446h54l95 446h214l-95 -446h49l450 446h259l-544 -529l332 -560h-240l-289 480h-50l-103 -480h-214l103 480h-55l-467 -480h-266z" />
<glyph unicode="&#x437;" horiz-adv-x="1120" d="M119 350h209q3 -82 65 -131t158 -49q107 0 176 50t72 128q2 67 -43.5 99t-145.5 32h-160l37 167h157q91 0 147 42t58 105t-40 96t-127 33q-197 0 -274 -173h-208q57 168 188.5 264.5t317.5 96.5q174 0 272.5 -76.5t94.5 -204.5q-2 -90 -62.5 -158.5t-150.5 -85.5l-4 -17 q82 -21 124.5 -77t40.5 -139q-4 -160 -139.5 -266.5t-339.5 -106.5q-182 0 -301 102.5t-122 268.5z" />
<glyph unicode="&#x438;" horiz-adv-x="1280" d="M98 0l231 1089h215l-163 -749h16l669 749h216l-231 -1089h-214l163 754h-16l-669 -754h-217z" />
<glyph unicode="&#x439;" horiz-adv-x="1280" d="M98 0l231 1089h215l-163 -749h16l669 749h216l-231 -1089h-214l163 754h-16l-669 -754h-217zM526 1582h174q-17 -84 19 -141.5t117 -57.5q84 0 144 57.5t78 141.5h178q-32 -154 -139.5 -246t-279.5 -92q-157 0 -239.5 96t-51.5 242z" />
<glyph unicode="&#x43a;" horiz-adv-x="1122" d="M98 0l231 1089h218l-95 -442h45l463 442h261l-564 -522l354 -567h-248l-300 476h-45l-102 -476h-218z" />
<glyph unicode="&#x43b;" horiz-adv-x="1215" d="M-16 1l40 201q22 -8 56 -8q71 0 124.5 76t98.5 234l164 585h750l-231 -1089h-218l195 908h-342l-121 -416q-79 -279 -175 -391t-269 -112q-40 0 -72 12z" />
<glyph unicode="&#x43c;" horiz-adv-x="1582" d="M98 0l231 1089h269l182 -779h17l521 779h265l-230 -1089h-212l160 751h-19l-470 -707h-159l-167 707h-19l-160 -751h-209z" />
<glyph unicode="&#x43d;" horiz-adv-x="1258" d="M98 0l231 1089h218l-93 -436h494l94 436h218l-231 -1089h-218l101 472h-494l-102 -472h-218z" />
<glyph unicode="&#x43e;" horiz-adv-x="1262" d="M160 441q0 137 41.5 259t116.5 213t187 144t245 53q206 0 331.5 -128t125.5 -333q0 -180 -69.5 -331.5t-205.5 -245t-313 -93.5q-206 0 -332.5 128t-126.5 334zM386 456q0 -127 68 -206t186 -79q136 0 238 129t102 319q0 141 -65.5 220.5t-180.5 79.5 q-157 0 -252.5 -131.5t-95.5 -331.5z" />
<glyph unicode="&#x43f;" horiz-adv-x="1248" d="M98 0l231 1089h921l-231 -1089h-218l195 908h-485l-195 -908h-218z" />
<glyph unicode="&#x440;" horiz-adv-x="1294" d="M22 -353l307 1442h208l-31 -150h16q59 79 149 123.5t194 44.5q165 0 273.5 -117.5t108.5 -301.5q0 -148 -43 -279.5t-116.5 -225t-176 -147.5t-217.5 -54q-117 0 -204 60t-116 157h-16l-120 -552h-216zM415 447q0 -126 67.5 -198t181.5 -72q153 0 256 136t103 339 q0 125 -64 194t-176 69q-154 0 -261 -136.5t-107 -331.5z" />
<glyph unicode="&#x441;" horiz-adv-x="1189" d="M162 472q0 127 40.5 242t113 203t182.5 140t241 52q186 0 305 -108t130 -263h-211q-11 76 -76.5 127.5t-152.5 51.5q-108 0 -190 -60.5t-123 -159t-41 -217.5q0 -148 63.5 -228t188.5 -80q88 0 154.5 47.5t105.5 127.5h219q-61 -170 -187.5 -269t-303.5 -99 q-227 0 -342.5 129.5t-115.5 363.5z" />
<glyph unicode="&#x442;" horiz-adv-x="996" d="M181 908l36 181h892l-36 -181h-337l-194 -908h-219l195 908h-337z" />
<glyph unicode="&#x443;" horiz-adv-x="1166" d="M35 -388l33 185q31 -9 95 -9q63 0 112 35.5t95 119.5l33 60l-164 1086h216l105 -842h17l448 842h233l-666 -1173q-97 -177 -194 -245t-240 -68q-57 0 -123 9z" />
<glyph unicode="&#x444;" horiz-adv-x="1615" d="M153 446q0 137 48 256.5t137.5 209t225.5 142t303 54.5l73 341h214l-73 -341q211 -8 343.5 -133.5t132.5 -331.5q0 -137 -48 -256.5t-137.5 -209t-225.5 -142t-303 -54.5l-72 -334h-214l71 334q-210 8 -342.5 133.5t-132.5 331.5zM375 470q0 -141 78.5 -221t213.5 -83 l163 757q-141 -5 -246.5 -70.5t-157 -165t-51.5 -217.5zM879 166q141 5 246.5 70.5t157 165t51.5 217.5q0 141 -78.5 221t-212.5 83z" />
<glyph unicode="&#x445;" horiz-adv-x="1137" d="M19 0l476 550l-248 539h235l160 -382h17l313 382h248l-475 -545l248 -544h-226l-169 383h-17l-316 -383h-246z" />
<glyph unicode="&#x446;" horiz-adv-x="1306" d="M98 0l231 1089h218l-195 -908h485l195 908h218l-195 -908h170l-97 -466h-200l61 285h-891z" />
<glyph unicode="&#x447;" horiz-adv-x="1181" d="M234 790l63 299h218l-63 -297q-24 -109 17 -168.5t146 -59.5q84 0 153 37t112 87l85 401h218l-231 -1089h-218l102 478h-17q-130 -110 -281 -110q-175 0 -259.5 115.5t-44.5 306.5z" />
<glyph unicode="&#x448;" horiz-adv-x="1721" d="M98 0l231 1089h219l-194 -908h369l194 908h218l-194 -908h370l194 908h218l-231 -1089h-1394z" />
<glyph unicode="&#x449;" horiz-adv-x="1778" d="M98 0l231 1089h219l-194 -908h369l194 908h218l-194 -908h370l194 908h218l-194 -908h168l-97 -466h-200l61 285h-1363z" />
<glyph unicode="&#x44a;" horiz-adv-x="1265" d="M176 908l36 181h503l-71 -334h199q162 0 256.5 -84.5t94.5 -220.5q0 -196 -139.5 -323t-362.5 -127h-425l193 908h-284zM522 181h190q117 0 190 71t73 172q0 71 -46.5 111t-130.5 40h-190z" />
<glyph unicode="&#x44b;" horiz-adv-x="1510" d="M98 0l231 1089h218l-71 -334h196q162 0 256 -84.5t94 -220.5q0 -196 -139.5 -323t-362.5 -127h-422zM353 181h187q117 0 190.5 71t73.5 172q0 71 -47 111t-131 40h-187zM1063 0l231 1089h218l-231 -1089h-218z" />
<glyph unicode="&#x44c;" horiz-adv-x="1093" d="M98 0l231 1089h218l-71 -334h196q162 0 256 -84.5t94 -220.5q0 -196 -139.5 -323t-362.5 -127h-422zM353 181h187q117 0 190.5 71t73.5 172q0 71 -47 111t-131 40h-187z" />
<glyph unicode="&#x44d;" horiz-adv-x="1215" d="M134 347h211q7 -78 67.5 -127t155.5 -49q132 0 222 84t117 221h-462l34 167h447q2 128 -66 201.5t-188 73.5q-91 0 -160.5 -47t-109.5 -133h-210q55 174 185.5 273t317.5 99q205 0 327.5 -124.5t122.5 -335.5q0 -140 -40.5 -262.5t-114 -213t-184.5 -143t-244 -52.5 q-199 0 -310 102.5t-118 265.5z" />
<glyph unicode="&#x44e;" horiz-adv-x="1733" d="M98 0l231 1089h218l-93 -436h196q52 206 198.5 331.5t357.5 125.5q204 0 327.5 -128.5t123.5 -337.5q0 -182 -68 -332.5t-202 -243t-310 -92.5q-202 0 -325.5 123.5t-127.5 325.5q0 15 2 47h-208l-102 -472h-218zM847 456q0 -129 67.5 -207.5t184.5 -78.5q133 0 233 127 t100 315q0 143 -65.5 225t-178.5 82q-102 0 -180.5 -62t-119.5 -166.5t-41 -234.5z" />
<glyph unicode="&#x44f;" horiz-adv-x="1132" d="M11 0l387 415q-86 36 -135 107t-49 165q0 81 33 153.5t94.5 128t157 88t213.5 32.5h425l-231 -1089h-218l80 373h-147l-343 -373h-267zM433 698q0 -71 47.5 -111.5t131.5 -40.5h191l80 362h-191q-115 0 -187 -60.5t-72 -149.5z" />
<glyph unicode="&#x451;" horiz-adv-x="1218" d="M158 440q0 299 160 484.5t414 185.5q184 0 306.5 -121t123.5 -326q0 -78 -14 -170h-775q-1 -14 -1 -44q0 -140 75 -211t181 -71q185 0 252 126h218q-36 -140 -165 -227t-319 -87q-130 0 -232 53t-163 159t-61 249zM399 651h547q3 18 3 43q0 100 -61.5 166.5t-169.5 66.5 q-114 0 -199 -75t-120 -201zM438 1372q0 57 38.5 96t94.5 39q57 0 95.5 -39t38.5 -96t-38.5 -95.5t-95.5 -38.5q-56 0 -94.5 38.5t-38.5 95.5zM865 1372q0 57 38.5 96t94.5 39q57 0 95.5 -39t38.5 -96t-38.5 -95.5t-95.5 -38.5q-56 0 -94.5 38.5t-38.5 95.5z" />
<glyph unicode="&#x452;" horiz-adv-x="1302" d="M109 0l273 1275h-158l29 139h158l21 96h215l-21 -96h230l-29 -139h-231l-73 -338h17q68 90 148.5 131.5t192.5 41.5q146 0 242.5 -91.5t96.5 -245.5q0 -57 -13 -115l-157 -735q-33 -158 -118.5 -234.5t-240.5 -76.5q-4 0 -55.5 0.5t-53.5 0.5l42 192q1 0 26 -0.5t27 -0.5 q129 0 159 137l146 685q8 38 10 78q2 100 -57.5 156t-158.5 56q-114 0 -198 -69t-114 -204l-137 -643h-218z" />
<glyph unicode="&#x453;" horiz-adv-x="971" d="M106 0l231 1089h704l-36 -181h-486l-195 -908h-218zM562 1271l324 344h252l-354 -344h-222z" />
<glyph unicode="&#x454;" horiz-adv-x="1190" d="M162 472q0 127 40.5 242t113.5 203t183 140t241 52q186 0 305 -108t130 -263h-211q-11 76 -76.5 127.5t-152.5 51.5q-127 0 -215 -75.5t-118 -195.5h465l-34 -167h-453q-2 -146 62.5 -226.5t190.5 -80.5q88 0 154.5 47.5t105.5 127.5h219q-61 -170 -187.5 -269 t-303.5 -99q-227 0 -343 129.5t-116 363.5z" />
<glyph unicode="&#x455;" horiz-adv-x="1106" d="M102 301h215q18 -66 80.5 -107t154.5 -41q101 0 164 40.5t63 105.5q0 44 -29 75.5t-98 53.5l-167 56q-129 43 -191.5 112.5t-62.5 176.5q0 150 119 243.5t304 93.5q180 0 293 -84t131 -225h-206q-14 62 -73 98t-147 36q-91 0 -150 -39.5t-59 -100.5q0 -85 141 -130 l157 -54q135 -44 196 -113.5t61 -177.5q0 -150 -126.5 -245.5t-324.5 -95.5q-190 0 -312.5 89t-132.5 233z" />
<glyph unicode="&#x456;" horiz-adv-x="566" d="M108 0l233 1089h218l-232 -1089h-219zM379 1410q0 56 39.5 94.5t99.5 38.5t99.5 -37.5t39.5 -92.5q0 -56 -39.5 -94.5t-99.5 -38.5t-99.5 37.5t-39.5 92.5z" />
<glyph unicode="&#x457;" horiz-adv-x="553" d="M126 0l231 1089h215l-231 -1089h-215zM177 1372q0 57 38.5 96t94.5 39q57 0 95.5 -39t38.5 -96t-38.5 -95.5t-95.5 -38.5q-56 0 -94.5 38.5t-38.5 95.5zM604 1372q0 57 38.5 96t94.5 39q57 0 95.5 -39t38.5 -96t-38.5 -95.5t-95.5 -38.5q-56 0 -94.5 38.5t-38.5 95.5z " />
<glyph unicode="&#x458;" horiz-adv-x="560" d="M-160 -380l38 184q40 -4 57 -4q71 0 108.5 33t53.5 110l245 1146h215l-251 -1173q-64 -303 -367 -303q-57 0 -99 7zM379 1410q0 56 39.5 94.5t99.5 38.5t99.5 -37.5t39.5 -92.5q0 -56 -39.5 -94.5t-99.5 -38.5t-99.5 37.5t-39.5 92.5z" />
<glyph unicode="&#x459;" horiz-adv-x="1762" d="M-16 1l40 201q22 -8 56 -8q71 0 124.5 75t98.5 232l164 588h750l-72 -334h196q162 0 256.5 -84.5t94.5 -220.5q0 -196 -139.5 -323t-363.5 -127h-422l194 908h-340l-121 -416q-79 -280 -175 -391.5t-269 -111.5q-40 0 -72 12zM1023 181h187q116 0 189.5 71t73.5 172 q0 71 -47 111t-130 40h-187z" />
<glyph unicode="&#x45a;" horiz-adv-x="1805" d="M98 0l231 1089h218l-88 -411h493l88 411h218l-88 -410h206q162 0 255.5 -80t93.5 -205q0 -169 -137 -281.5t-357 -112.5h-422l107 499h-493l-107 -499h-218zM1064 179h187q113 0 184 55.5t71 132.5q0 65 -44 99.5t-125 34.5h-203z" />
<glyph unicode="&#x45b;" horiz-adv-x="1298" d="M107 0l273 1275h-156l29 139h156l21 96h217l-21 -96h228l-29 -139h-229l-76 -349h17q124 183 337 183q154 0 249.5 -93.5t95.5 -227.5q0 -57 -14 -127l-140 -661h-217l133 623q12 60 12 96q0 90 -60 143.5t-162 53.5q-115 0 -198.5 -72t-108.5 -186l-140 -658h-217z" />
<glyph unicode="&#x45c;" horiz-adv-x="1123" d="M98 0l231 1089h218l-95 -442h45l463 442h261l-564 -522l354 -567h-248l-300 476h-45l-102 -476h-218zM636 1271l324 344h252l-354 -344h-222z" />
<glyph unicode="&#x45e;" horiz-adv-x="1166" d="M35 -388l33 185q31 -9 95 -9q63 0 112 35.5t95 119.5l33 60l-164 1086h216l105 -842h17l448 842h233l-666 -1173q-97 -177 -194 -245t-240 -68q-57 0 -123 9zM469 1582h174q-17 -84 19 -141.5t117 -57.5q84 0 144 57.5t78 141.5h178q-32 -154 -139.5 -246t-279.5 -92 q-157 0 -239.5 96t-51.5 242z" />
<glyph unicode="&#x45f;" horiz-adv-x="1248" d="M98 0l231 1089h218l-195 -908h485l195 908h218l-231 -1089h-361l-61 -285h-199l61 285h-361z" />
<glyph unicode="&#x490;" horiz-adv-x="1188" d="M125 0l307 1443h683l60 285h209l-101 -489h-665l-265 -1239h-228z" />
<glyph unicode="&#x491;" horiz-adv-x="958" d="M98 0l231 1089h505l60 285h200l-97 -466h-486l-195 -908h-218z" />
<glyph unicode="&#x2000;" horiz-adv-x="1020" />
<glyph unicode="&#x2001;" horiz-adv-x="2041" />
<glyph unicode="&#x2002;" horiz-adv-x="1020" />
<glyph unicode="&#x2003;" horiz-adv-x="2041" />
<glyph unicode="&#x2004;" horiz-adv-x="680" />
<glyph unicode="&#x2005;" horiz-adv-x="510" />
<glyph unicode="&#x2006;" horiz-adv-x="340" />
<glyph unicode="&#x2007;" horiz-adv-x="340" />
<glyph unicode="&#x2008;" horiz-adv-x="255" />
<glyph unicode="&#x2009;" horiz-adv-x="408" />
<glyph unicode="&#x200a;" horiz-adv-x="113" />
<glyph unicode="&#x2010;" horiz-adv-x="976" d="M196 476l43 211h656l-42 -211h-657z" />
<glyph unicode="&#x2011;" horiz-adv-x="976" d="M196 476l43 211h656l-42 -211h-657z" />
<glyph unicode="&#x2012;" horiz-adv-x="976" d="M196 476l43 211h656l-42 -211h-657z" />
<glyph unicode="&#x2013;" horiz-adv-x="1213" d="M37 476l43 211h1212l-43 -211h-1212z" />
<glyph unicode="&#x2014;" horiz-adv-x="2048" d="M37 476l43 211h2048l-43 -211h-2048z" />
<glyph unicode="&#x2018;" horiz-adv-x="621" d="M382 1443h214l7 -571h-195z" />
<glyph unicode="&#x2019;" horiz-adv-x="622" d="M262 872l246 571h215l-269 -571h-192z" />
<glyph unicode="&#x201a;" horiz-adv-x="621" d="M-16 -429l246 570h215l-269 -570h-192z" />
<glyph unicode="&#x201c;" horiz-adv-x="1055" d="M377 1443h212l6 -571h-192zM812 1443h212l7 -571h-193z" />
<glyph unicode="&#x201d;" horiz-adv-x="1055" d="M262 872l246 571h213l-267 -571h-192zM697 872l247 571h212l-266 -571h-193z" />
<glyph unicode="&#x201e;" horiz-adv-x="1055" d="M-16 -429l246 570h213l-267 -570h-192zM419 -429l247 570h212l-266 -570h-193z" />
<glyph unicode="&#x2020;" horiz-adv-x="1032" d="M263 897l39 196h285l66 309h190l-66 -309h285l-38 -196h-285l-129 -600h-191l129 600h-285z" />
<glyph unicode="&#x2021;" horiz-adv-x="1032" d="M185 535l38 184h286l57 263h-287l37 184h285l51 236h190l-51 -236h285l-36 -184h-287l-57 -263h287l-38 -184h-285l-51 -238h-191l52 238h-285z" />
<glyph unicode="&#x2022;" horiz-adv-x="1032" d="M258 581q0 134 91.5 227t224.5 93t224.5 -93t91.5 -227t-91.5 -227t-224.5 -93t-224.5 93t-91.5 227z" />
<glyph unicode="&#x2026;" horiz-adv-x="1715" d="M117 129q0 64 42 108t105 44t105 -43t42 -104q0 -64 -42 -107.5t-105 -43.5q-62 0 -104.5 43t-42.5 103zM653 129q0 64 41.5 108t104.5 44t105 -43t42 -104q0 -64 -42 -107.5t-105 -43.5q-62 0 -104 43t-42 103zM1178 129q0 64 42 108t105 44t105 -43t42 -104 q0 -64 -42 -107.5t-105 -43.5q-62 0 -104.5 43t-42.5 103z" />
<glyph unicode="&#x202f;" horiz-adv-x="408" />
<glyph unicode="&#x2030;" horiz-adv-x="2433" d="M174 0l718 756l626 687h233l-730 -768l-613 -675h-234zM284 1065q0 170 104 288.5t255 118.5q128 0 205.5 -84t77.5 -223q0 -169 -105 -288t-254 -119q-128 0 -205.5 84t-77.5 223zM465 1065q0 -68 30 -109t81 -41q69 0 119 75t50 178q0 68 -29 107.5t-79 39.5 q-70 0 -121 -74.5t-51 -175.5zM1000 279q0 170 104.5 288t254.5 118q128 0 205.5 -84t77.5 -223q0 -169 -104.5 -288t-253.5 -119q-129 0 -206.5 84t-77.5 224zM1181 279q0 -69 30.5 -110t80.5 -41q69 0 119.5 75t50.5 178q0 69 -29 108.5t-80 39.5q-70 0 -121 -74.5 t-51 -175.5zM1726 279q0 170 104.5 288t254.5 118q128 0 205.5 -84t77.5 -223q0 -169 -104.5 -288t-253.5 -119q-129 0 -206.5 84t-77.5 224zM1907 279q0 -69 30.5 -110t80.5 -41q69 0 119.5 75t50.5 178q0 69 -29 108.5t-80 39.5q-70 0 -121 -74.5t-51 -175.5z" />
<glyph unicode="&#x2039;" horiz-adv-x="921" d="M199 561l2 8l433 414h245l-449 -429l-3 -14l250 -392h-216z" />
<glyph unicode="&#x203a;" horiz-adv-x="920" d="M150 148l449 429l3 14l-250 392h217l261 -414l-2 -8l-432 -413h-246z" />
<glyph unicode="&#x2044;" horiz-adv-x="596" d="M-202 0l516 757l450 686h210l-502 -733l-464 -710h-210z" />
<glyph unicode="&#x205f;" horiz-adv-x="510" />
<glyph unicode="&#x2070;" horiz-adv-x="939" d="M302 1239q0 170 58.5 307.5t161 214.5t228.5 77q151 0 238 -98.5t88 -267.5q0 -258 -129 -429t-321 -171q-150 0 -237 99t-87 268zM511 1229q0 -87 33 -136t91 -49q92 0 162 132t70 306q0 86 -33 135t-91 49q-92 0 -162 -131.5t-70 -305.5z" />
<glyph unicode="&#x2074;" horiz-adv-x="914" d="M234 1051l34 192q136 185 473 569h300l-126 -589h116l-34 -172h-117l-33 -153h-197l33 153h-449zM451 1216h270l94 437h-10q-203 -229 -352 -427z" />
<glyph unicode="&#x2075;" horiz-adv-x="896" d="M291 1149v26h188q2 -59 45 -94.5t112 -35.5q75 0 124 50t49 126q-1 63 -41 101t-105 38q-88 0 -142 -65h-189l153 517h581l-35 -172h-417l-66 -207h10q71 71 185 71q111 0 185.5 -75t75.5 -187q0 -161 -105 -264.5t-270 -103.5q-146 0 -242.5 78.5t-95.5 196.5z" />
<glyph unicode="&#x2076;" horiz-adv-x="909" d="M284 1187q0 186 186 379q23 32 114.5 121t132.5 125h273v-8q-39 -30 -163.5 -138.5t-153.5 -139.5q-35 -35 -53 -64l11 -3q51 37 131 37q106 0 176.5 -75.5t70.5 -188.5q0 -150 -109 -252t-270 -102q-149 0 -247.5 88t-98.5 221zM484 1194q1 -62 44 -103t108 -41 q70 0 119.5 47.5t49.5 115.5q0 62 -43.5 103.5t-108.5 41.5q-70 0 -119 -48t-50 -116z" />
<glyph unicode="&#x2077;" horiz-adv-x="808" d="M251 898l543 732l2 12h-440l36 170h655l-36 -171l-534 -743h-226z" />
<glyph unicode="&#x2078;" horiz-adv-x="946" d="M276 1133q1 100 71 171t184 89l3 11q-59 23 -93 69.5t-33 101.5q-1 113 98 187.5t249 74.5q139 0 233.5 -70t93.5 -171q0 -87 -58 -149.5t-152 -76.5l-2 -12q72 -25 113.5 -79t41.5 -123q0 -124 -109 -203.5t-279 -79.5q-159 0 -260 72.5t-101 187.5zM493 1152 q-1 -55 41.5 -89t112.5 -34q73 0 121 41t48 103q1 55 -42.5 90t-111.5 35q-72 0 -120.5 -42t-48.5 -104zM602 1551q0 -47 36.5 -77.5t93.5 -30.5q62 0 104 38t42 94q0 47 -36.5 77.5t-93.5 30.5q-63 0 -104.5 -37.5t-41.5 -94.5z" />
<glyph unicode="&#x2079;" horiz-adv-x="909" d="M345 1477q0 149 108.5 249t269.5 100q149 0 248 -88t100 -221q-2 -186 -187 -379q-17 -25 -107.5 -113t-138.5 -132h-274v8q38 29 162.5 137.5t155.5 140.5q31 31 52 64l-11 3q-50 -38 -121 -38q-110 0 -183.5 77t-73.5 192zM550 1493q-1 -62 42 -104t109 -42 q70 0 119.5 48t49.5 116q-1 62 -44 103t-108 41q-70 0 -119.5 -47.5t-48.5 -114.5z" />
<glyph unicode="&#x207a;" horiz-adv-x="893" d="M312 1280l34 173h258l55 256h168l-55 -256h261l-34 -173h-261l-55 -257h-168l55 257h-258z" />
<glyph unicode="&#x207c;" horiz-adv-x="894" d="M280 1125l35 173h687l-35 -173h-687zM345 1435l34 172h687l-34 -172h-687z" />
<glyph unicode="&#x207d;" horiz-adv-x="550" d="M306 1133q-1 206 78.5 398.5t222.5 329.5h210q-142 -141 -223.5 -337.5t-81.5 -409.5q0 -175 55 -341h-186q-34 66 -54.5 164t-20.5 196z" />
<glyph unicode="&#x207e;" horiz-adv-x="550" d="M164 773q142 140 223 336.5t81 410.5q0 174 -54 341h186q34 -67 54.5 -165t20.5 -196q0 -207 -79.5 -399t-221.5 -328h-210z" />
<glyph unicode="&#x2080;" horiz-adv-x="939" d="M33 -28q0 170 58.5 307.5t161 214.5t228.5 77q151 0 238 -98.5t88 -267.5q0 -258 -129 -429t-321 -171q-150 0 -237 99t-87 268zM242 -38q0 -86 33 -135.5t91 -49.5q92 0 162 132t70 306q0 86 -33 135t-91 49q-92 0 -162 -131.5t-70 -305.5z" />
<glyph unicode="&#x2081;" horiz-adv-x="709" d="M60 186l41 199l269 160h207l-194 -914h-208l151 705h-12z" />
<glyph unicode="&#x2082;" horiz-adv-x="877" d="M-33 -369l32 155l344 269q128 99 169 146.5t41 94.5t-35 76.5t-90 29.5q-58 0 -100 -35t-53 -94v-2h-191q11 131 112.5 215t249.5 84q136 0 224 -72t88 -182q0 -83 -55 -155.5t-209 -189.5q-192 -149 -205 -158l-2 -11h388l-35 -171h-673z" />
<glyph unicode="&#x2083;" horiz-adv-x="895" d="M1 -86h195q-1 -60 40.5 -97t110.5 -37q73 0 117.5 37.5t44.5 99.5q0 48 -40 78.5t-104 30.5h-99l30 151h119q68 0 112 35.5t44 90.5q0 46 -36.5 74t-95.5 28q-53 0 -93.5 -28t-55.5 -74h-190q25 121 122 194t234 73q138 0 227 -68.5t89 -173.5q0 -89 -61 -153.5 t-155 -75.5l-1 -12q76 -17 117.5 -66t41.5 -123q0 -128 -103.5 -210t-264.5 -82q-163 0 -262 88.5t-83 219.5z" />
<glyph unicode="&#x2084;" horiz-adv-x="914" d="M-35 -216l34 192q136 185 473 569h300l-126 -589h116l-34 -172h-117l-33 -153h-197l33 153h-449zM182 -51h270l94 437h-10q-203 -229 -352 -427z" />
<glyph unicode="&#x2085;" horiz-adv-x="896" d="M22 -92h188q2 -59 45 -94.5t112 -35.5q75 0 124 50t49 126q-1 63 -41 101t-105 38q-88 0 -142 -65h-189l153 517h581l-35 -172h-417l-66 -207h10q71 71 185 71q111 0 185.5 -75t75.5 -187q0 -161 -105 -264.5t-270 -103.5q-146 0 -242.5 78.5t-95.5 196.5v26z" />
<glyph unicode="&#x2086;" horiz-adv-x="909" d="M15 -80q0 186 186 379q23 32 114.5 121t132.5 125h273v-8q-39 -30 -163.5 -138.5t-153.5 -139.5q-35 -35 -53 -64l11 -3q51 37 131 37q106 0 176.5 -75.5t70.5 -188.5q0 -150 -109 -252t-270 -102q-149 0 -247.5 88t-98.5 221zM215 -73q1 -62 44 -103t108 -41 q70 0 119.5 47.5t49.5 115.5q0 62 -43.5 103.5t-108.5 41.5q-70 0 -119 -48t-50 -116z" />
<glyph unicode="&#x2087;" horiz-adv-x="809" d="M-17 -369l543 732l2 12h-440l36 170h655l-36 -171l-534 -743h-226z" />
<glyph unicode="&#x2088;" horiz-adv-x="946" d="M7 -134q1 100 71 171t184 89l3 11q-59 23 -93 69.5t-33 101.5q-1 113 98 187.5t249 74.5q139 0 233.5 -70t93.5 -171q0 -87 -58 -149.5t-152 -76.5l-2 -12q72 -25 113.5 -79t41.5 -123q0 -124 -109 -203.5t-279 -79.5q-159 0 -260 72.5t-101 187.5zM224 -115 q-1 -55 41.5 -89t112.5 -34q73 0 121 41t48 103q1 55 -42.5 90t-111.5 35q-72 0 -120.5 -42t-48.5 -104zM333 284q0 -47 36.5 -77.5t93.5 -30.5q62 0 104 38t42 94q0 47 -36.5 77.5t-93.5 30.5q-63 0 -104.5 -37.5t-41.5 -94.5z" />
<glyph unicode="&#x2089;" horiz-adv-x="910" d="M76 210q0 149 108.5 249t269.5 100q149 0 248 -88t100 -221q-2 -186 -187 -379q-17 -25 -107.5 -113t-138.5 -132h-274v8q38 29 162.5 137.5t155.5 140.5q31 31 52 64l-11 3q-50 -38 -121 -38q-110 0 -183.5 77t-73.5 192zM281 226q-1 -62 42 -104t109 -42q70 0 119.5 48 t49.5 116q-1 62 -44 103t-108 41q-70 0 -119.5 -47.5t-48.5 -114.5z" />
<glyph unicode="&#x208a;" horiz-adv-x="894" d="M44 13l34 173h258l55 256h168l-55 -256h261l-34 -173h-261l-55 -257h-168l55 257h-258z" />
<glyph unicode="&#x208c;" horiz-adv-x="894" d="M11 -142l35 173h687l-35 -173h-687zM76 168l34 172h687l-34 -172h-687z" />
<glyph unicode="&#x208d;" horiz-adv-x="550" d="M38 -134q-1 206 78.5 398.5t222.5 329.5h210q-142 -141 -223.5 -337.5t-81.5 -409.5q0 -175 55 -341h-186q-34 66 -54.5 164t-20.5 196z" />
<glyph unicode="&#x208e;" horiz-adv-x="550" d="M-105 -494q142 140 223 336.5t81 410.5q0 174 -54 341h186q34 -67 54.5 -165t20.5 -196q0 -207 -79.5 -399t-221.5 -328h-210z" />
<glyph unicode="&#x20ac;" d="M155 488l31 146h178q0 86 14 170h-153l31 146h158q82 243 282.5 380.5t487.5 137.5q65 0 150 -11.5t134 -26.5l-44 -205q-107 33 -241 33q-189 0 -323 -80t-201 -228h503l-31 -146h-517q-14 -75 -14 -155v-15l492 1l-31 -147h-435q51 -145 193.5 -226t351.5 -81 q14 0 42 2l-42 -206q-22 -2 -51 -2q-287 0 -489.5 140.5t-252.5 372.5h-223z" />
<glyph unicode="&#x2122;" horiz-adv-x="2330" d="M363 1263l36 180h819l-36 -180h-312l-158 -734h-195l158 734h-312zM1178 529l194 914h209l163 -597h17l422 597h231l-194 -914h-178l129 606h-17l-389 -558h-114l-146 558h-17l-129 -606h-181z" />
<glyph unicode="&#x2202;" horiz-adv-x="1255" d="M158 379q0 157 71 289.5t194 209.5t268 77q108 0 203 -48.5t136 -124.5l17 -2q3 28 3 58q0 195 -115.5 345.5t-314.5 213.5l98 183q244 -87 383 -282.5t139 -454.5q0 -236 -89.5 -438t-242.5 -320t-332 -118q-184 0 -301 115.5t-117 296.5zM381 395q0 -103 61 -165.5 t161 -62.5q138 0 248 118t153 315q-44 71 -122.5 113.5t-168.5 42.5q-136 0 -234 -106.5t-98 -254.5z" />
<glyph unicode="&#x220f;" horiz-adv-x="1564" d="M287 -290l327 1529h-211l42 204h1259l-42 -204h-209l-327 -1529h-217l327 1529h-405l-327 -1529h-217z" />
<glyph unicode="&#x2211;" horiz-adv-x="1306" d="M125 -282l41 198l609 661l2 12l-325 655l40 199h916l-41 -199h-679l-1 -10l328 -665l-3 -12l-600 -631l-2 -9h672l-41 -199h-916z" />
<glyph unicode="&#x221a;" horiz-adv-x="1427" d="M123 687h211l54 -712h17l711 1468h508l-40 -200h-341l-734 -1482h-289z" />
<glyph unicode="&#x221e;" horiz-adv-x="1860" d="M142 559q0 199 134.5 328.5t340.5 129.5q117 0 222 -65.5t177 -182.5q181 248 439 248q171 0 279.5 -104t108.5 -267q0 -199 -134.5 -328.5t-340.5 -129.5q-117 0 -222 65.5t-177 182.5q-181 -248 -439 -248q-171 0 -279.5 104t-108.5 267zM345 573q0 -80 59.5 -135 t148.5 -55q199 0 342 219q-53 101 -131 159t-159 58q-113 0 -186.5 -70t-73.5 -176zM1090 603q53 -101 131 -159t159 -58q113 0 187 70t74 176q0 80 -60 135t-149 55q-199 0 -342 -219z" />
<glyph unicode="&#x222b;" horiz-adv-x="1139" d="M-12 -286l46 178q51 -16 95 -16q70 0 117.5 39.5t78.5 124.5l407 1133q57 161 153.5 236t254.5 75q60 0 130 -22l-47 -179q-43 16 -94 16q-70 0 -118 -39.5t-78 -123.5l-407 -1134q-57 -160 -153.5 -235t-255.5 -75q-61 0 -129 22z" />
<glyph unicode="&#x2248;" d="M143 152q17 164 106.5 258.5t212.5 94.5q56 0 103.5 -22.5t80 -54.5t61 -64t59 -54.5t61.5 -22.5q103 0 131 155h186q-18 -164 -108 -260t-212 -96q-55 0 -102.5 22.5t-80 55t-61.5 64.5t-59.5 54.5t-60.5 22.5q-102 0 -131 -153h-186zM242 608q17 164 106.5 258.5 t212.5 94.5q56 0 103.5 -22.5t80 -54.5t61 -63.5t59 -54t61.5 -22.5q103 0 131 154h186q-18 -164 -108 -259.5t-212 -95.5q-55 0 -103 22.5t-80.5 55t-61 64.5t-59 54.5t-60.5 22.5q-101 0 -131 -154h-186z" />
<glyph unicode="&#x2260;" horiz-adv-x="1360" d="M159 277l38 190h394l140 231h-484l38 189h560l132 219h176l-132 -219h295l-37 -189h-372l-140 -231h462l-39 -190h-538l-167 -277h-176l167 277h-317z" />
<glyph unicode="&#x2264;" d="M123 80l37 186h1021l-37 -186h-1021zM255 702l36 181l1087 304l-43 -208l-775 -183l-4 -17l695 -186l-40 -195z" />
<glyph unicode="&#x2265;" d="M124 80l37 186h1021l-37 -186h-1021zM191 398l42 207l775 187l4 17l-694 183l40 195l955 -304l-36 -181z" />
<glyph unicode="&#x25ca;" horiz-adv-x="1224" d="M196 683l522 681h230l232 -714l-517 -673h-237zM418 661l156 -478h16l368 489l-156 476l-17 1z" />
<glyph unicode="&#x25fc;" horiz-adv-x="1090" d="M0 0v1090h1090v-1090h-1090z" />
<glyph unicode="&#xf8ff;" horiz-adv-x="1965" d="M181 791q-3 188 76 324q60 102 160 164t214 64q51 2 109 -18.5t108 -41.5t78 -21q27 0 83 20t127 40.5t134 20.5q31 0 66 -6t84.5 -22.5t99 -55.5t85.5 -95q-149 -93 -187 -249q-12 -47 -12 -97q3 -75 29 -140t60 -104t70.5 -67t59 -39.5t26.5 -11.5q-1 -1 -6 -16 t-14.5 -40t-23 -55.5t-35.5 -70t-48 -75.5q-34 -51 -58.5 -83t-60 -68.5t-75 -54t-83.5 -17.5q-56 0 -140 37t-154 37q-61 0 -112 -18.5t-95.5 -37t-89.5 -18.5q-44 0 -84.5 18.5t-78 56.5t-62.5 69.5t-62 83.5q-79 114 -132.5 272.5t-55.5 314.5zM916 1366q-26 131 91 277 q52 61 127 98.5t145 37.5q9 -163 -101 -283q-47 -63 -119.5 -101t-142.5 -29z" />
<glyph unicode="&#xfb01;" horiz-adv-x="1307" d="M166 0l191 903h-178l37 181h176l22 114q31 161 123.5 233.5t261.5 72.5q66 0 143 -15l-34 -171q-37 10 -110 10q-141 0 -170 -149l-19 -95h239l-36 -181h-237l-190 -903h-219zM861 0l233 1089h218l-232 -1089h-219zM1132 1410q0 56 39.5 94.5t99.5 38.5t99.5 -37.5 t39.5 -92.5q0 -56 -39.5 -94.5t-99.5 -38.5t-99.5 37.5t-39.5 92.5z" />
<glyph unicode="&#xfb02;" horiz-adv-x="1307" d="M166 0l191 903h-178l37 181h176l22 114q31 161 123.5 233.5t261.5 72.5q66 0 143 -15l-34 -171q-37 10 -110 10q-141 0 -170 -149l-19 -95h239l-36 -181h-237l-190 -903h-219zM860 0l322 1514h218l-321 -1514h-219z" />
<glyph horiz-adv-x="1420" d="M5 0l792 1301h249l238 -1301h-230l-63 378h-525l-228 -378h-233zM565 559h401l-83 522h-9z" />
<glyph horiz-adv-x="1420" d="M5 0l792 1301h249l238 -1301h-230l-63 378h-525l-228 -378h-233zM565 559h401l-83 522h-9zM774 1666q0 99 68.5 166t168.5 67t168.5 -67t68.5 -166t-69 -166.5t-168 -67.5t-168 67.5t-69 166.5zM895 1666q0 -50 33 -82.5t83 -32.5t83 32.5t33 82.5q0 49 -33 81.5 t-83 32.5t-83 -32.5t-33 -81.5z" />
<glyph horiz-adv-x="1490" d="M193 560q0 197 58.5 367.5t160.5 291.5t245.5 190t308.5 69q239 0 398.5 -140t159.5 -350q0 -14 -1 -22h-223q1 1 1 7q-10 134 -105.5 214t-245.5 80q-146 0 -266.5 -90t-190 -248t-69.5 -349q0 -187 98.5 -296t266.5 -109q138 0 244.5 66t144.5 175h229 q-48 -193 -200.5 -312.5t-372.5 -136.5l-51 -76q171 -12 171 -153q0 -83 -67.5 -131.5t-180.5 -48.5q-32 0 -76.5 7.5t-68.5 17.5l22 110q49 -17 112 -17q104 0 104 56q0 60 -119 60h-65l14 82l59 95q-226 26 -360.5 184.5t-134.5 406.5z" />
<glyph horiz-adv-x="1239" d="M115 0l278 1301h916l-40 -199h-692l-77 -347h655l-38 -185h-655l-83 -371h693l-40 -199h-917z" />
<glyph horiz-adv-x="584" d="M115 0l277 1301h224l-278 -1301h-223z" />
<glyph horiz-adv-x="1596" d="M169 564q0 164 57 308.5t155 247t235.5 162t292.5 59.5q276 0 446 -168.5t170 -441.5q0 -218 -97 -395t-266.5 -276.5t-376.5 -99.5q-278 0 -447 166t-169 438zM401 580q0 -186 108 -297.5t285 -111.5q103 0 195.5 42.5t159 115.5t105.5 176t39 218q0 185 -107.5 296 t-284.5 111q-210 0 -355 -158t-145 -392z" />
<glyph horiz-adv-x="1333" d="M63 375h222q16 -99 113.5 -158.5t240.5 -59.5t222.5 50t79.5 140q0 67 -49.5 112t-161.5 81l-156 50q-332 109 -332 357q0 177 141 283.5t377 106.5q219 0 366 -112.5t158 -289.5h-219q-16 98 -99 154t-209 56q-134 0 -211 -47.5t-77 -131.5q0 -113 215 -183l139 -46 q343 -114 343 -363q0 -193 -143 -301t-400 -108q-157 0 -281 50.5t-197 144t-82 215.5z" />
<glyph horiz-adv-x="1539" d="M219 424q0 53 15 125l160 752h228l-161 -753q-10 -44 -10 -90q0 -127 91 -205.5t249 -78.5q152 0 255.5 85.5t134.5 228.5l174 813h227l-182 -855q-47 -220 -214 -352t-409 -132q-253 0 -405.5 127.5t-152.5 334.5z" />
<glyph horiz-adv-x="1172" d="M148 439q0 190 74 343t207.5 240.5t301.5 87.5q170 0 288.5 -94.5t139.5 -232.5q2 -14 4 -46h-212q-7 80 -73.5 130.5t-162.5 50.5q-150 0 -248.5 -130.5t-98.5 -325.5q0 -137 67.5 -213.5t180.5 -76.5q94 0 161.5 43t95.5 122h215q-31 -154 -159 -253.5t-311 -104.5 l-58 -88q171 -12 171 -153q0 -83 -67.5 -131.5t-180.5 -48.5q-32 0 -76.5 7.5t-68.5 17.5l22 110q49 -17 112 -17q104 0 104 56q0 60 -119 60h-65l14 82l73 118q-154 35 -242.5 153.5t-88.5 293.5z" />
<glyph horiz-adv-x="546" d="M100 0l231 1089h215l-231 -1089h-215zM370 1425q0 60 41 101.5t99 41.5q59 0 99.5 -41.5t40.5 -101.5t-41 -102t-99 -42t-99 42t-41 102z" />
<glyph horiz-adv-x="1734" d="M115 0l307 1443h227l-307 -1443h-227zM452 1582l362 306h258l-390 -306h-230zM677 357v13h222v-4q2 -86 57.5 -136.5t149.5 -50.5q194 0 246 243l218 1021h223l-225 -1063q-42 -201 -164.5 -308t-316.5 -107q-187 0 -303 111t-107 281zM1600 1582l362 306h258l-390 -306 h-230z" />
<glyph horiz-adv-x="1090" d="M100 0l231 1089h215l-231 -1089h-215zM356 1271l324 344h252l-354 -344h-222zM375 -380l38 184q40 -4 57 -4q71 0 108.5 33t53.5 110l245 1146h215l-251 -1173q-64 -303 -367 -303q-57 0 -99 7zM902 1271l324 344h252l-354 -344h-222z" />
<glyph horiz-adv-x="1280" d="M91 279l41 204l689 960h237l-674 -947l-2 -13h435l84 388h213l-84 -390h190l-41 -202h-188l-60 -279h-217l61 279h-684z" />
<glyph horiz-adv-x="1361" d="M194 439q0 296 324 621q7 9 196.5 192t196.5 191h289q-37 -32 -275.5 -253.5t-252.5 -242.5q-34 -36 -61 -72l14 -7q36 31 94 50t118 19q171 0 286 -123t115 -305q0 -149 -72 -271t-198.5 -191.5t-280.5 -69.5q-216 0 -354.5 130t-138.5 332zM407 458q0 -122 83 -203 t209 -81q134 0 226.5 89.5t93.5 220.5q1 123 -82 204.5t-208 81.5q-133 0 -227 -91t-95 -221z" />
<glyph horiz-adv-x="1362" d="M317 947q0 226 158 378.5t393 152.5q216 0 354.5 -129.5t138.5 -332.5q0 -148 -80 -300t-244 -321q-7 -9 -206.5 -205t-206.5 -204h-289q45 40 289.5 270.5t258.5 251.5q43 47 61 72l-14 7q-35 -29 -90.5 -49t-105.5 -20q-181 0 -299 121.5t-118 307.5zM536 971 q-1 -123 82 -204.5t208 -81.5q133 0 227 91t94 221q1 122 -82 203t-209 81q-134 0 -226.5 -89.5t-93.5 -220.5z" />
<glyph d="M204 500q0 207 53 389.5t143 311.5t214 203.5t261 74.5q209 0 332 -146.5t123 -391.5q0 -277 -89.5 -501.5t-243 -350t-338.5 -125.5q-209 0 -332 146t-123 390zM428 494q0 -156 64 -244.5t179 -88.5t215.5 107t160 289t59.5 391q0 155 -63.5 244t-176.5 89 q-115 0 -216.5 -107t-161.5 -289t-60 -391z" />
<glyph d="M448 931l50 244l438 268h223l-307 -1443h-224l254 1184h-17z" />
<glyph d="M128 0l36 176l593 504q195 166 255.5 242t60.5 157q0 89 -68.5 146.5t-174.5 57.5q-111 0 -189.5 -63t-97.5 -169l-1 -3q-16 0 -102.5 0.5t-110.5 0.5q19 190 164 309.5t355 119.5q194 0 322.5 -107t128.5 -269q0 -128 -86 -242.5t-332 -321.5l-386 -321l-4 -17h676 l-41 -200h-998z" />
<glyph d="M165 363q0 7 1.5 23.5t1.5 20.5h214v-6q-3 -104 80.5 -171t216.5 -67q146 0 233.5 74.5t87.5 198.5q0 94 -80 153.5t-206 59.5h-157l37 186h203q125 0 208.5 72.5t83.5 180.5q0 88 -69.5 142t-182.5 54q-98 0 -177.5 -55.5t-107.5 -143.5h-213q37 179 178 286t339 107 q199 0 328.5 -102.5t129.5 -260.5q0 -141 -92.5 -245t-240.5 -129l-3 -17q119 -26 183.5 -102.5t64.5 -192.5q0 -204 -155.5 -334t-399.5 -130q-217 0 -361 113t-145 285z" />
<glyph horiz-adv-x="1360" d="M118 279l35 218q235 307 800 946h333l-206 -964h200l-40 -200h-200l-61 -279h-216l60 279h-705zM374 474h492l166 772h-13q-376 -418 -643 -758z" />
<glyph d="M177 371q0 12 2 32h214v-5q1 -105 80.5 -170t206.5 -65q147 0 238.5 96.5t91.5 246.5q0 119 -76.5 190.5t-195.5 71.5q-82 0 -153.5 -32.5t-119.5 -87.5h-213l243 795h832l-41 -200h-649l-125 -398l16 -2q112 105 279 105q179 0 302 -118t123 -297q0 -250 -154 -409 t-408 -159q-210 0 -351.5 116.5t-141.5 289.5z" />
<glyph d="M199 512q0 183 46.5 356t131.5 308q92 147 225.5 225t292.5 78q200 0 333 -115.5t140 -294.5h-225q-11 97 -82 154t-182 57q-156 0 -269.5 -135.5t-164.5 -381.5l17 -1q67 89 165 137.5t211 48.5q188 0 309 -117.5t121 -301.5q0 -157 -75 -286.5t-205.5 -203.5 t-288.5 -74q-231 0 -365.5 146.5t-134.5 400.5zM426 424q0 -117 77.5 -189.5t204.5 -72.5q141 0 238 99.5t97 244.5q0 113 -75.5 185t-194.5 72q-145 0 -246 -98.5t-101 -240.5z" />
<glyph horiz-adv-x="1360" d="M220 0l904 1227l3 17h-727l41 199h961l-42 -203l-896 -1240h-244z" />
<glyph d="M148 355q0 163 110.5 281t281.5 139l4 17q-87 39 -137 111t-50 158q0 180 145.5 298.5t365.5 118.5q198 0 332.5 -103.5t134.5 -255.5q0 -140 -88.5 -241.5t-233.5 -127.5l-4 -17q110 -41 173 -123.5t63 -188.5q0 -199 -161 -327.5t-409 -128.5q-231 0 -379 109t-148 281 zM383 382q0 -106 81.5 -168t220.5 -62q145 0 239 78.5t94 199.5q0 103 -84 167.5t-219 64.5q-143 0 -237.5 -79.5t-94.5 -200.5zM574 1041q0 -89 70 -144.5t182 -55.5q122 0 203 72t81 181q0 88 -70.5 143t-183.5 55q-123 0 -202.5 -70.5t-79.5 -180.5z" />
<glyph d="M168 369h226q9 -94 80.5 -150t183.5 -56q158 0 272 135t164 380l-17 2q-67 -90 -164.5 -138t-210.5 -48q-190 0 -311.5 117.5t-121.5 301.5q0 158 74.5 287.5t205 203.5t290.5 74q230 0 364 -147t134 -402q0 -181 -46.5 -353.5t-131.5 -307.5q-92 -147 -225.5 -225 t-291.5 -78q-199 0 -332.5 113.5t-141.5 290.5zM495 935q0 -113 74.5 -184.5t193.5 -71.5q145 0 246 98t101 240q0 118 -77.5 190t-203.5 72q-141 0 -237.5 -99.5t-96.5 -244.5z" />
<glyph horiz-adv-x="664" d="M164 252q-19 46 3 91.5t73 64.5q50 22 92.5 6.5t62.5 -62.5q19 -47 -2.5 -91.5t-71.5 -63.5q-51 -23 -94.5 -7.5t-62.5 62.5zM323 1013q-19 48 3 93t73 64q50 22 93 6.5t62 -62.5t-2.5 -92t-71.5 -64q-51 -22 -94 -7t-63 62z" />
<glyph horiz-adv-x="939" d="M223 870q0 170 58.5 307.5t161 214.5t228.5 77q151 0 238 -98.5t88 -267.5q0 -258 -129 -429t-321 -171q-150 0 -237 99t-87 268zM432 860q0 -86 33 -135.5t91 -49.5q92 0 162 132t70 306q0 86 -33 135t-91 49q-92 0 -162 -131.5t-70 -305.5z" />
<glyph horiz-adv-x="709" d="M250 1084l41 199l269 160h207l-194 -914h-208l151 705h-12z" />
<glyph horiz-adv-x="877" d="M158 529l32 155l344 269q128 99 169 146.5t41 94.5t-35 76.5t-90 29.5q-58 0 -100 -35t-53 -94v-2h-191q11 131 112.5 215t249.5 84q136 0 224 -72t88 -182q0 -83 -55 -155.5t-209 -189.5q-192 -149 -205 -158l-2 -11h388l-35 -171h-673z" />
<glyph horiz-adv-x="894" d="M192 812h195q-1 -60 40.5 -97t110.5 -37q73 0 117.5 37.5t44.5 99.5q0 48 -40 78.5t-104 30.5h-99l30 151h119q68 0 112 35.5t44 90.5q0 46 -36.5 74t-95.5 28q-53 0 -93.5 -28t-55.5 -74h-190q25 122 122 194.5t234 72.5q138 0 227 -68.5t89 -173.5q0 -89 -61 -153.5 t-155 -75.5l-1 -12q76 -17 117.5 -66t41.5 -123q0 -128 -103.5 -210t-264.5 -82q-163 0 -262 88.5t-83 219.5z" />
<glyph horiz-adv-x="913" d="M155 682l34 192q136 185 473 569h300l-126 -589h116l-34 -172h-117l-33 -153h-197l33 153h-449zM372 847h270l94 437h-10q-203 -229 -352 -427z" />
<glyph horiz-adv-x="895" d="M212 780v26h188q2 -59 45 -94.5t112 -35.5q75 0 124 50t49 126q-1 63 -41 101t-105 38q-88 0 -142 -65h-189l153 517h581l-35 -172h-417l-66 -207h10q71 71 185 71q111 0 185.5 -75t75.5 -187q0 -161 -105 -264.5t-270 -103.5q-146 0 -242.5 78.5t-95.5 196.5z" />
<glyph horiz-adv-x="908" d="M205 818q0 186 186 379q23 32 114.5 121t132.5 125h273v-8q-39 -30 -163.5 -138.5t-153.5 -139.5q-35 -35 -53 -64l11 -3q51 37 131 37q106 0 176.5 -75.5t70.5 -188.5q0 -150 -109 -252t-270 -102q-149 0 -247.5 88t-98.5 221zM405 825q1 -62 44 -103t108 -41 q70 0 119.5 47.5t49.5 115.5q0 62 -43.5 103.5t-108.5 41.5q-70 0 -119 -48t-50 -116z" />
<glyph horiz-adv-x="809" d="M173 529l543 732l2 12h-440l36 170h655l-36 -171l-534 -743h-226z" />
<glyph horiz-adv-x="945" d="M197 764q1 100 71 171t184 89l3 11q-59 23 -93 69.5t-33 101.5q-1 113 98 187.5t249 74.5q139 0 233.5 -70t93.5 -171q0 -87 -58 -149.5t-152 -76.5l-2 -12q72 -25 113.5 -79t41.5 -123q0 -124 -109 -203.5t-279 -79.5q-159 0 -260 72.5t-101 187.5zM414 783 q-1 -55 41.5 -89t112.5 -34q73 0 121 41t48 103q1 55 -42.5 90t-111.5 35q-72 0 -120.5 -42t-48.5 -104zM523 1182q0 -47 36.5 -77.5t93.5 -30.5q62 0 104 38t42 94q0 47 -36.5 77.5t-93.5 30.5q-63 0 -104.5 -37.5t-41.5 -94.5z" />
<glyph horiz-adv-x="910" d="M267 1108q0 149 108.5 249t269.5 100q149 0 248 -88t100 -221q-2 -186 -187 -379q-17 -25 -107.5 -113t-138.5 -132h-274v8q38 29 162.5 137.5t155.5 140.5q31 31 52 64l-11 3q-50 -38 -121 -38q-110 0 -183.5 77t-73.5 192zM472 1124q-1 -62 42 -104t109 -42 q70 0 119.5 48t49.5 116q-1 62 -44 103t-108 41q-70 0 -119.5 -47.5t-48.5 -114.5z" />
<glyph horiz-adv-x="894" d="M234 911l34 173h258l55 256h168l-55 -256h261l-34 -173h-261l-55 -257h-168l55 257h-258z" />
<glyph horiz-adv-x="894" d="M202 756l35 173h687l-35 -173h-687zM267 1066l34 172h687l-34 -172h-687z" />
<glyph horiz-adv-x="550" d="M228 764q-1 206 78.5 398.5t222.5 329.5h210q-142 -141 -223.5 -337.5t-81.5 -409.5q0 -175 55 -341h-186q-34 66 -54.5 164t-20.5 196z" />
<glyph horiz-adv-x="550" d="M80 404q142 140 223 336.5t81 410.5q0 175 -54 341h186q34 -67 54.5 -165t20.5 -196q0 -207 -79.5 -399t-221.5 -328h-210z" />
<glyph horiz-adv-x="755" d="M193 452q0 316 119.5 614t334.5 512h234q-222 -224 -345 -520t-123 -619q0 -307 90 -581h-195q-50 106 -82.5 273t-32.5 321z" />
<glyph horiz-adv-x="754" d="M42 -142q221 224 344 520t123 619q0 305 -90 581h195q51 -105 83 -272t32 -322q0 -316 -119.5 -614t-334.5 -512h-233z" />
<glyph horiz-adv-x="789" d="M68 -105l358 1684h496l-35 -174h-288l-288 -1337h300l-35 -173h-508z" />
<glyph horiz-adv-x="790" d="M30 -105l35 174h290l288 1337h-297l35 172h506l-358 -1683h-499z" />
<glyph horiz-adv-x="861" d="M165 633l47 229q97 0 145 46t74 165l53 239q39 183 157 263t325 80h67l-35 -175h-45q-122 0 -185 -50t-88 -167l-59 -270q-25 -114 -83.5 -171t-157.5 -66l-3 -17q69 -13 108 -55.5t39 -109.5q0 -33 -10 -83l-65 -301q-11 -50 -11 -83q0 -71 45.5 -104t144.5 -33h45 l-35 -171h-66q-159 0 -253 68.5t-94 181.5q0 57 14 117l56 258q12 57 12 96q0 61 -33.5 87t-108.5 26z" />
<glyph horiz-adv-x="861" d="M7 -201l35 175h45q122 0 185.5 50t88.5 167l59 270q24 113 82.5 170.5t157.5 67.5l3 17q-69 13 -108 55t-39 109q0 33 10 83l66 301q10 53 10 83q0 71 -45 104t-145 33h-45l35 171h66q160 0 253.5 -68.5t93.5 -180.5q0 -56 -13 -118l-57 -258q-12 -56 -12 -95 q0 -62 33.5 -88t108.5 -26l-46 -229q-98 0 -146 -46t-74 -164l-53 -240q-39 -183 -157 -263t-324 -80h-68z" />
<glyph horiz-adv-x="1879" d="M195 610q0 201 71 376.5t194 300t296 196.5t371 72q159 0 298 -50t238 -137.5t156 -210.5t57 -264q0 -179 -62 -327.5t-170 -233t-239 -84.5q-98 0 -162 47.5t-64 120.5q0 3 0.5 10t0.5 10l-17 -1q-78 -140 -241 -140q-139 0 -223 92t-84 244q0 138 53.5 253.5t147 182 t205.5 66.5q88 0 156 -46t84 -116l17 -1l26 125h175l-128 -583q-4 -24 -4 -34q0 -87 100 -87q70 0 133.5 70t102.5 185t39 240q0 230 -171.5 378.5t-437.5 148.5q-157 0 -299 -61.5t-244 -166.5t-162 -251t-60 -308q0 -275 191.5 -442t506.5 -166q125 0 193 20l-30 -142 q-103 -21 -214 -21q-174 0 -322.5 54.5t-253.5 150.5t-164.5 233t-59.5 297zM800 642q0 -86 46.5 -137t124.5 -51q104 0 177 92.5t73 222.5q0 91 -49 145.5t-129 54.5q-101 0 -172 -95.5t-71 -231.5z" />
<glyph horiz-adv-x="734" d="M-49 -174l804 1752h197l-807 -1752h-194z" />
<glyph horiz-adv-x="702" d="M152 -175l373 1753h191l-373 -1753h-191z" />
<glyph horiz-adv-x="733" d="M329 1578h189l52 -1752h-187z" />
<glyph horiz-adv-x="889" d="M225 611l43 211h656l-42 -211h-657z" />
<glyph horiz-adv-x="1213" d="M66 611l43 211h1212l-43 -211h-1212z" />
<glyph horiz-adv-x="2049" d="M66 611l43 211h2048l-43 -211h-2048z" />
<glyph horiz-adv-x="1032" d="M287 716q0 134 91.5 227t224.5 93t224.5 -93t91.5 -227t-91.5 -227t-224.5 -93t-224.5 93t-91.5 227z" />
<glyph d="M298 667l37 183l1014 445l-49 -239l-766 -306l-3 -17l612 -396l-46 -231z" />
<glyph d="M177 106l48 240l766 306l3 17l-612 395l47 231l798 -561l-36 -182z" />
<glyph d="M151 215l37 186h1021l-37 -186h-1021zM283 837l36 181l1087 304l-43 -208l-775 -183l-4 -17l695 -186l-40 -195z" />
<glyph horiz-adv-x="1360" d="M152 215l37 186h1021l-37 -186h-1021zM219 533l42 207l775 187l4 17l-694 183l40 195l955 -304l-36 -181z" />
<glyph horiz-adv-x="1360" d="M183 382l39 197h1032l-40 -197h-1031zM271 810l40 197h1031l-39 -197h-1032z" />
<glyph horiz-adv-x="1360" d="M188 412l38 190h394l140 231h-484l38 189h560l132 219h176l-132 -219h295l-37 -189h-372l-140 -231h462l-39 -190h-538l-167 -277h-176l167 277h-317z" />
<glyph d="M227 619l40 196h421l91 423h191l-90 -423h426l-41 -196h-424l-91 -424h-191l91 424h-423z" />
<glyph d="M229 626l36 182h1041l-37 -182h-1040zM541 342q0 62 39.5 103t100.5 41t100 -40t39 -99q0 -63 -39 -103.5t-100 -40.5t-100.5 40t-39.5 99zM697 1087q0 62 39.5 102.5t100.5 40.5t100 -40t39 -99q0 -62 -39 -102.5t-100 -40.5t-100.5 39.5t-39.5 99.5z" />
<glyph d="M159 229l36 182h1011l-37 -182h-1010zM278 792l35 174h411l59 266h188l-59 -266h412l-35 -174h-412l-58 -267h-188l58 267h-411z" />
<glyph d="M227 287q17 164 106.5 258.5t212.5 94.5q56 0 103.5 -22.5t80 -54.5t61 -64t59 -54.5t61.5 -22.5q103 0 131 155h186q-18 -164 -108 -260t-212 -96q-55 0 -102.5 22.5t-80 54.5t-61.5 64.5t-59.5 55t-60.5 22.5q-102 0 -131 -153h-186zM326 743q17 164 106.5 258.5 t212.5 94.5q56 0 103.5 -22.5t80 -54t61 -63.5t59 -54.5t61.5 -22.5q103 0 131 154h186q-18 -164 -108 -259.5t-212 -95.5q-55 0 -103 22.5t-80.5 55t-61 64.5t-59 54.5t-60.5 22.5q-101 0 -131 -154h-186z" />
<glyph d="M290 781l39 196h983l-121 -583h-186l82 387h-797z" />
</font>
</defs>
</svg>
