<?xml version="1.0" standalone="no"?>
<!DOCTYPE svg PUBLIC "-//W3C//DTD SVG 1.1//EN" "http://www.w3.org/Graphics/SVG/1.1/DTD/svg11.dtd" >
<svg xmlns="http://www.w3.org/2000/svg" xmlns:xlink="http://www.w3.org/1999/xlink" version="1.1">
<metadata></metadata>
<defs>
<font id="sf_ui_textlight_italic" horiz-adv-x="1321" >
<font-face units-per-em="2048" ascent="1638" descent="-410" />
<missing-glyph horiz-adv-x="554" />
<glyph horiz-adv-x="0" />
<glyph unicode="&#xd;" horiz-adv-x="0" />
<glyph unicode=" "  horiz-adv-x="554" />
<glyph unicode="&#x09;" horiz-adv-x="554" />
<glyph unicode="&#xa0;" horiz-adv-x="554" />
<glyph unicode="!" horiz-adv-x="616" d="M172 101q0 50 33.5 84t83.5 34t83 -34t33 -84t-33 -83.5t-83 -33.5t-83.5 33.5t-33.5 83.5zM299 457l197 987h152l-221 -987h-128z" />
<glyph unicode="&#x22;" horiz-adv-x="802" d="M330 935l108 508h124l-109 -508h-123zM663 935l108 508h123l-108 -508h-123z" />
<glyph unicode="#" horiz-adv-x="1316" d="M132 426l46 111h227l158 381h-223l46 110h222l175 417h117l-174 -417h333l175 417h118l-175 -417h234l-46 -110h-234l-159 -381h231l-46 -111h-230l-179 -426h-118l179 426h-334l-178 -426h-117l178 426h-226zM521 535h334l159 384h-335z" />
<glyph unicode="$" d="M188 384h138q11 -107 85.5 -181t193.5 -99l125 589l-37 15q-157 64 -234 153.5t-77 211.5q0 174 136 287t355 113h22l27 126h104l-30 -139q152 -34 248 -138t101 -239h-137q-13 95 -76 161t-162 91l-116 -547l39 -17q163 -68 243.5 -158t80.5 -219q0 -191 -143 -308 t-367 -117q-18 0 -27 1l-26 -123h-104l29 135q-166 34 -275 143.5t-116 258.5zM526 1080q0 -85 55 -142.5t177 -109.5l111 520h-14q-144 0 -236.5 -76.5t-92.5 -191.5zM706 93h12q163 0 258.5 80t95.5 207q0 95 -59.5 158t-187.5 116z" />
<glyph unicode="%" horiz-adv-x="1610" d="M166 0l708 746l662 697h146l-718 -756l-652 -687h-146zM300 1071q0 163 99 278t241 115q116 0 188 -79.5t72 -209.5q0 -162 -99.5 -278t-239.5 -116q-118 0 -189.5 79.5t-71.5 210.5zM421 1070q0 -85 40 -136.5t107 -51.5q86 0 148.5 88t62.5 208q0 85 -39.5 135 t-105.5 50q-86 0 -149.5 -87t-63.5 -206zM947 269q0 163 99.5 278t240.5 115q117 0 189 -79.5t72 -209.5q0 -162 -100 -278t-240 -116q-118 0 -189.5 79.5t-71.5 210.5zM1069 268q0 -85 40 -136.5t106 -51.5q86 0 148.5 88t62.5 208q0 85 -39 135t-106 50q-86 0 -149 -87 t-63 -206z" />
<glyph unicode="&#x26;" horiz-adv-x="1472" d="M142 361q0 280 370 428l85 34q-69 100 -99.5 172t-30.5 136q0 141 113 240.5t278 99.5q145 0 239.5 -78.5t94.5 -197.5q0 -272 -414 -419l319 -464q143 161 168 384l9 65h129l-10 -71q-32 -275 -226 -481l141 -209h-162l-83 124q-195 -148 -454 -148q-196 0 -331.5 111.5 t-135.5 273.5zM279 373q0 -122 92.5 -201.5t243.5 -79.5q100 0 201.5 32.5t182.5 97.5l-342 508l-83 -33q-145 -56 -220 -139t-75 -185zM599 1129q0 -52 27.5 -113t92.5 -152q172 57 257 140.5t85 176.5q0 81 -58 130t-151 49q-104 0 -178.5 -68t-74.5 -163z" />
<glyph unicode="'" horiz-adv-x="469" d="M330 935l108 508h124l-109 -508h-123z" />
<glyph unicode="(" horiz-adv-x="711" d="M243 323q0 310 121.5 609t336.5 511h148q-224 -226 -348.5 -519.5t-124.5 -599.5q0 -324 101 -592h-120q-51 107 -82.5 272.5t-31.5 318.5z" />
<glyph unicode=")" horiz-adv-x="710" d="M28 -268q224 225 348.5 518.5t124.5 600.5q0 324 -101 592h120q51 -107 82.5 -272.5t31.5 -318.5q0 -311 -121.5 -609.5t-336.5 -510.5h-148z" />
<glyph unicode="*" horiz-adv-x="1037" d="M278 903l330 132l-263 181l77 94l246 -203l61 337l111 -9l-83 -335l322 156l34 -103l-328 -133l261 -180l-76 -95l-246 202l-60 -335l-111 9l83 334l-322 -156z" />
<glyph unicode="+" d="M229 523l26 114h441l95 448h117l-95 -448h442l-25 -114h-441l-97 -456h-118l98 456h-443z" />
<glyph unicode="," horiz-adv-x="607" d="M92 -339l198 531h162l-246 -531h-114z" />
<glyph unicode="-" horiz-adv-x="975" d="M228 520l27 124h656l-27 -124h-656z" />
<glyph unicode="." horiz-adv-x="593" d="M145 100q0 46 32.5 78t77.5 32q46 0 78 -32t32 -78q0 -45 -32 -77.5t-78 -32.5q-45 0 -77.5 32.5t-32.5 77.5z" />
<glyph unicode="/" horiz-adv-x="695" d="M-44 -327l819 1770h120l-820 -1770h-119z" />
<glyph unicode="0" horiz-adv-x="1282" d="M220 488q0 204 52.5 387.5t140.5 314t209 207t253 76.5q191 0 307.5 -143.5t116.5 -377.5q0 -205 -52 -388t-140 -313t-208.5 -205.5t-253.5 -75.5q-193 0 -309 142.5t-116 375.5zM356 493q0 -186 80 -294t219 -108q135 0 252 116t186 314t69 427q0 185 -79.5 294 t-216.5 109q-135 0 -252.5 -116.5t-187.5 -314.5t-70 -427z" />
<glyph unicode="1" horiz-adv-x="913" d="M289 1021l34 157q5 3 74 45t138.5 84t140 84t93.5 54h136l-307 -1445h-137l271 1278h-12q-23 -12 -217 -128.5t-214 -128.5z" />
<glyph unicode="2" horiz-adv-x="1222" d="M119 0l22 107l620 544q209 183 273.5 268.5t64.5 179.5q0 109 -83 181.5t-208 72.5q-131 0 -226.5 -78.5t-118.5 -205.5h-135q25 179 161 291.5t328 112.5q179 0 300.5 -103.5t121.5 -256.5q0 -123 -83 -236.5t-326 -326.5l-477 -414l-3 -12h748l-25 -124h-954z" />
<glyph unicode="3" horiz-adv-x="1260" d="M177 345q0 24 4 46h132q-3 -13 -3 -27q0 -119 98.5 -196.5t249.5 -77.5q174 0 281.5 91.5t107.5 240.5q0 118 -94 190.5t-245 72.5h-156l24 119h205q147 0 247.5 86.5t100.5 212.5q0 110 -83 179.5t-214 69.5q-115 0 -207.5 -66t-126.5 -172h-135q39 162 171 260.5 t310 98.5q183 0 304.5 -101t121.5 -253q0 -144 -94.5 -246t-251.5 -128l-2 -12q126 -25 195.5 -104t69.5 -199q0 -202 -150.5 -331t-386.5 -129q-200 0 -336.5 108.5t-136.5 266.5z" />
<glyph unicode="4" horiz-adv-x="1312" d="M147 326l21 129q310 386 870 990h205l-211 -996h215l-26 -123h-215l-70 -326h-134l70 326h-725zM318 448h580l184 864h-10q-426 -452 -752 -855z" />
<glyph unicode="5" horiz-adv-x="1256" d="M194 351q0 14 2 24h135v-7q0 -120 93 -198.5t240 -78.5q176 0 288.5 118t112.5 299q0 139 -90.5 225t-233.5 86q-98 0 -186.5 -42.5t-143.5 -111.5h-137l242 778h781l-26 -123h-667l-154 -506l12 -1q58 59 140 90.5t171 31.5q183 0 307.5 -116.5t124.5 -292.5 q0 -242 -151 -399t-395 -157q-129 0 -236 50.5t-168 138t-61 192.5z" />
<glyph unicode="6" horiz-adv-x="1288" d="M212 481q0 169 42 337t118 304q92 169 227.5 260t296.5 91q185 0 307.5 -107.5t129.5 -275.5h-141q-8 118 -92 189t-216 71q-184 0 -319 -166t-195 -470l12 -1q67 109 178.5 171.5t242.5 62.5q188 0 310 -115.5t122 -293.5q0 -158 -73 -288.5t-201 -205t-284 -74.5 q-208 0 -336.5 137t-128.5 374zM355 415q0 -143 92 -232.5t239 -89.5q171 0 289.5 124t118.5 304q0 135 -90.5 221.5t-230.5 86.5q-172 0 -295 -120.5t-123 -293.5z" />
<glyph unicode="7" horiz-adv-x="1161" d="M188 0l947 1308l2 12h-775l27 123h919l-27 -128l-940 -1315h-153z" />
<glyph unicode="8" horiz-adv-x="1294" d="M170 349q0 169 114 288t288 136l3 12q-93 37 -145.5 110t-52.5 163q0 176 138.5 295.5t350.5 119.5q188 0 312 -98t124 -244q0 -145 -93 -247.5t-241 -128.5l-3 -12q114 -39 180 -122.5t66 -190.5q0 -199 -153.5 -329.5t-393.5 -130.5q-221 0 -357.5 107t-136.5 272z M312 369q0 -129 96 -204.5t262 -75.5q177 0 289.5 96t112.5 243q0 121 -101.5 197.5t-260.5 76.5q-173 0 -285.5 -95t-112.5 -238zM510 1052q0 -105 84.5 -171t224.5 -66q149 0 247 84.5t98 214.5q0 108 -84.5 174t-222.5 66q-153 0 -250 -86.5t-97 -215.5z" />
<glyph unicode="9" horiz-adv-x="1288" d="M180 352h141q8 -118 92 -188.5t216 -70.5q185 0 319.5 166.5t194.5 469.5l-12 1q-68 -110 -179.5 -172t-241.5 -62q-187 0 -309.5 119t-122.5 298q0 239 158 399.5t397 160.5q213 0 340.5 -138.5t127.5 -370.5q0 -168 -42 -337.5t-118 -306.5q-92 -169 -227.5 -259.5 t-296.5 -90.5q-185 0 -307.5 107t-129.5 275zM419 930q0 -136 90.5 -226t230.5 -90q173 0 295.5 121.5t122.5 293.5q0 143 -93.5 232t-240.5 89q-174 0 -289.5 -121t-115.5 -299z" />
<glyph unicode=":" horiz-adv-x="593" d="M145 100q0 46 32.5 78t77.5 32q46 0 78 -32t32 -78q0 -45 -32 -77.5t-78 -32.5q-45 0 -77.5 32.5t-32.5 77.5zM315 874q0 46 32.5 78t77.5 32q46 0 78 -32t32 -78t-32 -78.5t-78 -32.5q-45 0 -77.5 32.5t-32.5 78.5z" />
<glyph unicode=";" horiz-adv-x="593" d="M40 -339l199 531h162l-246 -531h-115zM315 874q0 46 32.5 78t77.5 32q46 0 78 -32t32 -78t-32 -78.5t-78 -32.5q-45 0 -77.5 32.5t-32.5 78.5z" />
<glyph unicode="&#x3c;" d="M297 548l23 109l978 478l-30 -145l-826 -396l-2 -12l639 -476l-30 -141z" />
<glyph unicode="=" d="M192 331l25 115h995l-25 -115h-995zM273 714l25 115h995l-25 -115h-995z" />
<glyph unicode="&#x3e;" d="M174 -35l30 145l826 396l2 12l-639 476l30 141l752 -583l-24 -109z" />
<glyph unicode="?" horiz-adv-x="1020" d="M274 1102q34 164 151 260t296 96q174 0 283.5 -95t109.5 -233q0 -128 -78.5 -231t-212.5 -159q-107 -45 -156 -96.5t-65 -135.5l-16 -78h-136l20 94q26 118 85.5 183t179.5 116q235 102 235 293q0 94 -68.5 158t-189.5 64q-113 0 -193.5 -63t-112.5 -173h-132zM339 101 q0 51 33 84.5t84 33.5q50 0 83 -33.5t33 -84.5q0 -50 -33 -83.5t-83 -33.5q-51 0 -84 33.5t-33 83.5z" />
<glyph unicode="@" horiz-adv-x="1871" d="M239 497q0 200 70.5 374.5t193 298.5t296 195t371.5 71q213 0 383 -84t265.5 -233.5t95.5 -337.5q0 -176 -60 -323t-164 -231.5t-229 -84.5q-92 0 -151 47t-59 120q0 3 0.5 11t0.5 12l-12 1q-43 -74 -112.5 -115t-153.5 -41q-138 0 -221.5 91t-83.5 241 q0 211 121.5 359.5t293.5 148.5q93 0 164.5 -51.5t85.5 -130.5h12l31 147h121l-128 -593q-6 -33 -6 -46q0 -49 31.5 -75.5t91.5 -26.5q83 0 157 74.5t118.5 198.5t44.5 262q0 248 -180.5 404.5t-467.5 156.5q-226 0 -412.5 -109t-293 -298.5t-106.5 -419.5 q0 -296 198.5 -473.5t528.5 -177.5q132 0 203 22l-21 -99q-94 -22 -216 -22q-234 0 -416.5 93t-283.5 260.5t-101 383.5zM793 518q0 -107 55.5 -170t149.5 -63q124 0 214 113.5t90 271.5q0 109 -56 173.5t-151 64.5q-125 0 -213.5 -114t-88.5 -276z" />
<glyph unicode="A" horiz-adv-x="1363" d="M34 0l851 1443h128l233 -1443h-134l-67 443h-608l-254 -443h-149zM503 560h527l-110 702h-13z" />
<glyph unicode="B" horiz-adv-x="1324" d="M143 0l307 1443h480q182 0 291 -86t109 -225q0 -144 -91.5 -247t-240.5 -129l-3 -13q123 -20 194.5 -98t71.5 -194q0 -195 -152 -323t-393 -128h-573zM308 121h404q175 0 290 92t115 227q0 119 -85 183.5t-247 64.5h-357zM454 807h347q170 0 278.5 83t108.5 214 q0 104 -78 161t-228 57h-319z" />
<glyph unicode="C" horiz-adv-x="1461" d="M224 567q0 192 57.5 360t157 288t239 189t297.5 69q234 0 388 -133.5t154 -331.5q0 -4 -0.5 -10t-0.5 -8h-138q0 2 0.5 7t0.5 8q-8 150 -122 245.5t-292 95.5q-165 0 -302.5 -101t-217 -276.5t-79.5 -386.5q0 -226 115.5 -355.5t315.5 -129.5q160 0 283 77.5t166 204.5 h144q-54 -189 -217.5 -299t-389.5 -110q-255 0 -407 162t-152 435z" />
<glyph unicode="D" horiz-adv-x="1476" d="M145 0l305 1443h413q286 0 447 -162t161 -445q0 -177 -59.5 -332.5t-163 -266t-247.5 -174t-308 -63.5h-548zM309 122h390q179 0 323.5 91.5t226.5 253.5t82 362q0 230 -127.5 361t-351.5 131h-288z" />
<glyph unicode="E" horiz-adv-x="1196" d="M143 0l307 1443h873l-27 -124h-732l-112 -519h697l-26 -122h-696l-119 -554h734l-26 -124h-873z" />
<glyph unicode="F" horiz-adv-x="1153" d="M143 0l307 1443h858l-27 -124h-717l-117 -542h660l-26 -122h-660l-138 -655h-140z" />
<glyph unicode="G" horiz-adv-x="1505" d="M226 576q0 254 97 459.5t268 321.5t383 116q224 0 374.5 -124t160.5 -314q1 -7 1 -28h-138q-8 150 -120 244.5t-288 94.5q-124 0 -234.5 -58.5t-190 -159t-125.5 -240.5t-46 -298q0 -230 119 -361.5t326 -131.5q186 0 320.5 115t171.5 307l16 81h-434l26 121h573 l-39 -192q-56 -270 -225 -414.5t-427 -144.5t-413.5 165.5t-155.5 440.5z" />
<glyph unicode="H" horiz-adv-x="1489" d="M143 0l307 1443h140l-137 -642h841l137 642h139l-307 -1443h-140l144 677h-841l-144 -677h-139z" />
<glyph unicode="I" horiz-adv-x="509" d="M143 0l307 1443h140l-307 -1443h-140z" />
<glyph unicode="J" horiz-adv-x="1091" d="M124 323v7h137v-6q1 -103 70 -164.5t182 -61.5q116 0 191.5 73.5t106.5 216.5l224 1055h136l-231 -1090q-39 -183 -153 -283t-290 -100q-169 0 -275 100q-99 94 -99 232q0 10 1 21z" />
<glyph unicode="K" horiz-adv-x="1311" d="M143 0l307 1443h136l-158 -743h12l833 743h180l-706 -631l458 -812h-159l-407 728l-250 -221l-109 -507h-137z" />
<glyph unicode="L" horiz-adv-x="1139" d="M143 0l307 1443h140l-282 -1319h721l-26 -124h-860z" />
<glyph unicode="M" horiz-adv-x="1763" d="M143 0l307 1443h150l267 -1256h12l797 1256h167l-307 -1443h-131l250 1177h-9l-745 -1170h-119l-248 1170h-10l-250 -1177h-131z" />
<glyph unicode="N" horiz-adv-x="1492" d="M143 0l307 1443h135l579 -1218h12l259 1218h138l-307 -1443h-133l-581 1220h-12l-259 -1220h-138z" />
<glyph unicode="O" horiz-adv-x="1564" d="M224 574q0 189 58.5 356t160 286t244 188t303.5 69q252 0 412 -169t160 -435q0 -254 -99 -460t-273.5 -322.5t-390.5 -116.5q-253 0 -414 169.5t-161 434.5zM368 585q0 -220 121 -354t320 -134q172 0 311.5 99t219 273.5t79.5 388.5q0 220 -120.5 354t-318.5 134 q-171 0 -311.5 -100t-220.5 -274.5t-80 -386.5z" />
<glyph unicode="P" horiz-adv-x="1279" d="M143 0l309 1443h478q181 0 297.5 -104.5t116.5 -272.5q0 -157 -73.5 -276.5t-201.5 -182.5t-289 -63h-382l-115 -544h-140zM424 666h349q193 0 310.5 104t117.5 284q0 123 -84.5 195t-231.5 72h-320z" />
<glyph unicode="Q" horiz-adv-x="1570" d="M222 564q0 190 59 358.5t161 289.5t246 191t308 70q253 0 414 -167.5t161 -427.5q0 -265 -107.5 -479t-294.5 -327l125 -241h-148l-95 184q-116 -45 -251 -45q-254 0 -416 167.5t-162 426.5zM366 577q0 -216 122 -348t322 -132q94 0 182 32l-138 266h148l108 -207 q147 97 232 276.5t85 401.5q0 216 -121 348t-320 132q-130 0 -245.5 -60t-197.5 -162.5t-129.5 -244.5t-47.5 -302z" />
<glyph unicode="R" horiz-adv-x="1311" d="M143 0l309 1443h474q194 0 307.5 -100.5t113.5 -273.5t-110 -298t-293 -159l220 -612h-150l-206 591h-12h-386l-127 -591h-140zM435 714h376q174 0 283 95t109 247q0 124 -75 194.5t-207 70.5h-356z" />
<glyph unicode="S" horiz-adv-x="1267" d="M142 392h138q19 -134 130.5 -215.5t275.5 -81.5q165 0 266.5 79.5t101.5 208.5q0 93 -62 159t-201 115l-136 48q-157 55 -238 148.5t-81 216.5q0 174 140.5 288.5t353.5 114.5q202 0 341.5 -112t155.5 -286h-137q-23 124 -123.5 198.5t-245.5 74.5q-148 0 -244.5 -75.5 t-96.5 -191.5q0 -86 61.5 -149t195.5 -111l132 -47q329 -118 329 -376q0 -190 -145.5 -309t-377.5 -119q-222 0 -367 115t-166 307z" />
<glyph unicode="T" horiz-adv-x="1275" d="M325 1319l26 124h1104l-26 -124h-482l-281 -1319h-139l280 1319h-482z" />
<glyph unicode="U" horiz-adv-x="1499" d="M251 414v8q0 57 13 124l189 897h140l-188 -890q-13 -58 -13 -116v-16q3 -152 101 -236.5t276 -84.5q174 0 300 103.5t165 283.5l204 956h140l-210 -981q-50 -233 -209.5 -360.5t-411.5 -127.5q-232 0 -363 122.5t-133 317.5z" />
<glyph unicode="V" horiz-adv-x="1363" d="M340 1443h130l202 -1259h12l719 1259h152l-846 -1443h-136z" />
<glyph unicode="W" horiz-adv-x="1958" d="M361 1443h126l69 -1230h9l609 1230h122l100 -1230h10l581 1230h141l-698 -1443h-133l-103 1206h-9l-600 -1206h-133z" />
<glyph unicode="X" horiz-adv-x="1367" d="M54 0l664 744l-338 699h156l282 -609h11l551 609h158l-659 -726l344 -717h-148l-295 618h-11l-558 -618h-157z" />
<glyph unicode="Y" d="M341 1443h143l289 -685h12l568 685h159l-695 -837l-127 -606h-140l133 624z" />
<glyph unicode="Z" horiz-adv-x="1328" d="M97 0l21 99l1111 1208l3 13h-826l26 123h1011l-21 -100l-1109 -1207l-2 -13h863l-26 -123h-1051z" />
<glyph unicode="[" horiz-adv-x="733" d="M102 -238l357 1682h417l-23 -106h-288l-313 -1472h302l-23 -104h-429z" />
<glyph unicode="\" horiz-adv-x="695" d="M336 1443h112l66 -1770h-110z" />
<glyph unicode="]" horiz-adv-x="733" d="M26 -238l23 105h293l312 1472h-296l22 104h425l-358 -1681h-421z" />
<glyph unicode="^" horiz-adv-x="840" d="M206 818l406 604h137l149 -604h-124l-109 485h-11l-315 -485h-133z" />
<glyph unicode="_" horiz-adv-x="919" d="M-96 -222l21 100h934l-21 -100h-934z" />
<glyph unicode="`" horiz-adv-x="999" d="M591 1594h163l180 -327h-144z" />
<glyph unicode="a" horiz-adv-x="1126" d="M131 273q0 156 119.5 246.5t340.5 100.5l337 16l17 81q8 42 8 64q0 92 -67.5 144t-187.5 52q-106 0 -181 -45t-100 -122h-139q33 130 150.5 207.5t280.5 77.5q171 0 274 -80.5t103 -216.5q0 -39 -10 -89l-150 -709h-128l35 165h-12q-57 -84 -153.5 -133.5t-205.5 -49.5 q-142 0 -236.5 83t-94.5 208zM266 286q0 -83 65.5 -136t169.5 -53q135 0 240.5 80.5t131.5 202.5l32 149l-321 -17q-152 -8 -235 -67.5t-83 -158.5z" />
<glyph unicode="b" horiz-adv-x="1257" d="M136 0l320 1506h131l-129 -613h13q64 97 159.5 149.5t211.5 52.5q167 0 276.5 -117.5t109.5 -300.5q0 -190 -72 -349.5t-198.5 -252.5t-279.5 -93q-128 0 -226.5 73.5t-124.5 188.5h-12l-53 -244h-126zM369 430q0 -151 81.5 -240t219.5 -89q117 0 214 75t152 202.5 t55 279.5q0 149 -78 234t-213 85q-95 0 -177.5 -47t-137 -124.5t-85.5 -175.5t-31 -200z" />
<glyph unicode="c" horiz-adv-x="1143" d="M181 428q0 189 73.5 341.5t203 239t290.5 86.5q155 0 266.5 -81t137.5 -209q4 -23 6 -45h-134q-11 95 -91.5 156t-195.5 61q-178 0 -298.5 -153t-120.5 -378q0 -159 81.5 -251.5t220.5 -92.5q112 0 195.5 50t116.5 138h136q-35 -139 -161 -223.5t-298 -84.5 q-194 0 -311 122t-117 324z" />
<glyph unicode="d" horiz-adv-x="1265" d="M178 416q0 188 75 344.5t203 245.5t280 89q130 0 224.5 -72.5t118.5 -188.5h12l142 672h134l-320 -1506h-127l39 185h-13q-63 -94 -163.5 -148.5t-213.5 -54.5q-167 0 -279 120.5t-112 313.5zM315 436q0 -150 81 -242.5t213 -92.5q122 0 222 74t156 199t56 273 q0 151 -81 240.5t-218 89.5q-87 0 -166.5 -42t-137 -114t-91.5 -172.5t-34 -212.5z" />
<glyph unicode="e" horiz-adv-x="1179" d="M181 424q0 194 72.5 347.5t200.5 238.5t288 85q172 0 288.5 -117.5t116.5 -310.5q0 -87 -14 -154h-811q-5 -43 -5 -78q0 -162 87 -247.5t218 -85.5q226 0 309 162h140q-38 -125 -161 -203.5t-297 -78.5q-189 0 -310.5 118.5t-121.5 323.5zM340 621h667q4 24 4 60 q0 127 -76.5 212.5t-204.5 85.5q-138 0 -243.5 -98.5t-146.5 -259.5z" />
<glyph unicode="f" horiz-adv-x="723" d="M202 0l203 966h-176l23 111h176l24 124q30 151 113.5 221.5t229.5 70.5q61 0 116 -12l-23 -111q-44 11 -106 11q-161 0 -196 -184l-24 -120h250l-24 -111h-249l-203 -966h-134z" />
<glyph unicode="g" horiz-adv-x="1247" d="M102 -117h139q15 -75 94.5 -123.5t202.5 -48.5q146 0 239.5 72t123.5 202l50 225h-12q-60 -97 -153.5 -148t-209.5 -51q-171 0 -282 119.5t-111 310.5q0 185 71.5 335t195.5 234.5t276 84.5q129 0 226.5 -72.5t123.5 -187.5h12l50 233l127 -1l-238 -1107 q-36 -171 -167.5 -267t-333.5 -96q-174 0 -293 83t-131 203zM320 460q0 -156 79 -244.5t216 -88.5q182 0 301 149t119 373q0 152 -82 240t-219 88q-117 0 -211.5 -66.5t-148.5 -185t-54 -265.5z" />
<glyph unicode="h" horiz-adv-x="1229" d="M136 0l322 1506h133l-131 -611h12q132 200 356 200q156 0 253 -94t97 -232q0 -60 -12 -116l-139 -653h-133l134 630q12 59 12 104q0 110 -71.5 176.5t-192.5 66.5q-137 0 -237 -89.5t-129 -225.5l-141 -662h-133z" />
<glyph unicode="i" horiz-adv-x="489" d="M139 0l231 1077h133l-230 -1077h-134zM407 1415q0 40 28.5 68.5t68.5 28.5t68.5 -28.5t28.5 -68.5q0 -41 -28.5 -69.5t-68.5 -28.5t-68.5 28.5t-28.5 69.5z" />
<glyph unicode="j" horiz-adv-x="487" d="M-151 -374l25 117q30 -3 55 -3q83 0 127.5 40t64.5 134l247 1163h131l-250 -1180q-30 -144 -109 -209t-215 -65q-37 0 -76 3zM404 1415q0 40 28.5 68.5t68.5 28.5t69 -28.5t29 -68.5q0 -41 -28.5 -69.5t-69.5 -28.5q-40 0 -68.5 29t-28.5 69z" />
<glyph unicode="k" horiz-adv-x="1074" d="M136 0l320 1506h133l-194 -912h12l616 483h177l-583 -464l378 -613h-154l-330 539l-152 -112l-90 -427h-133z" />
<glyph unicode="l" horiz-adv-x="489" d="M136 0l320 1506h134l-320 -1506h-134z" />
<glyph unicode="m" horiz-adv-x="1777" d="M126 0l229 1077h128l-39 -182h12q47 91 130 145.5t181 54.5q119 0 198.5 -65.5t94.5 -157.5h12q49 94 139.5 158.5t213.5 64.5q134 0 220 -83.5t86 -212.5q0 -64 -13 -125l-143 -674h-133l138 651q13 63 13 113q0 92 -58.5 152.5t-158.5 60.5q-114 0 -200.5 -84 t-115.5 -221l-143 -672h-133l138 651q14 68 14 113q0 91 -59 152t-159 61q-111 0 -198.5 -82.5t-114.5 -212.5l-146 -682h-133z" />
<glyph unicode="n" horiz-adv-x="1212" d="M126 0l229 1077h128l-39 -183h12q59 91 150 146t210 55q153 0 249.5 -94t96.5 -229q0 -58 -13 -119l-139 -653h-133l134 630q13 63 13 107q0 108 -70.5 174t-189.5 66q-135 0 -235 -89.5t-129 -225.5l-141 -662h-133z" />
<glyph unicode="o" horiz-adv-x="1218" d="M181 428q0 183 68 334t198.5 242t299.5 91q196 0 316 -123t120 -321q0 -134 -40 -255t-111.5 -213t-179 -146.5t-234.5 -54.5q-196 0 -316.5 123.5t-120.5 322.5zM320 442q0 -153 85 -247t229 -94q168 0 288.5 149.5t120.5 372.5q0 164 -83 259t-225 95 q-123 0 -218.5 -71t-146 -192.5t-50.5 -271.5z" />
<glyph unicode="p" horiz-adv-x="1251" d="M50 -371l308 1448h127l-39 -184h12q63 94 164 148t215 54q166 0 275 -117.5t109 -300.5q0 -189 -73 -349t-200 -253t-280 -93q-130 0 -224 72.5t-117 189.5h-12l-133 -615h-132zM362 430q0 -152 80.5 -240.5t217.5 -88.5q118 0 215.5 75t153 202.5t55.5 279.5 q0 149 -76.5 234t-210.5 85q-123 0 -224 -77t-156 -202t-55 -268z" />
<glyph unicode="q" horiz-adv-x="1252" d="M177 411q0 186 73 343t201 249t281 92q127 0 225 -73.5t123 -188.5h13l52 244h127l-308 -1448h-131l116 556h-12q-64 -97 -161.5 -150t-213.5 -53q-167 0 -276 121t-109 308zM314 431q0 -154 77 -242t212 -88q122 0 222.5 74t157 199t56.5 273q0 151 -81 240.5t-218 89.5 q-118 0 -216 -74t-154 -199t-56 -273z" />
<glyph unicode="r" horiz-adv-x="774" d="M121 0l229 1077h127l-34 -157h13q108 175 300 175q91 0 135 -20l-28 -126q-51 19 -140 19q-127 0 -213 -81t-118 -232l-139 -655h-132z" />
<glyph unicode="s" horiz-adv-x="1050" d="M126 281h135q19 -84 96 -135.5t189 -51.5q121 0 199.5 55t78.5 141q0 59 -39.5 101.5t-131.5 73.5l-143 48q-127 43 -187.5 108.5t-60.5 164.5q0 136 111.5 222.5t280.5 86.5q161 0 266.5 -78t123.5 -206h-130q-15 77 -87.5 124.5t-176.5 47.5q-110 0 -182.5 -53 t-72.5 -132q0 -57 42.5 -98.5t131.5 -71.5l129 -43q137 -47 199 -114.5t62 -171.5q0 -138 -119 -227.5t-300 -89.5q-173 0 -288 83t-126 216z" />
<glyph unicode="t" horiz-adv-x="724" d="M226 966l24 111h173l57 276h134l-59 -276h257l-23 -111h-257l-137 -642q-11 -55 -11 -91q0 -123 149 -123q51 0 75 3l-24 -112q-42 -7 -96 -7q-112 0 -178 52t-66 150q0 38 11 93l144 677h-173z" />
<glyph unicode="u" horiz-adv-x="1210" d="M197 298q0 64 14 129l137 650h134l-134 -629q-14 -68 -14 -118q0 -110 65.5 -169.5t185.5 -59.5q139 0 242 91t132 231l140 654h133l-229 -1077h-127l38 173h-12q-53 -86 -148 -138.5t-217 -52.5q-150 0 -245 90t-95 226z" />
<glyph unicode="v" horiz-adv-x="1078" d="M255 1077h132l140 -912h13l513 912h146l-627 -1077h-145z" />
<glyph unicode="w" horiz-adv-x="1567" d="M254 1077h122l59 -908h12l451 908h139l71 -914h12l434 914h134l-536 -1077h-139l-80 890h-12l-451 -890h-138z" />
<glyph unicode="x" horiz-adv-x="1049" d="M33 0l495 546l-269 531h143l209 -432h12l382 432h158l-493 -539l268 -538h-138l-214 436h-12l-384 -436h-157z" />
<glyph unicode="y" horiz-adv-x="1079" d="M68 -364l20 114q37 -11 85 -11q61 0 112 42t108 146l40 72l-179 1078h131l143 -913h12l515 913h145l-691 -1193q-86 -149 -161.5 -203t-182.5 -54q-43 0 -97 9z" />
<glyph unicode="z" horiz-adv-x="1082" d="M90 0l21 100l822 854l3 12h-639l24 111h816l-23 -101l-818 -853l-3 -12h640l-24 -111h-819z" />
<glyph unicode="{" horiz-adv-x="809" d="M192 540l34 158q99 0 147 45t74 165l64 295q36 170 139.5 241t291.5 71h53l-23 -109h-52q-131 0 -196.5 -51.5t-93.5 -179.5l-66 -313q-26 -118 -79 -172t-146 -63l-4 -17q64 -12 99.5 -49.5t35.5 -96.5q0 -37 -10 -90l-77 -360q-9 -44 -9 -78q0 -155 200 -155h55 l-22 -106h-49q-148 0 -231 62.5t-83 169.5q0 49 13 108l66 309q13 63 13 107q0 58 -33.5 83.5t-110.5 25.5z" />
<glyph unicode="|" horiz-adv-x="661" d="M162 -328l377 1771h115l-377 -1771h-115z" />
<glyph unicode="}" horiz-adv-x="809" d="M-16 -325l23 109h52q131 0 197 51.5t93 179.5l67 312q25 119 78 173t146 63l4 17q-64 12 -99.5 49.5t-35.5 96.5q0 37 10 90l77 360q9 44 9 78q0 155 -200 155h-55l22 106h49q148 0 231 -62.5t83 -169.5q0 -49 -13 -108l-66 -310q-12 -57 -12 -106q0 -58 33 -84t110 -26 l-34 -157q-99 0 -147 -45.5t-74 -165.5l-63 -294q-37 -170 -140.5 -241t-290.5 -71h-54z" />
<glyph unicode="~" horiz-adv-x="1204" d="M142 569q17 143 97.5 227.5t190.5 84.5q52 0 96.5 -24t76 -57.5t60 -67.5t60 -58t64.5 -24q120 0 153 187h130q-18 -145 -97 -228t-189 -83q-52 0 -97.5 24t-77 58t-60 67.5t-60 57.5t-63.5 24q-121 0 -154 -188h-130z" />
<glyph unicode="&#xa1;" horiz-adv-x="617" d="M120 -340l221 986h129l-198 -986h-152zM364 1002q0 50 32.5 83.5t83.5 33.5q50 0 83 -33.5t33 -83.5t-33 -83.5t-83 -33.5q-51 0 -83.5 33.5t-32.5 83.5z" />
<glyph unicode="&#xa2;" d="M304 612q0 184 70 334.5t195 238.5t280 94l36 167h131l-38 -180q117 -24 196.5 -98t100.5 -179q5 -23 6 -45h-134q-11 95 -91 156t-195 61q-118 0 -214.5 -70t-151 -191.5t-54.5 -269.5q0 -160 82 -253.5t221 -93.5q111 0 194.5 50t116.5 138h136q-34 -134 -152 -217.5 t-281 -90.5q-2 0 -43 -192h-131l43 204q-149 32 -236 148.5t-87 288.5z" />
<glyph unicode="&#xa3;" d="M102 0l24 116q75 13 146 50t130 93.5t95 138t36 174.5q0 25 -6 93h-298l23 112h263q-16 167 -16 214q0 229 135.5 357t399.5 128q91 0 186 -19.5t160 -53.5l-24 -123q-57 33 -147.5 53.5t-178.5 20.5q-181 0 -284.5 -89t-103.5 -252q0 -47 18 -236h438l-24 -112h-407 q3 -37 3 -73q0 -179 -81 -298t-217 -164l-3 -12h821l-25 -118h-1063z" />
<glyph unicode="&#xa5;" d="M311 310l22 105h305l39 184h-305l23 106h260l-315 738h143l291 -678h13l566 678h158l-619 -738h248l-23 -106h-302l-39 -184h302l-22 -105h-301l-65 -310h-140l66 310h-305z" />
<glyph unicode="&#xa7;" horiz-adv-x="1037" d="M75 49h136q17 -83 90 -135t181 -52q115 0 189.5 55t74.5 141q0 59 -38 101.5t-126 75.5l-130 48q-241 88 -241 275q0 110 80.5 188t203.5 97l3 14q-83 45 -120.5 100t-37.5 133q0 135 107 220t271 85q156 0 258.5 -79t118.5 -205h-130q-13 75 -82.5 123.5t-167.5 48.5 q-104 0 -173 -52.5t-69 -132.5q0 -57 40 -97.5t127 -73.5l116 -43q131 -49 192.5 -114t61.5 -166q0 -108 -75 -189.5t-199 -106.5l-2 -9q79 -49 113 -103.5t34 -131.5q0 -137 -114.5 -225.5t-291.5 -88.5q-164 0 -277 84t-123 215zM344 575q0 -115 167 -177l112 -43 q113 14 182.5 75.5t69.5 150.5q0 61 -37.5 106t-125.5 77l-96 35q-115 -6 -193.5 -70t-78.5 -154z" />
<glyph unicode="&#xa8;" horiz-adv-x="999" d="M462 1354q0 43 30 72.5t72 29.5q43 0 73 -29.5t30 -72.5t-30 -72.5t-73 -29.5q-42 0 -72 29.5t-30 72.5zM826 1354q0 43 29.5 72.5t72.5 29.5q42 0 72 -29.5t30 -72.5t-30 -72.5t-72 -29.5q-43 0 -72.5 29.5t-29.5 72.5z" />
<glyph unicode="&#xa9;" horiz-adv-x="1742" d="M191 549q0 180 66.5 340t181.5 275t275 181.5t340 66.5q207 0 374 -91.5t261.5 -253.5t94.5 -363q0 -180 -67 -340.5t-181.5 -275.5t-275 -181.5t-340.5 -66.5q-204 0 -371 93t-262.5 255.5t-95.5 360.5zM303 562q0 -174 81.5 -314.5t225.5 -219.5t322 -79 q152 0 289 58.5t235.5 157.5t157 236.5t58.5 290.5q0 176 -80.5 315.5t-224 217.5t-324.5 78q-151 0 -288 -58.5t-236 -157t-157.5 -236t-58.5 -289.5zM604 567q0 211 123.5 352t307.5 141q136 0 224 -74.5t96 -197.5h-103q-7 79 -70 129.5t-155 50.5q-135 0 -226 -111.5 t-91 -277.5q0 -127 64.5 -201.5t173.5 -74.5q82 0 144 37.5t90 104.5h106q-31 -107 -126 -171t-222 -64q-152 0 -244 98t-92 259z" />
<glyph unicode="&#xaa;" horiz-adv-x="943" d="M217 781q0 129 99.5 203.5t283.5 82.5l271 13l14 65q6 34 5 50q1 73 -52.5 114t-148.5 41q-83 0 -143 -35t-80 -96h-128q26 109 125 174.5t236 65.5q145 0 232 -67.5t87 -180.5q0 -38 -8 -73l-125 -587h-122l29 136h-11q-46 -68 -124 -107t-168 -39q-117 0 -194.5 68.5 t-77.5 171.5zM345 795q0 -66 52 -107.5t134 -41.5q107 0 190.5 62.5t104.5 158.5l25 117l-254 -13q-120 -6 -186 -52t-66 -124z" />
<glyph unicode="&#xab;" horiz-adv-x="1362" d="M254 563l1 6l447 414h170l-457 -426l-3 -13l260 -395h-148zM704 563l1 6l447 414h170l-457 -426l-2 -13l259 -395h-147z" />
<glyph unicode="&#xac;" d="M262 563l24 114h954l-113 -532h-115l89 418h-839z" />
<glyph unicode="&#xad;" horiz-adv-x="975" d="M228 520l27 124h656l-27 -124h-656z" />
<glyph unicode="&#xae;" horiz-adv-x="1260" d="M262 881q0 144 68.5 264t187.5 188.5t262 68.5q216 0 364.5 -147.5t148.5 -361.5q0 -144 -68.5 -264t-187.5 -188.5t-263 -68.5q-141 0 -258.5 67.5t-185.5 184.5t-68 257zM346 881q0 -179 123 -302t303 -123q184 0 310.5 126t126.5 311q0 179 -124 302t-305 123 q-183 0 -308.5 -126t-125.5 -311zM523 646l110 515h221q67 0 111 -40.5t44 -99.5q0 -69 -42.5 -114.5t-113.5 -56.5l101 -204h-95l-97 194h-117l-42 -194h-80zM659 910h134q60 0 93.5 25.5t33.5 73.5q0 35 -24 57t-67 22h-132z" />
<glyph unicode="&#xaf;" horiz-adv-x="1018" d="M411 1292l22 106h663l-23 -106h-662z" />
<glyph unicode="&#xb0;" horiz-adv-x="803" d="M341 1200q0 114 79.5 194t193.5 80t194 -80t80 -194t-80 -194t-194 -80t-193.5 80t-79.5 194zM442 1200q0 -70 51.5 -121t120.5 -51q72 0 122.5 50.5t50.5 121.5t-50.5 121.5t-122.5 50.5q-70 0 -121 -50.5t-51 -121.5z" />
<glyph unicode="&#xb1;" d="M142 112l24 114h1002l-24 -114h-1002zM261 671l22 105h442l67 309h118l-67 -309h442l-22 -105h-442l-68 -317h-118l68 317h-442z" />
<glyph unicode="&#xb2;" horiz-adv-x="821" d="M264 902l21 97l362 304q130 109 170.5 160t40.5 105q0 59 -44.5 98t-113.5 39q-71 0 -123.5 -43.5t-65.5 -114.5v-2h-124q13 117 104 191.5t219 74.5q121 0 200.5 -66t79.5 -165q0 -79 -53 -149t-211 -201l-250 -211l-2 -8h431l-24 -109h-617z" />
<glyph unicode="&#xb3;" horiz-adv-x="833" d="M295 1158h126q-7 -72 46.5 -120t139.5 -48q92 0 150 49t58 128q0 64 -50.5 103.5t-130.5 39.5h-98l21 100h121q83 0 137.5 45t54.5 114q0 61 -45 98.5t-118 37.5q-64 0 -114 -35.5t-69 -93.5h-123q24 107 110.5 171t205.5 64q123 0 202.5 -64t79.5 -162 q0 -87 -59.5 -150.5t-154.5 -77.5l-1 -8q77 -16 119.5 -65.5t42.5 -123.5q0 -122 -96.5 -200.5t-245.5 -78.5q-148 0 -236.5 79.5t-72.5 197.5z" />
<glyph unicode="&#xb4;" horiz-adv-x="1000" d="M518 1267l320 327h169l-340 -327h-149z" />
<glyph unicode="&#xb6;" horiz-adv-x="1316" d="M399 955q0 143 73.5 255t201 172.5t287.5 60.5h172l-349 -1638h-136l163 769q-183 6 -297.5 112.5t-114.5 268.5zM943 -195l349 1638h136l-348 -1638h-137z" />
<glyph unicode="&#xb7;" horiz-adv-x="630" d="M290 739q0 62 40 102t102 40q61 0 100.5 -40t39.5 -102t-39.5 -102t-100.5 -40q-62 0 -102 40t-40 102z" />
<glyph unicode="&#xb8;" horiz-adv-x="1000" d="M176 -443l18 87q66 -32 151 -32q54 0 87.5 23.5t33.5 63.5q0 39 -35.5 62t-101.5 25l-51 1l11 72l111 173l109 -2l-108 -169q88 -9 133.5 -48.5t45.5 -106.5q0 -82 -65.5 -134t-166.5 -52q-96 0 -172 37z" />
<glyph unicode="&#xb9;" horiz-adv-x="634" d="M357 1501l28 131q14 8 79 47t123 73.5t68 39.5h131l-190 -890h-132l160 752h-9q-60 -32 -258 -153z" />
<glyph unicode="&#xba;" horiz-adv-x="1032" d="M264 925q0 227 139 381t342 154q168 0 266 -105.5t98 -286.5q0 -149 -63.5 -272t-173.5 -193.5t-243 -70.5q-167 0 -266 106.5t-99 286.5zM398 941q0 -138 65.5 -216.5t178.5 -78.5q140 0 236 119.5t96 293.5q0 133 -65 210.5t-178 77.5q-142 0 -237.5 -116.5 t-95.5 -289.5z" />
<glyph unicode="&#xbb;" horiz-adv-x="1364" d="M198 149l456 426l3 12l-260 396h148l271 -414l-2 -6l-447 -414h-169zM650 149l457 426l2 12l-259 396h147l271 -414l-1 -6l-447 -414h-170z" />
<glyph unicode="&#xbf;" horiz-adv-x="1019" d="M57 -26q0 128 78.5 230.5t212.5 159.5q107 45 156 96.5t65 135.5l16 78h136l-20 -94q-25 -119 -84.5 -183.5t-180.5 -115.5q-235 -102 -235 -293q0 -95 68.5 -159t189.5 -64q113 0 194 63t112 173h132q-34 -164 -151 -260t-296 -96q-174 0 -283.5 95t-109.5 234z M599 1002q0 50 33 83.5t83 33.5q51 0 84 -33t33 -84t-33 -84t-84 -33q-50 0 -83 33t-33 84z" />
<glyph unicode="&#xc0;" horiz-adv-x="1363" d="M34 0l851 1443h128l233 -1443h-134l-67 443h-608l-254 -443h-149zM503 560h527l-110 702h-13zM693 1874h160l184 -297h-144z" />
<glyph unicode="&#xc1;" horiz-adv-x="1363" d="M34 0l851 1443h128l233 -1443h-134l-67 443h-608l-254 -443h-149zM503 560h527l-110 702h-13zM901 1577l372 297h174l-389 -297h-157z" />
<glyph unicode="&#xc2;" horiz-adv-x="1363" d="M34 0l851 1443h128l233 -1443h-134l-67 443h-608l-254 -443h-149zM503 560h527l-110 702h-13zM640 1577l315 297h151l189 -297h-143l-126 208h-12l-214 -208h-160z" />
<glyph unicode="&#xc3;" horiz-adv-x="1363" d="M34 0l851 1443h128l233 -1443h-134l-67 443h-608l-254 -443h-149zM503 560h527l-110 702h-13zM630 1613q18 107 83.5 169t152.5 62q43 0 79 -16.5t61 -40t47 -47.5t46.5 -40.5t49.5 -16.5q47 0 78.5 32.5t44.5 93.5h110q-19 -108 -83.5 -169.5t-150.5 -61.5 q-43 0 -80 16.5t-62 40.5t-47 48t-46.5 40.5t-49.5 16.5q-46 0 -78 -33t-45 -94h-110z" />
<glyph unicode="&#xc4;" horiz-adv-x="1363" d="M34 0l851 1443h128l233 -1443h-134l-67 443h-608l-254 -443h-149zM503 560h527l-110 702h-13zM712 1670q0 43 30 72.5t72 29.5q43 0 73 -29.5t30 -72.5t-30 -72.5t-73 -29.5q-42 0 -72 29.5t-30 72.5zM1076 1670q0 43 29.5 72.5t72.5 29.5q42 0 72 -29.5t30 -72.5 t-30 -72.5t-72 -29.5q-43 0 -72.5 29.5t-29.5 72.5z" />
<glyph unicode="&#xc5;" horiz-adv-x="1363" d="M34 0l851 1443h128l233 -1443h-134l-67 443h-608l-254 -443h-149zM503 560h527l-110 702h-13zM807 1781q0 88 62 149t150 61q89 0 151 -61t62 -149q0 -89 -62 -150t-151 -61q-88 0 -150 61t-62 150zM895 1781q0 -53 36 -89.5t88 -36.5q53 0 89 36.5t36 89.5t-36 89 t-89 36t-88.5 -36t-35.5 -89z" />
<glyph unicode="&#xc6;" horiz-adv-x="1955" d="M33 0l984 1443h1068l-27 -124h-675l-111 -526h638l-26 -122h-639l-116 -547h675l-26 -124h-812l95 443h-581l-303 -443h-144zM559 561h526l164 766h-162z" />
<glyph unicode="&#xc7;" horiz-adv-x="1464" d="M224 567q0 192 57.5 360t157 288t239 189t297.5 69q234 0 388 -133.5t154 -331.5q0 -4 -0.5 -10t-0.5 -8h-138q0 2 0.5 7t0.5 8q-8 150 -122 245.5t-292 95.5q-165 0 -302.5 -101t-217 -276.5t-79.5 -386.5q0 -226 115.5 -355.5t315.5 -129.5q160 0 283 77.5t166 204.5 h144q-51 -180 -201.5 -288.5t-361.5 -119.5l-70 -110q88 -9 133.5 -48.5t45.5 -106.5q0 -82 -65.5 -134t-166.5 -52q-96 0 -172 37l18 87q66 -32 151 -32q54 0 87.5 23.5t33.5 63.5q0 39 -35.5 62t-101.5 25l-51 1l11 72l73 114q-228 21 -361 180.5t-133 413.5z" />
<glyph unicode="&#xc8;" horiz-adv-x="1196" d="M143 0l307 1443h873l-27 -124h-732l-112 -519h697l-26 -122h-696l-119 -554h734l-26 -124h-873zM631 1874h160l184 -297h-144z" />
<glyph unicode="&#xc9;" horiz-adv-x="1196" d="M143 0l307 1443h873l-27 -124h-732l-112 -519h697l-26 -122h-696l-119 -554h734l-26 -124h-873zM839 1577l372 297h174l-389 -297h-157z" />
<glyph unicode="&#xca;" horiz-adv-x="1196" d="M143 0l307 1443h873l-27 -124h-732l-112 -519h697l-26 -122h-696l-119 -554h734l-26 -124h-873zM587 1577l315 297h151l189 -297h-143l-126 208h-12l-214 -208h-160z" />
<glyph unicode="&#xcb;" horiz-adv-x="1196" d="M143 0l307 1443h873l-27 -124h-732l-112 -519h697l-26 -122h-696l-119 -554h734l-26 -124h-873zM650 1670q0 43 30 72.5t72 29.5q43 0 73 -29.5t30 -72.5t-30 -72.5t-73 -29.5q-42 0 -72 29.5t-30 72.5zM1014 1670q0 43 29.5 72.5t72.5 29.5q42 0 72 -29.5t30 -72.5 t-30 -72.5t-72 -29.5q-43 0 -72.5 29.5t-29.5 72.5z" />
<glyph unicode="&#xcc;" horiz-adv-x="509" d="M143 0l307 1443h140l-307 -1443h-140zM265 1874h160l184 -297h-144z" />
<glyph unicode="&#xcd;" horiz-adv-x="509" d="M143 0l307 1443h140l-307 -1443h-140zM473 1577l372 297h174l-389 -297h-157z" />
<glyph unicode="&#xce;" horiz-adv-x="509" d="M143 0l307 1443h140l-307 -1443h-140zM221 1577l315 297h151l189 -297h-143l-126 208h-12l-214 -208h-160z" />
<glyph unicode="&#xcf;" horiz-adv-x="509" d="M143 0l307 1443h140l-307 -1443h-140zM284 1670q0 43 30 72.5t72 29.5q43 0 73 -29.5t30 -72.5t-30 -72.5t-73 -29.5q-42 0 -72 29.5t-30 72.5zM648 1670q0 43 29.5 72.5t72.5 29.5q42 0 72 -29.5t30 -72.5t-30 -72.5t-72 -29.5q-43 0 -72.5 29.5t-29.5 72.5z" />
<glyph unicode="&#xd0;" horiz-adv-x="1470" d="M93 681l27 124h195l135 638h413q286 0 447 -162t161 -445q0 -177 -59.5 -332.5t-163 -266t-247.5 -174t-308 -63.5h-548l144 681h-196zM309 122h390q179 0 323.5 91.5t226.5 253.5t82 362q0 230 -127.5 361t-351.5 131h-288l-110 -516h238l-27 -124h-237z" />
<glyph unicode="&#xd1;" horiz-adv-x="1492" d="M143 0l307 1443h135l579 -1218h12l259 1218h138l-307 -1443h-133l-581 1220h-12l-259 -1220h-138zM700 1613q18 107 83.5 169t152.5 62q43 0 79 -16.5t61 -40t47 -47.5t46.5 -40.5t49.5 -16.5q47 0 78.5 32.5t44.5 93.5h110q-19 -108 -83.5 -169.5t-150.5 -61.5 q-43 0 -80 16.5t-62 40.5t-47 48t-46.5 40.5t-49.5 16.5q-46 0 -78 -33t-45 -94h-110z" />
<glyph unicode="&#xd2;" horiz-adv-x="1564" d="M224 574q0 189 58.5 356t160 286t244 188t303.5 69q252 0 412 -169t160 -435q0 -254 -99 -460t-273.5 -322.5t-390.5 -116.5q-253 0 -414 169.5t-161 434.5zM368 585q0 -220 121 -354t320 -134q172 0 311.5 99t219 273.5t79.5 388.5q0 220 -120.5 354t-318.5 134 q-171 0 -311.5 -100t-220.5 -274.5t-80 -386.5zM729 1873h160l184 -297h-144z" />
<glyph unicode="&#xd3;" horiz-adv-x="1564" d="M224 574q0 189 58.5 356t160 286t244 188t303.5 69q252 0 412 -169t160 -435q0 -254 -99 -460t-273.5 -322.5t-390.5 -116.5q-253 0 -414 169.5t-161 434.5zM368 585q0 -220 121 -354t320 -134q172 0 311.5 99t219 273.5t79.5 388.5q0 220 -120.5 354t-318.5 134 q-171 0 -311.5 -100t-220.5 -274.5t-80 -386.5zM937 1576l372 297h174l-389 -297h-157z" />
<glyph unicode="&#xd4;" horiz-adv-x="1564" d="M224 574q0 189 58.5 356t160 286t244 188t303.5 69q252 0 412 -169t160 -435q0 -254 -99 -460t-273.5 -322.5t-390.5 -116.5q-253 0 -414 169.5t-161 434.5zM368 585q0 -220 121 -354t320 -134q172 0 311.5 99t219 273.5t79.5 388.5q0 220 -120.5 354t-318.5 134 q-171 0 -311.5 -100t-220.5 -274.5t-80 -386.5zM685 1576l315 297h151l189 -297h-143l-126 208h-12l-214 -208h-160z" />
<glyph unicode="&#xd5;" horiz-adv-x="1564" d="M224 574q0 189 58.5 356t160 286t244 188t303.5 69q252 0 412 -169t160 -435q0 -254 -99 -460t-273.5 -322.5t-390.5 -116.5q-253 0 -414 169.5t-161 434.5zM368 585q0 -220 121 -354t320 -134q172 0 311.5 99t219 273.5t79.5 388.5q0 220 -120.5 354t-318.5 134 q-171 0 -311.5 -100t-220.5 -274.5t-80 -386.5zM666 1612q18 107 83.5 169t152.5 62q43 0 79 -16.5t61 -40.5t47 -47.5t46.5 -40t49.5 -16.5q47 0 78.5 32.5t44.5 93.5h110q-19 -108 -83.5 -169.5t-150.5 -61.5q-43 0 -80 16.5t-62 40.5t-47 48t-46.5 40.5t-49.5 16.5 q-46 0 -78 -33t-45 -94h-110z" />
<glyph unicode="&#xd6;" horiz-adv-x="1564" d="M224 574q0 189 58.5 356t160 286t244 188t303.5 69q252 0 412 -169t160 -435q0 -254 -99 -460t-273.5 -322.5t-390.5 -116.5q-253 0 -414 169.5t-161 434.5zM368 585q0 -220 121 -354t320 -134q172 0 311.5 99t219 273.5t79.5 388.5q0 220 -120.5 354t-318.5 134 q-171 0 -311.5 -100t-220.5 -274.5t-80 -386.5zM748 1669q0 43 30 72.5t72 29.5q43 0 73 -29.5t30 -72.5t-30 -72.5t-73 -29.5q-42 0 -72 29.5t-30 72.5zM1112 1669q0 43 29.5 72.5t72.5 29.5q42 0 72 -29.5t30 -72.5t-30 -72.5t-72 -29.5q-43 0 -72.5 29.5t-29.5 72.5z" />
<glyph unicode="&#xd8;" horiz-adv-x="1535" d="M199 -11l154 183q-133 163 -133 402q0 189 58.5 356t160 286t244 188t303.5 69q211 0 360 -121l135 160l76 -55l-143 -171q144 -166 144 -417q0 -254 -99 -460t-273.5 -322.5t-390.5 -116.5q-220 0 -374 132l-144 -172zM364 585q0 -179 82 -303l812 965q-113 99 -282 99 q-171 0 -311.5 -100t-220.5 -274.5t-80 -386.5zM509 207q116 -110 296 -110q172 0 311.5 99t219 273.5t79.5 388.5q0 192 -93 319z" />
<glyph unicode="&#xd9;" horiz-adv-x="1499" d="M251 414q-1 60 13 132l189 897h140l-188 -890q-15 -66 -13 -132q3 -152 101 -236.5t276 -84.5q174 0 300 103.5t165 283.5l204 956h140l-210 -981q-50 -233 -209.5 -360.5t-411.5 -127.5q-232 0 -363 122.5t-133 317.5zM760 1874h160l184 -297h-144z" />
<glyph unicode="&#xda;" horiz-adv-x="1499" d="M251 414q-1 60 13 132l189 897h140l-188 -890q-15 -66 -13 -132q3 -152 101 -236.5t276 -84.5q174 0 300 103.5t165 283.5l204 956h140l-210 -981q-50 -233 -209.5 -360.5t-411.5 -127.5q-232 0 -363 122.5t-133 317.5zM968 1577l372 297h174l-389 -297h-157z" />
<glyph unicode="&#xdb;" horiz-adv-x="1499" d="M251 414q-1 60 13 132l189 897h140l-188 -890q-15 -66 -13 -132q3 -152 101 -236.5t276 -84.5q174 0 300 103.5t165 283.5l204 956h140l-210 -981q-50 -233 -209.5 -360.5t-411.5 -127.5q-232 0 -363 122.5t-133 317.5zM716 1577l315 297h151l189 -297h-143l-126 208h-12 l-214 -208h-160z" />
<glyph unicode="&#xdc;" horiz-adv-x="1499" d="M251 414q-1 60 13 132l189 897h140l-188 -890q-15 -66 -13 -132q3 -152 101 -236.5t276 -84.5q174 0 300 103.5t165 283.5l204 956h140l-210 -981q-50 -233 -209.5 -360.5t-411.5 -127.5q-232 0 -363 122.5t-133 317.5zM779 1670q0 43 30 72.5t72 29.5q43 0 73 -29.5 t30 -72.5t-30 -72.5t-73 -29.5q-42 0 -72 29.5t-30 72.5zM1143 1670q0 43 29.5 72.5t72.5 29.5q42 0 72 -29.5t30 -72.5t-30 -72.5t-72 -29.5q-43 0 -72.5 29.5t-29.5 72.5z" />
<glyph unicode="&#xdd;" d="M341 1443h143l289 -685h12l568 685h159l-695 -837l-127 -606h-140l133 624zM878 1577l372 297h174l-389 -297h-157z" />
<glyph unicode="&#xde;" horiz-adv-x="1270" d="M143 0l307 1443h136l-59 -274h356q172 0 279.5 -98.5t107.5 -250.5q0 -210 -149.5 -339.5t-397.5 -129.5h-369l-74 -351h-137zM380 473h338q191 0 300.5 90.5t109.5 243.5q0 108 -75 173.5t-215 65.5h-336z" />
<glyph unicode="&#xdf;" horiz-adv-x="1283" d="M171 0l230 1079q34 163 149.5 255.5t285.5 92.5q164 0 272 -90.5t108 -229.5q0 -140 -94 -239t-241 -113l-2 -13q143 -16 229 -103.5t86 -217.5q0 -191 -138.5 -315.5t-350.5 -124.5q-119 0 -218 36l25 117q94 -34 197 -34q150 0 251.5 91t101.5 226q0 119 -89.5 191.5 t-236.5 72.5h-82l28 129h94q126 0 216.5 81t90.5 193q0 100 -70.5 163t-183.5 63q-116 0 -196 -71t-107 -198l-223 -1041h-132z" />
<glyph unicode="&#xe0;" horiz-adv-x="1126" d="M131 273q0 156 119.5 246.5t340.5 100.5l337 16l17 81q8 42 8 64q0 92 -67.5 144t-187.5 52q-106 0 -181 -45t-100 -122h-139q33 130 150.5 207.5t280.5 77.5q171 0 274 -80.5t103 -216.5q0 -39 -10 -89l-150 -709h-128l35 165h-12q-57 -84 -153.5 -133.5t-205.5 -49.5 q-142 0 -236.5 83t-94.5 208zM266 286q0 -83 65.5 -136t169.5 -53q135 0 240.5 80.5t131.5 202.5l32 149l-321 -17q-152 -8 -235 -67.5t-83 -158.5zM472 1594h163l180 -327h-144z" />
<glyph unicode="&#xe1;" horiz-adv-x="1126" d="M131 273q0 156 119.5 246.5t340.5 100.5l337 16l17 81q8 42 8 64q0 92 -67.5 144t-187.5 52q-106 0 -181 -45t-100 -122h-139q33 130 150.5 207.5t280.5 77.5q171 0 274 -80.5t103 -216.5q0 -39 -10 -89l-150 -709h-128l35 165h-12q-57 -84 -153.5 -133.5t-205.5 -49.5 q-142 0 -236.5 83t-94.5 208zM266 286q0 -83 65.5 -136t169.5 -53q135 0 240.5 80.5t131.5 202.5l32 149l-321 -17q-152 -8 -235 -67.5t-83 -158.5zM677 1267l320 327h169l-340 -327h-149z" />
<glyph unicode="&#xe2;" horiz-adv-x="1126" d="M131 273q0 156 119.5 246.5t340.5 100.5l337 16l17 81q8 42 8 64q0 92 -67.5 144t-187.5 52q-106 0 -181 -45t-100 -122h-139q33 130 150.5 207.5t280.5 77.5q171 0 274 -80.5t103 -216.5q0 -39 -10 -89l-150 -709h-128l35 165h-12q-57 -84 -153.5 -133.5t-205.5 -49.5 q-142 0 -236.5 83t-94.5 208zM266 286q0 -83 65.5 -136t169.5 -53q135 0 240.5 80.5t131.5 202.5l32 149l-321 -17q-152 -8 -235 -67.5t-83 -158.5zM390 1228l346 332h154l204 -332h-143l-142 243h-12l-244 -243h-163z" />
<glyph unicode="&#xe3;" horiz-adv-x="1126" d="M131 273q0 156 119.5 246.5t340.5 100.5l337 16l17 81q8 42 8 64q0 92 -67.5 144t-187.5 52q-106 0 -181 -45t-100 -122h-139q33 130 150.5 207.5t280.5 77.5q171 0 274 -80.5t103 -216.5q0 -39 -10 -89l-150 -709h-128l35 165h-12q-57 -84 -153.5 -133.5t-205.5 -49.5 q-142 0 -236.5 83t-94.5 208zM266 286q0 -83 65.5 -136t169.5 -53q135 0 240.5 80.5t131.5 202.5l32 149l-321 -17q-152 -8 -235 -67.5t-83 -158.5zM416 1260q15 116 80 181.5t157 65.5q45 0 81.5 -19.5t60 -46.5t44.5 -54.5t46 -47t53 -19.5q93 0 121 142h110 q-16 -117 -80 -181.5t-155 -64.5q-46 0 -83 19t-60.5 46.5t-44.5 55t-45.5 46.5t-52.5 19q-93 0 -122 -142h-110z" />
<glyph unicode="&#xe4;" horiz-adv-x="1126" d="M131 273q0 156 119.5 246.5t340.5 100.5l337 16l17 81q8 42 8 64q0 92 -67.5 144t-187.5 52q-106 0 -181 -45t-100 -122h-139q33 130 150.5 207.5t280.5 77.5q171 0 274 -80.5t103 -216.5q0 -39 -10 -89l-150 -709h-128l35 165h-12q-57 -84 -153.5 -133.5t-205.5 -49.5 q-142 0 -236.5 83t-94.5 208zM266 286q0 -83 65.5 -136t169.5 -53q135 0 240.5 80.5t131.5 202.5l32 149l-321 -17q-152 -8 -235 -67.5t-83 -158.5zM489 1330q0 43 30 72.5t72 29.5q43 0 73 -29.5t30 -72.5t-30 -72.5t-73 -29.5q-42 0 -72 29.5t-30 72.5zM853 1330 q0 43 29.5 72.5t72.5 29.5q42 0 72 -29.5t30 -72.5t-30 -72.5t-72 -29.5q-43 0 -72.5 29.5t-29.5 72.5z" />
<glyph unicode="&#xe5;" horiz-adv-x="1126" d="M131 273q0 156 119.5 246.5t340.5 100.5l337 16l17 81q8 42 8 64q0 92 -67.5 144t-187.5 52q-106 0 -181 -45t-100 -122h-139q33 130 150.5 207.5t280.5 77.5q171 0 274 -80.5t103 -216.5q0 -39 -10 -89l-150 -709h-128l35 165h-12q-57 -84 -153.5 -133.5t-205.5 -49.5 q-142 0 -236.5 83t-94.5 208zM266 286q0 -83 65.5 -136t169.5 -53q135 0 240.5 80.5t131.5 202.5l32 149l-321 -17q-152 -8 -235 -67.5t-83 -158.5zM584 1439q0 88 62 149t150 61q89 0 151 -61t62 -149q0 -89 -62 -150t-151 -61q-88 0 -150 61t-62 150zM672 1439 q0 -53 36 -89.5t88 -36.5q53 0 89 36.5t36 89.5t-36 89t-89 36t-88.5 -36t-35.5 -89z" />
<glyph unicode="&#xe6;" horiz-adv-x="1898" d="M131 273q0 155 118 243t341 98l336 17l19 86q8 42 8 64q0 92 -67.5 144t-187.5 52q-106 0 -181 -45t-100 -122h-139q33 130 150.5 207.5t280.5 77.5q133 0 224 -54t122 -152h12q71 99 173 152.5t220 53.5q83 0 157 -30t129 -84t87 -135.5t32 -178.5q0 -81 -13 -151h-812 q-5 -48 -5 -83q0 -162 87 -246.5t218 -84.5q226 0 309 162h140q-39 -126 -163 -204t-303 -78q-140 0 -248.5 73.5t-145.5 197.5h-12q-56 -116 -178 -193.5t-263 -77.5q-152 0 -248.5 82.5t-96.5 208.5zM266 286q0 -83 65.5 -136t169.5 -53q134 0 240 80.5t132 202.5l31 143 l-321 -16q-153 -8 -235 -65.5t-82 -155.5zM1059 623h667q3 18 3 58q0 127 -76.5 212.5t-204.5 85.5q-137 0 -242 -97.5t-147 -258.5z" />
<glyph unicode="&#xe7;" horiz-adv-x="1150" d="M181 428q0 189 73.5 341.5t203 239t290.5 86.5q155 0 266.5 -81t137.5 -209q4 -23 6 -45h-134q-11 95 -91.5 156t-195.5 61q-178 0 -298.5 -153t-120.5 -378q0 -159 81.5 -251.5t220.5 -92.5q112 0 195.5 50t116.5 138h136q-35 -137 -157 -221t-290 -87l-77 -121 q88 -9 133.5 -48.5t45.5 -106.5q0 -82 -65.5 -134t-166.5 -52q-96 0 -172 37l18 87q66 -32 151 -32q54 0 87.5 23.5t33.5 63.5q0 39 -35.5 62t-101.5 25l-51 1l11 72l84 131q-155 29 -245 146t-90 292z" />
<glyph unicode="&#xe8;" horiz-adv-x="1176" d="M181 424q0 194 72.5 347.5t200.5 238.5t288 85q172 0 288.5 -117.5t116.5 -310.5q0 -87 -14 -154h-811q-5 -43 -5 -78q0 -162 87 -247.5t218 -85.5q226 0 309 162h140q-38 -125 -161 -203.5t-297 -78.5q-189 0 -310.5 118.5t-121.5 323.5zM340 621h667q4 24 4 60 q0 127 -76.5 212.5t-204.5 85.5q-138 0 -243.5 -98.5t-146.5 -259.5zM489 1594h163l180 -327h-144z" />
<glyph unicode="&#xe9;" horiz-adv-x="1176" d="M181 424q0 194 72.5 347.5t200.5 238.5t288 85q172 0 288.5 -117.5t116.5 -310.5q0 -87 -14 -154h-811q-5 -43 -5 -78q0 -162 87 -247.5t218 -85.5q226 0 309 162h140q-38 -125 -161 -203.5t-297 -78.5q-189 0 -310.5 118.5t-121.5 323.5zM340 621h667q4 24 4 60 q0 127 -76.5 212.5t-204.5 85.5q-138 0 -243.5 -98.5t-146.5 -259.5zM694 1267l320 327h169l-340 -327h-149z" />
<glyph unicode="&#xea;" horiz-adv-x="1176" d="M181 424q0 194 72.5 347.5t200.5 238.5t288 85q172 0 288.5 -117.5t116.5 -310.5q0 -87 -14 -154h-811q-5 -43 -5 -78q0 -162 87 -247.5t218 -85.5q226 0 309 162h140q-38 -125 -161 -203.5t-297 -78.5q-189 0 -310.5 118.5t-121.5 323.5zM340 621h667q4 24 4 60 q0 127 -76.5 212.5t-204.5 85.5q-138 0 -243.5 -98.5t-146.5 -259.5zM407 1228l346 332h154l204 -332h-143l-142 243h-12l-244 -243h-163z" />
<glyph unicode="&#xeb;" horiz-adv-x="1176" d="M181 424q0 194 72.5 347.5t200.5 238.5t288 85q172 0 288.5 -117.5t116.5 -310.5q0 -87 -14 -154h-811q-5 -43 -5 -78q0 -162 87 -247.5t218 -85.5q226 0 309 162h140q-38 -125 -161 -203.5t-297 -78.5q-189 0 -310.5 118.5t-121.5 323.5zM340 621h667q4 24 4 60 q0 127 -76.5 212.5t-204.5 85.5q-138 0 -243.5 -98.5t-146.5 -259.5zM506 1330q0 43 30 72.5t72 29.5q43 0 73 -29.5t30 -72.5t-30 -72.5t-73 -29.5q-42 0 -72 29.5t-30 72.5zM870 1330q0 43 29.5 72.5t72.5 29.5q42 0 72 -29.5t30 -72.5t-30 -72.5t-72 -29.5 q-43 0 -72.5 29.5t-29.5 72.5z" />
<glyph unicode="&#xec;" horiz-adv-x="489" d="M141 0l229 1077h131l-229 -1077h-131zM187 1594h163l180 -327h-144z" />
<glyph unicode="&#xed;" horiz-adv-x="489" d="M141 0l229 1077h131l-229 -1077h-131zM392 1267l320 327h169l-340 -327h-149z" />
<glyph unicode="&#xee;" horiz-adv-x="489" d="M105 1228l346 332h154l204 -332h-143l-142 243h-12l-244 -243h-163zM141 0l229 1077h131l-229 -1077h-131z" />
<glyph unicode="&#xef;" horiz-adv-x="489" d="M141 0l229 1077h131l-229 -1077h-131zM204 1330q0 43 30 72.5t72 29.5q43 0 73 -29.5t30 -72.5t-30 -72.5t-73 -29.5q-42 0 -72 29.5t-30 72.5zM568 1330q0 43 29.5 72.5t72.5 29.5q42 0 72 -29.5t30 -72.5t-30 -72.5t-72 -29.5q-43 0 -72.5 29.5t-29.5 72.5z" />
<glyph unicode="&#xf0;" horiz-adv-x="1192" d="M169 400q0 185 69 335.5t191.5 237t274.5 86.5q123 0 220.5 -61.5t131.5 -159.5h11q1 1 1 17q-5 206 -120 404l-341 -112l-7 99l296 98q-52 66 -142 153h151q70 -70 105 -118l256 88l8 -99l-216 -75q127 -235 127 -485q0 -158 -37 -315q-57 -238 -202 -374.5t-346 -136.5 q-189 0 -310 118.5t-121 299.5zM308 424q0 -148 82 -235.5t222 -87.5q110 0 207 71.5t154.5 192.5t57.5 258q0 140 -88 227t-227 87q-115 0 -208.5 -66.5t-146.5 -184.5t-53 -262z" />
<glyph unicode="&#xf1;" horiz-adv-x="1210" d="M126 0l229 1077h128l-39 -183h12q59 91 150 146t210 55q153 0 249.5 -94t96.5 -229q0 -58 -13 -119l-139 -653h-133l134 630q13 63 13 107q0 108 -70.5 174t-189.5 66q-135 0 -235 -89.5t-129 -225.5l-141 -662h-133zM489 1260q15 116 80 181.5t157 65.5q45 0 81.5 -19.5 t60 -46.5t44.5 -54.5t46 -47t53 -19.5q93 0 121 142h110q-16 -117 -80 -181.5t-155 -64.5q-46 0 -83 19t-60.5 46.5t-44.5 55t-45.5 46.5t-52.5 19q-93 0 -122 -142h-110z" />
<glyph unicode="&#xf2;" horiz-adv-x="1216" d="M181 428q0 183 68 334t198.5 242t299.5 91q196 0 316 -123t120 -321q0 -134 -40 -255t-111.5 -213t-179 -146.5t-234.5 -54.5q-196 0 -316.5 123.5t-120.5 322.5zM320 442q0 -153 85 -247t229 -94q168 0 288.5 149.5t120.5 372.5q0 164 -83 259t-225 95 q-123 0 -218.5 -71t-146 -192.5t-50.5 -271.5zM497 1594h163l180 -327h-144z" />
<glyph unicode="&#xf3;" horiz-adv-x="1216" d="M181 428q0 183 68 334t198.5 242t299.5 91q196 0 316 -123t120 -321q0 -134 -40 -255t-111.5 -213t-179 -146.5t-234.5 -54.5q-196 0 -316.5 123.5t-120.5 322.5zM320 442q0 -153 85 -247t229 -94q168 0 288.5 149.5t120.5 372.5q0 164 -83 259t-225 95 q-123 0 -218.5 -71t-146 -192.5t-50.5 -271.5zM702 1267l320 327h169l-340 -327h-149z" />
<glyph unicode="&#xf4;" horiz-adv-x="1216" d="M181 428q0 183 68 334t198.5 242t299.5 91q196 0 316 -123t120 -321q0 -134 -40 -255t-111.5 -213t-179 -146.5t-234.5 -54.5q-196 0 -316.5 123.5t-120.5 322.5zM320 442q0 -153 85 -247t229 -94q168 0 288.5 149.5t120.5 372.5q0 164 -83 259t-225 95 q-123 0 -218.5 -71t-146 -192.5t-50.5 -271.5zM415 1228l346 332h154l204 -332h-143l-142 243h-12l-244 -243h-163z" />
<glyph unicode="&#xf5;" horiz-adv-x="1216" d="M181 428q0 183 68 334t198.5 242t299.5 91q196 0 316 -123t120 -321q0 -134 -40 -255t-111.5 -213t-179 -146.5t-234.5 -54.5q-196 0 -316.5 123.5t-120.5 322.5zM320 442q0 -153 85 -247t229 -94q168 0 288.5 149.5t120.5 372.5q0 164 -83 259t-225 95 q-123 0 -218.5 -71t-146 -192.5t-50.5 -271.5zM441 1260q15 116 80 181.5t157 65.5q45 0 81.5 -19.5t60 -46.5t44.5 -54.5t46 -47t53 -19.5q93 0 121 142h110q-16 -117 -80 -181.5t-155 -64.5q-46 0 -83 19t-60.5 46.5t-44.5 55t-45.5 46.5t-52.5 19q-93 0 -122 -142h-110z " />
<glyph unicode="&#xf6;" horiz-adv-x="1216" d="M181 428q0 183 68 334t198.5 242t299.5 91q196 0 316 -123t120 -321q0 -134 -40 -255t-111.5 -213t-179 -146.5t-234.5 -54.5q-196 0 -316.5 123.5t-120.5 322.5zM320 442q0 -153 85 -247t229 -94q168 0 288.5 149.5t120.5 372.5q0 164 -83 259t-225 95 q-123 0 -218.5 -71t-146 -192.5t-50.5 -271.5zM514 1330q0 43 30 72.5t72 29.5q43 0 73 -29.5t30 -72.5t-30 -72.5t-73 -29.5q-42 0 -72 29.5t-30 72.5zM878 1330q0 43 29.5 72.5t72.5 29.5q42 0 72 -29.5t30 -72.5t-30 -72.5t-72 -29.5q-43 0 -72.5 29.5t-29.5 72.5z" />
<glyph unicode="&#xf7;" d="M239 523l24 114h983l-24 -114h-983zM552 223q0 46 31 76.5t77 30.5q45 0 75.5 -30.5t30.5 -76.5t-30.5 -76.5t-75.5 -30.5q-46 0 -77 30.5t-31 76.5zM703 929q0 46 30.5 76t76.5 30q45 0 75.5 -30t30.5 -76t-30.5 -76.5t-75.5 -30.5q-46 0 -76.5 30.5t-30.5 76.5z" />
<glyph unicode="&#xf8;" horiz-adv-x="1218" d="M121 -2l143 156q-80 115 -80 274q0 183 68 334t198.5 242t299.5 91q175 0 291 -100l128 139l68 -51l-138 -150q87 -115 87 -282q0 -134 -40 -255t-111.5 -213t-179 -146.5t-234.5 -54.5q-179 0 -298 105l-132 -144zM323 442q0 -102 40 -182l587 636q-83 81 -212 81 q-123 0 -218.5 -71t-146 -192.5t-50.5 -271.5zM415 187q86 -86 222 -86q168 0 288.5 149.5t120.5 372.5q0 118 -45 203z" />
<glyph unicode="&#xf9;" horiz-adv-x="1210" d="M197 298q0 64 14 129l137 650h134l-134 -629q-14 -68 -14 -118q0 -110 65.5 -169.5t185.5 -59.5q139 0 242 91t132 231l140 654h133l-229 -1077h-127l38 173h-12q-53 -86 -148 -138.5t-217 -52.5q-150 0 -245 90t-95 226zM530 1594h163l180 -327h-144z" />
<glyph unicode="&#xfa;" horiz-adv-x="1210" d="M197 298q0 64 14 129l137 650h134l-134 -629q-14 -68 -14 -118q0 -110 65.5 -169.5t185.5 -59.5q139 0 242 91t132 231l140 654h133l-229 -1077h-127l38 173h-12q-53 -86 -148 -138.5t-217 -52.5q-150 0 -245 90t-95 226zM735 1267l320 327h169l-340 -327h-149z" />
<glyph unicode="&#xfb;" horiz-adv-x="1210" d="M197 298q0 64 14 129l137 650h134l-134 -629q-14 -68 -14 -118q0 -110 65.5 -169.5t185.5 -59.5q139 0 242 91t132 231l140 654h133l-229 -1077h-127l38 173h-12q-53 -86 -148 -138.5t-217 -52.5q-150 0 -245 90t-95 226zM448 1228l346 332h154l204 -332h-143l-142 243 h-12l-244 -243h-163z" />
<glyph unicode="&#xfc;" horiz-adv-x="1210" d="M197 298q0 64 14 129l137 650h134l-134 -629q-14 -68 -14 -118q0 -110 65.5 -169.5t185.5 -59.5q139 0 242 91t132 231l140 654h133l-229 -1077h-127l38 173h-12q-53 -86 -148 -138.5t-217 -52.5q-150 0 -245 90t-95 226zM547 1330q0 43 30 72.5t72 29.5q43 0 73 -29.5 t30 -72.5t-30 -72.5t-73 -29.5q-42 0 -72 29.5t-30 72.5zM911 1330q0 43 29.5 72.5t72.5 29.5q42 0 72 -29.5t30 -72.5t-30 -72.5t-72 -29.5q-43 0 -72.5 29.5t-29.5 72.5z" />
<glyph unicode="&#xfd;" horiz-adv-x="1079" d="M68 -364l20 114q37 -11 85 -11q61 0 112 42t108 146l40 72l-179 1078h131l143 -913h12l515 913h145l-691 -1193q-86 -149 -161.5 -203t-182.5 -54q-43 0 -97 9zM684 1267l320 327h169l-340 -327h-149z" />
<glyph unicode="&#xfe;" horiz-adv-x="1255" d="M54 -371l397 1867h131l-127 -603h13q64 97 161 149.5t213 52.5q166 0 274.5 -117.5t108.5 -300.5q0 -189 -73 -349t-200 -253t-280 -93q-130 0 -224.5 72.5t-117.5 189.5h-12l-132 -615h-132zM366 430q0 -152 80.5 -240.5t217.5 -88.5q117 0 215 75t153.5 202.5 t55.5 279.5q0 149 -77 234t-211 85q-122 0 -223 -77t-156 -202t-55 -268z" />
<glyph unicode="&#xff;" horiz-adv-x="1079" d="M68 -364l20 114q37 -11 85 -11q61 0 112 42t108 146l40 72l-179 1078h131l143 -913h12l515 913h145l-691 -1193q-86 -149 -161.5 -203t-182.5 -54q-43 0 -97 9zM496 1330q0 43 30 72.5t72 29.5q43 0 73 -29.5t30 -72.5t-30 -72.5t-73 -29.5q-42 0 -72 29.5t-30 72.5z M860 1330q0 43 29.5 72.5t72.5 29.5q42 0 72 -29.5t30 -72.5t-30 -72.5t-72 -29.5q-43 0 -72.5 29.5t-29.5 72.5z" />
<glyph unicode="&#x131;" horiz-adv-x="489" d="M141 0l229 1077h131l-229 -1077h-131z" />
<glyph unicode="&#x152;" horiz-adv-x="2324" d="M224 574q0 190 59 357t160.5 286t243.5 187.5t303 68.5q185 0 317.5 -99t181.5 -263h13l70 332h873l-27 -124h-733l-111 -519h697l-27 -122h-696l-118 -554h734l-26 -124h-873l45 209l-12 -1q-88 -110 -216.5 -174t-282.5 -64q-252 0 -413.5 169t-161.5 435zM368 585 q0 -220 121 -354t320 -134q172 0 311.5 99t219 273.5t79.5 388.5q0 220 -121 354t-318 134q-171 0 -311 -99.5t-220.5 -274.5t-80.5 -387z" />
<glyph unicode="&#x153;" horiz-adv-x="2030" d="M181 428q0 190 72 342.5t201.5 238.5t292.5 86q144 0 245.5 -73.5t141.5 -207.5h12q69 134 185 207.5t261 73.5q178 0 291.5 -120.5t114.5 -307.5q0 -84 -15 -154h-811q-5 -63 -5 -80q0 -151 83.5 -241t221.5 -90q227 0 309 162h140q-39 -129 -163 -205.5t-295 -76.5 q-143 0 -246 70t-143 197h-12q-72 -126 -188.5 -196.5t-257.5 -70.5q-195 0 -315 123t-120 323zM320 442q0 -155 86 -248t228 -93q113 0 207 70t148 189.5t54 262.5q0 164 -82.5 259t-225.5 95q-183 0 -299 -150.5t-116 -384.5zM1190 620h667q4 17 4 61q0 131 -78 214.5 t-203 83.5q-136 0 -242 -97.5t-148 -261.5z" />
<glyph unicode="&#x178;" d="M341 1443h143l289 -685h12l568 685h159l-695 -837l-127 -606h-140l133 624zM689 1670q0 43 30 72.5t72 29.5q43 0 73 -29.5t30 -72.5t-30 -72.5t-73 -29.5q-42 0 -72 29.5t-30 72.5zM1053 1670q0 43 29.5 72.5t72.5 29.5q42 0 72 -29.5t30 -72.5t-30 -72.5t-72 -29.5 q-43 0 -72.5 29.5t-29.5 72.5z" />
<glyph unicode="&#x192;" d="M56 24l29 121q97 -41 193 -41q103 0 169 50t108 164l160 427h-364l23 111h381l104 275q126 338 431 338q111 0 206 -37l-27 -115q-82 32 -186 32q-110 0 -180.5 -56.5t-113.5 -171.5l-101 -265h393l-23 -111h-410l-164 -438q-63 -170 -163 -247.5t-254 -77.5 q-81 0 -211 42z" />
<glyph unicode="&#x2c6;" horiz-adv-x="1000" d="M367 1228l346 332h154l204 -332h-143l-142 243h-12l-244 -243h-163z" />
<glyph unicode="&#x2c7;" horiz-adv-x="1000" d="M438 1560h143l142 -243h11l245 243h163l-346 -332h-153z" />
<glyph unicode="&#x2d8;" horiz-adv-x="1017" d="M467 1499q0 11 2 39h117q-2 -18 -2 -31q0 -77 54 -121.5t146 -44.5q98 0 158.5 51.5t72.5 145.5h120q-12 -134 -109 -216t-248 -82q-145 0 -228 72t-83 187z" />
<glyph unicode="&#x2d9;" horiz-adv-x="1018" d="M654 1390q0 45 32 77t77 32t77.5 -32t32.5 -77t-32.5 -77.5t-77.5 -32.5t-77 32.5t-32 77.5z" />
<glyph unicode="&#x2da;" horiz-adv-x="1000" d="M552 1439q0 88 62 149t150 61q89 0 151 -61t62 -149q0 -89 -62 -150t-151 -61q-88 0 -150 61t-62 150zM640 1439q0 -53 36 -89.5t88 -36.5q53 0 89 36.5t36 89.5t-36 89t-89 36t-88.5 -36t-35.5 -89z" />
<glyph unicode="&#x2db;" horiz-adv-x="919" d="M206 -240q0 81 60.5 161.5t162.5 135.5l94 -22q-88 -54 -139 -121t-51 -129q0 -49 33 -76.5t92 -27.5q39 0 59 7l-21 -96q-28 -13 -83 -13q-96 0 -151.5 48.5t-55.5 132.5z" />
<glyph unicode="&#x2dc;" horiz-adv-x="1000" d="M388 1282q15 116 80 181.5t157 65.5q45 0 81.5 -19.5t60 -46.5t44.5 -54.5t46 -47t53 -19.5q93 0 121 142h110q-16 -117 -80 -181.5t-155 -64.5q-46 0 -83 19t-60.5 46.5t-44.5 55t-45.5 46.5t-52.5 19q-93 0 -122 -142h-110z" />
<glyph unicode="&#x2dd;" horiz-adv-x="1000" d="M345 1264l321 330h161l-341 -330h-141zM697 1264l320 330h162l-341 -330h-141z" />
<glyph unicode="&#x3a9;" horiz-adv-x="1584" d="M115 0l26 124h358l3 13q-280 179 -280 535q0 227 93 408.5t267 287t398 105.5q263 0 418.5 -155.5t155.5 -413.5q0 -247 -126.5 -453t-343.5 -314l-3 -13h372l-27 -124h-532l34 161q232 111 358 299.5t126 430.5q0 207 -121 331t-328 124q-179 0 -316 -87.5 t-210.5 -239.5t-73.5 -344q0 -348 305 -514l-35 -161h-518z" />
<glyph unicode="&#x3c0;" horiz-adv-x="1365" d="M245 0l203 959h-199l25 118h1173l-26 -118h-217l-149 -704q-11 -51 -11 -73q0 -42 20.5 -59t72.5 -17q33 0 61 6l-24 -112q-40 -10 -92 -10q-170 0 -170 154q0 36 16 112l149 703h-501l-204 -959h-127z" />
<glyph unicode="&#x401;" horiz-adv-x="1216" d="M153 0l307 1443h873l-27 -124h-732l-112 -519h697l-26 -122h-696l-119 -554h734l-26 -124h-873zM660 1670q0 43 30 72.5t72 29.5q43 0 73 -29.5t30 -72.5t-30 -72.5t-73 -29.5q-42 0 -72 29.5t-30 72.5zM1024 1670q0 43 29.5 72.5t72.5 29.5q42 0 72 -29.5t30 -72.5 t-30 -72.5t-72 -29.5q-43 0 -72.5 29.5t-29.5 72.5z" />
<glyph unicode="&#x402;" horiz-adv-x="1715" d="M337 1320l27 123h1104l-27 -123h-482l-123 -579h11q69 67 163.5 108t199.5 41q203 0 311 -111t108 -300q0 -212 -143.5 -352.5t-361.5 -140.5q-65 0 -140 15l26 123q65 -13 116 -13q158 0 260.5 105.5t102.5 261.5q0 134 -73 211t-220 77q-115 0 -224 -59t-173 -139 l-121 -568h-139l280 1320h-482z" />
<glyph unicode="&#x403;" horiz-adv-x="1158" d="M153 0l307 1443h851l-27 -124h-710l-281 -1319h-140zM773 1577l372 297h174l-389 -297h-157z" />
<glyph unicode="&#x404;" horiz-adv-x="1470" d="M245 406q-26 140 4 319q29 216 128.5 384.5t262 266t361.5 97.5q135 0 250 -56t187 -159.5t77 -232.5q1 -6 1 -23h-139q-4 152 -115 248t-277 96q-210 0 -369.5 -150t-217.5 -395h693l-26 -124h-689q-34 -264 77.5 -422t333.5 -158q166 0 289.5 86t178.5 228h140 q-67 -206 -232.5 -323.5t-389.5 -117.5q-140 0 -250.5 51t-181 148t-96.5 237z" />
<glyph unicode="&#x405;" horiz-adv-x="1287" d="M152 392h138q19 -134 130.5 -215.5t275.5 -81.5q165 0 266.5 79.5t101.5 208.5q0 93 -62 159t-201 115l-136 48q-157 55 -238 148.5t-81 216.5q0 174 140.5 288.5t353.5 114.5q202 0 341.5 -112t155.5 -286h-137q-23 124 -123.5 198.5t-245.5 74.5q-148 0 -244.5 -75.5 t-96.5 -191.5q0 -86 61.5 -149t195.5 -111l132 -47q329 -118 329 -376q0 -190 -145.5 -309t-377.5 -119q-222 0 -367 115t-166 307z" />
<glyph unicode="&#x406;" horiz-adv-x="528" d="M153 0l307 1443h140l-307 -1443h-140z" />
<glyph unicode="&#x407;" horiz-adv-x="529" d="M153 0l307 1443h140l-307 -1443h-140zM294 1670q0 43 30 72.5t72 29.5q43 0 73 -29.5t30 -72.5t-30 -72.5t-73 -29.5q-42 0 -72 29.5t-30 72.5zM658 1670q0 43 29.5 72.5t72.5 29.5q42 0 72 -29.5t30 -72.5t-30 -72.5t-72 -29.5q-43 0 -72.5 29.5t-29.5 72.5z" />
<glyph unicode="&#x408;" horiz-adv-x="1108" d="M134 323v7h137v-6q1 -103 70 -164.5t182 -61.5q116 0 191.5 73.5t106.5 216.5l224 1055h136l-231 -1090q-39 -183 -153 -283t-290 -100q-169 0 -275 100.5t-98 252.5z" />
<glyph unicode="&#x409;" horiz-adv-x="2144" d="M-3 1l26 123q19 -7 53 -7q107 0 176.5 101.5t122.5 298.5l252 926h834l-116 -544h307q199 0 323 -107t124 -284q0 -101 -40 -193.5t-110.5 -162t-173.5 -111t-222 -41.5h-538l281 1319h-568l-221 -809q-36 -131 -75 -222.5t-92 -160.5t-122 -102.5t-158 -33.5 q-38 0 -63 10zM1180 122h360q179 0 298 105t119 261q0 141 -89.5 215t-242.5 74h-305z" />
<glyph unicode="&#x40a;" horiz-adv-x="2178" d="M150 0l307 1443h139l-136 -642h780l136 642h140l-137 -643h320q188 0 305.5 -96t117.5 -254q0 -89 -37.5 -171t-104 -144t-165.5 -98.5t-215 -36.5h-531l145 677h-781l-144 -677h-139zM1235 122h352q178 0 285.5 88t107.5 224q0 117 -83.5 180.5t-224.5 63.5h-319z" />
<glyph unicode="&#x40b;" horiz-adv-x="1736" d="M337 1319l27 124h1104l-27 -124h-482l-123 -576h13q174 147 382 147q217 0 319.5 -136t53.5 -368l-83 -386h-139l83 392q38 178 -32 276t-226 98q-126 0 -237 -59t-171 -139l-121 -568h-139l280 1319h-482z" />
<glyph unicode="&#x40c;" d="M153 0l307 1443h140l-139 -650h40l786 650h181l-868 -710l605 -733h-161l-567 684h-39l-145 -684h-140zM850 1577l372 297h174l-389 -297h-157z" />
<glyph unicode="&#x40e;" horiz-adv-x="1303" d="M211 2l26 124q25 -9 73 -9q85 0 154.5 47.5t147.5 160.5l-262 1118h145l214 -961h13l605 961h157l-693 -1072q-69 -107 -122.5 -173.5t-113.5 -116t-125 -70.5t-146 -21q-53 0 -73 12zM655 1851h120q-18 -83 26.5 -132.5t129.5 -49.5q86 0 151.5 49.5t83.5 132.5h120 q-27 -128 -125.5 -201t-238.5 -73q-144 0 -219 73.5t-48 200.5z" />
<glyph unicode="&#x40f;" horiz-adv-x="1489" d="M153 0l307 1443h137l-281 -1318h825l280 1318h139l-307 -1443h-486l-61 -285h-128l61 285h-486z" />
<glyph unicode="&#x410;" horiz-adv-x="1383" d="M44 0l851 1443h128l233 -1443h-134l-67 443h-608l-254 -443h-149zM513 560h527l-110 702h-13z" />
<glyph unicode="&#x411;" horiz-adv-x="1295" d="M153 0l307 1443h838l-27 -124h-697l-100 -467h317q200 0 323 -101.5t123 -266.5q0 -96 -40 -184t-110 -154.5t-173.5 -106t-222.5 -39.5h-538zM318 122h360q179 0 298 98t119 244q0 127 -88.5 196t-242.5 69h-316z" />
<glyph unicode="&#x412;" horiz-adv-x="1343" d="M153 0l307 1443h480q182 0 291 -86t109 -225q0 -144 -91.5 -247t-240.5 -129l-3 -13q123 -20 194.5 -98t71.5 -194q0 -195 -152 -323t-393 -128h-573zM318 121h404q175 0 290 92t115 227q0 119 -85 183.5t-247 64.5h-357zM464 807h347q170 0 278.5 83t108.5 214 q0 104 -78 161t-228 57h-319z" />
<glyph unicode="&#x413;" horiz-adv-x="1158" d="M153 0l307 1443h851l-27 -124h-710l-281 -1319h-140z" />
<glyph unicode="&#x414;" horiz-adv-x="1485" d="M-62 -285l87 409h102q83 39 140 135t98 249l255 935h875l-281 -1319h183l-87 -409h-128l61 285h-1117l-61 -285h-127zM306 124h768l255 1195h-610l-223 -816q-38 -136 -80 -223.5t-108 -145.5z" />
<glyph unicode="&#x415;" horiz-adv-x="1216" d="M153 0l307 1443h873l-27 -124h-732l-112 -519h697l-26 -122h-696l-119 -554h734l-26 -124h-873z" />
<glyph unicode="&#x416;" horiz-adv-x="2004" d="M23 0l878 760l-490 683h157l461 -652h40l139 652h136l-139 -652h40l739 652h180l-815 -708l539 -735h-161l-504 685h-40l-146 -685h-136l145 685h-39l-796 -685h-188z" />
<glyph unicode="&#x417;" horiz-adv-x="1262" d="M153 372h133q2 -113 97.5 -197t258.5 -84q175 0 286.5 90t111.5 232q0 127 -88.5 197.5t-247.5 70.5h-185l26 124h201q161 0 268 84.5t107 212.5q0 118 -75 183.5t-214 65.5q-133 0 -233.5 -72t-141.5 -196h-134q54 183 195.5 286.5t330.5 103.5q193 0 304.5 -99.5 t111.5 -257.5q0 -144 -95.5 -244t-255.5 -125l-3 -12q127 -24 199 -105t72 -210q0 -194 -153 -322t-389 -128q-115 0 -208.5 33.5t-152 90.5t-91 128t-35.5 150z" />
<glyph unicode="&#x418;" horiz-adv-x="1513" d="M153 0l307 1443h138l-257 -1207h12l1093 1207h138l-307 -1443h-138l256 1206h-12l-1092 -1206h-138z" />
<glyph unicode="&#x419;" horiz-adv-x="1513" d="M153 0l307 1443h138l-257 -1207h12l1093 1207h138l-307 -1443h-138l256 1206h-12l-1092 -1206h-138zM761 1851h120q-18 -83 26.5 -132.5t129.5 -49.5q86 0 151.5 49.5t83.5 132.5h120q-27 -128 -125.5 -201t-238.5 -73q-144 0 -219 73.5t-48 200.5z" />
<glyph unicode="&#x41a;" d="M153 0l307 1443h140l-139 -650h40l786 650h181l-868 -710l605 -733h-161l-567 684h-39l-145 -684h-140z" />
<glyph unicode="&#x41b;" horiz-adv-x="1403" d="M-3 1l26 123q19 -7 53 -7q57 0 104 29t82.5 86t61.5 124.5t51 160.5l252 926h847l-307 -1443h-140l281 1319h-580l-221 -809q-34 -125 -71 -213.5t-89.5 -161t-123.5 -108.5t-163 -36q-35 0 -63 10z" />
<glyph unicode="&#x41c;" horiz-adv-x="1782" d="M153 0l307 1443h150l267 -1256h12l797 1256h167l-307 -1443h-131l250 1177h-9l-745 -1170h-119l-248 1170h-10l-250 -1177h-131z" />
<glyph unicode="&#x41d;" horiz-adv-x="1509" d="M153 0l307 1443h140l-137 -642h841l137 642h139l-307 -1443h-140l144 677h-841l-144 -677h-139z" />
<glyph unicode="&#x41e;" horiz-adv-x="1591" d="M234 574q0 189 58.5 356t160 286t244 188t303.5 69q252 0 412 -169t160 -435q0 -254 -99 -460t-273.5 -322.5t-390.5 -116.5q-253 0 -414 169.5t-161 434.5zM378 585q0 -220 121 -354t320 -134q172 0 311.5 99t219 273.5t79.5 388.5q0 220 -120.5 354t-318.5 134 q-171 0 -311.5 -100t-220.5 -274.5t-80 -386.5z" />
<glyph unicode="&#x41f;" horiz-adv-x="1489" d="M153 0l307 1443h1100l-307 -1443h-137l281 1318h-825l-280 -1318h-139z" />
<glyph unicode="&#x420;" horiz-adv-x="1291" d="M152 0l309 1443h478q181 0 297.5 -104.5t116.5 -272.5q0 -157 -73.5 -276.5t-201.5 -182.5t-289 -63h-382l-115 -544h-140zM433 666h349q193 0 310.5 104t117.5 284q0 123 -84.5 195t-231.5 72h-320z" />
<glyph unicode="&#x421;" horiz-adv-x="1487" d="M231 554q0 260 99.5 470.5t273.5 329.5t387 119q147 0 268.5 -60t192.5 -167.5t74 -241.5q1 -4 1 -13h-139q-8 160 -121.5 257.5t-284.5 97.5q-126 0 -239 -60.5t-194.5 -164t-129 -248t-47.5 -305.5q0 -215 116.5 -344t313.5 -129q169 0 292 81t169 217h144 q-56 -198 -220 -311.5t-399 -113.5q-251 0 -404 161.5t-153 424.5z" />
<glyph unicode="&#x422;" horiz-adv-x="1301" d="M335 1319l26 124h1104l-26 -124h-482l-281 -1319h-139l280 1319h-482z" />
<glyph unicode="&#x423;" horiz-adv-x="1303" d="M211 2l26 124q25 -9 73 -9q85 0 154.5 47.5t147.5 160.5l-262 1118h145l214 -961h13l605 961h157l-693 -1072q-69 -107 -122.5 -173.5t-113.5 -116t-125 -70.5t-146 -21q-53 0 -73 12z" />
<glyph unicode="&#x424;" horiz-adv-x="1678" d="M225 616q0 195 100.5 353t279.5 249t404 95l31 147h135l-31 -147q250 -8 392 -135t142 -344q0 -196 -100.5 -353.5t-279.5 -248.5t-404 -95l-32 -154h-136l33 154q-250 8 -392 135t-142 344zM365 619q0 -165 111.5 -260t308.5 -99l198 930q-177 -4 -318.5 -79 t-220.5 -204t-79 -288zM920 260q178 4 319.5 79t220.5 204t79 288q0 165 -112 260t-309 99z" />
<glyph unicode="&#x425;" horiz-adv-x="1386" d="M64 0l664 744l-338 699h156l282 -609h11l551 609h158l-659 -726l344 -717h-148l-295 618h-11l-558 -618h-157z" />
<glyph unicode="&#x426;" horiz-adv-x="1548" d="M152 0l309 1443h136l-280 -1318h821l281 1318h138l-281 -1319h183l-86 -409h-128l61 285h-1154z" />
<glyph unicode="&#x427;" horiz-adv-x="1380" d="M328 1072l80 371h136l-79 -372q-37 -176 39 -283.5t247 -107.5q144 0 261 59.5t183 145.5l119 558h137l-307 -1443h-137l150 704h-11q-178 -151 -419 -151q-226 0 -336.5 145.5t-62.5 373.5z" />
<glyph unicode="&#x428;" horiz-adv-x="1937" d="M153 0l307 1443h140l-282 -1319h566l281 1319h139l-281 -1319h565l281 1319h139l-307 -1443h-1548z" />
<glyph unicode="&#x429;" horiz-adv-x="2000" d="M154 0l307 1443h139l-281 -1319h565l281 1319h140l-281 -1319h565l281 1319h139l-281 -1319h183l-87 -409h-127l61 285h-1604z" />
<glyph unicode="&#x42a;" horiz-adv-x="1497" d="M309 1319l27 124h478l-116 -544h307q201 0 324 -107.5t123 -283.5q0 -100 -40 -192.5t-110 -162t-173.5 -111.5t-222.5 -42h-538l281 1319h-340zM533 122h360q179 0 298 105t119 261q0 139 -89 214t-242 75h-306z" />
<glyph unicode="&#x42b;" horiz-adv-x="1709" d="M153 0l307 1443h140l-116 -544h307q199 0 322.5 -107t123.5 -284q0 -101 -40 -193.5t-110.5 -162t-173.5 -111t-222 -41.5h-538zM318 122h360q179 0 298 105t119 261q0 141 -89 215t-242 74h-306zM1334 0l307 1443h140l-307 -1443h-140z" />
<glyph unicode="&#x42c;" horiz-adv-x="1283" d="M153 0l307 1443h140l-116 -544h307q199 0 322.5 -107t123.5 -284q0 -101 -40 -193.5t-110.5 -162t-173.5 -111t-222 -41.5h-538zM318 122h360q179 0 298 105t119 261q0 141 -89 215t-242 74h-306z" />
<glyph unicode="&#x42d;" horiz-adv-x="1476" d="M181 411h140q15 -141 124 -227.5t266 -86.5q219 0 381 160.5t213 419.5h-687l26 124h679q24 249 -88 397t-326 148q-172 0 -298.5 -93t-183.5 -251h-140q68 224 236.5 347.5t398.5 123.5q287 0 434.5 -202.5t90.5 -552.5q-29 -216 -129 -384.5t-262 -266t-361 -97.5 q-204 0 -352.5 123.5t-161.5 317.5z" />
<glyph unicode="&#x42e;" horiz-adv-x="2053" d="M153 0l307 1443h140l-137 -642h291q30 145 96 268.5t159.5 213t216.5 140t261 50.5q118 0 221.5 -43.5t178.5 -120t118 -186.5t43 -237q0 -185 -56.5 -353t-154 -292t-237 -197.5t-297.5 -73.5q-252 0 -412.5 161.5t-160.5 434.5q0 51 5 111h-299l-144 -677h-139z M872 587q0 -227 120 -358.5t311 -131.5q166 0 305 103t219 279.5t80 385.5q0 221 -120 351t-310 130q-169 0 -308 -100.5t-218 -274.5t-79 -384z" />
<glyph unicode="&#x42f;" horiz-adv-x="1330" d="M68 0l536 587q-134 37 -210.5 132.5t-76.5 228.5q0 98 40 187.5t110 158t173.5 109t222.5 40.5h539l-307 -1443h-140l120 565h-298q-10 0 -14 1l-516 -566h-179zM460 968q0 -135 88.5 -208t242.5 -73h311l134 634h-359q-179 0 -298 -101t-119 -252z" />
<glyph unicode="&#x430;" horiz-adv-x="1146" d="M141 273q0 156 119.5 246.5t340.5 100.5l337 16l17 81q8 42 8 64q0 92 -67.5 144t-187.5 52q-106 0 -181 -45t-100 -122h-139q33 130 150.5 207.5t280.5 77.5q171 0 274 -80.5t103 -216.5q0 -39 -10 -89l-150 -709h-128l35 165h-12q-57 -84 -153.5 -133.5t-205.5 -49.5 q-142 0 -236.5 83t-94.5 208zM276 286q0 -83 65.5 -136t169.5 -53q135 0 240.5 80.5t131.5 202.5l32 149l-321 -17q-152 -8 -235 -67.5t-83 -158.5z" />
<glyph unicode="&#x431;" horiz-adv-x="1239" d="M190 429q0 145 67 383q29 103 59.5 182.5t71 153.5t89.5 126t111.5 92t142.5 60.5t177 23.5q44 0 152 6q133 8 246 49l-24 -117q-1 0 -10.5 -4.5t-20.5 -9.5t-32 -11t-44.5 -11.5t-59 -10t-74.5 -6.5q-72 -8 -155 -8q-88 -2 -158.5 -25t-121.5 -60t-93.5 -96.5t-72 -125 t-59.5 -155.5h12q63 93 157.5 146t213.5 53q193 0 309 -124t116 -320q0 -175 -65.5 -318.5t-196 -231.5t-303.5 -88q-195 0 -314.5 123.5t-119.5 323.5zM325 437q0 -156 84.5 -246t231.5 -90q170 0 289.5 142.5t119.5 347.5q0 166 -82 260t-227 94q-185 0 -300.5 -146 t-115.5 -362z" />
<glyph unicode="&#x432;" horiz-adv-x="1115" d="M136 0l229 1077h404q141 0 220.5 -64t79.5 -173q0 -103 -68.5 -176t-177.5 -94l-2 -13q95 -12 149.5 -67.5t54.5 -139.5q0 -152 -122.5 -251t-326.5 -99h-440zM294 111h303q132 0 211.5 64.5t79.5 165.5q0 160 -235 160h-277zM400 612h264q123 0 195.5 61t72.5 149 q0 144 -186 144h-271z" />
<glyph unicode="&#x433;" horiz-adv-x="945" d="M136 0l229 1077h673l-23 -111h-539l-206 -966h-134z" />
<glyph unicode="&#x434;" horiz-adv-x="1265" d="M-58 -285l85 396h88q59 37 113.5 133t91.5 224q13 43 86 300.5t87 308.5h722l-205 -966h175l-85 -396h-124l61 285h-910l-61 -285h-124zM274 111h602l182 855h-471q-66 -246 -143 -503q-75 -251 -168 -340z" />
<glyph unicode="&#x435;" horiz-adv-x="1196" d="M191 424q0 194 72.5 347.5t200.5 238.5t288 85q172 0 288.5 -117.5t116.5 -310.5q0 -87 -14 -154h-811q-5 -43 -5 -78q0 -162 87 -247.5t218 -85.5q226 0 309 162h140q-38 -125 -161 -203.5t-297 -78.5q-189 0 -310.5 118.5t-121.5 323.5zM350 621h667q4 24 4 60 q0 127 -76.5 212.5t-204.5 85.5q-138 0 -243.5 -98.5t-146.5 -259.5z" />
<glyph unicode="&#x436;" horiz-adv-x="1588" d="M25 0l622 572l-343 505h142l322 -474h47l101 474h132l-101 -474h44l525 474h169l-596 -529l394 -548h-152l-362 502h-43l-107 -502h-132l107 502h-48l-549 -502h-172z" />
<glyph unicode="&#x437;" horiz-adv-x="1074" d="M144 312h130q5 -93 77 -153t190 -60q129 0 215.5 66t88.5 166q2 89 -56.5 130t-179.5 41h-167l26 111h167q114 0 188 55t76 139t-52.5 126.5t-162.5 42.5q-114 0 -196.5 -56.5t-123.5 -157.5h-130q54 153 174.5 243t289.5 90q162 0 252 -72t87 -195q-2 -98 -69 -168.5 t-166 -87.5l-3 -12q87 -17 136 -75t47 -148q-3 -157 -131.5 -256.5t-317.5 -99.5q-170 0 -277 91.5t-112 239.5z" />
<glyph unicode="&#x438;" horiz-adv-x="1235" d="M136 0l229 1077h133l-185 -866h12l786 866h134l-229 -1077h-132l184 868h-12l-785 -868h-135z" />
<glyph unicode="&#x439;" horiz-adv-x="1235" d="M136 0l229 1077h133l-185 -866h12l786 866h134l-229 -1077h-132l184 868h-12l-785 -868h-135zM563 1538h117q-19 -88 22 -147t129 -59q92 0 156.5 58.5t83.5 147.5h120q-29 -136 -124.5 -217t-247.5 -81q-139 0 -211.5 84t-44.5 214z" />
<glyph unicode="&#x43a;" horiz-adv-x="1070" d="M136 0l229 1077h134l-101 -472h39l557 472h171l-630 -525l429 -552h-156l-393 500h-39l-106 -500h-134z" />
<glyph unicode="&#x43b;" horiz-adv-x="1180" d="M9 1l26 121q24 -8 52 -8q76 0 134 88.5t109 265.5q13 42 85 298t87 311h688l-229 -1077h-133l205 966h-435q-66 -246 -143 -503q-74 -254 -159 -363t-229 -109q-31 0 -58 10z" />
<glyph unicode="&#x43c;" horiz-adv-x="1523" d="M136 0l229 1077h156l234 -895h12l612 895h154l-229 -1077h-134l178 837h-14l-558 -816h-103l-214 816h-14l-178 -837h-131z" />
<glyph unicode="&#x43d;" horiz-adv-x="1215" d="M136 0l229 1077h134l-99 -462h592l99 462h134l-229 -1077h-134l107 504h-592l-107 -504h-134z" />
<glyph unicode="&#x43e;" horiz-adv-x="1237" d="M191 428q0 183 68 334t198.5 242t299.5 91q196 0 316 -123t120 -321q0 -134 -40 -255t-111.5 -213t-179 -146.5t-234.5 -54.5q-196 0 -316.5 123.5t-120.5 322.5zM330 442q0 -153 85 -247t229 -94q168 0 288.5 149.5t120.5 372.5q0 164 -83 259t-225 95 q-123 0 -218.5 -71t-146 -192.5t-50.5 -271.5z" />
<glyph unicode="&#x43f;" horiz-adv-x="1205" d="M136 0l229 1077h850l-229 -1077h-134l206 966h-582l-206 -966h-134z" />
<glyph unicode="&#x440;" horiz-adv-x="1263" d="M57 -371l308 1448h127l-39 -184h12q63 94 164 148t215 54q166 0 275 -117.5t109 -300.5q0 -189 -73 -349t-200 -253t-280 -93q-130 0 -224 72.5t-117 189.5h-12l-133 -615h-132zM369 430q0 -152 80.5 -240.5t217.5 -88.5q118 0 215.5 75t153 202.5t55.5 279.5 q0 149 -76.5 234t-210.5 85q-123 0 -224 -77t-156 -202t-55 -268z" />
<glyph unicode="&#x441;" horiz-adv-x="1169" d="M193 449q0 127 40.5 244t112.5 206t179.5 142t232.5 53q170 0 284 -99.5t127 -235.5h-134q-14 92 -93.5 154.5t-187.5 62.5q-126 0 -224 -72t-149.5 -189t-51.5 -257q0 -169 79 -264t225 -95q108 0 192 58.5t127 150.5h141q-58 -146 -180.5 -236.5t-285.5 -90.5 q-211 0 -322.5 125t-111.5 343z" />
<glyph unicode="&#x442;" horiz-adv-x="985" d="M227 966l23 111h860l-23 -111h-363l-206 -966h-134l206 966h-363z" />
<glyph unicode="&#x443;" horiz-adv-x="1099" d="M78 -364l20 114q37 -11 85 -11q61 0 112 42t108 146l40 72l-179 1078h131l143 -913h12l515 913h145l-691 -1193q-86 -149 -161.5 -203t-182.5 -54q-43 0 -97 9z" />
<glyph unicode="&#x444;" horiz-adv-x="1540" d="M187 441q0 134 49 252t138 206.5t223.5 140.5t296.5 55l77 358h131l-77 -358q211 -8 341 -132.5t130 -328.5q0 -107 -30.5 -204.5t-91 -178t-144.5 -140.5t-197 -94t-244 -36l-75 -352h-131l75 352q-211 8 -341 132t-130 328zM325 457q0 -166 96 -260.5t261 -99.5 l188 882q-166 -6 -291.5 -79t-189.5 -188.5t-64 -254.5zM814 97q124 4 228 47t172.5 114t106.5 163.5t38 196.5q0 167 -96 261.5t-262 99.5z" />
<glyph unicode="&#x445;" horiz-adv-x="1069" d="M43 0l495 546l-269 531h143l209 -432h12l382 432h158l-493 -539l268 -538h-138l-214 436h-12l-384 -436h-157z" />
<glyph unicode="&#x446;" horiz-adv-x="1264" d="M136 0l229 1077h134l-206 -966h582l206 966h134l-206 -966h174l-84 -396h-124l61 285h-900z" />
<glyph unicode="&#x447;" horiz-adv-x="1125" d="M267 792l60 285h134l-61 -288q-28 -132 22 -205t178 -73q96 0 178.5 44t133.5 105l89 417h134l-229 -1077h-134l108 509h-13q-137 -116 -301 -116q-173 0 -255 109.5t-44 289.5z" />
<glyph unicode="&#x448;" horiz-adv-x="1677" d="M136 0l229 1077h135l-206 -966h460l205 966h134l-205 -966h460l205 966h134l-229 -1077h-1322z" />
<glyph unicode="&#x449;" horiz-adv-x="1737" d="M136 0l229 1077h135l-206 -966h460l205 966h134l-205 -966h460l205 966h134l-205 -966h174l-84 -396h-124l61 285h-1373z" />
<glyph unicode="&#x44a;" horiz-adv-x="1211" d="M221 966l23 111h422l-78 -366h228q155 0 242.5 -78t87.5 -207q0 -184 -132 -305t-349 -121h-362l205 966h-287zM460 111h228q146 0 235 88t89 212q0 90 -57 139t-163 49h-228z" />
<glyph unicode="&#x44b;" horiz-adv-x="1406" d="M136 0l229 1077h134l-78 -366h226q155 0 242 -78t87 -207q0 -184 -131.5 -305t-349.5 -121h-359zM294 111h224q146 0 235 88t89 212q0 90 -56.5 139t-162.5 49h-226zM1053 0l229 1077h134l-229 -1077h-134z" />
<glyph unicode="&#x44c;" horiz-adv-x="1041" d="M136 0l229 1077h134l-78 -366h226q155 0 242 -78t87 -207q0 -184 -131.5 -305t-349.5 -121h-359zM294 111h224q146 0 235 88t89 212q0 90 -56.5 139t-162.5 49h-226z" />
<glyph unicode="&#x44d;" horiz-adv-x="1185" d="M160 308h132q13 -92 88 -150.5t189 -58.5q160 0 271.5 111t142.5 291h-525l24 112h513q1 8 1 26q2 155 -80.5 246t-226.5 91q-110 0 -194.5 -57.5t-129.5 -159.5h-133q53 154 177.5 245t295.5 91q193 0 310.5 -119.5t117.5 -319.5q0 -139 -40.5 -262t-113 -214.5 t-180.5 -145t-235 -53.5q-179 0 -286.5 93t-117.5 234z" />
<glyph unicode="&#x44e;" horiz-adv-x="1669" d="M136 0l229 1077h134l-99 -462h243q47 214 190 347t349 133q193 0 311.5 -123t118.5 -321q0 -180 -66.5 -331t-196 -244.5t-296.5 -93.5q-192 0 -311 123.5t-119 322.5q0 43 4 76h-250l-107 -504h-134zM760 437q0 -152 84 -244t226 -92q165 0 283.5 150t118.5 372 q0 164 -81 259t-221 95q-121 0 -215 -72t-144.5 -195t-50.5 -273z" />
<glyph unicode="&#x44f;" horiz-adv-x="1076" d="M54 0l404 431q-101 26 -156 95.5t-55 172.5q0 163 126.5 270.5t350.5 107.5h365l-229 -1077h-134l87 407h-208h-4l-377 -407h-170zM381 707q0 -91 57.5 -140t168.5 -49h230l95 448h-231q-145 0 -232.5 -74t-87.5 -185z" />
<glyph unicode="&#x451;" horiz-adv-x="1196" d="M191 424q0 194 72.5 347.5t200.5 238.5t288 85q172 0 288.5 -117.5t116.5 -310.5q0 -87 -14 -154h-811q-5 -43 -5 -78q0 -162 87 -247.5t218 -85.5q226 0 309 162h140q-38 -125 -161 -203.5t-297 -78.5q-189 0 -310.5 118.5t-121.5 323.5zM350 621h667q4 24 4 60 q0 127 -76.5 212.5t-204.5 85.5q-138 0 -243.5 -98.5t-146.5 -259.5zM516 1330q0 43 30 72.5t72 29.5q43 0 73 -29.5t30 -72.5t-30 -72.5t-73 -29.5q-42 0 -72 29.5t-30 72.5zM880 1330q0 43 29.5 72.5t72.5 29.5q42 0 72 -29.5t30 -72.5t-30 -72.5t-72 -29.5 q-43 0 -72.5 29.5t-29.5 72.5z" />
<glyph unicode="&#x452;" horiz-adv-x="1257" d="M146 0l275 1285h-149l21 98h149l26 123h132l-26 -123h254l-20 -98h-256l-81 -379h12q70 96 156 142.5t204 46.5q149 0 247 -92.5t98 -246.5q0 -53 -11 -105l-160 -751q-32 -148 -106.5 -214t-213.5 -64l-81 1l28 124l46 -1q159 -5 195 167l153 720q10 53 10 87 q2 120 -68.5 188.5t-190.5 68.5q-136 0 -236.5 -86.5t-134.5 -242.5l-138 -648h-134z" />
<glyph unicode="&#x453;" horiz-adv-x="956" d="M143 0l229 1077h673l-23 -111h-539l-206 -966h-134zM603 1267l320 327h169l-340 -327h-149z" />
<glyph unicode="&#x454;" horiz-adv-x="1169" d="M193 449q0 127 40.5 244t112.5 206t179.5 142t232.5 53q170 0 284 -99.5t127 -235.5h-134q-14 92 -93.5 154.5t-187.5 62.5q-152 0 -261 -101t-145 -260h527l-23 -111h-520q-3 -19 -3 -40q-2 -171 77 -268t227 -97q108 0 192 58.5t127 150.5h141q-58 -146 -180.5 -236.5 t-285.5 -90.5q-211 0 -322.5 125t-111.5 343z" />
<glyph unicode="&#x455;" horiz-adv-x="1070" d="M136 281h135q19 -84 96 -135.5t189 -51.5q121 0 199.5 55t78.5 141q0 59 -39.5 101.5t-131.5 73.5l-143 48q-127 43 -187.5 108.5t-60.5 164.5q0 136 111.5 222.5t280.5 86.5q161 0 266.5 -78t123.5 -206h-130q-15 77 -87.5 124.5t-176.5 47.5q-110 0 -182.5 -53 t-72.5 -132q0 -57 42.5 -98.5t131.5 -71.5l129 -43q137 -47 199 -114.5t62 -171.5q0 -138 -119 -227.5t-300 -89.5q-173 0 -288 83t-126 216z" />
<glyph unicode="&#x456;" horiz-adv-x="509" d="M149 0l231 1077h133l-230 -1077h-134zM417 1415q0 40 28.5 68.5t68.5 28.5t68.5 -28.5t28.5 -68.5q0 -41 -28.5 -69.5t-68.5 -28.5t-68.5 28.5t-28.5 69.5z" />
<glyph unicode="&#x457;" horiz-adv-x="506" d="M165 0l229 1077h131l-229 -1077h-131zM228 1330q0 43 30 72.5t72 29.5q43 0 73 -29.5t30 -72.5t-30 -72.5t-73 -29.5q-42 0 -72 29.5t-30 72.5zM592 1330q0 43 29.5 72.5t72.5 29.5q42 0 72 -29.5t30 -72.5t-30 -72.5t-72 -29.5q-43 0 -72.5 29.5t-29.5 72.5z" />
<glyph unicode="&#x458;" horiz-adv-x="507" d="M-141 -374l25 117q30 -3 55 -3q83 0 127.5 40t64.5 134l247 1163h131l-250 -1180q-30 -144 -109 -209t-215 -65q-37 0 -76 3zM414 1415q0 40 28.5 68.5t68.5 28.5t69 -28.5t29 -68.5q0 -41 -28.5 -69.5t-69.5 -28.5q-40 0 -68.5 29t-28.5 69z" />
<glyph unicode="&#x459;" horiz-adv-x="1732" d="M9 1l26 121q24 -8 52 -8q76 0 134 88.5t109 265.5q13 42 85 298t87 311h688l-78 -366h226q155 0 242 -78t87 -207q0 -184 -131.5 -305t-349.5 -121h-359l205 966h-434q-66 -246 -143 -503q-74 -254 -159 -363t-229 -109q-31 0 -58 10zM985 111h224q146 0 235 88t89 212 q0 90 -56.5 139t-162.5 49h-225z" />
<glyph unicode="&#x45a;" horiz-adv-x="1760" d="M136 0l229 1077h134l-95 -447h586l95 447h134l-95 -446h243q146 0 232.5 -73.5t86.5 -186.5q0 -163 -129 -267t-337 -104h-364l110 519h-586l-110 -519h-134zM1013 111h231q136 0 222 69.5t86 168.5q0 82 -55 126t-154 44h-243z" />
<glyph unicode="&#x45b;" horiz-adv-x="1256" d="M146 0l275 1285h-149l21 98h149l26 123h133l-26 -123h253l-20 -98h-254l-84 -390h12q132 200 356 200q156 0 253 -94t97 -232q0 -60 -12 -116l-139 -653h-133l134 630q12 59 12 104q0 110 -71.5 176.5t-192.5 66.5q-137 0 -237 -89.5t-129 -225.5l-141 -662h-133z" />
<glyph unicode="&#x45c;" horiz-adv-x="1070" d="M136 0l229 1077h134l-101 -472h39l557 472h171l-630 -525l429 -552h-156l-393 500h-39l-106 -500h-134zM650 1267l320 327h169l-340 -327h-149z" />
<glyph unicode="&#x45e;" horiz-adv-x="1099" d="M78 -364l20 114q37 -11 85 -11q61 0 112 42t108 146l40 72l-179 1078h131l143 -913h12l515 913h145l-691 -1193q-86 -149 -161.5 -203t-182.5 -54q-43 0 -97 9zM494 1538h117q-19 -88 22 -147t129 -59q92 0 156.5 58.5t83.5 147.5h120q-29 -136 -124.5 -217t-247.5 -81 q-139 0 -211.5 84t-44.5 214z" />
<glyph unicode="&#x45f;" horiz-adv-x="1205" d="M136 0l229 1077h134l-206 -966h582l206 966h134l-229 -1077h-363l-61 -285h-124l61 285h-363z" />
<glyph unicode="&#x490;" horiz-adv-x="1158" d="M153 0l307 1443h723l58 273h127l-84 -397h-710l-281 -1319h-140z" />
<glyph unicode="&#x491;" horiz-adv-x="945" d="M136 0l229 1077h549l58 274h124l-81 -385h-539l-206 -966h-134z" />
<glyph unicode="&#x2000;" horiz-adv-x="995" />
<glyph unicode="&#x2001;" horiz-adv-x="1991" />
<glyph unicode="&#x2002;" horiz-adv-x="995" />
<glyph unicode="&#x2003;" horiz-adv-x="1991" />
<glyph unicode="&#x2004;" horiz-adv-x="663" />
<glyph unicode="&#x2005;" horiz-adv-x="497" />
<glyph unicode="&#x2006;" horiz-adv-x="331" />
<glyph unicode="&#x2007;" horiz-adv-x="331" />
<glyph unicode="&#x2008;" horiz-adv-x="248" />
<glyph unicode="&#x2009;" horiz-adv-x="398" />
<glyph unicode="&#x200a;" horiz-adv-x="110" />
<glyph unicode="&#x2010;" horiz-adv-x="975" d="M228 520l27 124h656l-27 -124h-656z" />
<glyph unicode="&#x2011;" horiz-adv-x="975" d="M228 520l27 124h656l-27 -124h-656z" />
<glyph unicode="&#x2012;" horiz-adv-x="975" d="M228 520l27 124h656l-27 -124h-656z" />
<glyph unicode="&#x2013;" horiz-adv-x="1183" d="M69 520l27 124h1182l-26 -124h-1183z" />
<glyph unicode="&#x2014;" horiz-adv-x="2048" d="M69 520l27 124h2048l-27 -124h-2048z" />
<glyph unicode="&#x2018;" horiz-adv-x="547" d="M407 1443h136l21 -508h-123z" />
<glyph unicode="&#x2019;" horiz-adv-x="548" d="M295 935l244 508h137l-258 -508h-123z" />
<glyph unicode="&#x201a;" horiz-adv-x="548" d="M12 -396l244 508h137l-258 -508h-123z" />
<glyph unicode="&#x201c;" horiz-adv-x="903" d="M407 1443h136l21 -508h-123zM762 1443h137l20 -508h-122z" />
<glyph unicode="&#x201d;" horiz-adv-x="904" d="M298 935l237 508h137l-251 -508h-123zM654 935l238 508h137l-252 -508h-123z" />
<glyph unicode="&#x201e;" horiz-adv-x="904" d="M15 -396l238 508h136l-251 -508h-123zM371 -396l238 508h136l-251 -508h-123z" />
<glyph unicode="&#x2020;" horiz-adv-x="1037" d="M316 963l24 114h308l66 312h118l-66 -312h306l-24 -114h-306l-139 -653h-118l139 653h-308z" />
<glyph unicode="&#x2021;" horiz-adv-x="1037" d="M234 583l25 114h309l66 309h-310l24 113h308l57 270h118l-57 -270h307l-24 -113h-308l-66 -309h309l-25 -114h-307l-58 -273h-118l58 273h-308z" />
<glyph unicode="&#x2022;" horiz-adv-x="1037" d="M337 586q0 111 76.5 188t187.5 77t188 -77t77 -188t-77 -187.5t-188 -76.5t-187.5 76.5t-76.5 187.5z" />
<glyph unicode="&#x2026;" horiz-adv-x="1626" d="M145 100q0 46 32.5 78t77.5 32q46 0 78 -32t32 -78q0 -45 -32 -77.5t-78 -32.5q-45 0 -77.5 32.5t-32.5 77.5zM662 100q0 46 32.5 78t77.5 32q46 0 78 -32t32 -78q0 -45 -32 -77.5t-78 -32.5q-45 0 -77.5 32.5t-32.5 77.5zM1171 100q0 46 32.5 78t77.5 32q46 0 78 -32 t32 -78q0 -45 -32 -77.5t-78 -32.5q-45 0 -77.5 32.5t-32.5 77.5z" />
<glyph unicode="&#x202f;" horiz-adv-x="398" />
<glyph unicode="&#x2030;" horiz-adv-x="2301" d="M166 0l708 746l662 697h146l-718 -756l-652 -687h-146zM300 1071q0 163 99 278t241 115q116 0 188 -79.5t72 -209.5q0 -162 -99.5 -278t-239.5 -116q-118 0 -189.5 79.5t-71.5 210.5zM421 1070q0 -85 40 -136.5t107 -51.5q86 0 148.5 88t62.5 208q0 85 -39.5 135 t-105.5 50q-86 0 -149.5 -87t-63.5 -206zM947 269q0 163 99.5 278t240.5 115q117 0 189 -79.5t72 -209.5q0 -162 -100 -278t-240 -116q-118 0 -189.5 79.5t-71.5 210.5zM1069 268q0 -85 40 -136.5t106 -51.5q86 0 148.5 88t62.5 208q0 85 -39 135t-106 50q-86 0 -149 -87 t-63 -206zM1638 269q0 163 99 278t240 115q117 0 189 -79.5t72 -209.5q0 -162 -99.5 -278t-240.5 -116q-118 0 -189 79.5t-71 210.5zM1759 268q0 -85 40 -136.5t107 -51.5q86 0 148.5 88t62.5 208q0 85 -39.5 135t-105.5 50q-86 0 -149.5 -87t-63.5 -206z" />
<glyph unicode="&#x2039;" horiz-adv-x="911" d="M254 563l1 6l447 414h170l-457 -426l-3 -13l260 -395h-148z" />
<glyph unicode="&#x203a;" horiz-adv-x="911" d="M198 149l456 426l3 12l-260 396h148l270 -414l-1 -6l-447 -414h-169z" />
<glyph unicode="&#x2044;" horiz-adv-x="564" d="M-145 0l492 751l452 692h134l-472 -721l-472 -722h-134z" />
<glyph unicode="&#x205f;" horiz-adv-x="497" />
<glyph unicode="&#x2070;" horiz-adv-x="868" d="M326 1214q0 253 121 425.5t296 172.5q131 0 209.5 -91.5t79.5 -242.5q0 -126 -33 -237t-89 -190t-133 -125t-164 -46q-130 0 -208.5 91.5t-78.5 242.5zM459 1211q0 -103 42.5 -162.5t117.5 -59.5q73 0 137.5 67t103.5 181t39 244q0 102 -43 162t-117 60t-138.5 -67.5 t-103 -181t-38.5 -243.5z" />
<glyph unicode="&#x2074;" horiz-adv-x="858" d="M267 1085l22 119q166 214 509 589h193l-128 -599h126l-23 -109h-126l-39 -183h-127l39 183h-446zM414 1190h324l105 496h-7q-226 -244 -420 -488z" />
<glyph unicode="&#x2075;" horiz-adv-x="834" d="M306 1132v15h124q4 -70 55.5 -113.5t132.5 -43.5q94 0 156 62.5t62 158.5q0 80 -49 128.5t-129 48.5q-53 0 -101.5 -22.5t-79.5 -62.5h-127l149 489h519l-23 -108h-412l-85 -276h8q77 77 197 77q113 0 186.5 -73.5t73.5 -186.5q0 -151 -98.5 -247.5t-251.5 -96.5 q-131 0 -218 71.5t-89 179.5z" />
<glyph unicode="&#x2076;" horiz-adv-x="850" d="M310 1170q0 183 202 383q13 15 124 123t121 116h174q-15 -10 -156 -143t-161 -155q-29 -27 -50 -57l8 -3q55 43 139 43q108 0 180.5 -75t72.5 -188q0 -138 -100 -233t-244 -95q-134 0 -222 81t-88 203zM437 1176q1 -79 53.5 -129.5t133.5 -50.5q88 0 149 60t60 147 q1 79 -52 130.5t-133 51.5q-88 0 -149 -61t-62 -148z" />
<glyph unicode="&#x2077;" horiz-adv-x="757" d="M291 902l564 773l1 9h-461l24 108h599l-24 -110l-557 -780h-146z" />
<glyph unicode="&#x2078;" horiz-adv-x="879" d="M300 1123q1 102 71 172.5t180 84.5l2 9q-59 23 -92.5 68t-32.5 100q-1 108 89.5 181t229.5 73q124 0 207 -63.5t83 -156.5q0 -88 -58 -150t-150 -76l-2 -9q71 -24 112.5 -75.5t41.5 -119.5q0 -121 -100 -200.5t-256 -79.5q-145 0 -235 68t-90 174zM439 1137 q-1 -70 51.5 -112t140.5 -42q95 0 155.5 52.5t60.5 132.5q1 66 -54 108.5t-140 42.5q-92 0 -153 -52t-61 -130zM554 1545q0 -58 45.5 -94t120.5 -36q79 0 132 46t53 116q0 59 -45.5 96t-118.5 37q-82 0 -134.5 -47.5t-52.5 -117.5z" />
<glyph unicode="&#x2079;" horiz-adv-x="849" d="M375 1477q0 138 98.5 231t244.5 93q133 0 221 -80.5t89 -202.5q-1 -184 -202 -383q-148 -148 -244 -238h-174q14 10 154.5 141.5t162.5 155.5q23 23 49 57l-8 3q-54 -43 -130 -43q-112 0 -186.5 76t-74.5 190zM506 1486q-1 -79 51.5 -130.5t132.5 -51.5q88 0 149 60.5 t61 147.5q-1 79 -53 129.5t-132 50.5q-88 0 -149 -60t-60 -146z" />
<glyph unicode="&#x207a;" horiz-adv-x="842" d="M336 1305l22 102h269l57 268h104l-57 -268h270l-22 -102h-270l-58 -272h-104l58 272h-269z" />
<glyph unicode="&#x207c;" horiz-adv-x="842" d="M308 1175l22 103h642l-22 -103h-642zM363 1434l22 103h642l-21 -103h-643z" />
<glyph unicode="&#x207d;" horiz-adv-x="498" d="M349 1162q-1 195 76.5 381.5t213.5 316.5h136q-140 -142 -218 -327.5t-78 -377.5q0 -186 60 -351h-118q-33 66 -52.5 164t-19.5 194z" />
<glyph unicode="&#x207e;" horiz-adv-x="498" d="M207 804q140 141 218 326.5t78 379.5q0 188 -60 350h119q32 -67 52 -165.5t19 -191.5q0 -197 -77 -383t-212 -316h-137z" />
<glyph unicode="&#x2080;" horiz-adv-x="868" d="M60 -37q0 253 121 425.5t296 172.5q131 0 209.5 -91.5t79.5 -242.5q0 -126 -33 -237t-89 -190t-133 -125t-164 -46q-130 0 -208.5 91.5t-78.5 242.5zM193 -40q0 -103 42.5 -162.5t117.5 -59.5q73 0 137.5 67t103.5 181t39 244q0 102 -43 162t-117 60t-138.5 -67.5 t-103 -181t-38.5 -243.5z" />
<glyph unicode="&#x2081;" horiz-adv-x="635" d="M91 250l28 131q14 8 79 47t123 73.5t68 39.5h131l-190 -890h-132l160 752h-9q-60 -32 -258 -153z" />
<glyph unicode="&#x2082;" horiz-adv-x="821" d="M-3 -349l21 97l362 304q130 109 170.5 160t40.5 105q0 59 -44.5 98t-113.5 39q-71 0 -123.5 -43.5t-65.5 -114.5v-2h-124q13 117 104 191.5t219 74.5q121 0 200.5 -66t79.5 -165q0 -79 -53 -149t-211 -201l-250 -211l-2 -8h431l-24 -109h-617z" />
<glyph unicode="&#x2083;" horiz-adv-x="833" d="M29 -93h126q-7 -72 46.5 -120t139.5 -48q92 0 150 49t58 128q0 64 -50.5 103.5t-130.5 39.5h-98l21 100h121q83 0 137.5 45t54.5 114q0 61 -45 98.5t-118 37.5q-64 0 -114 -35.5t-69 -93.5h-123q24 107 110.5 171t205.5 64q123 0 202.5 -64t79.5 -162q0 -87 -59.5 -150.5 t-154.5 -77.5l-1 -8q77 -16 119.5 -65.5t42.5 -123.5q0 -122 -96.5 -200.5t-245.5 -78.5q-148 0 -236.5 79.5t-72.5 197.5z" />
<glyph unicode="&#x2084;" horiz-adv-x="858" d="M1 -166l22 119q166 214 509 589h193l-128 -599h126l-23 -109h-126l-39 -183h-127l39 183h-446zM148 -61h324l105 496h-7q-226 -244 -420 -488z" />
<glyph unicode="&#x2085;" horiz-adv-x="834" d="M39.5 -113.5q-0.5 4.5 0.5 9.5h124q4 -70 55.5 -113.5t132.5 -43.5q94 0 156 62.5t62 158.5q0 80 -49 128.5t-129 48.5q-53 0 -101.5 -22.5t-79.5 -62.5h-127l149 489h519l-23 -108h-412l-85 -276h8q77 77 197 77q113 0 186.5 -73.5t73.5 -186.5q0 -151 -98.5 -247.5 t-251.5 -96.5q-131 0 -218 71.5t-89 179.5q0 1 -0.5 5.5z" />
<glyph unicode="&#x2086;" horiz-adv-x="849" d="M44 -81q0 183 202 383q13 15 124 123t121 116h174q-15 -10 -156 -143t-161 -155q-29 -27 -50 -57l8 -3q55 43 139 43q108 0 180.5 -75t72.5 -188q0 -138 -100 -233t-244 -95q-134 0 -222 81t-88 203zM171 -75q1 -79 53.5 -129.5t133.5 -50.5q88 0 149 60t60 147 q1 79 -52 130.5t-133 51.5q-88 0 -149 -61t-62 -148z" />
<glyph unicode="&#x2087;" horiz-adv-x="757" d="M25 -349l564 773l1 9h-461l24 108h599l-24 -110l-557 -780h-146z" />
<glyph unicode="&#x2088;" horiz-adv-x="879" d="M34 -128q1 102 71 172.5t180 84.5l2 9q-59 23 -92.5 68t-32.5 100q-1 108 89.5 181t229.5 73q124 0 207 -63.5t83 -156.5q0 -88 -58 -150t-150 -76l-2 -9q71 -24 112.5 -75.5t41.5 -119.5q0 -121 -100 -200.5t-256 -79.5q-145 0 -235 68t-90 174zM173 -114 q-1 -70 51.5 -112t140.5 -42q95 0 155.5 52.5t60.5 132.5q1 66 -54 108.5t-140 42.5q-92 0 -153 -52t-61 -130zM288 294q0 -58 45.5 -94t120.5 -36q79 0 132 46t53 116q0 59 -45.5 96t-118.5 37q-82 0 -134.5 -47.5t-52.5 -117.5z" />
<glyph unicode="&#x2089;" horiz-adv-x="849" d="M109 226q0 138 98.5 231t244.5 93q133 0 221 -80.5t89 -202.5q-1 -184 -202 -383q-148 -148 -244 -238h-174q14 10 154.5 141.5t162.5 155.5q23 23 49 57l-8 3q-54 -43 -130 -43q-112 0 -186.5 76t-74.5 190zM240 235q-1 -79 51.5 -130.5t132.5 -51.5q88 0 149 60.5 t61 147.5q-1 79 -53 129.5t-132 50.5q-88 0 -149 -60t-60 -146z" />
<glyph unicode="&#x208a;" horiz-adv-x="843" d="M70 54l22 102h269l57 268h104l-57 -268h270l-22 -102h-270l-58 -272h-104l58 272h-269z" />
<glyph unicode="&#x208c;" horiz-adv-x="842" d="M42 -76l22 103h642l-22 -103h-642zM97 183l22 103h642l-21 -103h-643z" />
<glyph unicode="&#x208d;" horiz-adv-x="499" d="M83 -89q-1 195 76.5 381.5t213.5 316.5h136q-140 -142 -218 -327.5t-78 -377.5q0 -186 60 -351h-118q-33 66 -52.5 164t-19.5 194z" />
<glyph unicode="&#x208e;" horiz-adv-x="498" d="M-59 -447q140 141 218 326.5t78 379.5q0 188 -60 350h119q32 -67 52 -165.5t19 -191.5q0 -197 -77 -383t-212 -316h-137z" />
<glyph unicode="&#x20ac;" horiz-adv-x="1320" d="M136 515l22 106h205v20q0 95 15 180h-175l22 105h178q77 250 281.5 392.5t495.5 142.5q112 0 240 -28l-29 -125q-114 26 -218 26q-226 0 -387.5 -107.5t-231.5 -300.5h544l-23 -105h-550q-16 -86 -16 -173q0 -18 1 -27h520l-22 -106h-485q43 -189 199 -300.5t389 -111.5 q33 0 58 5l-26 -125q-17 -5 -65 -5q-276 0 -468 148t-236 389h-238z" />
<glyph unicode="&#x2122;" horiz-adv-x="2193" d="M416 1335l23 108h756l-23 -108h-317l-166 -782h-122l166 782h-317zM1164 553l190 890h123l181 -700h11l475 700h140l-189 -890h-111l142 672h-11l-436 -640h-83l-165 640h-11l-143 -672h-113z" />
<glyph unicode="&#x2202;" horiz-adv-x="1202" d="M181 352q0 159 73.5 295t198.5 215.5t271 79.5q108 0 205 -51t138 -130l13 -2q10 59 10 128q0 219 -117 374.5t-322 210.5l58 113q230 -59 366 -243t136 -437q0 -250 -88.5 -465t-239.5 -341t-327 -126q-165 0 -270 106t-105 273zM322 365q0 -121 70 -195t184 -74 q160 0 291 149.5t182 389.5q-46 85 -133 134t-190 49q-108 0 -201 -61.5t-148 -166.5t-55 -225z" />
<glyph unicode="&#x220f;" horiz-adv-x="1512" d="M318 -290l343 1609h-195l26 124h1144l-26 -124h-194l-342 -1609h-137l342 1609h-481l-342 -1609h-138z" />
<glyph unicode="&#x2211;" horiz-adv-x="1297" d="M148 -280l26 121l648 748l1 8l-334 725l26 121h892l-26 -121h-744l-1 -7l336 -733l-1 -8l-640 -726l-2 -7h737l-26 -121h-892z" />
<glyph unicode="&#x221a;" horiz-adv-x="1398" d="M154 681h131l80 -772h12l761 1534h474l-26 -124h-370l-777 -1547h-177z" />
<glyph unicode="&#x221e;" horiz-adv-x="1852" d="M181 558q0 189 127 312t323 123q120 0 227 -73.5t174 -202.5q104 141 215 208.5t240 67.5q155 0 257 -97t102 -244q0 -189 -127.5 -311.5t-323.5 -122.5q-120 0 -226.5 73.5t-173.5 202.5q-104 -141 -215.5 -208.5t-239.5 -67.5q-155 0 -257 96.5t-102 243.5zM313 568 q0 -98 68.5 -164t169.5 -66q222 0 401 268q-56 124 -144 194t-188 70q-133 0 -220 -85.5t-87 -216.5zM1074 604q56 -124 144.5 -193.5t188.5 -69.5q133 0 220 85.5t87 216.5q0 97 -69 163t-170 66q-220 0 -401 -268z" />
<glyph unicode="&#x222b;" horiz-adv-x="1102" d="M18 -279l25 112q56 -16 96 -16q77 0 129 43.5t87 138.5l432 1188q55 150 137.5 216t222.5 66q38 0 104 -16l-26 -111q-53 15 -95 15q-77 0 -129 -43.5t-87 -138.5l-432 -1188q-55 -150 -137.5 -216t-222.5 -66q-40 0 -104 16z" />
<glyph unicode="&#x2248;" d="M190 183q17 140 97 223t190 83q52 0 97 -24t76.5 -58t59.5 -68t60 -58t64 -24q120 0 154 182h130q-18 -141 -97.5 -223t-188.5 -82q-53 0 -98 24t-77 58t-60.5 67.5t-60 57.5t-63.5 24q-60 0 -99 -47.5t-54 -134.5h-130zM285 594q17 139 97 222t190 83q52 0 97 -24 t76.5 -57.5t60 -67.5t60 -58t64.5 -24q119 0 153 181h130q-18 -140 -97.5 -222t-188.5 -82q-52 0 -97.5 24t-77 57.5t-60 67.5t-60 58t-64.5 24q-60 0 -99 -47.5t-54 -134.5h-130z" />
<glyph unicode="&#x2260;" d="M191 331l25 115h403l165 268h-511l24 115h557l161 262h106l-161 -262h332l-24 -115h-378l-165 -268h486l-25 -115h-531l-199 -324h-106l199 324h-358z" />
<glyph unicode="&#x2264;" horiz-adv-x="1320" d="M156 112l24 114h972l-24 -114h-972zM286 723l24 114l1042 325l-28 -131l-848 -248l-3 -13l742 -250l-26 -122z" />
<glyph unicode="&#x2265;" d="M157 112l24 114h972l-23 -114h-973zM217 398l28 130l848 252l3 12l-742 248l27 122l902 -325l-24 -114z" />
<glyph unicode="&#x25ca;" horiz-adv-x="1177" d="M228 653l536 689h136l244 -691l-536 -691l-136 1zM365 641l195 -545h13l434 567l-195 544h-13z" />
<glyph unicode="&#x25fc;" horiz-adv-x="1075" d="M0 0v1075h1075v-1075h-1075z" />
<glyph unicode="&#xf8ff;" horiz-adv-x="1963" d="M204 791q-3 188 76 324q60 102 160 164t214 64q51 2 109 -18.5t108 -41.5t78 -21q27 0 83 20t127 40.5t134 20.5q31 0 66 -6t84.5 -22.5t99 -55.5t85.5 -95q-149 -93 -187 -249q-12 -47 -12 -97q3 -75 29 -140t60 -104t70.5 -67t59 -39.5t26.5 -11.5q-1 -1 -6 -16 t-14.5 -40t-23 -55.5t-35.5 -70t-48 -75.5q-34 -51 -58.5 -83t-60 -68.5t-75 -54t-83.5 -17.5q-56 0 -140 37t-154 37q-61 0 -112 -18.5t-95.5 -37t-89.5 -18.5q-44 0 -84.5 18.5t-78 56.5t-62.5 69.5t-62 83.5q-79 114 -132.5 272.5t-55.5 314.5zM939 1366q-26 131 91 277 q52 61 127 98.5t145 37.5q9 -163 -101 -283q-47 -63 -119.5 -101t-142.5 -29z" />
<glyph unicode="&#xfb01;" horiz-adv-x="1197" d="M202 0l203 966h-176l23 111h176l24 124q30 151 113.5 221.5t229.5 70.5q61 0 116 -12l-23 -111q-44 11 -106 11q-161 0 -196 -184l-24 -120h250l-24 -111h-249l-203 -966h-134zM847 0l231 1077h133l-230 -1077h-134zM1115 1415q0 40 28.5 68.5t68.5 28.5t68.5 -28.5 t28.5 -68.5q0 -41 -28.5 -69.5t-68.5 -28.5t-68.5 28.5t-28.5 69.5z" />
<glyph unicode="&#xfb02;" horiz-adv-x="1197" d="M202 0l203 966h-176l23 111h176l24 124q30 151 113.5 221.5t229.5 70.5q61 0 116 -12l-23 -111q-44 11 -106 11q-161 0 -196 -184l-24 -120h250l-24 -111h-249l-203 -966h-134zM844 0l320 1506h134l-320 -1506h-134z" />
<glyph horiz-adv-x="1363" d="M33 0l823 1335h136l256 -1335h-137l-79 439h-584l-266 -439h-149zM518 557h493l-111 624h-5z" />
<glyph horiz-adv-x="1363" d="M33 0l823 1335h136l256 -1335h-137l-79 439h-584l-266 -439h-149zM518 557h493l-111 624h-5zM782 1673q0 88 62 149t150 61q89 0 151 -61t62 -149q0 -89 -62 -150t-151 -61q-88 0 -150 61t-62 150zM870 1673q0 -53 36 -89.5t88 -36.5q53 0 89 36.5t36 89.5t-36 89t-89 36 t-88.5 -36t-35.5 -89z" />
<glyph horiz-adv-x="1464" d="M224 567q0 192 57.5 360t157 288t239 189t297.5 69q234 0 388 -133.5t154 -331.5q0 -4 -0.5 -10t-0.5 -8h-138q0 2 0.5 7t0.5 8q-8 150 -122 245.5t-292 95.5q-165 0 -302.5 -101t-217 -276.5t-79.5 -386.5q0 -226 115.5 -355.5t315.5 -129.5q160 0 283 77.5t166 204.5 h144q-52 -182 -206 -291t-369 -117l-59 -92q180 -11 180 -150q0 -74 -61.5 -117.5t-163.5 -43.5q-30 0 -72 8t-67 20l17 80q54 -23 118 -23q55 0 86.5 19t31.5 54q0 74 -130 78l-61 2l11 56l68 111q-226 23 -357.5 182t-131.5 412z" />
<glyph horiz-adv-x="1197" d="M144 0l283 1335h872l-26 -124h-735l-99 -465h698l-26 -122h-698l-107 -500h735l-26 -124h-871z" />
<glyph horiz-adv-x="506" d="M143 0l284 1335h136l-283 -1335h-137z" />
<glyph horiz-adv-x="1561" d="M204 576q0 223 95 404.5t262 285t372 103.5q266 0 425.5 -168t159.5 -448q0 -221 -95 -401t-261.5 -282t-371.5 -102q-270 0 -428 164t-158 444zM346 584q0 -226 122 -357.5t330 -131.5q161 0 293.5 86t208.5 237t76 334q0 225 -122 357t-329 132q-161 0 -294 -86.5 t-209 -237.5t-76 -333z" />
<glyph horiz-adv-x="1284" d="M74 375h138q15 -124 130.5 -202t281.5 -78q169 0 266 67.5t97 184.5q0 87 -57.5 145t-185.5 101l-164 54q-160 53 -239.5 137t-79.5 209q0 167 134 269t355 102q205 0 346 -108t153 -275h-137q-18 117 -118.5 188t-247.5 71q-159 0 -252 -64t-93 -174q0 -78 60 -134.5 t184 -98.5l149 -50q167 -57 250 -143.5t83 -214.5q0 -182 -137 -286.5t-378 -104.5q-147 0 -266.5 51t-191 143.5t-80.5 210.5z" />
<glyph horiz-adv-x="1494" d="M247 417q0 57 15 130l168 788h139l-169 -792q-11 -48 -11 -105q0 -156 105.5 -247.5t287.5 -91.5q177 0 301 102.5t160 273.5l183 860h138l-187 -880q-48 -221 -210 -352t-395 -131q-241 0 -383 123t-142 322z" />
<glyph horiz-adv-x="1148" d="M181 428q0 189 73.5 341.5t203 239t290.5 86.5q155 0 266.5 -81t137.5 -209q4 -23 6 -45h-134q-11 95 -91.5 156t-195.5 61q-178 0 -298.5 -153t-120.5 -378q0 -159 81.5 -251.5t220.5 -92.5q112 0 195.5 50t116.5 138h136q-35 -139 -161 -223.5t-298 -84.5l-67 -103 q180 -11 180 -150q0 -74 -61.5 -117.5t-163.5 -43.5q-30 0 -72 8t-67 20l17 80q54 -23 118 -23q55 0 86.5 19t31.5 54q0 74 -130 78l-61 2l11 56l79 129q-152 30 -240.5 146.5t-88.5 290.5z" />
<glyph horiz-adv-x="489" d="M141 0l229 1077h131l-229 -1077h-131zM392 1390q0 45 32 77t77 32t77.5 -32t32.5 -77t-32.5 -77.5t-77.5 -32.5t-77 32.5t-32 77.5z" />
<glyph horiz-adv-x="1595" d="M143 0l307 1443h140l-307 -1443h-140zM472 1577l372 297h174l-389 -297h-157zM631 323v7h137v-6q1 -103 70 -164.5t182 -61.5q116 0 191.5 73.5t106.5 216.5l224 1055h136l-231 -1090q-39 -183 -153 -283t-290 -100q-169 0 -275 100.5t-98 252.5zM1560 1577l372 297h174 l-389 -297h-157z" />
<glyph horiz-adv-x="977" d="M141 0l229 1077h131l-229 -1077h-131zM338 -374l25 117q30 -3 55 -3q83 0 127.5 40t64.5 134l247 1163h131l-250 -1180q-30 -144 -109 -209t-215 -65q-37 0 -76 3zM389 1267l320 327h169l-340 -327h-149zM879 1267l320 327h169l-340 -327h-149z" />
<glyph horiz-adv-x="1238" d="M129 320l26 123l741 1000h148l-733 -992l-2 -9h539l92 433h133l-92 -432h207l-26 -123h-207l-69 -320h-133l69 320h-693z" />
<glyph horiz-adv-x="1301" d="M210 417q0 142 79 288t247 313l427 425h172l-522 -506q-41 -39 -79 -87l12 -6q44 36 108.5 58t132.5 22q178 0 297 -120t119 -300q0 -144 -70 -264t-193 -189.5t-271 -69.5q-201 0 -330 123t-129 313zM339 431q0 -143 95 -236t244 -93q166 0 278.5 113.5t112.5 277.5 q0 142 -96 233.5t-243 91.5q-164 0 -277.5 -112.5t-113.5 -274.5z" />
<glyph horiz-adv-x="1300" d="M336 957q0 144 69.5 262t191.5 186t271 68q201 0 331 -123t130 -312q0 -142 -79 -287t-247 -315l-443 -448h-172l538 529q44 43 78 87l-11 6q-43 -35 -105 -57.5t-122 -22.5q-186 0 -308 121t-122 306zM470 968q0 -143 96 -237.5t243 -94.5q164 0 277.5 112.5 t113.5 274.5q0 142 -96.5 235.5t-245.5 93.5q-166 0 -277 -110.5t-111 -273.5z" />
<glyph horiz-adv-x="1320" d="M232 488q0 204 52.5 387.5t140.5 314t209 207t253 76.5q191 0 307.5 -143.5t116.5 -377.5q0 -205 -52 -388t-139.5 -313t-208 -205.5t-253.5 -75.5q-193 0 -309.5 142.5t-116.5 375.5zM369 493q0 -186 79.5 -294t219.5 -108q134 0 251 116t186.5 314t69.5 427 q0 185 -79.5 294t-217.5 109q-135 0 -252.5 -116.5t-187 -314.5t-69.5 -427z" />
<glyph d="M492 1021l34 157q5 3 74 45t138.5 84t140 84t93.5 54h136l-307 -1445h-137l271 1278h-12q-23 -12 -217 -128.5t-214 -128.5z" />
<glyph d="M152 0l23 107l619 546q209 183 273.5 268.5t64.5 179.5q0 109 -83 180.5t-208 71.5q-131 0 -226.5 -77.5t-118.5 -204.5v-1q-14 0 -64 0.5t-71 0.5q25 178 161 290t328 112q180 0 301 -102.5t121 -255.5q0 -124 -82.5 -238t-326.5 -325l-476 -416l-3 -12h748l-26 -124 h-954z" />
<glyph d="M193 343q0 19 5 46h132q-3 -6 -3 -27q0 -118 97.5 -195t250.5 -77q176 0 282.5 91.5t106.5 239.5q0 119 -94 191.5t-245 72.5h-157l25 119h205q146 0 247 87t101 214q0 110 -83 178.5t-214 68.5q-116 0 -208.5 -65.5t-125.5 -170.5h-135q39 163 170.5 260t310.5 97 q182 0 304 -100t122 -252q0 -144 -95 -247t-251 -129l-2 -12q124 -24 194.5 -103.5t70.5 -201.5q0 -200 -150 -329t-388 -129q-201 0 -336.5 108t-136.5 265z" />
<glyph d="M154 326l21 129q310 386 870 990h205l-212 -996h217l-26 -123h-217l-69 -326h-134l70 326h-725zM325 448h580l183 864h-9q-248 -263 -413 -451.5t-340 -403.5z" />
<glyph horiz-adv-x="1320" d="M201 350q0 14 2 24h135v-7q0 -119 93 -197t240 -78q176 0 288 117.5t112 298.5q0 139 -90 225t-233 86q-98 0 -186.5 -42.5t-143.5 -111.5h-137l242 778h781l-27 -123h-666l-154 -506l12 -1q59 59 141 90.5t170 31.5q183 0 307 -116.5t124 -292.5q0 -119 -39 -221.5 t-109.5 -176t-172.5 -115.5t-224 -42q-197 0 -331 110t-134 269z" />
<glyph d="M223 479q0 170 42.5 339t118.5 305q92 169 227 259.5t297 90.5q185 0 307.5 -107t129.5 -274h-141q-8 117 -92 187.5t-216 70.5q-184 0 -319 -166t-196 -470l13 -1q67 109 178.5 171.5t242.5 62.5q187 0 309.5 -116t122.5 -294q0 -159 -73.5 -289t-201.5 -204t-283 -74 q-208 0 -337 136t-129 373zM366 414q0 -143 92 -232t240 -89q171 0 289 123.5t118 303.5q0 135 -90 222t-231 87q-172 0 -295 -121.5t-123 -293.5z" />
<glyph d="M249 0l949 1308l3 12h-777l27 123h921l-28 -128l-942 -1315h-153z" />
<glyph horiz-adv-x="1320" d="M181 349q0 169 114.5 288t287.5 136l3 12q-92 37 -145 110.5t-53 162.5q0 176 139 295.5t351 119.5q187 0 311.5 -98.5t124.5 -243.5t-93.5 -247.5t-241.5 -128.5l-3 -12q114 -39 180 -122.5t66 -190.5q0 -199 -153 -329.5t-393 -130.5q-221 0 -358 107t-137 272z M323 369q0 -129 96 -204.5t263 -75.5q177 0 289.5 96t112.5 243q0 121 -102 197.5t-261 76.5q-173 0 -285.5 -95t-112.5 -238zM522 1052q0 -105 84.5 -171t224.5 -66q148 0 246 84.5t98 214.5q0 108 -84 174t-223 66q-153 0 -249.5 -86.5t-96.5 -215.5z" />
<glyph horiz-adv-x="1320" d="M201 352h141q7 -118 91 -188.5t216 -70.5q185 0 319.5 166.5t194.5 469.5l-12 1q-68 -110 -179.5 -172t-241.5 -62q-187 0 -309.5 119t-122.5 298q0 239 158 399.5t397 160.5q213 0 340.5 -138.5t127.5 -370.5q0 -168 -42 -337.5t-118 -306.5q-92 -169 -227.5 -259.5 t-296.5 -90.5q-185 0 -307.5 107t-128.5 275zM440 930q0 -136 90 -226t230 -90q173 0 295.5 121.5t122.5 293.5q0 143 -93.5 232t-240.5 89q-174 0 -289 -121t-115 -299z" />
<glyph horiz-adv-x="608" d="M182 274q-8 43 13.5 76.5t63.5 42.5q43 8 76 -13.5t41 -64.5q9 -43 -12 -76.5t-64 -41.5t-76.5 13.5t-41.5 63.5zM352 1053q-8 43 13.5 77t63.5 42q43 9 76 -13t41 -65q9 -43 -12 -76.5t-64 -41.5q-43 -9 -76.5 12.5t-41.5 64.5z" />
<glyph horiz-adv-x="868" d="M252 865q0 253 121 425.5t296 172.5q131 0 209.5 -91.5t79.5 -242.5q0 -126 -33 -237t-89 -190t-133 -125t-164 -46q-130 0 -208.5 91.5t-78.5 242.5zM385 862q0 -103 42.5 -162.5t117.5 -59.5q73 0 137.5 67t103.5 181t39 244q0 102 -43 162t-117 60t-138.5 -67.5 t-103 -181t-38.5 -243.5z" />
<glyph horiz-adv-x="635" d="M283 1152l28 131q14 8 79 47t123 73.5t68 39.5h131l-190 -890h-132l160 752h-9q-60 -32 -258 -153z" />
<glyph horiz-adv-x="822" d="M190 553l21 97l362 304q130 109 170.5 160t40.5 105q0 59 -44.5 98t-113.5 39q-71 0 -123.5 -43.5t-65.5 -114.5v-2h-124q13 117 104 191.5t219 74.5q121 0 200.5 -66t79.5 -165q0 -79 -53 -149t-211 -201l-250 -211l-2 -8h431l-24 -109h-617z" />
<glyph horiz-adv-x="833" d="M220 809h126q-7 -72 46.5 -120t139.5 -48q92 0 150 49t58 128q0 64 -50.5 103.5t-130.5 39.5h-98l21 100h121q83 0 137.5 45t54.5 114q0 61 -45 98.5t-118 37.5q-64 0 -114 -35.5t-69 -93.5h-123q24 107 110.5 171t205.5 64q123 0 202.5 -64t79.5 -162 q0 -87 -59.5 -150.5t-154.5 -77.5l-1 -8q77 -16 119.5 -65.5t42.5 -123.5q0 -122 -96.5 -200.5t-245.5 -78.5q-148 0 -236.5 79.5t-72.5 197.5z" />
<glyph horiz-adv-x="858" d="M193 736l22 119q166 214 509 589h193l-128 -599h126l-23 -109h-126l-39 -183h-127l39 183h-446zM340 841h324l105 496h-7q-226 -244 -420 -488z" />
<glyph horiz-adv-x="834" d="M232 783v15h124q4 -70 55.5 -113.5t132.5 -43.5q94 0 156 62.5t62 158.5q0 80 -49 128.5t-129 48.5q-53 0 -101.5 -22.5t-79.5 -62.5h-127l149 489h519l-23 -108h-412l-85 -276h8q77 77 197 77q113 0 186.5 -73.5t73.5 -186.5q0 -151 -98.5 -247.5t-251.5 -96.5 q-131 0 -218 71.5t-89 179.5z" />
<glyph horiz-adv-x="849" d="M236 821q0 183 202 383q13 15 124 123t121 116h174q-15 -10 -156 -143t-161 -155q-29 -27 -50 -57l8 -3q55 43 139 43q108 0 180.5 -75t72.5 -188q0 -138 -100 -233t-244 -95q-134 0 -222 81t-88 203zM363 827q1 -79 53.5 -129.5t133.5 -50.5q88 0 149 60t60 147 q1 79 -52 130.5t-133 51.5q-88 0 -149 -61t-62 -148z" />
<glyph horiz-adv-x="757" d="M217 553l564 773l1 9h-461l24 108h599l-24 -110l-557 -780h-146z" />
<glyph horiz-adv-x="879" d="M226 774q1 102 71 172.5t180 84.5l2 9q-59 23 -92.5 68t-32.5 100q-1 108 89.5 181t229.5 73q124 0 207 -63.5t83 -156.5q0 -88 -58 -150t-150 -76l-2 -9q71 -24 112.5 -75.5t41.5 -119.5q0 -121 -100 -200.5t-256 -79.5q-145 0 -235 68t-90 174zM365 788 q-1 -70 51.5 -112t140.5 -42q95 0 155.5 52.5t60.5 132.5q1 66 -54 108.5t-140 42.5q-92 0 -153 -52t-61 -130zM480 1196q0 -58 45.5 -94t120.5 -36q79 0 132 46t53 116q0 59 -45.5 96t-118.5 37q-82 0 -134.5 -47.5t-52.5 -117.5z" />
<glyph horiz-adv-x="849" d="M301 1128q0 138 98.5 231t244.5 93q133 0 221 -80.5t89 -202.5q-1 -184 -202 -383q-148 -148 -244 -238h-174q14 10 154.5 141.5t162.5 155.5q23 23 49 57l-8 3q-54 -43 -130 -43q-112 0 -186.5 76t-74.5 190zM432 1137q-1 -79 51.5 -130.5t132.5 -51.5q88 0 149 60.5 t61 147.5q-1 79 -53 129.5t-132 50.5q-88 0 -149 -60t-60 -146z" />
<glyph horiz-adv-x="843" d="M262 956l22 102h269l57 268h104l-57 -268h270l-22 -102h-270l-58 -272h-104l58 272h-269z" />
<glyph horiz-adv-x="843" d="M234 826l22 103h642l-22 -103h-642zM289 1085l22 103h642l-21 -103h-643z" />
<glyph horiz-adv-x="499" d="M275 813q-1 195 76.5 381.5t213.5 316.5h136q-140 -142 -218 -327.5t-78 -377.5q0 -186 60 -351h-118q-33 66 -52.5 164t-19.5 194z" />
<glyph horiz-adv-x="498" d="M132 455q140 141 218 326.5t78 379.5q0 188 -60 350h119q32 -67 52 -165.5t19 -191.5q0 -197 -77 -383t-212 -316h-137z" />
<glyph horiz-adv-x="711" d="M243 454q0 310 121.5 609t336.5 511h148q-224 -226 -348.5 -519.5t-124.5 -599.5q0 -324 101 -592h-120q-51 107 -82.5 272.5t-31.5 318.5z" />
<glyph horiz-adv-x="710" d="M69 -137q224 225 348.5 518.5t124.5 600.5q0 324 -101 592h120q51 -107 82.5 -272.5t31.5 -318.5q0 -311 -121.5 -609.5t-336.5 -510.5h-148z" />
<glyph horiz-adv-x="733" d="M102 -107l357 1682h417l-23 -106h-288l-313 -1472h302l-23 -104h-429z" />
<glyph horiz-adv-x="733" d="M66 -107l23 105h293l312 1472h-296l22 104h425l-358 -1681h-421z" />
<glyph horiz-adv-x="809" d="M200 671l34 158q99 0 147 45t74 165l64 295q36 170 139.5 241t291.5 71h53l-23 -109h-52q-131 0 -196.5 -51.5t-93.5 -179.5l-66 -313q-26 -118 -79 -172t-146 -63l-4 -17q64 -12 99.5 -49.5t35.5 -96.5q0 -37 -10 -90l-77 -360q-9 -43 -9 -78q0 -155 200 -155h55 l-22 -106h-49q-148 0 -231 62.5t-83 169.5q0 49 13 108l66 309q13 63 13 107q0 58 -33.5 83.5t-110.5 25.5z" />
<glyph horiz-adv-x="809" d="M18 -194l23 109h52q131 0 197 51.5t93 179.5l67 312q25 119 78 173t146 63l4 17q-64 12 -99.5 49.5t-35.5 96.5q0 37 10 90l77 360q9 43 9 78q0 155 -200 155h-55l22 106h49q148 0 231 -62.5t83 -169.5q0 -49 -13 -108l-66 -310q-12 -57 -12 -106q0 -58 33 -84t110 -26 l-34 -157q-99 0 -147 -45.5t-74 -165.5l-63 -294q-37 -170 -140.5 -241t-290.5 -71h-54z" />
<glyph horiz-adv-x="1879" d="M211 616q0 200 70.5 374.5t193 298.5t296 195t371.5 71q213 0 383 -84t265.5 -233.5t95.5 -337.5q0 -176 -60 -323t-164 -231.5t-229 -84.5q-92 0 -151 47t-59 120q0 4 0.5 12t0.5 11l-12 1q-43 -74 -112.5 -115t-153.5 -41q-138 0 -221.5 91t-83.5 241 q0 211 121.5 359.5t293.5 148.5q93 0 164.5 -51.5t85.5 -130.5h12l31 147h121l-128 -593q-6 -33 -6 -46q0 -49 31.5 -75.5t91.5 -26.5q83 0 157 74.5t118.5 198.5t44.5 262q0 248 -180.5 404.5t-467.5 156.5q-226 0 -412.5 -109t-293 -298.5t-106.5 -419.5 q0 -296 198.5 -473.5t528.5 -177.5q132 0 203 22l-21 -99q-94 -22 -216 -22q-234 0 -416.5 93t-283.5 260.5t-101 383.5zM765 637q0 -107 55.5 -170t149.5 -63q124 0 214 113.5t90 271.5q0 109 -56 173.5t-151 64.5q-125 0 -213.5 -114t-88.5 -276z" />
<glyph horiz-adv-x="696" d="M-23 -196l819 1770h120l-820 -1770h-119z" />
<glyph horiz-adv-x="661" d="M182 -197l377 1771h115l-377 -1771h-115z" />
<glyph horiz-adv-x="695" d="M356 1574h112l66 -1770h-110z" />
<glyph horiz-adv-x="921" d="M256 651l27 124h656l-27 -124h-656z" />
<glyph horiz-adv-x="1183" d="M97 651l27 124h1182l-26 -124h-1183z" />
<glyph horiz-adv-x="2048" d="M97 651l27 124h2048l-27 -124h-2048z" />
<glyph horiz-adv-x="1037" d="M358 717q0 111 76.5 188t187.5 77t188 -77t77 -188t-77 -187.5t-188 -76.5t-187.5 76.5t-76.5 187.5z" />
<glyph d="M318 679l23 109l978 478l-30 -145l-826 -396l-2 -12l639 -476l-30 -141z" />
<glyph horiz-adv-x="1320" d="M194 96l30 145l826 396l2 12l-639 476l30 141l752 -583l-24 -109z" />
<glyph horiz-adv-x="1320" d="M177 243l24 114h972l-24 -114h-972zM307 854l24 114l1042 325l-28 -131l-848 -248l-3 -13l742 -250l-26 -122z" />
<glyph d="M180 243l24 114h972l-23 -114h-973zM240 529l28 130l848 252l3 12l-742 248l27 122l902 -325l-24 -114z" />
<glyph d="M208 441l25 115h995l-25 -115h-995zM289 824l25 115h995l-25 -115h-995z" />
<glyph d="M212 462l25 115h403l165 268h-511l24 115h557l161 262h106l-161 -262h332l-24 -115h-378l-165 -268h486l-25 -115h-531l-199 -324h-106l199 324h-358z" />
<glyph d="M249 654l26 114h441l95 448h117l-95 -448h442l-25 -114h-441l-97 -456h-118l98 456h-443z" />
<glyph d="M260 654l24 114h983l-24 -114h-983zM573 354q0 46 31 76.5t77 30.5q45 0 75.5 -30.5t30.5 -76.5t-30.5 -76.5t-75.5 -30.5q-46 0 -77 30.5t-31 76.5zM724 1060q0 46 30.5 76t76.5 30q45 0 75.5 -30t30.5 -76t-30.5 -76.5t-75.5 -30.5q-46 0 -76.5 30.5t-30.5 76.5z" />
<glyph d="M163 243l24 114h1002l-24 -114h-1002zM282 802l22 105h442l67 309h118l-67 -309h442l-22 -105h-442l-68 -317h-118l68 317h-442z" />
<glyph d="M238 314q17 140 97 223t190 83q52 0 97 -24t76.5 -58t59.5 -68t60 -58t64 -24q120 0 154 182h130q-18 -141 -97.5 -223t-188.5 -82q-53 0 -98 24t-77 57.5t-60.5 67.5t-60 58t-63.5 24q-60 0 -99 -47.5t-54 -134.5h-130zM333 725q17 139 97 222t190 83q52 0 97 -24 t76.5 -58t60 -67.5t60 -57.5t64.5 -24q119 0 153 181h130q-18 -140 -97.5 -222t-188.5 -82q-52 0 -97.5 24t-77 58t-60 67.5t-60 57.5t-64.5 24q-60 0 -99 -47.5t-54 -134.5h-130z" />
<glyph d="M305 797l24 114h954l-113 -532h-115l89 418h-839z" />
</font>
</defs>
</svg>
