<?xml version="1.0" standalone="no"?>
<!DOCTYPE svg PUBLIC "-//W3C//DTD SVG 1.1//EN" "http://www.w3.org/Graphics/SVG/1.1/DTD/svg11.dtd" >
<svg xmlns="http://www.w3.org/2000/svg" xmlns:xlink="http://www.w3.org/1999/xlink" version="1.1">
<metadata></metadata>
<defs>
<font id="sf_ui_textbold_italic" horiz-adv-x="1415" >
<font-face units-per-em="2048" ascent="1638" descent="-410" />
<missing-glyph horiz-adv-x="528" />
<glyph horiz-adv-x="0" />
<glyph unicode="&#xd;" horiz-adv-x="0" />
<glyph unicode=" "  horiz-adv-x="528" />
<glyph unicode="&#x09;" horiz-adv-x="528" />
<glyph unicode="&#xa0;" horiz-adv-x="528" />
<glyph unicode="!" horiz-adv-x="729" d="M137 135q0 77 49 126.5t132 49.5q82 0 131.5 -48t49.5 -118q0 -77 -49.5 -126t-131.5 -49t-131.5 47.5t-49.5 117.5zM260 475l180 968h320l-233 -968h-267z" />
<glyph unicode="&#x22;" horiz-adv-x="1016" d="M255 831l129 612h250l-129 -612h-250zM717 831l129 612h250l-129 -612h-250z" />
<glyph unicode="#" horiz-adv-x="1360" d="M71 382l88 223h202l108 252h-200l86 221h202l153 366h227l-152 -366h229l153 366h228l-152 -366h205l-87 -221h-207l-108 -252h204l-86 -223h-206l-159 -382h-228l159 382h-230l-159 -382h-227l159 382h-202zM567 585h257l124 291h-259z" />
<glyph unicode="$" d="M160 417h284q7 -65 51.5 -111.5t118.5 -67.5l80 378l-60 20q-156 52 -241 153t-85 231q0 194 148.5 314.5t391.5 120.5h25l28 133h140l-32 -151q163 -39 261 -149t100 -257h-277q-7 59 -42.5 102t-92.5 66l-76 -357l48 -16q177 -60 263.5 -153.5t86.5 -229.5 q0 -209 -155 -332t-409 -123h-15l-27 -126h-140l30 140q-180 35 -289.5 145.5t-114.5 269.5zM606 1047q0 -100 146 -161l71 334q-97 -4 -157 -52t-60 -121zM751 223q108 4 170.5 54.5t62.5 129.5q0 55 -36.5 92.5t-122.5 71.5z" />
<glyph unicode="%" horiz-adv-x="1806" d="M176 0l731 761l579 682h314l-744 -770l-566 -673h-314zM248 1064q0 174 108 293t266 119q140 0 223.5 -87t83.5 -234q0 -174 -108.5 -293.5t-266.5 -119.5q-140 0 -223 87.5t-83 234.5zM469 1066q0 -61 25 -96t69 -35q59 0 102 65t43 156q0 61 -24.5 95t-67.5 34 q-60 0 -103.5 -65t-43.5 -154zM1043 289q0 174 108.5 293t266.5 119q140 0 223.5 -87.5t83.5 -234.5q0 -173 -109 -293t-267 -120q-140 0 -223 87.5t-83 235.5zM1265 290q0 -61 25 -95.5t68 -34.5q60 0 103 65t43 155q0 61 -24.5 95t-67.5 34q-60 0 -103.5 -65t-43.5 -154z " />
<glyph unicode="&#x26;" horiz-adv-x="1525" d="M98 367q0 283 357 422l72 29q-116 166 -116 294q0 150 123 251.5t306 101.5q172 0 286 -87t114 -219q0 -131 -94 -237.5t-285 -179.5l218 -311q101 133 113 298l3 33h244l-3 -38q-26 -280 -227 -492l155 -232h-304l-51 76q-179 -104 -400 -104q-219 0 -365 112.5 t-146 282.5zM371 392q0 -89 72 -146t190 -57q148 0 261 68l-262 387q-4 -1 -24.5 -8.5t-22.5 -7.5q-104 -39 -159 -100t-55 -136zM663 1089q0 -40 21 -84.5t70 -107.5q236 80 236 236q0 59 -41 94.5t-107 35.5q-74 0 -126.5 -51t-52.5 -123z" />
<glyph unicode="'" horiz-adv-x="553" d="M255 831l129 612h250l-129 -612h-250z" />
<glyph unicode="(" horiz-adv-x="803" d="M181 299q0 322 123.5 623.5t347.5 519.5h308q-220 -216 -349.5 -523t-129.5 -645q0 -286 88 -551h-270q-53 106 -85.5 264t-32.5 312z" />
<glyph unicode=")" horiz-adv-x="802" d="M-79 -277q219 216 349 523t130 645q0 286 -88 551h270q53 -106 85.5 -264t32.5 -312q0 -322 -123.5 -623.5t-347.5 -519.5h-308z" />
<glyph unicode="*" horiz-adv-x="1032" d="M229 954l307 88l-257 142l140 174l202 -215l26 303l202 -5l-105 -310l283 167l64 -194l-307 -87l256 -143l-139 -174l-202 211l-26 -296l-202 5l103 304l-281 -165z" />
<glyph unicode="+" d="M191 455l53 258h405l87 408h261l-87 -408h413l-53 -258h-413l-87 -409h-261l87 409h-405z" />
<glyph unicode="," horiz-adv-x="722" d="M32 -388l213 635h288l-267 -635h-234z" />
<glyph unicode="-" horiz-adv-x="992" d="M188 446l57 273h657l-57 -273h-657z" />
<glyph unicode="." horiz-adv-x="712" d="M122 141q0 78 49 128.5t128 50.5t128 -49t49 -119q0 -77 -49 -128t-128 -51q-78 0 -127.5 49.5t-49.5 118.5z" />
<glyph unicode="/" horiz-adv-x="772" d="M-95 -288l783 1731h275l-789 -1731h-269z" />
<glyph unicode="0" horiz-adv-x="1401" d="M183 522q0 204 54 382.5t146.5 304.5t221.5 198.5t275 72.5q232 0 367.5 -150.5t135.5 -408.5q0 -205 -54 -383.5t-147 -304.5t-222 -198t-276 -72q-231 0 -366 151t-135 408zM487 506q0 -139 54.5 -217t151.5 -78q101 0 190 100t142.5 268.5t53.5 358.5 q0 138 -54.5 215.5t-151.5 77.5q-101 0 -190 -99.5t-142.5 -267.5t-53.5 -358z" />
<glyph unicode="1" horiz-adv-x="1051" d="M239 892l60 294l429 257h301l-307 -1443h-302l243 1134h-18z" />
<glyph unicode="2" horiz-adv-x="1318" d="M81 0l47 224l556 448q203 164 266.5 237.5t63.5 149.5q0 78 -59.5 127.5t-152.5 49.5q-95 0 -164 -57.5t-88 -152.5l-1 -5h-279q17 201 174 330t384 129q209 0 347 -111.5t138 -281.5q0 -93 -42.5 -173t-132 -167.5t-267.5 -229.5l-316 -250l-4 -18h630l-51 -249h-1049z " />
<glyph unicode="3" horiz-adv-x="1366" d="M140 381q0 20 5 60h284v-3q-9 -96 63.5 -159.5t191.5 -63.5q121 0 196 64t75 168q0 81 -67 131.5t-174 50.5h-159l46 226h192q117 0 189 58t72 152q0 78 -62 126t-162 48q-87 0 -154.5 -47.5t-92.5 -124.5h-279q39 189 188.5 301t363.5 112t352 -106.5t138 -271.5 q0 -140 -96 -243t-243 -122l-3 -18q121 -28 186 -105t65 -194q0 -199 -162 -328t-413 -129q-238 0 -388.5 116.5t-151.5 301.5z" />
<glyph unicode="4" horiz-adv-x="1413" d="M95 252l49 279q234 313 761 912h439l-201 -940h189l-52 -251h-188l-55 -252h-288l55 252h-709zM416 494h444l154 714h-16q-334 -378 -579 -698z" />
<glyph unicode="5" horiz-adv-x="1361" d="M170 389q0 2 2 38h279v-3q3 -95 74 -154t183 -59q126 0 207.5 84t81.5 212q0 106 -67 169.5t-174 63.5q-69 0 -133 -29.5t-105 -77.5h-277l242 810h899l-53 -251h-656l-111 -347l17 -1q114 114 289 114q176 0 296 -119t120 -299q0 -166 -73.5 -297.5t-208.5 -205.5 t-309 -74q-225 0 -374 121.5t-149 304.5z" />
<glyph unicode="6" horiz-adv-x="1406" d="M190 542q0 186 50 355t141 299q96 137 231 210.5t294 73.5q216 0 358 -120.5t146 -307.5h-294q-11 83 -72 131t-154 48q-139 0 -242.5 -124t-142.5 -338l18 -1q64 87 157.5 133.5t204.5 46.5q188 0 309 -119t121 -306q0 -156 -77 -284.5t-211 -202t-296 -73.5 q-252 0 -396.5 154.5t-144.5 424.5zM487 440q0 -101 69.5 -166t178.5 -65q121 0 203 82.5t82 204.5q0 100 -67 163.5t-172 63.5q-123 0 -208.5 -82t-85.5 -201z" />
<glyph unicode="7" horiz-adv-x="1239" d="M120 0l868 1176l4 19h-703l52 248h1017l-52 -251l-858 -1192h-328z" />
<glyph unicode="8" horiz-adv-x="1416" d="M134 366q0 158 111 273t289 141l4 17q-91 37 -144 110t-53 159q0 179 154 296.5t388 117.5q213 0 358.5 -107.5t145.5 -265.5q0 -138 -90.5 -237t-239.5 -124l-4 -18q115 -40 180 -124.5t65 -192.5q0 -129 -77.5 -231.5t-215.5 -159.5t-311 -57q-247 0 -403.5 112.5 t-156.5 290.5zM451 396q0 -92 70 -147.5t186 -55.5q123 0 203.5 68t80.5 172q0 91 -71.5 148t-185.5 57q-122 0 -202.5 -69t-80.5 -173zM629 1035q0 -78 60.5 -128t154.5 -50q102 0 172.5 63.5t70.5 155.5q0 78 -60.5 128t-154.5 50q-104 0 -173.5 -62.5t-69.5 -156.5z" />
<glyph unicode="9" horiz-adv-x="1404" d="M151 379h295q8 -77 70.5 -122.5t160.5 -45.5q144 0 248 124.5t139 335.5l-17 1q-64 -88 -157 -134t-203 -46q-191 0 -315 120.5t-124 305.5q0 241 168 401.5t419 160.5t393.5 -155t142.5 -428q0 -183 -50 -352t-141 -298q-96 -137 -230 -210.5t-290 -73.5 q-213 0 -357 117.5t-152 298.5zM544 944q0 -100 67 -163.5t171 -63.5q123 0 207.5 82t84.5 201q0 102 -67.5 166t-176.5 64q-121 0 -203.5 -82.5t-82.5 -203.5z" />
<glyph unicode=":" horiz-adv-x="712" d="M122 141q0 78 49 128.5t128 50.5t128 -49t49 -119q0 -77 -49 -128t-128 -51q-78 0 -127.5 49.5t-49.5 118.5zM278 879q0 77 49 128t128 51t128 -49t49 -119q0 -77 -48.5 -128t-128.5 -51q-78 0 -127.5 49t-49.5 119z" />
<glyph unicode=";" horiz-adv-x="712" d="M-14 -388l213 635h288l-267 -635h-234zM279 879q0 77 49 128t128 51q78 0 127.5 -49t49.5 -119q0 -77 -49 -128t-128 -51q-78 0 -127.5 49t-49.5 119z" />
<glyph unicode="&#x3c;" d="M258 491l48 235l1059 461l-63 -306l-723 -278l-3 -19l589 -331l-59 -292z" />
<glyph unicode="=" horiz-adv-x="1416" d="M144 216l53 259h1073l-53 -259h-1073zM244 695l53 259h1073l-53 -259h-1073z" />
<glyph unicode="&#x3e;" d="M144 -39l63 307l723 278l4 18l-590 332l60 291l848 -530l-48 -234z" />
<glyph unicode="?" horiz-adv-x="1141" d="M232 1053q25 181 159 292t341 111q210 0 339 -101.5t129 -258.5q0 -127 -75 -232t-209 -165q-113 -49 -159 -92t-60 -114l-8 -42h-271l12 63q23 132 78.5 201.5t173.5 121.5q119 55 168.5 109t49.5 126q0 62 -49 103t-134 41q-77 0 -134.5 -44t-77.5 -119h-273zM309 134 q0 78 52 129t133 51q79 0 131.5 -45.5t52.5 -117.5q0 -76 -51.5 -128t-132.5 -52q-82 0 -133.5 45t-51.5 118z" />
<glyph unicode="@" horiz-adv-x="1899" d="M202 511q0 196 71.5 369.5t195 297t297 195t370.5 71.5q216 0 387.5 -86t267.5 -240.5t96 -349.5q0 -175 -62 -319.5t-170.5 -226.5t-241.5 -82q-106 0 -173.5 45.5t-67.5 117.5q0 5 0.5 13.5t0.5 11.5l-18 -3q-81 -142 -236 -142q-136 0 -218 93.5t-82 249.5 q0 206 116 348.5t283 142.5q88 0 153.5 -44t81.5 -116l18 -1l25 125h207l-121 -557q-5 -24 -5 -38q0 -39 22.5 -60t63.5 -21q61 0 117 64t90 170t34 222q0 230 -162.5 375t-418.5 145q-153 0 -290 -59t-235.5 -160t-156.5 -241.5t-58 -296.5q0 -273 186.5 -435.5 t499.5 -161.5q103 0 153 15l-34 -163q-88 -16 -176 -16q-237 0 -421.5 94t-286.5 264.5t-102 389.5zM846 536q0 -78 39.5 -123.5t107.5 -45.5q88 0 149 82t61 200q0 80 -40 127.5t-108 47.5q-87 0 -148 -84.5t-61 -203.5z" />
<glyph unicode="A" horiz-adv-x="1501" d="M-3 0l820 1443h349l187 -1443h-311l-35 344h-509l-186 -344h-315zM612 577h381l-58 565h-19z" />
<glyph unicode="B" horiz-adv-x="1420" d="M100 0l307 1443h589q186 0 299.5 -85.5t113.5 -225.5q0 -142 -91.5 -245.5t-234.5 -123.5l-2 -19q119 -22 188.5 -99t69.5 -189q0 -200 -154 -328t-394 -128h-691zM452 237h287q129 0 212 66t83 169q0 84 -60.5 129.5t-173.5 45.5h-259zM584 851h240q124 0 202.5 60 t78.5 154q0 75 -55.5 114.5t-160.5 39.5h-225z" />
<glyph unicode="C" horiz-adv-x="1532" d="M180 568q0 263 102 471.5t283 324.5t408 116q163 0 296.5 -66t209.5 -182t76 -257q0 -28 -2 -43h-294v14q-5 120 -88.5 193t-216.5 73q-129 0 -236 -81t-168 -224t-61 -318q0 -166 84.5 -262.5t230.5 -96.5q123 0 220 64t132 170h299q-47 -228 -231 -364.5t-446 -136.5 q-272 0 -435 165t-163 440z" />
<glyph unicode="D" horiz-adv-x="1535" d="M101 0l306 1443h511q276 0 433.5 -155.5t157.5 -431.5q0 -245 -96.5 -440.5t-268.5 -305.5t-388 -110h-655zM459 257h270q205 0 337 157t132 408q0 170 -92 267.5t-255 97.5h-191z" />
<glyph unicode="E" horiz-adv-x="1273" d="M100 0l307 1443h956l-53 -258h-652l-75 -337h616l-50 -239h-615l-78 -351h653l-52 -258h-957z" />
<glyph unicode="F" horiz-adv-x="1235" d="M100 0l307 1443h945l-53 -258h-641l-83 -376h585l-51 -247h-585l-120 -562h-304z" />
<glyph unicode="G" horiz-adv-x="1566" d="M182 574q0 263 101 469.5t281 321.5t408 115q158 0 290 -62t210.5 -169.5t82.5 -238.5v-33h-294q-6 104 -92 169t-216 65q-198 0 -330 -175t-132 -441q0 -168 88 -265.5t239 -97.5q141 0 242 75.5t127 201.5l5 25h-307l47 226h602l-37 -184q-58 -299 -240 -456t-467 -157 q-275 0 -441.5 167.5t-166.5 443.5z" />
<glyph unicode="H" horiz-adv-x="1605" d="M100 0l307 1443h304l-125 -582h648l125 582h304l-307 -1443h-305l129 603h-648l-129 -603h-303z" />
<glyph unicode="I" horiz-adv-x="653" d="M100 0l307 1443h304l-307 -1443h-304z" />
<glyph unicode="J" horiz-adv-x="1229" d="M85 382q0 21 1 31h293v-9q1 -77 49.5 -122t130.5 -45q167 0 212 209l213 997h302l-222 -1042q-44 -213 -176.5 -325.5t-341.5 -112.5q-210 0 -338 117q-123 112 -123 288v14z" />
<glyph unicode="K" horiz-adv-x="1454" d="M100 0l307 1443h301l-136 -635h18l659 635h358l-670 -653l382 -790h-340l-293 606l-192 -182l-92 -424h-302z" />
<glyph unicode="L" horiz-adv-x="1219" d="M100 0l307 1443h303l-253 -1180h641l-54 -263h-944z" />
<glyph unicode="M" horiz-adv-x="1879" d="M100 0l307 1443h347l188 -970h18l608 970h368l-307 -1443h-281l207 965h-16l-558 -882h-201l-175 882h-16l-207 -965h-282z" />
<glyph unicode="N" horiz-adv-x="1573" d="M100 0l307 1443h231l479 -929h18l202 929h293l-307 -1443h-229l-483 922h-18l-200 -922h-293z" />
<glyph unicode="O" horiz-adv-x="1617" d="M181 576q0 157 39 297.5t110.5 250.5t168.5 190.5t218 123t254 42.5q282 0 452 -173t170 -440q0 -197 -60.5 -366t-165 -287t-250 -184.5t-312.5 -66.5q-185 0 -328 80t-219.5 219.5t-76.5 313.5zM491 598q0 -165 89.5 -265t236.5 -100q129 0 236 79.5t168.5 220 t61.5 311.5q0 165 -89 265t-235 100q-129 0 -236.5 -80.5t-169.5 -221t-62 -309.5z" />
<glyph unicode="P" horiz-adv-x="1368" d="M101 0l306 1443h527q214 0 343.5 -115.5t129.5 -306.5q0 -263 -172.5 -418t-451.5 -155h-282l-97 -448h-303zM550 693h229q145 0 233 81.5t88 217.5q0 99 -62.5 151t-175.5 52h-202z" />
<glyph unicode="Q" horiz-adv-x="1617" d="M181 576q0 196 60.5 365t166 287t251.5 185t312 67q141 0 258.5 -46.5t196.5 -128.5t123 -194.5t44 -243.5q0 -244 -91.5 -441.5t-255.5 -315.5l116 -251h-288l-63 130q-95 -26 -206 -26q-185 0 -328 80t-219.5 219t-76.5 314zM488 597q0 -167 90.5 -268t237.5 -101 q49 0 90 10l-113 243h274l48 -84q81 78 126 194.5t45 253.5q0 167 -89.5 267.5t-236.5 100.5q-130 0 -238 -81t-171 -222.5t-63 -312.5z" />
<glyph unicode="R" horiz-adv-x="1418" d="M100 0l307 1443h571q200 0 326 -114.5t126 -294.5q0 -161 -97 -292t-260 -184l198 -558h-325l-172 523h-258l-112 -523h-304zM563 755h264q132 0 213.5 70t81.5 182q0 91 -56 141.5t-157 50.5h-248z" />
<glyph unicode="S" horiz-adv-x="1362" d="M107 412h292q16 -92 99 -148t201 -56q122 0 198 52t76 137q0 63 -49.5 105.5t-166.5 79.5l-150 47q-160 50 -247.5 152.5t-87.5 241.5q0 130 73.5 234.5t203.5 163.5t291 59q237 0 389.5 -124.5t159.5 -322.5h-285q-14 91 -89.5 146.5t-186.5 55.5q-106 0 -177.5 -50 t-71.5 -126q0 -61 46.5 -105.5t147.5 -76.5l148 -46q184 -58 270 -152t86 -240q0 -214 -165.5 -345t-434.5 -131q-248 0 -402.5 120t-167.5 329z" />
<glyph unicode="T" horiz-adv-x="1349" d="M270 1185l53 258h1168l-53 -258h-432l-254 -1185h-304l254 1185h-432z" />
<glyph unicode="U" horiz-adv-x="1564" d="M210 433q0 64 13 126l187 884h305l-186 -877q-11 -52 -11 -95v-7q2 -108 75 -169t201 -61q127 0 214 72.5t116 206.5l198 930h304l-211 -997q-48 -229 -215 -356t-424 -127q-261 0 -413 131t-153 339z" />
<glyph unicode="V" horiz-adv-x="1477" d="M304 1443h321l101 -1101h18l554 1101h340l-787 -1443h-365z" />
<glyph unicode="W" horiz-adv-x="2067" d="M320 1443h302l16 -1017h16l482 1017h245l59 -1017h16l445 1017h311l-685 -1443h-291l-70 955h-16l-469 -955h-285z" />
<glyph unicode="X" horiz-adv-x="1494" d="M14 0l628 744l-309 699h340l211 -494h18l399 494h338l-635 -732l322 -711h-333l-221 485h-18l-409 -485h-331z" />
<glyph unicode="Y" horiz-adv-x="1451" d="M304 1443h316l196 -607h18l447 607h330l-697 -924l-110 -519h-304l114 531z" />
<glyph unicode="Z" horiz-adv-x="1384" d="M61 0l42 204l915 963l2 18h-689l53 258h1076l-42 -203l-913 -964l-2 -18h724l-53 -258h-1113z" />
<glyph unicode="[" horiz-adv-x="848" d="M66 -240l358 1684h575l-46 -223h-294l-267 -1239h307l-46 -222h-587z" />
<glyph unicode="\" horiz-adv-x="771" d="M284 1443h267l32 -1731h-266z" />
<glyph unicode="]" horiz-adv-x="848" d="M-51 -240l45 223h301l267 1239h-300l46 222h580l-358 -1684h-581z" />
<glyph unicode="^" horiz-adv-x="988" d="M156 823l438 602h256l181 -602h-250l-89 373h-18l-252 -373h-266z" />
<glyph unicode="_" horiz-adv-x="945" d="M-146 -334l46 227h949l-46 -227h-949z" />
<glyph unicode="`" horiz-adv-x="1071" d="M493 1634h303l212 -353h-265z" />
<glyph unicode="a" horiz-adv-x="1202" d="M83 284q0 168 129.5 266.5t361.5 105.5l274 9l15 68q5 25 5 40q0 57 -49 90.5t-133 33.5q-147 0 -192 -98h-275q35 151 167.5 239.5t320.5 88.5q202 0 325 -89.5t123 -235.5q0 -50 -9 -89l-151 -713h-283l29 136h-18q-47 -71 -131 -112t-181 -41q-140 0 -234 86t-94 215z M369 326q0 -55 46 -89.5t119 -34.5q93 0 165 52t90 132l21 95l-228 -8q-100 -4 -156.5 -43t-56.5 -104z" />
<glyph unicode="b" horiz-adv-x="1340" d="M75 0l324 1524h291l-122 -575l19 1q117 171 332 171q167 0 272 -115.5t105 -306.5q0 -202 -72.5 -366.5t-198.5 -257t-278 -92.5q-117 0 -208.5 60t-119.5 157h-18l-43 -200h-283zM472 465q0 -111 58 -173t153 -62q131 0 221 120.5t90 298.5q0 111 -56 171t-150 60 q-131 0 -223.5 -122.5t-92.5 -292.5z" />
<glyph unicode="c" horiz-adv-x="1208" d="M133 441q0 195 76 351t215.5 245.5t317.5 89.5q193 0 317 -107t137 -254q2 -13 2 -43h-276q-4 76 -59.5 120.5t-139.5 44.5q-131 0 -215 -122t-84 -303q0 -120 58 -183t150 -63q82 0 141 40.5t84 115.5h279q-29 -172 -169.5 -284.5t-351.5 -112.5q-220 0 -351 126.5 t-131 338.5z" />
<glyph unicode="d" horiz-adv-x="1342" d="M129 413q0 201 74 364t202 253.5t283 90.5q119 0 202.5 -57.5t110.5 -148.5h18l130 609h292l-323 -1524h-283l32 153h-18q-59 -80 -145 -125t-193 -45q-168 0 -275 116t-107 314zM431 463q0 -110 59.5 -175t150.5 -65q131 0 223 122.5t92 293.5q0 111 -58.5 173 t-153.5 62q-132 0 -222.5 -117.5t-90.5 -293.5z" />
<glyph unicode="e" horiz-adv-x="1251" d="M136 450q0 302 166 489.5t431 187.5q201 0 333 -127t132 -335q0 -82 -17 -180h-770q0 -4 -0.5 -15.5t-0.5 -15.5q0 -122 66 -186.5t166 -64.5q163 0 218 114h280q-38 -154 -176.5 -247.5t-339.5 -93.5q-218 0 -353 127t-135 347zM443 669h479q3 18 3 38q0 85 -55 140.5 t-149 55.5q-99 0 -174 -64t-104 -170z" />
<glyph unicode="f" horiz-adv-x="836" d="M153 0l184 863h-174l47 229h171l25 126q31 155 129 226t274 71q87 0 182 -22l-42 -205q-39 11 -112 11q-123 0 -148 -118l-18 -89h230l-47 -229h-224l-184 -863h-293z" />
<glyph unicode="g" horiz-adv-x="1327" d="M33 -83h290q5 -55 65.5 -89t160.5 -34q112 0 178 49t86 139l44 194l-18 1q-109 -155 -325 -155q-166 0 -273.5 115.5t-107.5 300.5q0 190 72 347t197.5 246.5t276.5 89.5q114 0 203 -58t120 -152h17l42 192h284l-246 -1147q-37 -175 -186.5 -274t-382.5 -99 q-221 0 -359.5 94.5t-137.5 239.5zM432 476q0 -110 56.5 -174.5t152.5 -64.5q129 0 218.5 116t89.5 286q0 107 -58 171t-156 64q-130 0 -216.5 -112.5t-86.5 -285.5z" />
<glyph unicode="h" horiz-adv-x="1321" d="M75 0l323 1515h292l-125 -578h18q119 187 343 187q154 0 248.5 -90.5t94.5 -226.5q0 -58 -14 -131l-142 -676h-291l132 628q10 48 10 84q0 78 -53.5 124.5t-139.5 46.5q-98 0 -170.5 -62.5t-93.5 -161.5l-140 -659h-292z" />
<glyph unicode="i" horiz-adv-x="599" d="M78 0l235 1103h293l-235 -1103h-293zM352 1400q0 65 47.5 108t124.5 43t124.5 -40t47.5 -102q0 -65 -47.5 -108.5t-124.5 -43.5t-124.5 40.5t-47.5 102.5z" />
<glyph unicode="j" horiz-adv-x="599" d="M-182 -362l48 226q25 -6 63 -6q62 0 96.5 29t48.5 91l240 1125h291l-247 -1158q-33 -154 -139 -236t-270 -83q-61 0 -131 12zM352 1400q0 65 47.5 108t124.5 43t124.5 -40t47.5 -102q0 -65 -47.5 -108.5t-124.5 -43.5t-124.5 40.5t-47.5 102.5z" />
<glyph unicode="k" horiz-adv-x="1210" d="M75 0l324 1524h291l-177 -834h18l448 413h340l-529 -482l328 -621h-321l-242 457l-110 -94l-78 -363h-292z" />
<glyph unicode="l" horiz-adv-x="593" d="M75 0l324 1524h293l-324 -1524h-293z" />
<glyph unicode="m" horiz-adv-x="1893" d="M67 0l236 1112h282l-39 -182h18q52 91 135.5 144t179.5 53q111 0 186 -57t98 -141h18q124 198 355 198q134 0 221 -86.5t87 -219.5q0 -61 -15 -132l-145 -689h-291l136 645q10 52 10 84q0 68 -42 111t-113 43q-80 0 -142 -57t-83 -155l-142 -671h-282l136 645 q10 44 10 84q0 68 -42 111t-113 43q-79 0 -141 -56.5t-83 -151.5l-143 -675h-292z" />
<glyph unicode="n" horiz-adv-x="1305" d="M67 0l236 1112h282l-37 -175h18q55 87 144.5 138.5t203.5 51.5q152 0 245.5 -90.5t93.5 -229.5q0 -58 -14 -131l-142 -676h-291l132 628q10 46 10 84q0 76 -52 123.5t-137 47.5q-96 0 -167.5 -62.5t-92.5 -161.5l-140 -659h-292z" />
<glyph unicode="o" horiz-adv-x="1298" d="M135 458q0 185 77.5 337.5t221 242t324.5 89.5q222 0 356 -133t134 -350q0 -183 -76.5 -335t-219.5 -242.5t-324 -90.5q-222 0 -357.5 132.5t-135.5 349.5zM438 467q0 -115 55 -183.5t152 -68.5q120 0 209 120.5t89 292.5q0 123 -53 192t-148 69q-132 0 -218 -122 t-86 -300z" />
<glyph unicode="p" horiz-adv-x="1334" d="M-5 -345l309 1448h283l-33 -153h18q59 80 146 125.5t194 45.5q167 0 272.5 -115.5t105.5 -306.5q0 -203 -73 -367t-199.5 -256.5t-281.5 -92.5q-118 0 -201.5 59.5t-111.5 157.5h-18l-118 -545h-292zM466 465q0 -111 58 -173t153 -62q131 0 221 120.5t90 298.5 q0 111 -56 171t-150 60q-131 0 -223.5 -122.5t-92.5 -292.5z" />
<glyph unicode="q" horiz-adv-x="1336" d="M129 411q0 201 73.5 364t200.5 254.5t282 91.5q120 0 209 -58.5t118 -147.5h18l40 188h283l-308 -1448h-291l106 498h-17q-125 -170 -337 -170q-167 0 -272 117t-105 311zM431 461q0 -114 56 -176t150 -62q131 0 223.5 122.5t92.5 293.5q0 111 -58 173t-153 62 q-131 0 -221 -118.5t-90 -294.5z" />
<glyph unicode="r" horiz-adv-x="908" d="M63 0l235 1103h283l-31 -152h18q94 170 274 170q90 0 141 -24l-57 -268q-75 30 -168 30q-218 0 -272 -251l-131 -608h-292z" />
<glyph unicode="s" horiz-adv-x="1150" d="M82 318h281q12 -57 68 -93t137 -36q85 0 136.5 32t51.5 85q0 36 -25.5 61t-87.5 45l-172 60q-132 45 -196 117.5t-64 180.5q0 161 126.5 259t330.5 98q200 0 322.5 -89.5t133.5 -238.5h-267q-10 52 -61.5 83.5t-127.5 31.5q-77 0 -126.5 -32t-49.5 -82q0 -36 29 -62 t93 -47l179 -63q134 -46 194.5 -115t60.5 -175q0 -162 -133 -262t-348 -100q-212 0 -345.5 94.5t-139.5 247.5z" />
<glyph unicode="t" horiz-adv-x="846" d="M162 854l47 230h175l56 267h293l-57 -267h235l-48 -230h-234l-104 -479q-8 -37 -8 -64q0 -51 37.5 -74.5t114.5 -23.5q31 0 52 3l-46 -222q-48 -8 -107 -8q-175 0 -266.5 60t-91.5 175q0 43 11 96l116 537h-175z" />
<glyph unicode="u" horiz-adv-x="1305" d="M139 298q0 58 15 141l139 664h293l-131 -616q-10 -47 -10 -86q0 -85 47.5 -129t136.5 -44q99 0 170 63t94 168l137 644h292l-233 -1103h-283l36 167h-18q-50 -89 -139.5 -140t-203.5 -51q-152 0 -247 88.5t-95 233.5z" />
<glyph unicode="v" horiz-adv-x="1184" d="M211 1103h294l63 -807h18l394 807h312l-611 -1103h-331z" />
<glyph unicode="w" horiz-adv-x="1735" d="M220 1103h284l5 -787h18l355 787h283l25 -791h18l334 791h291l-527 -1103h-312l-35 758h-18l-355 -758h-306z" />
<glyph unicode="x" horiz-adv-x="1191" d="M-8 0l463 552l-231 551h318l129 -358h18l270 358h325l-466 -554l235 -549h-307l-140 354h-18l-277 -354h-319z" />
<glyph unicode="y" horiz-adv-x="1208" d="M-1 -398l46 235q20 -6 81 -6q151 0 211 122l22 44l-144 1106h297l64 -822h18l405 822h312l-630 -1143q-106 -200 -231.5 -281.5t-318.5 -81.5q-62 0 -132 5z" />
<glyph unicode="z" horiz-adv-x="1160" d="M46 0l35 172l689 681l2 18h-532l49 232h898l-41 -192l-652 -661l-1 -18h519l-48 -232h-918z" />
<glyph unicode="{" horiz-adv-x="926" d="M151 472l57 277q95 0 141.5 45.5t71.5 162.5l43 194q42 199 165 283t351 84h99l-45 -220h-45q-116 0 -175 -46.5t-83 -158.5l-52 -237q-24 -112 -86.5 -169.5t-171.5 -67.5l-4 -18q78 -11 120.5 -56t42.5 -119q0 -38 -9 -81l-57 -260q-11 -52 -11 -85q0 -66 42.5 -94 t138.5 -28h45l-45 -216h-98q-172 0 -272.5 70t-100.5 187q0 57 15 128l48 218q12 57 12 96q0 60 -32 85.5t-105 25.5z" />
<glyph unicode="|" horiz-adv-x="749" d="M104 -289l369 1732h267l-369 -1732h-267z" />
<glyph unicode="}" horiz-adv-x="926" d="M-53 -338l46 219h45q116 0 175 46.5t83 158.5l52 237q24 113 86.5 170t171.5 68l4 18q-78 11 -120.5 55.5t-42.5 118.5q0 37 9 82l57 259q11 52 11 85q0 66 -42 94t-139 28h-45l45 217h98q172 0 272.5 -70.5t100.5 -187.5q0 -58 -15 -127l-48 -219q-12 -55 -12 -95 q0 -61 32 -86t105 -25l-57 -277q-94 0 -141 -46t-72 -162l-43 -194q-42 -199 -165 -283t-351 -84h-100z" />
<glyph unicode="~" horiz-adv-x="1225" d="M36 555q31 202 125 309t229 107q49 0 92 -17.5t72.5 -43.5t58.5 -56.5t51 -56.5t49 -43.5t54 -17.5q95 0 126 160h230q-31 -204 -121.5 -310.5t-228.5 -106.5q-58 0 -107.5 24t-83.5 58.5t-64 69.5t-62 59t-65 24q-94 0 -126 -159h-229z" />
<glyph unicode="&#xa1;" horiz-adv-x="729" d="M57 -322l233 969h267l-180 -969h-320zM318 977q0 77 49 126t132 49q82 0 131.5 -47.5t49.5 -117.5q0 -77 -49 -126.5t-132 -49.5q-82 0 -131.5 48t-49.5 118z" />
<glyph unicode="&#xa2;" d="M261 595q0 277 150 468t393 217l36 169h242l-41 -192q123 -42 198 -133.5t85 -201.5q2 -26 2 -43h-276q-4 76 -60 120.5t-139 44.5q-132 0 -215.5 -122.5t-83.5 -304.5q0 -120 58 -184t150 -64q82 0 141 40.5t84 115.5h278q-27 -159 -150.5 -268t-310.5 -126l-38 -183 h-242l43 208q-142 45 -223 160.5t-81 278.5z" />
<glyph unicode="&#xa3;" d="M82 6l53 256q140 10 251 101.5t125 235.5q0 17 -3 39h-310l43 213h255q-18 139 -18 179q0 210 145 330t410 120q116 0 236.5 -23.5t184.5 -53.5l-50 -239q-48 27 -140 46.5t-182 19.5q-143 0 -225.5 -61t-82.5 -184q0 -49 9 -134h385l-43 -213h-326q0 -5 0.5 -13.5 t0.5 -12.5q-4 -130 -67.5 -213.5t-172.5 -117.5l-3 -18h702l-53 -257h-1124z" />
<glyph unicode="&#xa5;" d="M255 206l36 169h271l29 133h-272l36 169h196l-265 766h316l196 -607h18l447 607h330l-581 -766h187l-36 -169h-269l-29 -133h270l-36 -169h-269l-44 -206h-304l45 206h-272z" />
<glyph unicode="&#xa7;" horiz-adv-x="1032" d="M15 54h252q9 -57 58.5 -94t121.5 -37q76 0 125.5 36t49.5 90q0 80 -102 122l-167 80q-230 105 -230 292q0 109 73 186.5t196 103.5l2 19q-79 54 -112.5 108t-33.5 130q0 152 121 248t309 96q181 0 294.5 -92.5t125.5 -248.5h-249q-7 59 -54.5 94t-118.5 35t-117.5 -34.5 t-46.5 -87.5q0 -74 110 -121l152 -77q120 -57 179 -127.5t59 -166.5q0 -106 -72.5 -187.5t-192.5 -106.5l-2 -16q77 -54 109.5 -108t32.5 -129q0 -153 -125 -251t-317 -98q-183 0 -304.5 94.5t-125.5 247.5zM383 592q0 -81 114 -133l106 -53q67 17 108.5 58.5t41.5 93.5 q0 86 -106 132l-104 52q-69 -14 -114.5 -55.5t-45.5 -94.5z" />
<glyph unicode="&#xa8;" horiz-adv-x="1071" d="M372 1419q0 66 44 108.5t112 42.5q67 0 111 -42.5t44 -108.5t-44 -109t-111 -43q-68 0 -112 43t-44 109zM840 1419q0 66 44 108.5t111 42.5q68 0 112 -42.5t44 -108.5t-44 -109t-112 -43q-67 0 -111 43t-44 109z" />
<glyph unicode="&#xa9;" horiz-adv-x="1743" d="M155 603q0 172 66 327t178.5 267t269 177.5t330.5 65.5q212 0 384 -96t270 -264.5t98 -376.5q0 -173 -66 -328t-178.5 -267t-269.5 -177.5t-331 -65.5q-156 0 -295.5 57t-239.5 155t-158 235t-58 291zM320 611q0 -250 170 -417.5t424 -167.5q182 0 336.5 90t244.5 244 t90 335q0 252 -169 418t-425 166q-181 0 -336 -90t-245 -244t-90 -334zM587 598q0 196 116.5 325.5t293.5 129.5q144 0 234.5 -83t85.5 -211h-187q-1 60 -39.5 96.5t-100.5 36.5q-90 0 -151 -84.5t-61 -208.5q0 -84 39.5 -131t109.5 -47q109 0 151 95h193 q-30 -120 -124 -188.5t-228 -68.5q-148 0 -240 93.5t-92 245.5z" />
<glyph unicode="&#xaa;" horiz-adv-x="1030" d="M180 762q0 142 104.5 222.5t291.5 84.5l233 5q1 6 6.5 27.5t5.5 24.5q6 30 5 36q1 45 -36 71t-100 26q-52 0 -89.5 -19t-53.5 -54h-252q34 134 139.5 206t264.5 72q176 0 283 -78t107 -208q0 -38 -7 -72l-126 -590h-257l21 104l-17 1q-40 -55 -105 -86.5t-139 -31.5 q-123 0 -201 72t-78 187zM443 798q0 -45 35.5 -72.5t92.5 -27.5q69 0 122 40.5t67 104.5l16 74l-167 -5q-78 -3 -122 -33t-44 -81z" />
<glyph unicode="&#xab;" horiz-adv-x="1447" d="M188 562l2 8l417 411h298l-437 -425l-2 -11l247 -394h-264zM699 562l2 8l427 411h288l-442 -431l-2 -10l252 -389h-264z" />
<glyph unicode="&#xac;" d="M208 455l53 258h1045l-137 -654h-255l84 396h-790z" />
<glyph unicode="&#xad;" horiz-adv-x="992" d="M188 446l57 273h657l-57 -273h-657z" />
<glyph unicode="&#xae;" horiz-adv-x="1261" d="M216 897q0 144 70.5 264.5t192.5 190.5t267 70q229 0 379.5 -149t150.5 -376q0 -144 -70.5 -264.5t-192.5 -190.5t-267 -70q-229 0 -379.5 149t-150.5 376zM349 897q0 -173 111.5 -284t283.5 -111q166 0 282.5 115.5t116.5 279.5q0 173 -112 284t-285 111 q-166 0 -281.5 -115t-115.5 -280zM488 664l103 487h248q66 0 111.5 -43t45.5 -103q0 -61 -37.5 -105t-99.5 -59l84 -177h-144l-75 165h-76l-35 -165h-125zM669 925h103q88 0 88 68q0 25 -17 39.5t-49 14.5h-99z" />
<glyph unicode="&#xaf;" horiz-adv-x="1071" d="M372 1316l38 180h735l-38 -180h-735z" />
<glyph unicode="&#xb0;" horiz-adv-x="806" d="M277 1178q0 125 88 214t213 89t213.5 -89t88.5 -214q0 -126 -88.5 -215t-213.5 -89t-213 89t-88 215zM444 1178q0 -54 40 -93t94 -39q56 0 95.5 38.5t39.5 93.5t-39.5 93.5t-95.5 38.5q-54 0 -94 -39t-40 -93z" />
<glyph unicode="&#xb1;" d="M149 71l46 225h997l-46 -225h-997zM272 650l46 224h373l52 234h251l-51 -234h374l-46 -224h-374l-51 -234h-252l51 234h-373z" />
<glyph unicode="&#xb2;" horiz-adv-x="917" d="M221 896l40 192l322 233q132 94 178 142.5t46 92.5q0 40 -28 64t-74 24q-50 0 -86.5 -31.5t-46.5 -84.5v-1h-241q9 141 121 232t277 91q150 0 244.5 -75.5t94.5 -194.5q0 -85 -55 -158t-195 -173q-167 -119 -192 -132l-2 -12h360l-43 -209h-720z" />
<glyph unicode="&#xb3;" horiz-adv-x="944" d="M258 1201h249q-4 -51 30 -83t91 -32q58 0 94 30t36 80q0 39 -33 64.5t-84 25.5h-99l37 178h113q58 0 95.5 28.5t37.5 72.5q0 38 -30 61.5t-79 23.5q-44 0 -78 -22.5t-47 -61.5h-241q25 130 131 207t258 77q149 0 245.5 -71.5t96.5 -181.5q0 -90 -63.5 -154t-160.5 -71 l-1 -13q79 -18 121 -68t42 -126q0 -130 -108.5 -212.5t-281.5 -82.5q-175 0 -281.5 95t-89.5 236z" />
<glyph unicode="&#xb4;" horiz-adv-x="1071" d="M453 1281l323 353h310l-361 -353h-272z" />
<glyph unicode="&#xb6;" horiz-adv-x="1538" d="M288 880q0 244 165 399t437 163l290 1l-362 -1702h-280l155 719q-185 18 -295 133.5t-110 286.5zM987 -259l361 1702h280l-361 -1702h-280z" />
<glyph unicode="&#xb7;" horiz-adv-x="723" d="M260 728q0 81 50 132.5t133 51.5t132.5 -50t49.5 -123q0 -81 -49.5 -132.5t-132.5 -51.5t-133 50t-50 123z" />
<glyph unicode="&#xb8;" horiz-adv-x="1071" d="M155 -457l28 133q65 -27 142 -27q44 0 68 15t24 43q0 61 -116 61h-57l17 116l96 146h184l-96 -147q159 -26 159 -164q0 -96 -72 -154t-191 -58q-107 0 -186 36z" />
<glyph unicode="&#xb9;" horiz-adv-x="759" d="M313 1431l49 238l266 155h268l-197 -928h-268l146 680h-13z" />
<glyph unicode="&#xba;" horiz-adv-x="1106" d="M215 913q0 158 68 285.5t188 199.5t269 72q194 0 305.5 -115t111.5 -316q0 -158 -67 -284.5t-186.5 -197.5t-268.5 -71q-194 0 -307 114.5t-113 312.5zM491 914q0 -98 41.5 -152.5t114.5 -54.5q97 0 165.5 99t68.5 239q0 95 -41.5 150t-113.5 55q-98 0 -166.5 -98.5 t-68.5 -237.5z" />
<glyph unicode="&#xbb;" horiz-adv-x="1448" d="M123 151l441 430l2 11l-252 389h264l262 -411l-2 -8l-427 -411h-288zM635 151l437 425l2 10l-247 395h264l261 -411l-2 -8l-417 -411h-298z" />
<glyph unicode="&#xbf;" horiz-adv-x="1140" d="M30 26q0 127 75 231.5t209 164.5q112 50 158 93t60 113l9 43h270l-12 -63q-22 -132 -77.5 -201.5t-173.5 -121.5q-120 -55 -169.5 -109t-49.5 -126q0 -62 49 -103t134 -41q77 0 134.5 43.5t78.5 119.5h273q-26 -181 -159.5 -292t-340.5 -111q-210 0 -339 101.5 t-129 258.5zM552 972q0 76 51.5 128t132.5 52q82 0 133.5 -45t51.5 -118q0 -78 -52 -129t-133 -51q-80 0 -132 45.5t-52 117.5z" />
<glyph unicode="&#xc0;" horiz-adv-x="1501" d="M-3 0l820 1443h349l187 -1443h-311l-35 344h-509l-186 -344h-315zM612 577h381l-58 565h-19zM676 1908h306l177 -318h-266z" />
<glyph unicode="&#xc1;" horiz-adv-x="1501" d="M-3 0l820 1443h349l187 -1443h-311l-35 344h-509l-186 -344h-315zM612 577h381l-58 565h-19zM875 1590l343 318h315l-381 -318h-277z" />
<glyph unicode="&#xc2;" horiz-adv-x="1501" d="M-3 0l820 1443h349l187 -1443h-311l-35 344h-509l-186 -344h-315zM607 1590l328 335h291l187 -335h-249l-92 191h-18l-172 -191h-275zM612 577h381l-58 565h-19z" />
<glyph unicode="&#xc3;" horiz-adv-x="1501" d="M-3 0l820 1443h349l187 -1443h-311l-35 344h-509l-186 -344h-315zM612 577h381l-58 565h-19zM629 1618q17 129 91 203t178 74q45 0 85 -15t68 -36t53 -42t50 -36t48 -15q82 0 98 104h181q-18 -129 -91.5 -203t-177.5 -74q-45 0 -85 15t-68.5 36t-53 42t-49.5 36t-49 15 q-81 0 -97 -104h-181z" />
<glyph unicode="&#xc4;" horiz-adv-x="1501" d="M-3 0l820 1443h349l187 -1443h-311l-35 344h-509l-186 -344h-315zM612 577h381l-58 565h-19zM663 1731q0 66 44 108.5t112 42.5q67 0 111 -42.5t44 -108.5t-44 -109t-111 -43q-68 0 -112 43t-44 109zM1131 1731q0 66 44 108.5t111 42.5q68 0 112 -42.5t44 -108.5 t-44 -109t-112 -43q-67 0 -111 43t-44 109z" />
<glyph unicode="&#xc5;" horiz-adv-x="1501" d="M-3 0l820 1443h349l187 -1443h-311l-35 344h-509l-186 -344h-315zM612 577h381l-58 565h-19zM826 1819q0 103 70 170.5t176 67.5q105 0 175 -67.5t70 -170.5q0 -104 -70 -172.5t-175 -68.5t-175.5 68.5t-70.5 172.5zM966 1818q0 -46 29.5 -75t75.5 -29t76 29.5t30 74.5 q0 44 -30 73.5t-76 29.5t-75.5 -29.5t-29.5 -73.5z" />
<glyph unicode="&#xc6;" horiz-adv-x="2059" d="M-4 0l903 1443h1259l-54 -258h-650l-75 -341h614l-50 -239h-613l-77 -347h650l-52 -258h-929l80 364h-465l-234 -364h-307zM671 598h379l130 604h-130z" />
<glyph unicode="&#xc7;" horiz-adv-x="1534" d="M180 568q0 263 102 471.5t283 324.5t408 116q163 0 296.5 -66t209.5 -182t76 -257q0 -28 -2 -43h-294v14q-5 120 -88.5 193t-216.5 73q-129 0 -236 -81t-168 -224t-61 -318q0 -166 84.5 -262.5t230.5 -96.5q123 0 220 64t132 170h299q-43 -208 -201 -341t-387 -156 l-57 -87q159 -26 159 -164q0 -96 -72 -154t-191 -58q-107 0 -186 36l28 133q65 -27 142 -27q44 0 68 15t24 43q0 61 -116 61h-57l17 116l58 88q-232 29 -368 189.5t-136 409.5z" />
<glyph unicode="&#xc8;" horiz-adv-x="1274" d="M100 0l307 1443h956l-53 -258h-652l-75 -337h616l-50 -239h-615l-78 -351h653l-52 -258h-957zM570 1908h306l177 -318h-266z" />
<glyph unicode="&#xc9;" horiz-adv-x="1274" d="M100 0l307 1443h956l-53 -258h-652l-75 -337h616l-50 -239h-615l-78 -351h653l-52 -258h-957zM769 1590l343 318h315l-381 -318h-277z" />
<glyph unicode="&#xca;" horiz-adv-x="1274" d="M100 0l307 1443h956l-53 -258h-652l-75 -337h616l-50 -239h-615l-78 -351h653l-52 -258h-957zM501 1590l328 335h291l187 -335h-249l-92 191h-18l-172 -191h-275z" />
<glyph unicode="&#xcb;" horiz-adv-x="1274" d="M100 0l307 1443h956l-53 -258h-652l-75 -337h616l-50 -239h-615l-78 -351h653l-52 -258h-957zM557 1731q0 66 44 108.5t112 42.5q67 0 111 -42.5t44 -108.5t-44 -109t-111 -43q-68 0 -112 43t-44 109zM1025 1731q0 66 44 108.5t111 42.5q68 0 112 -42.5t44 -108.5 t-44 -109t-112 -43q-67 0 -111 43t-44 109z" />
<glyph unicode="&#xcc;" horiz-adv-x="653" d="M100 0l307 1443h304l-307 -1443h-304zM244 1908h306l177 -318h-266z" />
<glyph unicode="&#xcd;" horiz-adv-x="653" d="M100 0l307 1443h304l-307 -1443h-304zM443 1590l343 318h315l-381 -318h-277z" />
<glyph unicode="&#xce;" horiz-adv-x="653" d="M100 0l307 1443h304l-307 -1443h-304zM175 1590l328 335h291l187 -335h-249l-92 191h-18l-172 -191h-275z" />
<glyph unicode="&#xcf;" horiz-adv-x="653" d="M100 0l307 1443h304l-307 -1443h-304zM231 1731q0 66 44 108.5t112 42.5q67 0 111 -42.5t44 -108.5t-44 -109t-111 -43q-68 0 -112 43t-44 109zM699 1731q0 66 44 108.5t111 42.5q68 0 112 -42.5t44 -108.5t-44 -109t-112 -43q-67 0 -111 43t-44 109z" />
<glyph unicode="&#xd0;" horiz-adv-x="1516" d="M58 618l47 227h175l127 598h511q276 0 433.5 -155.5t157.5 -431.5q0 -245 -96.5 -440.5t-268.5 -305.5t-388 -110h-655l131 618h-174zM459 257h270q205 0 337 157t132 408q0 170 -92 267.5t-255 97.5h-191l-74 -342h174l-47 -227h-176z" />
<glyph unicode="&#xd1;" horiz-adv-x="1573" d="M100 0l307 1443h231l479 -929h18l202 929h293l-307 -1443h-229l-483 922h-18l-200 -922h-293zM638 1618q17 129 91 203t178 74q45 0 85 -15t68 -36t53 -42t50 -36t48 -15q82 0 98 104h181q-18 -129 -91.5 -203t-177.5 -74q-45 0 -85 15t-68.5 36t-53 42t-49.5 36t-49 15 q-81 0 -97 -104h-181z" />
<glyph unicode="&#xd2;" horiz-adv-x="1617" d="M181 576q0 157 39 297.5t110.5 250.5t168.5 190.5t218 123t254 42.5q282 0 452 -173t170 -440q0 -197 -60.5 -366t-165 -287t-250 -184.5t-312.5 -66.5q-185 0 -328 80t-219.5 219.5t-76.5 313.5zM491 598q0 -165 89.5 -265t236.5 -100q129 0 236 79.5t168.5 220 t61.5 311.5q0 165 -89 265t-235 100q-129 0 -236.5 -80.5t-169.5 -221t-62 -309.5zM657 1907h306l177 -318h-266z" />
<glyph unicode="&#xd3;" horiz-adv-x="1617" d="M181 576q0 157 39 297.5t110.5 250.5t168.5 190.5t218 123t254 42.5q282 0 452 -173t170 -440q0 -197 -60.5 -366t-165 -287t-250 -184.5t-312.5 -66.5q-185 0 -328 80t-219.5 219.5t-76.5 313.5zM491 598q0 -165 89.5 -265t236.5 -100q129 0 236 79.5t168.5 220 t61.5 311.5q0 165 -89 265t-235 100q-129 0 -236.5 -80.5t-169.5 -221t-62 -309.5zM856 1589l343 318h315l-381 -318h-277z" />
<glyph unicode="&#xd4;" horiz-adv-x="1617" d="M181 576q0 157 39 297.5t110.5 250.5t168.5 190.5t218 123t254 42.5q282 0 452 -173t170 -440q0 -197 -60.5 -366t-165 -287t-250 -184.5t-312.5 -66.5q-185 0 -328 80t-219.5 219.5t-76.5 313.5zM491 598q0 -165 89.5 -265t236.5 -100q129 0 236 79.5t168.5 220 t61.5 311.5q0 165 -89 265t-235 100q-129 0 -236.5 -80.5t-169.5 -221t-62 -309.5zM588 1589l328 335h291l187 -335h-249l-92 191h-18l-172 -191h-275z" />
<glyph unicode="&#xd5;" horiz-adv-x="1617" d="M181 576q0 157 39 297.5t110.5 250.5t168.5 190.5t218 123t254 42.5q282 0 452 -173t170 -440q0 -197 -60.5 -366t-165 -287t-250 -184.5t-312.5 -66.5q-185 0 -328 80t-219.5 219.5t-76.5 313.5zM491 598q0 -165 89.5 -265t236.5 -100q129 0 236 79.5t168.5 220 t61.5 311.5q0 165 -89 265t-235 100q-129 0 -236.5 -80.5t-169.5 -221t-62 -309.5zM610 1617q17 129 91 203t178 74q45 0 85 -15t68 -36t53 -42t50 -36t48 -15q82 0 98 104h181q-18 -129 -91.5 -203t-177.5 -74q-45 0 -85 15t-68.5 36t-53 42t-49.5 36t-49 15 q-81 0 -97 -104h-181z" />
<glyph unicode="&#xd6;" horiz-adv-x="1617" d="M181 576q0 157 39 297.5t110.5 250.5t168.5 190.5t218 123t254 42.5q282 0 452 -173t170 -440q0 -197 -60.5 -366t-165 -287t-250 -184.5t-312.5 -66.5q-185 0 -328 80t-219.5 219.5t-76.5 313.5zM491 598q0 -165 89.5 -265t236.5 -100q129 0 236 79.5t168.5 220 t61.5 311.5q0 165 -89 265t-235 100q-129 0 -236.5 -80.5t-169.5 -221t-62 -309.5zM644 1730q0 66 44 108.5t112 42.5q67 0 111 -42.5t44 -108.5t-44 -109t-111 -43q-68 0 -112 43t-44 109zM1112 1730q0 66 44 108.5t111 42.5q68 0 112 -42.5t44 -108.5t-44 -109t-112 -43 q-67 0 -111 43t-44 109z" />
<glyph unicode="&#xd8;" horiz-adv-x="1592" d="M181 576q0 157 39 297.5t110.5 250.5t168.5 190.5t218 123t254 42.5q172 0 308 -69l64 96l108 -59l-69 -104q101 -83 156 -206.5t55 -270.5q0 -197 -60.5 -366t-165 -287t-250 -184.5t-312.5 -66.5q-163 0 -297 64l-63 -95l-102 66l62 93q-107 83 -165.5 208.5 t-58.5 276.5zM491 598q0 -157 81 -255l547 826q-71 40 -160 40q-129 0 -236.5 -80.5t-169.5 -221t-62 -309.5zM667 267q68 -34 150 -34q129 0 236 79.5t168.5 220t61.5 311.5q0 145 -71 243z" />
<glyph unicode="&#xd9;" horiz-adv-x="1564" d="M210 433q0 64 13 126l187 884h305l-186 -877q-12 -56 -11 -102q2 -108 75 -169t201 -61q127 0 214 72.5t116 206.5l198 930h304l-211 -997q-48 -229 -215 -356t-424 -127q-261 0 -413 131t-153 339zM699 1908h306l177 -318h-266z" />
<glyph unicode="&#xda;" horiz-adv-x="1564" d="M210 433q0 64 13 126l187 884h305l-186 -877q-12 -56 -11 -102q2 -108 75 -169t201 -61q127 0 214 72.5t116 206.5l198 930h304l-211 -997q-48 -229 -215 -356t-424 -127q-261 0 -413 131t-153 339zM898 1590l343 318h315l-381 -318h-277z" />
<glyph unicode="&#xdb;" horiz-adv-x="1564" d="M210 433q0 64 13 126l187 884h305l-186 -877q-12 -56 -11 -102q2 -108 75 -169t201 -61q127 0 214 72.5t116 206.5l198 930h304l-211 -997q-48 -229 -215 -356t-424 -127q-261 0 -413 131t-153 339zM630 1590l328 335h291l187 -335h-249l-92 191h-18l-172 -191h-275z" />
<glyph unicode="&#xdc;" horiz-adv-x="1564" d="M210 433q0 64 13 126l187 884h305l-186 -877q-12 -56 -11 -102q2 -108 75 -169t201 -61q127 0 214 72.5t116 206.5l198 930h304l-211 -997q-48 -229 -215 -356t-424 -127q-261 0 -413 131t-153 339zM686 1731q0 66 44 108.5t112 42.5q67 0 111 -42.5t44 -108.5t-44 -109 t-111 -43q-68 0 -112 43t-44 109zM1154 1731q0 66 44 108.5t111 42.5q68 0 112 -42.5t44 -108.5t-44 -109t-112 -43q-67 0 -111 43t-44 109z" />
<glyph unicode="&#xdd;" horiz-adv-x="1451" d="M304 1443h316l196 -607h18l447 607h330l-697 -924l-110 -519h-304l114 531zM839 1590l343 318h315l-381 -318h-277z" />
<glyph unicode="&#xde;" horiz-adv-x="1382" d="M101 0l307 1443h302l-50 -232h270q188 0 309 -112t121 -285q0 -148 -73 -267.5t-206 -188t-302 -68.5h-314l-63 -290h-301zM515 536h237q141 0 222.5 66.5t81.5 179.5q0 87 -56.5 134t-164.5 47h-228z" />
<glyph unicode="&#xdf;" horiz-adv-x="1405" d="M103 0l234 1088q36 167 174.5 264t340.5 97q211 0 345.5 -104t134.5 -267q0 -130 -85 -225.5t-217 -115.5l-4 -19q135 -24 211 -103t76 -199q0 -195 -141 -314t-366 -119q-144 0 -252 40l50 234q73 -34 167 -34q109 0 180 58.5t71 149.5q0 81 -67 125.5t-184 44.5h-75 l50 245h75q92 0 156 53.5t64 132.5q0 77 -55 124.5t-143 47.5q-92 0 -154 -56.5t-84 -161.5l-211 -986h-291z" />
<glyph unicode="&#xe0;" horiz-adv-x="1202" d="M83 284q0 168 129.5 266.5t361.5 105.5l274 9l15 68q5 25 5 40q0 57 -49 90.5t-133 33.5q-147 0 -192 -98h-275q35 151 167.5 239.5t320.5 88.5q202 0 325 -89.5t123 -235.5q0 -50 -9 -89l-151 -713h-283l29 136h-18q-47 -71 -131 -112t-181 -41q-140 0 -234 86t-94 215z M369 326q0 -55 46 -89.5t119 -34.5q93 0 165 52t90 132l21 95l-228 -8q-100 -4 -156.5 -43t-56.5 -104zM390 1634h303l212 -353h-265z" />
<glyph unicode="&#xe1;" horiz-adv-x="1202" d="M83 284q0 168 129.5 266.5t361.5 105.5l274 9l15 68q5 25 5 40q0 57 -49 90.5t-133 33.5q-147 0 -192 -98h-275q35 151 167.5 239.5t320.5 88.5q202 0 325 -89.5t123 -235.5q0 -50 -9 -89l-151 -713h-283l29 136h-18q-47 -71 -131 -112t-181 -41q-140 0 -234 86t-94 215z M369 326q0 -55 46 -89.5t119 -34.5q93 0 165 52t90 132l21 95l-228 -8q-100 -4 -156.5 -43t-56.5 -104zM629 1281l323 353h310l-361 -353h-272z" />
<glyph unicode="&#xe2;" horiz-adv-x="1202" d="M83 284q0 168 129.5 266.5t361.5 105.5l274 9l15 68q5 25 5 40q0 57 -49 90.5t-133 33.5q-147 0 -192 -98h-275q35 151 167.5 239.5t320.5 88.5q202 0 325 -89.5t123 -235.5q0 -50 -9 -89l-151 -713h-283l29 136h-18q-47 -71 -131 -112t-181 -41q-140 0 -234 86t-94 215z M317 1251l350 354h291l200 -354h-250l-104 209h-18l-193 -209h-276zM369 326q0 -55 46 -89.5t119 -34.5q93 0 165 52t90 132l21 95l-228 -8q-100 -4 -156.5 -43t-56.5 -104z" />
<glyph unicode="&#xe3;" horiz-adv-x="1202" d="M83 284q0 168 129.5 266.5t361.5 105.5l274 9l15 68q5 25 5 40q0 57 -49 90.5t-133 33.5q-147 0 -192 -98h-275q35 151 167.5 239.5t320.5 88.5q202 0 325 -89.5t123 -235.5q0 -50 -9 -89l-151 -713h-283l29 136h-18q-47 -71 -131 -112t-181 -41q-140 0 -234 86t-94 215z M369 326q0 -55 46 -89.5t119 -34.5q93 0 165 52t90 132l21 95l-228 -8q-100 -4 -156.5 -43t-56.5 -104zM369 1287q16 135 90.5 216t180.5 81q46 0 85.5 -17t67 -41t51 -48t48.5 -41t50 -17q76 0 95 124h184q-16 -136 -90.5 -216.5t-180.5 -80.5q-46 0 -86 17t-67.5 41 t-51 48t-48.5 41t-50 17q-75 0 -94 -124h-184z" />
<glyph unicode="&#xe4;" horiz-adv-x="1202" d="M83 284q0 168 129.5 266.5t361.5 105.5l274 9l15 68q5 25 5 40q0 57 -49 90.5t-133 33.5q-147 0 -192 -98h-275q35 151 167.5 239.5t320.5 88.5q202 0 325 -89.5t123 -235.5q0 -50 -9 -89l-151 -713h-283l29 136h-18q-47 -71 -131 -112t-181 -41q-140 0 -234 86t-94 215z M369 326q0 -55 46 -89.5t119 -34.5q93 0 165 52t90 132l21 95l-228 -8q-100 -4 -156.5 -43t-56.5 -104zM392 1403q0 66 44 108.5t112 42.5q67 0 111 -42.5t44 -108.5t-44 -109t-111 -43q-68 0 -112 43t-44 109zM860 1403q0 66 44 108.5t111 42.5q68 0 112 -42.5t44 -108.5 t-44 -109t-112 -43q-67 0 -111 43t-44 109z" />
<glyph unicode="&#xe5;" horiz-adv-x="1202" d="M83 284q0 168 129.5 266.5t361.5 105.5l274 9l15 68q5 25 5 40q0 57 -49 90.5t-133 33.5q-147 0 -192 -98h-275q35 151 167.5 239.5t320.5 88.5q202 0 325 -89.5t123 -235.5q0 -50 -9 -89l-151 -713h-283l29 136h-18q-47 -71 -131 -112t-181 -41q-140 0 -234 86t-94 215z M369 326q0 -55 46 -89.5t119 -34.5q93 0 165 52t90 132l21 95l-228 -8q-100 -4 -156.5 -43t-56.5 -104zM591 1492q0 103 70 170.5t176 67.5q105 0 175 -67.5t70 -170.5q0 -104 -70 -172.5t-175 -68.5t-175.5 68.5t-70.5 172.5zM731 1491q0 -46 29.5 -75t75.5 -29t76 29.5 t30 74.5q0 44 -30 73.5t-76 29.5t-75.5 -29.5t-29.5 -73.5z" />
<glyph unicode="&#xe6;" horiz-adv-x="1925" d="M85 288q0 174 127.5 270.5t363.5 104.5l274 9l15 61q5 28 5 40q0 57 -49 90.5t-134 33.5q-147 0 -191 -98h-275q35 154 164.5 241t317.5 87q115 0 205 -42t132 -114h18q68 75 160.5 115.5t199.5 40.5q193 0 323.5 -128t131.5 -334q0 -86 -18 -180h-768q-1 -8 -1 -32 q0 -121 66 -185.5t166 -64.5q161 0 216 114h281q-39 -154 -178 -247.5t-340 -93.5q-123 0 -233 56.5t-154 145.5h-18q-58 -87 -170.5 -144.5t-244.5 -57.5q-171 0 -281.5 89.5t-110.5 222.5zM370 325q0 -56 46.5 -93t119.5 -37q92 0 164.5 55t90.5 136l21 95l-228 -8 q-100 -4 -157 -43t-57 -105zM1118 669h479q3 9 3 38q0 85 -54.5 140.5t-148.5 55.5q-100 0 -175 -64t-104 -170z" />
<glyph unicode="&#xe7;" horiz-adv-x="1214" d="M133 441q0 195 76 351t215.5 245.5t317.5 89.5q193 0 317 -107t137 -254q2 -13 2 -43h-276q-4 76 -59.5 120.5t-139.5 44.5q-131 0 -215 -122t-84 -303q0 -120 58 -183t150 -63q82 0 141 40.5t84 115.5h279q-27 -159 -151 -269t-313 -126l-64 -98q159 -26 159 -164 q0 -96 -72 -154t-191 -58q-107 0 -186 36l28 133q65 -27 142 -27q44 0 68 15t24 43q0 61 -116 61h-57l17 116l70 106q-169 33 -265 153.5t-96 300.5z" />
<glyph unicode="&#xe8;" horiz-adv-x="1248" d="M136 450q0 302 166 489.5t431 187.5q201 0 333 -127t132 -335q0 -82 -17 -180h-770q0 -4 -0.5 -15.5t-0.5 -15.5q0 -122 66 -186.5t166 -64.5q163 0 218 114h280q-38 -154 -176.5 -247.5t-339.5 -93.5q-218 0 -353 127t-135 347zM364 1634h303l212 -353h-265zM443 669 h479q3 18 3 38q0 85 -55 140.5t-149 55.5q-99 0 -174 -64t-104 -170z" />
<glyph unicode="&#xe9;" horiz-adv-x="1248" d="M136 450q0 302 166 489.5t431 187.5q201 0 333 -127t132 -335q0 -82 -17 -180h-770q0 -4 -0.5 -15.5t-0.5 -15.5q0 -122 66 -186.5t166 -64.5q163 0 218 114h280q-38 -154 -176.5 -247.5t-339.5 -93.5q-218 0 -353 127t-135 347zM443 669h479q3 18 3 38q0 85 -55 140.5 t-149 55.5q-99 0 -174 -64t-104 -170zM603 1281l323 353h310l-361 -353h-272z" />
<glyph unicode="&#xea;" horiz-adv-x="1248" d="M136 450q0 302 166 489.5t431 187.5q201 0 333 -127t132 -335q0 -82 -17 -180h-770q0 -4 -0.5 -15.5t-0.5 -15.5q0 -122 66 -186.5t166 -64.5q163 0 218 114h280q-38 -154 -176.5 -247.5t-339.5 -93.5q-218 0 -353 127t-135 347zM326 1251l350 354h291l200 -354h-250 l-104 209h-18l-193 -209h-276zM443 669h479q3 18 3 38q0 85 -55 140.5t-149 55.5q-99 0 -174 -64t-104 -170z" />
<glyph unicode="&#xeb;" horiz-adv-x="1248" d="M136 450q0 302 166 489.5t431 187.5q201 0 333 -127t132 -335q0 -82 -17 -180h-770q0 -4 -0.5 -15.5t-0.5 -15.5q0 -122 66 -186.5t166 -64.5q163 0 218 114h280q-38 -154 -176.5 -247.5t-339.5 -93.5q-218 0 -353 127t-135 347zM401 1403q0 66 44 108.5t112 42.5 q67 0 111 -42.5t44 -108.5t-44 -109t-111 -43q-68 0 -112 43t-44 109zM443 669h479q3 18 3 38q0 85 -55 140.5t-149 55.5q-99 0 -174 -64t-104 -170zM869 1403q0 66 44 108.5t111 42.5q68 0 112 -42.5t44 -108.5t-44 -109t-112 -43q-67 0 -111 43t-44 109z" />
<glyph unicode="&#xec;" horiz-adv-x="599" d="M79 0l234 1103h291l-234 -1103h-291zM95 1634h303l212 -353h-265z" />
<glyph unicode="&#xed;" horiz-adv-x="599" d="M79 0l234 1103h291l-234 -1103h-291zM334 1281l323 353h310l-361 -353h-272z" />
<glyph unicode="&#xee;" horiz-adv-x="599" d="M57 1251l350 354h291l200 -354h-250l-104 209h-18l-193 -209h-276zM79 0l234 1103h291l-234 -1103h-291z" />
<glyph unicode="&#xef;" horiz-adv-x="599" d="M79 0l234 1103h291l-234 -1103h-291zM132 1403q0 66 44 108.5t112 42.5q67 0 111 -42.5t44 -108.5t-44 -109t-111 -43q-68 0 -112 43t-44 109zM600 1403q0 66 44 108.5t111 42.5q68 0 112 -42.5t44 -108.5t-44 -109t-112 -43q-67 0 -111 43t-44 109z" />
<glyph unicode="&#xf0;" horiz-adv-x="1301" d="M128 448q0 174 68 316.5t188.5 224t267.5 81.5q105 0 194 -44t124 -113l18 -1q-8 151 -102 314l-312 -94l-24 151l244 74q-59 70 -160 157h330q48 -48 72 -79l253 80l25 -152l-188 -58q144 -248 144 -523q0 -168 -42 -307q-68 -232 -226 -365.5t-369 -133.5 q-221 0 -363 133.5t-142 338.5zM431 460q0 -108 60 -172t161 -64q119 0 211.5 117t92.5 268q0 105 -64 170.5t-165 65.5q-122 0 -209 -113.5t-87 -271.5z" />
<glyph unicode="&#xf1;" horiz-adv-x="1304" d="M67 0l236 1112h282l-37 -175h18q55 87 144.5 138.5t203.5 51.5q152 0 245.5 -90.5t93.5 -229.5q0 -58 -14 -131l-142 -676h-291l132 628q10 46 10 84q0 76 -52 123.5t-137 47.5q-96 0 -167.5 -62.5t-92.5 -161.5l-140 -659h-292zM396 1293q16 135 90.5 216t180.5 81 q46 0 85.5 -17t67 -41t51 -48t48.5 -41t50 -17q76 0 95 124h184q-16 -136 -90.5 -216.5t-180.5 -80.5q-46 0 -86 17t-67.5 41t-51 48t-48.5 41t-50 17q-75 0 -94 -124h-184z" />
<glyph unicode="&#xf2;" horiz-adv-x="1289" d="M135 458q0 185 77.5 337.5t221 242t324.5 89.5q222 0 356 -133t134 -350q0 -183 -76.5 -335t-219.5 -242.5t-324 -90.5q-222 0 -357.5 132.5t-135.5 349.5zM385 1634h303l212 -353h-265zM438 467q0 -115 55 -183.5t152 -68.5q120 0 209 120.5t89 292.5q0 123 -53 192 t-148 69q-132 0 -218 -122t-86 -300z" />
<glyph unicode="&#xf3;" horiz-adv-x="1289" d="M135 458q0 185 77.5 337.5t221 242t324.5 89.5q222 0 356 -133t134 -350q0 -183 -76.5 -335t-219.5 -242.5t-324 -90.5q-222 0 -357.5 132.5t-135.5 349.5zM438 467q0 -115 55 -183.5t152 -68.5q120 0 209 120.5t89 292.5q0 123 -53 192t-148 69q-132 0 -218 -122 t-86 -300zM624 1281l323 353h310l-361 -353h-272z" />
<glyph unicode="&#xf4;" horiz-adv-x="1289" d="M135 458q0 185 77.5 337.5t221 242t324.5 89.5q222 0 356 -133t134 -350q0 -183 -76.5 -335t-219.5 -242.5t-324 -90.5q-222 0 -357.5 132.5t-135.5 349.5zM347 1251l350 354h291l200 -354h-250l-104 209h-18l-193 -209h-276zM438 467q0 -115 55 -183.5t152 -68.5 q120 0 209 120.5t89 292.5q0 123 -53 192t-148 69q-132 0 -218 -122t-86 -300z" />
<glyph unicode="&#xf5;" horiz-adv-x="1289" d="M135 458q0 185 77.5 337.5t221 242t324.5 89.5q222 0 356 -133t134 -350q0 -183 -76.5 -335t-219.5 -242.5t-324 -90.5q-222 0 -357.5 132.5t-135.5 349.5zM399 1287q16 135 90.5 216t180.5 81q46 0 85.5 -17t67 -41t51 -48t48.5 -41t50 -17q76 0 95 124h184 q-16 -136 -90.5 -216.5t-180.5 -80.5q-46 0 -86 17t-67.5 41t-51 48t-48.5 41t-50 17q-75 0 -94 -124h-184zM438 467q0 -115 55 -183.5t152 -68.5q120 0 209 120.5t89 292.5q0 123 -53 192t-148 69q-132 0 -218 -122t-86 -300z" />
<glyph unicode="&#xf6;" horiz-adv-x="1289" d="M135 458q0 185 77.5 337.5t221 242t324.5 89.5q222 0 356 -133t134 -350q0 -183 -76.5 -335t-219.5 -242.5t-324 -90.5q-222 0 -357.5 132.5t-135.5 349.5zM422 1403q0 66 44 108.5t112 42.5q67 0 111 -42.5t44 -108.5t-44 -109t-111 -43q-68 0 -112 43t-44 109zM438 467 q0 -115 55 -183.5t152 -68.5q120 0 209 120.5t89 292.5q0 123 -53 192t-148 69q-132 0 -218 -122t-86 -300zM890 1403q0 66 44 108.5t111 42.5q68 0 112 -42.5t44 -108.5t-44 -109t-112 -43q-67 0 -111 43t-44 109z" />
<glyph unicode="&#xf7;" horiz-adv-x="1416" d="M194 472l47 225h1080l-47 -225h-1080zM500 187q0 73 45.5 120.5t120.5 47.5q74 0 119.5 -46t45.5 -112q0 -73 -45 -120t-120 -47t-120.5 45.5t-45.5 111.5zM665 971q0 73 45.5 120t120.5 47q74 0 119.5 -45.5t45.5 -111.5q0 -73 -45 -120t-120 -47t-120.5 45.5 t-45.5 111.5z" />
<glyph unicode="&#xf8;" horiz-adv-x="1298" d="M135 458q0 185 77.5 337.5t221 242t324.5 89.5q160 0 277 -71l97 116l93 -58l-105 -126q128 -131 128 -344q0 -183 -76.5 -335t-219.5 -242.5t-324 -90.5q-168 0 -288 77l-105 -126l-90 63l111 133q-121 130 -121 335zM438 467q0 -60 15 -108l409 490q-49 40 -120 40 q-132 0 -218 -122t-86 -300zM514 262q53 -47 131 -47q120 0 209 120.5t89 292.5q0 73 -19 126z" />
<glyph unicode="&#xf9;" horiz-adv-x="1305" d="M139 298q0 58 15 141l139 664h293l-131 -616q-10 -47 -10 -86q0 -85 47.5 -129t136.5 -44q99 0 170 63t94 168l137 644h292l-233 -1103h-283l36 167h-18q-50 -89 -139.5 -140t-203.5 -51q-152 0 -247 88.5t-95 233.5zM440 1634h303l212 -353h-265z" />
<glyph unicode="&#xfa;" horiz-adv-x="1305" d="M139 298q0 58 15 141l139 664h293l-131 -616q-10 -47 -10 -86q0 -85 47.5 -129t136.5 -44q99 0 170 63t94 168l137 644h292l-233 -1103h-283l36 167h-18q-50 -89 -139.5 -140t-203.5 -51q-152 0 -247 88.5t-95 233.5zM679 1281l323 353h310l-361 -353h-272z" />
<glyph unicode="&#xfb;" horiz-adv-x="1305" d="M139 298q0 58 15 141l139 664h293l-131 -616q-10 -47 -10 -86q0 -85 47.5 -129t136.5 -44q99 0 170 63t94 168l137 644h292l-233 -1103h-283l36 167h-18q-50 -89 -139.5 -140t-203.5 -51q-152 0 -247 88.5t-95 233.5zM402 1251l350 354h291l200 -354h-250l-104 209h-18 l-193 -209h-276z" />
<glyph unicode="&#xfc;" horiz-adv-x="1305" d="M139 298q0 58 15 141l139 664h293l-131 -616q-10 -47 -10 -86q0 -85 47.5 -129t136.5 -44q99 0 170 63t94 168l137 644h292l-233 -1103h-283l36 167h-18q-50 -89 -139.5 -140t-203.5 -51q-152 0 -247 88.5t-95 233.5zM477 1403q0 66 44 108.5t112 42.5q67 0 111 -42.5 t44 -108.5t-44 -109t-111 -43q-68 0 -112 43t-44 109zM945 1403q0 66 44 108.5t111 42.5q68 0 112 -42.5t44 -108.5t-44 -109t-112 -43q-67 0 -111 43t-44 109z" />
<glyph unicode="&#xfd;" horiz-adv-x="1208" d="M-1 -398l46 235q20 -6 81 -6q151 0 211 122l22 44l-144 1106h297l64 -822h18l405 822h312l-630 -1143q-106 -200 -231.5 -281.5t-318.5 -81.5q-62 0 -132 5zM635 1281l323 353h310l-361 -353h-272z" />
<glyph unicode="&#xfe;" horiz-adv-x="1337" d="M-2 -345l395 1852h291l-118 -557h18q121 172 332 172q165 0 271 -116t106 -307q0 -203 -73 -367t-200 -256.5t-282 -92.5q-117 0 -201.5 59.5t-111.5 157.5h-18l-117 -545h-292zM468 465q0 -111 58.5 -173t153.5 -62q131 0 221 120.5t90 298.5q0 111 -56.5 171t-149.5 60 q-131 0 -224 -122.5t-93 -292.5z" />
<glyph unicode="&#xff;" horiz-adv-x="1208" d="M-1 -398l46 235q20 -6 81 -6q151 0 211 122l22 44l-144 1106h297l64 -822h18l405 822h312l-630 -1143q-106 -200 -231.5 -281.5t-318.5 -81.5q-62 0 -132 5zM433 1403q0 66 44 108.5t112 42.5q67 0 111 -42.5t44 -108.5t-44 -109t-111 -43q-68 0 -112 43t-44 109z M901 1403q0 66 44 108.5t111 42.5q68 0 112 -42.5t44 -108.5t-44 -109t-112 -43q-67 0 -111 43t-44 109z" />
<glyph unicode="&#x131;" horiz-adv-x="599" d="M79 0l234 1103h291l-234 -1103h-291z" />
<glyph unicode="&#x152;" horiz-adv-x="2312" d="M186 576q0 193 60 361.5t164 287.5t251 187t315 68q153 0 274 -63t186 -172h18l43 198h901l-53 -258h-652l-75 -337h616l-50 -239h-615l-78 -351h653l-52 -258h-902l23 102h-15q-62 -62 -166 -100.5t-222 -38.5q-276 0 -450 171t-174 442zM493 597q0 -166 90 -267.5 t238 -101.5q131 0 239 81.5t169.5 223t61.5 313.5q0 166 -90 267.5t-237 101.5q-130 0 -238.5 -82t-170.5 -224t-62 -312z" />
<glyph unicode="&#x153;" horiz-adv-x="2048" d="M135 457q0 190 80 343.5t222 240t318 86.5q119 0 214.5 -49.5t150.5 -140.5h19q148 190 391 190q205 0 335 -129t131 -333q0 -88 -18 -180h-769q-1 -12 -1 -32q0 -115 63 -182.5t169 -67.5q162 0 217 114h281q-39 -156 -179 -248.5t-337 -92.5q-119 0 -217.5 49 t-157.5 138h-18q-147 -187 -403 -187q-222 0 -356.5 132t-134.5 349zM438 466q0 -116 56 -184t151 -68q122 0 210 122t88 292q0 123 -53 192t-148 69q-130 0 -217 -121.5t-87 -301.5zM1240 669h479q3 9 3 38q0 88 -56 142t-147 54q-99 0 -174.5 -63t-104.5 -171z" />
<glyph unicode="&#x178;" horiz-adv-x="1451" d="M304 1443h316l196 -607h18l447 607h330l-697 -924l-110 -519h-304l114 531zM627 1731q0 66 44 108.5t112 42.5q67 0 111 -42.5t44 -108.5t-44 -109t-111 -43q-68 0 -112 43t-44 109zM1095 1731q0 66 44 108.5t111 42.5q68 0 112 -42.5t44 -108.5t-44 -109t-112 -43 q-67 0 -111 43t-44 109z" />
<glyph unicode="&#x192;" d="M40 16l51 239q86 -34 178 -34t151 44t93 137l98 255h-326l45 217h359l70 188q145 399 569 399q113 0 203 -30l-51 -237q-67 25 -168 25q-102 0 -163.5 -46t-97.5 -143l-59 -156h339l-45 -217h-372l-103 -271q-78 -212 -211.5 -310t-342.5 -98q-101 0 -217 38z" />
<glyph unicode="&#x2c6;" horiz-adv-x="1071" d="M306 1251l350 354h291l200 -354h-250l-104 209h-18l-193 -209h-276z" />
<glyph unicode="&#x2c7;" horiz-adv-x="1071" d="M381 1605h249l103 -209h18l194 209h277l-350 -354h-291z" />
<glyph unicode="&#x2d8;" horiz-adv-x="1072" d="M405 1556q0 26 4 46h205q-2 -16 -2 -29q0 -68 50 -110t132 -42q90 0 144.5 46.5t69.5 134.5h206q-16 -161 -130 -256t-297 -95q-172 0 -277 86.5t-105 218.5z" />
<glyph unicode="&#x2d9;" horiz-adv-x="1071" d="M605 1438q0 70 46.5 117t114.5 47t114.5 -47t46.5 -117t-46.5 -117t-114.5 -47t-114.5 47t-46.5 117z" />
<glyph unicode="&#x2da;" horiz-adv-x="1071" d="M532 1492q0 103 70 170.5t176 67.5q105 0 175 -67.5t70 -170.5q0 -104 -70 -172.5t-175 -68.5t-175.5 68.5t-70.5 172.5zM672 1491q0 -46 29.5 -75t75.5 -29t76 29.5t30 74.5q0 44 -30 73.5t-76 29.5t-75.5 -29.5t-29.5 -73.5z" />
<glyph unicode="&#x2db;" horiz-adv-x="1071" d="M219 -252q0 87 67 173.5t181 134.5l165 -23q-93 -49 -144 -108t-51 -116q0 -93 130 -93q27 0 43 2l-33 -161q-36 -12 -100 -12q-118 0 -188 55.5t-70 147.5z" />
<glyph unicode="&#x2dc;" horiz-adv-x="1071" d="M347 1301q16 135 90.5 216t180.5 81q46 0 85.5 -17t67 -41t51 -48t48.5 -41t50 -17q76 0 95 124h184q-16 -136 -90.5 -216.5t-180.5 -80.5q-46 0 -86 17t-67.5 41t-51 48t-48.5 41t-50 17q-75 0 -94 -124h-184z" />
<glyph unicode="&#x2dd;" horiz-adv-x="1071" d="M278 1281l287 353h261l-317 -353h-231zM714 1281l287 353h261l-317 -353h-231z" />
<glyph unicode="&#x3a9;" horiz-adv-x="1666" d="M79 0l51 247h286l4 19q-104 68 -160.5 183t-56.5 257q0 228 101.5 405t282.5 273t412 96q283 0 452 -155.5t169 -412.5q0 -201 -104 -378t-283 -268l-4 -19h297l-51 -247h-592l65 312q173 83 267 230t94 336q0 155 -91.5 246t-250.5 91q-207 0 -335 -145.5t-128 -377.5 q0 -123 55 -221t161 -159l-65 -312h-576z" />
<glyph unicode="&#x3c0;" horiz-adv-x="1488" d="M168 859l50 244h1330l-50 -244h-229l-109 -506q-9 -40 -9 -58q0 -39 23 -57t73 -18q34 0 58 8l-46 -221q-54 -17 -139 -17q-130 0 -195.5 56t-65.5 159q0 43 14 104l117 550h-339l-184 -859h-278l184 859h-205z" />
<glyph unicode="&#x401;" horiz-adv-x="1294" d="M110 0l307 1443h956l-53 -258h-652l-75 -337h616l-50 -239h-615l-78 -351h653l-52 -258h-957zM567 1731q0 66 44 108.5t112 42.5q67 0 111 -42.5t44 -108.5t-44 -109t-111 -43q-68 0 -112 43t-44 109zM1035 1731q0 66 44 108.5t111 42.5q68 0 112 -42.5t44 -108.5 t-44 -109t-112 -43q-67 0 -111 43t-44 109z" />
<glyph unicode="&#x402;" horiz-adv-x="1802" d="M281 1185l53 258h1148l-53 -258h-422l-87 -398h15q133 119 326 119q216 0 333.5 -119.5t117.5 -313.5q0 -110 -43.5 -209.5t-120 -174t-189.5 -118t-245 -43.5q-55 0 -98 4t-58 8l-16 5l50 244q36 -12 122 -12q125 0 205 74.5t80 183.5q0 94 -58.5 149.5t-170.5 55.5 q-96 0 -181.5 -47t-131.5 -111l-104 -482h-304l254 1185h-422z" />
<glyph unicode="&#x403;" horiz-adv-x="1224" d="M110 0l307 1443h936l-54 -258h-631l-254 -1185h-304zM713 1573l343 318h315l-381 -318h-277z" />
<glyph unicode="&#x404;" horiz-adv-x="1558" d="M217 702q32 348 240.5 563t528.5 215q158 0 288.5 -63.5t207 -180t78.5 -262.5v-24h-298q-7 121 -88 191.5t-208 70.5q-148 0 -263.5 -99t-159.5 -262h572l-49 -241h-556q-13 -177 70.5 -279t236.5 -102q123 0 214 68t134 181h297q-61 -237 -243 -376t-434 -139 q-298 0 -454 197t-114 542z" />
<glyph unicode="&#x405;" horiz-adv-x="1394" d="M122 412h292q16 -92 99 -148t201 -56q122 0 198 52t76 137q0 63 -49.5 105.5t-166.5 79.5l-150 47q-160 50 -247.5 152.5t-87.5 241.5q0 130 73.5 234.5t203.5 163.5t291 59q237 0 389.5 -124.5t159.5 -322.5h-285q-14 91 -89.5 146.5t-186.5 55.5q-106 0 -177.5 -50 t-71.5 -126q0 -61 46.5 -105.5t147.5 -76.5l148 -46q184 -58 270 -152t86 -240q0 -214 -165.5 -345t-434.5 -131q-248 0 -402.5 120t-167.5 329z" />
<glyph unicode="&#x406;" horiz-adv-x="673" d="M110 0l307 1443h304l-307 -1443h-304z" />
<glyph unicode="&#x407;" horiz-adv-x="674" d="M110 0l307 1443h304l-307 -1443h-304zM241 1731q0 66 44 108.5t112 42.5q67 0 111 -42.5t44 -108.5t-44 -109t-111 -43q-68 0 -112 43t-44 109zM709 1731q0 66 44 108.5t111 42.5q68 0 112 -42.5t44 -108.5t-44 -109t-112 -43q-67 0 -111 43t-44 109z" />
<glyph unicode="&#x408;" horiz-adv-x="1251" d="M95 382q0 21 1 31h293v-9q1 -77 49.5 -122t130.5 -45q167 0 212 209l213 997h302l-222 -1042q-44 -213 -176.5 -325.5t-341.5 -112.5q-210 0 -338 116.5t-123 302.5z" />
<glyph unicode="&#x409;" horiz-adv-x="2243" d="M-25 0l56 272q37 -8 66 -8q51 0 92 24t72.5 70.5t54 102.5t43.5 133l224 849h993l-99 -459h207q228 0 360 -116t132 -320q0 -236 -169 -392t-443 -156h-599l254 1185h-418l-167 -612q-31 -118 -64.5 -205.5t-80 -162t-103 -121t-133 -72t-172.5 -25.5q-67 0 -106 13z M1319 245h238q136 0 225 77.5t89 195.5q0 107 -66.5 162.5t-183.5 55.5h-195z" />
<glyph unicode="&#x40a;" horiz-adv-x="2267" d="M110 0l307 1443h304l-123 -571h583l123 571h304l-123 -571h231q218 0 346.5 -102t128.5 -276q0 -214 -163 -354t-432 -140h-599l132 620h-583l-133 -620h-303zM1351 245h243q131 0 210.5 60.5t79.5 156.5q0 84 -60 125.5t-165 41.5h-224z" />
<glyph unicode="&#x40b;" horiz-adv-x="1814" d="M281 1185l53 258h1148l-53 -258h-422l-87 -397h17q147 118 337 118q159 0 261.5 -71t136 -191.5t0.5 -272.5l-79 -371h-304l80 373q27 122 -25 194.5t-175 72.5q-93 0 -176 -44.5t-136 -113.5l-104 -482h-304l254 1185h-422z" />
<glyph unicode="&#x40c;" horiz-adv-x="1459" d="M110 0l307 1443h304l-129 -605h46l619 605h358l-744 -726l456 -717h-341l-396 598h-47l-129 -598h-304zM843 1573l343 318h315l-381 -318h-277z" />
<glyph unicode="&#x40e;" horiz-adv-x="1427" d="M198 1l52 255q27 -9 84 -9q134 0 221 101l-243 1095h317l140 -786h18l468 786h329l-674 -1048q-67 -104 -125.5 -174.5t-129.5 -126t-154.5 -81.5t-185.5 -26q-82 0 -117 14zM643 1915h219q-13 -72 22.5 -114.5t106.5 -42.5q70 0 122.5 42.5t68.5 114.5h218 q-32 -154 -147.5 -238t-281.5 -84q-173 0 -266 91t-62 231z" />
<glyph unicode="&#x40f;" horiz-adv-x="1609" d="M110 0l307 1443h302l-254 -1184h633l254 1184h304l-307 -1443h-478l-61 -285h-283l61 285h-478z" />
<glyph unicode="&#x410;" horiz-adv-x="1521" d="M7 0l820 1443h349l187 -1443h-311l-35 344h-509l-186 -344h-315zM622 577h381l-58 565h-19z" />
<glyph unicode="&#x411;" horiz-adv-x="1401" d="M111 0l306 1443h965l-54 -258h-659l-62 -281h223q228 0 360 -103.5t132 -284.5q0 -223 -169 -369.5t-443 -146.5h-599zM465 245h238q136 0 225 68.5t89 171.5q0 89 -64 135.5t-177 46.5h-218z" />
<glyph unicode="&#x412;" horiz-adv-x="1441" d="M111 0l307 1443h589q186 0 299.5 -85.5t113.5 -225.5q0 -142 -91.5 -245.5t-234.5 -123.5l-2 -19q119 -22 188.5 -99t69.5 -189q0 -200 -154 -328t-394 -128h-691zM463 237h287q129 0 212 66t83 169q0 84 -60.5 129.5t-173.5 45.5h-259zM595 851h240q124 0 202.5 60 t78.5 154q0 75 -55.5 114.5t-160.5 39.5h-225z" />
<glyph unicode="&#x413;" horiz-adv-x="1224" d="M110 0l307 1443h936l-54 -258h-631l-254 -1185h-304z" />
<glyph unicode="&#x414;" horiz-adv-x="1601" d="M-96 -285l114 543h101q83 51 131.5 137.5t90.5 241.5l224 806h1028l-254 -1185h180l-114 -543h-273l61 285h-954l-61 -285h-274zM449 258h586l201 928h-457l-163 -574q-35 -126 -72.5 -205.5t-90.5 -130.5z" />
<glyph unicode="&#x415;" horiz-adv-x="1294" d="M110 0l307 1443h956l-53 -258h-652l-75 -337h616l-50 -239h-615l-78 -351h653l-52 -258h-957z" />
<glyph unicode="&#x416;" horiz-adv-x="2173" d="M-20 0l741 762l-369 681h318l325 -609h48l131 609h297l-131 -609h49l585 609h358l-709 -735l401 -708h-341l-341 598h-50l-128 -598h-297l128 598h-50l-597 -598h-368z" />
<glyph unicode="&#x417;" horiz-adv-x="1363" d="M125 427h286q-2 -95 64.5 -154t191.5 -59q130 0 211 62.5t81 158.5q0 90 -61 135.5t-178 45.5h-187l50 244h202q120 0 197 57.5t77 147.5q0 81 -54 127t-155 46q-107 0 -187 -55t-106 -148h-279q48 207 208.5 326t393.5 119q227 0 353.5 -104t126.5 -268 q0 -146 -95 -244.5t-250 -122.5l-5 -18q123 -21 191.5 -96t68.5 -194q0 -198 -169 -334t-443 -136q-258 0 -399.5 127t-133.5 337z" />
<glyph unicode="&#x418;" horiz-adv-x="1629" d="M110 0l307 1443h298l-208 -961h18l858 961h293l-307 -1443h-298l208 959h-18l-858 -959h-293z" />
<glyph unicode="&#x419;" horiz-adv-x="1629" d="M110 0l307 1443h298l-208 -961h18l858 961h293l-307 -1443h-298l208 959h-18l-858 -959h-293zM724 1915h219q-13 -72 22.5 -114.5t106.5 -42.5q70 0 122.5 42.5t68.5 114.5h218q-32 -154 -147.5 -238t-281.5 -84q-173 0 -266 91t-62 231z" />
<glyph unicode="&#x41a;" horiz-adv-x="1464" d="M110 0l307 1443h304l-129 -605h46l619 605h358l-744 -726l456 -717h-341l-396 598h-47l-129 -598h-304z" />
<glyph unicode="&#x41b;" horiz-adv-x="1534" d="M-25 0l56 272q37 -8 66 -8q97 0 158 85.5t104 244.5l224 849h998l-307 -1443h-304l253 1185h-422l-167 -612q-39 -147 -83 -249t-108.5 -181t-154 -117.5t-207.5 -38.5q-67 0 -106 13z" />
<glyph unicode="&#x41c;" horiz-adv-x="1900" d="M110 0l307 1443h347l188 -970h18l608 970h368l-307 -1443h-281l207 965h-16l-558 -882h-201l-175 882h-16l-207 -965h-282z" />
<glyph unicode="&#x41d;" horiz-adv-x="1626" d="M110 0l307 1443h304l-125 -582h648l125 582h304l-307 -1443h-305l129 603h-648l-129 -603h-303z" />
<glyph unicode="&#x41e;" horiz-adv-x="1654" d="M196 576q0 157 39 297.5t110.5 250.5t168.5 190.5t218 123t254 42.5q282 0 452 -173t170 -440q0 -197 -60.5 -366t-165 -287t-250 -184.5t-312.5 -66.5q-185 0 -328 80t-219.5 219.5t-76.5 313.5zM506 598q0 -165 89.5 -265t236.5 -100q129 0 236 79.5t168.5 220 t61.5 311.5q0 165 -89 265t-235 100q-129 0 -236.5 -80.5t-169.5 -221t-62 -309.5z" />
<glyph unicode="&#x41f;" horiz-adv-x="1609" d="M110 0l307 1443h1239l-307 -1443h-302l253 1184h-633l-253 -1184h-304z" />
<glyph unicode="&#x420;" horiz-adv-x="1401" d="M111 0l306 1443h527q214 0 343.5 -115.5t129.5 -306.5q0 -263 -172.5 -418t-451.5 -155h-282l-97 -448h-303zM560 693h229q145 0 233 81.5t88 217.5q0 99 -62.5 151t-175.5 52h-202z" />
<glyph unicode="&#x421;" horiz-adv-x="1561" d="M204 591q0 256 99 459t276 316.5t400 113.5q256 0 422.5 -147t166.5 -373v-17h-298q-9 124 -91 196.5t-215 72.5q-127 0 -231.5 -79t-164.5 -218t-60 -307q0 -176 86 -278t234 -102q123 0 213.5 63.5t127.5 175.5h301q-54 -234 -234.5 -370t-440.5 -136 q-271 0 -431 170.5t-160 459.5z" />
<glyph unicode="&#x422;" horiz-adv-x="1373" d="M280 1185l53 258h1168l-53 -258h-432l-254 -1185h-304l254 1185h-432z" />
<glyph unicode="&#x423;" horiz-adv-x="1427" d="M198 1l52 255q27 -9 84 -9q134 0 221 101l-243 1095h317l140 -786h18l468 786h329l-674 -1048q-67 -104 -125.5 -174.5t-129.5 -126t-154.5 -81.5t-185.5 -26q-82 0 -117 14z" />
<glyph unicode="&#x424;" horiz-adv-x="1866" d="M185 636q0 297 222 486.5t583 201.5l32 150h299l-32 -150q255 -10 402.5 -148.5t147.5 -366.5q0 -295 -222 -484.5t-583 -201.5l-33 -154h-299l33 154q-255 10 -402.5 148t-147.5 365zM495 647q0 -122 77.5 -194t215.5 -79l153 700q-195 -11 -320.5 -130t-125.5 -297z M1083 374q195 10 321 128.5t126 291.5q0 126 -77.5 199t-216.5 80z" />
<glyph unicode="&#x425;" horiz-adv-x="1514" d="M24 0l628 744l-309 699h340l211 -494h18l399 494h338l-635 -732l322 -711h-333l-221 485h-18l-409 -485h-331z" />
<glyph unicode="&#x426;" horiz-adv-x="1664" d="M110 0l308 1443h302l-254 -1184h633l254 1184h303l-254 -1185h180l-114 -543h-273l61 285h-1146z" />
<glyph unicode="&#x427;" horiz-adv-x="1520" d="M287 1062l81 381h302l-82 -383q-29 -137 28 -217t196 -80q110 0 200 44t142 116l111 520h302l-307 -1443h-302l131 612h-18q-161 -118 -356 -118q-239 0 -360 159t-68 409z" />
<glyph unicode="&#x428;" horiz-adv-x="2098" d="M110 0l307 1443h304l-254 -1185h408l254 1185h304l-254 -1185h408l254 1185h304l-307 -1443h-1728z" />
<glyph unicode="&#x429;" horiz-adv-x="2154" d="M111 0l307 1443h304l-255 -1185h408l255 1185h304l-255 -1185h408l255 1185h304l-255 -1185h180l-113 -543h-274l61 285h-1634z" />
<glyph unicode="&#x42a;" horiz-adv-x="1605" d="M246 1186l53 257h639l-99 -459h207q228 0 360 -116t132 -320q0 -236 -169 -392t-443 -156h-599l254 1186h-335zM681 245h238q136 0 225 77.5t89 195.5q0 107 -66.5 162.5t-183.5 55.5h-195z" />
<glyph unicode="&#x42b;" horiz-adv-x="1934" d="M110 0l307 1443h304l-99 -459h207q228 0 360.5 -116t132.5 -320q0 -236 -169.5 -392t-442.5 -156h-600zM465 245h238q136 0 225 77.5t89 195.5q0 107 -66.5 162.5t-183.5 55.5h-195zM1370 0l307 1443h304l-307 -1443h-304z" />
<glyph unicode="&#x42c;" horiz-adv-x="1388" d="M110 0l307 1443h304l-99 -459h207q228 0 360.5 -116t132.5 -320q0 -236 -169.5 -392t-442.5 -156h-600zM465 245h238q136 0 225 77.5t89 195.5q0 107 -66.5 162.5t-183.5 55.5h-195z" />
<glyph unicode="&#x42d;" horiz-adv-x="1557" d="M154 478h298q12 -114 92 -180.5t202 -66.5q156 0 271.5 103.5t157.5 275.5h-575l51 241h554q7 170 -75.5 266.5t-233.5 96.5q-127 0 -219 -70.5t-136 -193.5h-297q60 249 243 389.5t441 140.5q297 0 453 -197t114 -542q-32 -348 -240 -563t-528 -215q-244 0 -404.5 142 t-168.5 373z" />
<glyph unicode="&#x42e;" horiz-adv-x="2210" d="M110 0l307 1443h304l-125 -582h211q71 279 272 449t477 170q270 0 438.5 -171t168.5 -455q0 -247 -98 -450.5t-276 -322t-401 -118.5q-276 0 -444.5 168.5t-168.5 461.5v10h-232l-130 -603h-303zM1083 612q0 -179 86.5 -282t226.5 -103q125 0 231 83t167 223t61 302 q0 176 -86.5 278.5t-225.5 102.5q-126 0 -232 -80.5t-167 -219.5t-61 -304z" />
<glyph unicode="&#x42f;" horiz-adv-x="1453" d="M13 0l498 562q-111 49 -171.5 142.5t-60.5 219.5q0 108 45 203.5t124.5 165t195.5 110t252 40.5h604l-307 -1443h-304l109 507h-173l-451 -507h-361zM584 941q0 -99 66.5 -151t183.5 -52h212l100 460h-248q-136 0 -225 -73t-89 -184z" />
<glyph unicode="&#x430;" horiz-adv-x="1222" d="M93 284q0 168 129.5 266.5t361.5 105.5l274 9l15 68q5 25 5 40q0 57 -49 90.5t-133 33.5q-147 0 -192 -98h-275q35 151 167.5 239.5t320.5 88.5q202 0 325 -89.5t123 -235.5q0 -50 -9 -89l-151 -713h-283l29 136h-18q-47 -71 -131 -112t-181 -41q-140 0 -234 86t-94 215z M379 326q0 -55 46 -89.5t119 -34.5q93 0 165 52t90 132l21 95l-228 -8q-100 -4 -156.5 -43t-56.5 -104z" />
<glyph unicode="&#x431;" horiz-adv-x="1310" d="M158 411q-13 161 42 379q40 164 94 281.5t136.5 208.5t201 138.5t275.5 53.5l148 6q77 3 151.5 14t110 19.5t37.5 10.5l-48 -235q-10 -4 -29.5 -11t-92 -20t-159.5 -16l-143 -5q-94 -3 -165 -28.5t-121.5 -74t-85.5 -109.5t-65 -149h18q128 190 355 190q199 0 312.5 -124 t113.5 -326q0 -135 -42.5 -253t-120 -205t-194 -137t-256.5 -50q-200 0 -328 120t-145 322zM440 460q0 -114 57 -179.5t157 -65.5q120 0 205.5 105.5t85.5 256.5q0 122 -55.5 191.5t-153.5 69.5q-130 0 -213 -108.5t-83 -269.5z" />
<glyph unicode="&#x432;" horiz-adv-x="1229" d="M77 0l234 1103h531q157 0 244.5 -66.5t87.5 -183.5q0 -97 -74.5 -171t-181.5 -90l-4 -18q98 -11 153.5 -67.5t55.5 -141.5q0 -161 -132 -263t-350 -102h-564zM405 192h204q98 0 158 46.5t60 119.5q0 124 -171 124h-188zM504 657h171q95 0 147.5 42.5t52.5 106.5 q0 105 -138 105h-177z" />
<glyph unicode="&#x433;" horiz-adv-x="998" d="M77 0l234 1103h756l-47 -229h-463l-187 -874h-293z" />
<glyph unicode="&#x434;" horiz-adv-x="1370" d="M-99 -285l109 514h85q118 62 189 321l156 553h877l-186 -874h164l-108 -514h-266l61 285h-753l-61 -285h-267zM399 229h440l140 646h-339l-101 -345q-54 -187 -137 -283z" />
<glyph unicode="&#x435;" horiz-adv-x="1268" d="M144 450q0 302 166 489.5t431 187.5q201 0 333 -127t132 -335q0 -82 -17 -180h-770q0 -4 -0.5 -15.5t-0.5 -15.5q0 -122 66 -186.5t166 -64.5q163 0 218 114h280q-38 -154 -176.5 -247.5t-339.5 -93.5q-218 0 -353 127t-135 347zM451 669h479q3 18 3 38q0 85 -55 140.5 t-149 55.5q-99 0 -174 -64t-104 -170z" />
<glyph unicode="&#x436;" horiz-adv-x="1767" d="M-36 0l533 613l-237 490h296l203 -434h55l92 434h287l-93 -434h52l391 434h334l-493 -535l270 -568h-319l-223 462h-54l-99 -462h-287l99 462h-58l-403 -462h-346z" />
<glyph unicode="&#x437;" horiz-adv-x="1190" d="M111 376h276q5 -78 58 -120t139 -42q91 0 148.5 40t58.5 106q2 54 -37.5 80.5t-122.5 26.5h-154l42 196h146q85 0 131.5 37t47.5 91q2 50 -33.5 77t-108.5 27q-169 0 -233 -151h-274q55 178 196 280.5t350 102.5q190 0 296.5 -79t104.5 -212q-1 -89 -61.5 -157.5 t-149.5 -86.5l-4 -19q79 -22 120 -76.5t39 -133.5q-2 -165 -144 -276t-364 -111q-206 0 -335 110.5t-132 289.5z" />
<glyph unicode="&#x438;" horiz-adv-x="1340" d="M77 0l234 1103h287l-147 -675h18l590 675h288l-234 -1103h-287l148 685h-18l-590 -685h-289z" />
<glyph unicode="&#x439;" horiz-adv-x="1340" d="M77 0l234 1103h287l-147 -675h18l590 675h288l-234 -1103h-287l148 685h-18l-590 -685h-289zM526 1616h215q-15 -81 17.5 -132.5t105.5 -51.5q75 0 130.5 52t72.5 132h218q-34 -162 -148 -256t-297 -94q-168 0 -257.5 98.5t-56.5 251.5z" />
<glyph unicode="&#x43a;" horiz-adv-x="1196" d="M77 0l234 1103h293l-92 -430h47l410 430h335l-528 -527l306 -576h-324l-240 457h-50l-98 -457h-293z" />
<glyph unicode="&#x43b;" horiz-adv-x="1273" d="M-28 0l53 256q25 -7 62 -7q68 0 119 72.5t91 218.5l153 563h830l-234 -1103h-293l187 874h-287l-101 -357q-39 -142 -80 -236.5t-98.5 -163t-132.5 -99.5t-177 -31q-55 0 -92 13z" />
<glyph unicode="&#x43c;" horiz-adv-x="1652" d="M77 0l234 1103h377l136 -706h18l443 706h374l-234 -1103h-276l156 731h-18l-423 -669h-203l-135 669h-19l-156 -731h-274z" />
<glyph unicode="&#x43d;" horiz-adv-x="1322" d="M77 0l234 1103h293l-90 -423h432l90 423h293l-234 -1103h-293l97 451h-432l-97 -451h-293z" />
<glyph unicode="&#x43e;" horiz-adv-x="1320" d="M151 458q0 185 77.5 337.5t221 242t324.5 89.5q222 0 356 -133t134 -350q0 -183 -76.5 -335t-219.5 -242.5t-324 -90.5q-222 0 -357.5 132.5t-135.5 349.5zM454 467q0 -115 55 -183.5t152 -68.5q120 0 209 120.5t89 292.5q0 123 -53 192t-148 69q-132 0 -218 -122 t-86 -300z" />
<glyph unicode="&#x43f;" horiz-adv-x="1312" d="M77 0l234 1103h1008l-234 -1103h-293l187 874h-422l-187 -874h-293z" />
<glyph unicode="&#x440;" horiz-adv-x="1348" d="M3 -345l309 1448h283l-33 -153h18q59 80 146 125.5t194 45.5q167 0 272.5 -115.5t105.5 -306.5q0 -203 -73 -367t-199.5 -256.5t-281.5 -92.5q-118 0 -201.5 59.5t-111.5 157.5h-18l-118 -545h-292zM474 465q0 -111 58 -173t153 -62q131 0 221 120.5t90 298.5 q0 111 -56 171t-150 60q-131 0 -223.5 -122.5t-92.5 -292.5z" />
<glyph unicode="&#x441;" horiz-adv-x="1230" d="M148 474q0 136 42.5 255.5t119 207t189.5 138.5t247 51q204 0 327 -110t134 -291h-275q-8 71 -61.5 116.5t-130.5 45.5q-137 0 -221 -116.5t-84 -288.5q0 -127 55 -196t160 -69q75 0 132.5 43.5t89.5 115.5h279q-57 -189 -191 -294.5t-330 -105.5q-236 0 -359 130 t-123 368z" />
<glyph unicode="&#x442;" horiz-adv-x="1056" d="M167 874l47 229h946l-47 -229h-326l-187 -874h-293l187 874h-327z" />
<glyph unicode="&#x443;" horiz-adv-x="1228" d="M9 -398l46 235q20 -6 81 -6q151 0 211 122l22 44l-144 1106h297l64 -822h18l405 822h312l-630 -1143q-106 -200 -231.5 -281.5t-318.5 -81.5q-62 0 -132 5z" />
<glyph unicode="&#x444;" horiz-adv-x="1726" d="M140 455q0 139 49.5 259t142 209.5t233 142.5t312.5 56l71 335h289l-72 -335q223 -8 359 -134.5t136 -339.5q0 -139 -49.5 -259t-141.5 -209.5t-232.5 -142t-312.5 -55.5l-70 -327h-289l70 327q-223 7 -359 134t-136 339zM439 480q0 -125 65.5 -196t179.5 -75l147 685 q-93 -4 -169 -41t-124 -95t-73.5 -129.5t-25.5 -148.5zM969 209q123 5 214.5 67t135 153t43.5 194q0 125 -66 196.5t-180 74.5z" />
<glyph unicode="&#x445;" horiz-adv-x="1211" d="M2 0l463 552l-231 551h318l129 -358h18l270 358h325l-466 -554l235 -549h-307l-140 354h-18l-277 -354h-319z" />
<glyph unicode="&#x446;" horiz-adv-x="1373" d="M77 0l234 1103h293l-187 -874h422l187 874h293l-187 -874h166l-108 -514h-266l61 285h-908z" />
<glyph unicode="&#x447;" horiz-adv-x="1260" d="M219 794l65 309h293l-64 -297q-21 -99 17.5 -153t131.5 -54q72 0 130.5 32t97.5 77l84 395h293l-234 -1103h-293l99 467h-18q-123 -119 -291 -119q-179 0 -266 121.5t-45 324.5z" />
<glyph unicode="&#x448;" horiz-adv-x="1809" d="M77 0l234 1103h294l-187 -874h313l186 874h293l-186 -874h313l186 874h293l-234 -1103h-1505z" />
<glyph unicode="&#x449;" horiz-adv-x="1865" d="M77 0l234 1103h294l-187 -874h313l186 874h293l-186 -874h313l186 874h293l-186 -874h159l-108 -514h-266l61 285h-1399z" />
<glyph unicode="&#x44a;" horiz-adv-x="1348" d="M152 874l47 229h576l-68 -318h192q172 0 274 -89t102 -233q0 -198 -146.5 -330.5t-373.5 -132.5h-507l187 874h-283zM589 229h168q97 0 160 58.5t63 142.5q0 60 -40 94.5t-111 34.5h-168z" />
<glyph unicode="&#x44b;" horiz-adv-x="1642" d="M77 0l234 1103h293l-68 -318h190q172 0 274 -89t102 -233q0 -198 -146.5 -330.5t-373.5 -132.5h-505zM418 229h166q97 0 160 58.5t63 142.5q0 60 -40 94.5t-111 34.5h-166zM1122 0l234 1103h293l-234 -1103h-293z" />
<glyph unicode="&#x44c;" horiz-adv-x="1175" d="M77 0l234 1103h293l-68 -318h190q172 0 274 -89t102 -233q0 -198 -146.5 -330.5t-373.5 -132.5h-505zM418 229h166q97 0 160 58.5t63 142.5q0 60 -40 94.5t-111 34.5h-166z" />
<glyph unicode="&#x44d;" horiz-adv-x="1256" d="M121 376h275q6 -73 56.5 -116.5t132.5 -43.5q108 0 184.5 70t97.5 179h-405l41 196h390q1 106 -56 165.5t-156 59.5q-80 0 -140 -42.5t-94 -118.5h-273q53 191 190 296.5t342 105.5q221 0 348.5 -128.5t127.5 -349.5q0 -193 -73 -345t-211.5 -240t-319.5 -88 q-212 0 -330.5 107t-126.5 293z" />
<glyph unicode="&#x44e;" horiz-adv-x="1820" d="M77 0l234 1103h293l-90 -423h164q57 202 210.5 324.5t368.5 122.5q222 0 352 -134t130 -360q0 -187 -73 -337t-212.5 -238.5t-321.5 -88.5q-214 0 -343.5 122.5t-139.5 331.5q0 5 0.5 14.5t0.5 13.5h-183l-97 -451h-293zM946 477q0 -120 55.5 -191t153.5 -71 q115 0 200 114.5t85 281.5q0 129 -54.5 203.5t-149.5 74.5q-128 0 -209 -118.5t-81 -293.5z" />
<glyph unicode="&#x44f;" horiz-adv-x="1211" d="M-5 0l379 410q-84 39 -130.5 110t-46.5 165q0 84 34.5 159t98.5 133t163 92t220 34h507l-234 -1103h-293l77 356h-107l-320 -356h-348zM491 696q0 -60 40.5 -94.5t112.5 -34.5h169l68 308h-169q-98 0 -159.5 -51.5t-61.5 -127.5z" />
<glyph unicode="&#x451;" horiz-adv-x="1268" d="M144 450q0 302 166 489.5t431 187.5q201 0 333 -127t132 -335q0 -82 -17 -180h-770q0 -4 -0.5 -15.5t-0.5 -15.5q0 -122 66 -186.5t166 -64.5q163 0 218 114h280q-38 -154 -176.5 -247.5t-339.5 -93.5q-218 0 -353 127t-135 347zM409 1403q0 66 44 108.5t112 42.5 q67 0 111 -42.5t44 -108.5t-44 -109t-111 -43q-68 0 -112 43t-44 109zM451 669h479q3 18 3 38q0 85 -55 140.5t-149 55.5q-99 0 -174 -64t-104 -170zM877 1403q0 66 44 108.5t111 42.5q68 0 112 -42.5t44 -108.5t-44 -109t-112 -43q-67 0 -111 43t-44 109z" />
<glyph unicode="&#x452;" horiz-adv-x="1362" d="M90 0l269 1260h-177l33 158h177l21 97h291l-21 -97h218l-33 -158h-219l-69 -316h18q127 183 346 183q149 0 244.5 -90t95.5 -238q0 -57 -14 -125l-152 -717q-70 -331 -425 -331q-97 0 -115 3l49 230q6 -1 51 -1q127 0 152 118l139 654q8 36 9 73q1 84 -52.5 132 t-137.5 48q-97 0 -170 -60.5t-98 -172.5l-138 -650h-292z" />
<glyph unicode="&#x453;" horiz-adv-x="1006" d="M82 0l234 1103h756l-47 -229h-463l-187 -874h-293zM561 1281l323 353h310l-361 -353h-272z" />
<glyph unicode="&#x454;" horiz-adv-x="1233" d="M148 474q0 136 43 255.5t120 207t190.5 138.5t247.5 51q204 0 327 -110t134 -291h-275q-8 71 -61.5 116.5t-130.5 45.5q-105 0 -181 -63t-98 -161h407l-40 -196h-395q-2 -118 54 -184t163 -66q75 0 132.5 43.5t89.5 115.5h279q-57 -189 -191 -294.5t-330 -105.5 q-237 0 -361 130.5t-124 367.5z" />
<glyph unicode="&#x455;" horiz-adv-x="1166" d="M93 318h281q12 -57 68 -93t137 -36q85 0 136.5 32t51.5 85q0 36 -25.5 61t-87.5 45l-172 60q-132 45 -196 117.5t-64 180.5q0 161 126.5 259t330.5 98q200 0 322.5 -89.5t133.5 -238.5h-267q-10 52 -61.5 83.5t-127.5 31.5q-77 0 -126.5 -32t-49.5 -82q0 -36 29 -62 t93 -47l179 -63q134 -46 194.5 -115t60.5 -175q0 -162 -133 -262t-348 -100q-212 0 -345.5 94.5t-139.5 247.5z" />
<glyph unicode="&#x456;" horiz-adv-x="620" d="M88 0l235 1103h293l-235 -1103h-293zM362 1400q0 65 47.5 108t124.5 43t124.5 -40t47.5 -102q0 -65 -47.5 -108.5t-124.5 -43.5t-124.5 40.5t-47.5 102.5z" />
<glyph unicode="&#x457;" horiz-adv-x="608" d="M98 0l234 1103h291l-234 -1103h-291zM151 1403q0 66 44 108.5t112 42.5q67 0 111 -42.5t44 -108.5t-44 -109t-111 -43q-68 0 -112 43t-44 109zM619 1403q0 66 44 108.5t111 42.5q68 0 112 -42.5t44 -108.5t-44 -109t-112 -43q-67 0 -111 43t-44 109z" />
<glyph unicode="&#x458;" horiz-adv-x="604" d="M-171 -362l48 226q26 -6 63 -6q62 0 96.5 29t48.5 91l240 1125h291l-247 -1158q-33 -154 -139 -236t-270 -83q-61 0 -131 12zM363 1400q0 65 47.5 108t124.5 43t124.5 -40t47.5 -102q0 -65 -47.5 -108.5t-124.5 -43.5t-124.5 40.5t-47.5 102.5z" />
<glyph unicode="&#x459;" horiz-adv-x="1850" d="M-28 0l53 256q25 -7 62 -7q130 0 208 283l155 571h830l-69 -318h190q172 0 274 -89t102 -233q0 -198 -146.5 -330.5t-373.5 -132.5h-505l187 874h-286l-101 -358q-39 -143 -80 -238t-98 -163t-132.5 -98t-177.5 -30q-55 0 -92 13zM1093 229h166q97 0 160 58.5t63 142.5 q0 60 -40 94.5t-111 34.5h-166z" />
<glyph unicode="&#x45a;" horiz-adv-x="1899" d="M77 0l234 1103h293l-84 -392h427l84 392h293l-83 -389h187q180 0 284 -84.5t104 -219.5q0 -173 -143 -291.5t-371 -118.5h-505l104 487h-427l-104 -487h-293zM1136 224h166q98 0 158.5 46t60.5 112q0 53 -38 81.5t-108 28.5h-180z" />
<glyph unicode="&#x45b;" horiz-adv-x="1356" d="M85 0l269 1260h-172l33 158h172l21 97h292l-21 -97h217l-33 -158h-218l-70 -323h18q119 187 343 187q154 0 248.5 -90.5t94.5 -226.5q0 -58 -14 -131l-142 -676h-291l132 628q10 48 10 84q0 78 -53.5 124.5t-139.5 46.5q-98 0 -170.5 -62.5t-93.5 -161.5l-140 -659h-292z " />
<glyph unicode="&#x45c;" horiz-adv-x="1199" d="M77 0l234 1103h293l-92 -430h47l410 430h335l-528 -527l306 -576h-324l-240 457h-50l-98 -457h-293zM645 1281l323 353h310l-361 -353h-272z" />
<glyph unicode="&#x45e;" horiz-adv-x="1228" d="M9 -398l46 235q20 -6 81 -6q151 0 211 122l22 44l-144 1106h297l64 -822h18l405 822h312l-630 -1143q-106 -200 -231.5 -281.5t-318.5 -81.5q-62 0 -132 5zM474 1616h215q-15 -81 17.5 -132.5t105.5 -51.5q75 0 130.5 52t72.5 132h218q-34 -162 -148 -256t-297 -94 q-168 0 -257.5 98.5t-56.5 251.5z" />
<glyph unicode="&#x45f;" horiz-adv-x="1312" d="M77 0l234 1103h293l-187 -874h422l187 874h293l-234 -1103h-371l-61 -285h-266l61 285h-371z" />
<glyph unicode="&#x490;" horiz-adv-x="1225" d="M110 0l307 1443h653l60 285h283l-113 -543h-632l-253 -1185h-305z" />
<glyph unicode="&#x491;" horiz-adv-x="998" d="M77 0l234 1103h490l61 285h266l-108 -514h-463l-187 -874h-293z" />
<glyph unicode="&#x2000;" horiz-adv-x="1028" />
<glyph unicode="&#x2001;" horiz-adv-x="2057" />
<glyph unicode="&#x2002;" horiz-adv-x="1028" />
<glyph unicode="&#x2003;" horiz-adv-x="2057" />
<glyph unicode="&#x2004;" horiz-adv-x="685" />
<glyph unicode="&#x2005;" horiz-adv-x="514" />
<glyph unicode="&#x2006;" horiz-adv-x="342" />
<glyph unicode="&#x2007;" horiz-adv-x="342" />
<glyph unicode="&#x2008;" horiz-adv-x="257" />
<glyph unicode="&#x2009;" horiz-adv-x="411" />
<glyph unicode="&#x200a;" horiz-adv-x="114" />
<glyph unicode="&#x2010;" horiz-adv-x="992" d="M188 446l57 273h657l-57 -273h-657z" />
<glyph unicode="&#x2011;" horiz-adv-x="992" d="M188 446l57 273h657l-57 -273h-657z" />
<glyph unicode="&#x2012;" horiz-adv-x="992" d="M188 446l57 273h657l-57 -273h-657z" />
<glyph unicode="&#x2013;" horiz-adv-x="1139" d="M21 446l56 273h1139l-56 -273h-1139z" />
<glyph unicode="&#x2014;" horiz-adv-x="2048" d="M21 446l56 273h2048l-56 -273h-2048z" />
<glyph unicode="&#x2018;" horiz-adv-x="650" d="M365 831l1 612h275l-21 -612h-255z" />
<glyph unicode="&#x2019;" horiz-adv-x="651" d="M237 831l237 612h275l-262 -612h-250z" />
<glyph unicode="&#x201a;" horiz-adv-x="650" d="M-36 -446l237 613h275l-261 -613h-251z" />
<glyph unicode="&#x201c;" horiz-adv-x="1129" d="M350 831l1 612h270l-21 -612h-250zM834 831l1 612h270l-21 -612h-250z" />
<glyph unicode="&#x201d;" horiz-adv-x="1130" d="M237 831l237 612h270l-257 -612h-250zM721 831l237 612h270l-257 -612h-250z" />
<glyph unicode="&#x201e;" horiz-adv-x="1129" d="M-36 -446l237 613h270l-256 -613h-251zM449 -446l236 613h270l-256 -613h-250z" />
<glyph unicode="&#x2020;" horiz-adv-x="1032" d="M225 855l52 258h271l65 306h259l-65 -306h270l-52 -258h-271l-123 -575h-259l123 575h-270z" />
<glyph unicode="&#x2021;" horiz-adv-x="1032" d="M149 502l48 231h271l51 238h-271l47 231h270l47 217h259l-47 -217h271l-47 -231h-272l-51 -238h272l-48 -231h-271l-48 -222h-259l48 222h-270z" />
<glyph unicode="&#x2022;" horiz-adv-x="1032" d="M228 582q0 142 98.5 241t238.5 99t238.5 -99t98.5 -241t-98.5 -241.5t-238.5 -99.5t-238.5 99.5t-98.5 241.5z" />
<glyph unicode="&#x2026;" horiz-adv-x="1845" d="M122 141q0 78 49 128.5t128 50.5t128 -49t49 -119q0 -77 -49 -128t-128 -51q-78 0 -127.5 49.5t-49.5 118.5zM689 141q0 78 49 128.5t128 50.5t128 -49t49 -119q0 -77 -49 -128t-128 -51q-78 0 -127.5 49.5t-49.5 118.5zM1250 141q0 78 49 128.5t128 50.5t128 -49 t49 -119q0 -77 -49 -128t-128 -51q-78 0 -127.5 49.5t-49.5 118.5z" />
<glyph unicode="&#x202f;" horiz-adv-x="411" />
<glyph unicode="&#x2030;" horiz-adv-x="2653" d="M251 0l731 761l579 682h314l-744 -770l-566 -673h-314zM323 1064q0 174 108 293t266 119q140 0 223.5 -87t83.5 -234q0 -174 -108.5 -293.5t-266.5 -119.5q-140 0 -223 87.5t-83 234.5zM544 1066q0 -61 25 -96t69 -35q59 0 102 65t43 156q0 61 -24.5 95t-67.5 34 q-60 0 -103.5 -65t-43.5 -154zM1118 289q0 174 108.5 293t266.5 119q140 0 223.5 -87.5t83.5 -234.5q0 -173 -109 -293t-267 -120q-140 0 -223 87.5t-83 235.5zM1340 290q0 -61 25 -95.5t68 -34.5q60 0 103 65t43 155q0 61 -24.5 95t-67.5 34q-60 0 -103.5 -65t-43.5 -154z M1891 289q0 174 108 293t266 119q140 0 223.5 -87.5t83.5 -234.5q0 -173 -109 -293t-266 -120q-140 0 -223 87.5t-83 235.5zM2112 290q0 -61 25 -95.5t69 -34.5q59 0 102 65t43 155q0 61 -24.5 95t-67.5 34q-60 0 -103.5 -65t-43.5 -154z" />
<glyph unicode="&#x2039;" horiz-adv-x="936" d="M185 562l2 8l421 411h293l-443 -426l-2 -11l254 -393h-264z" />
<glyph unicode="&#x203a;" horiz-adv-x="935" d="M123 151l443 426l2 11l-253 393h264l261 -411l-2 -8l-422 -411h-293z" />
<glyph unicode="&#x2044;" horiz-adv-x="653" d="M-237 0l552 756l455 687h276l-556 -749l-450 -694h-277z" />
<glyph unicode="&#x205f;" horiz-adv-x="514" />
<glyph unicode="&#x2070;" horiz-adv-x="1004" d="M287 1264q0 257 135 421.5t344 164.5q169 0 265 -104t96 -287q0 -256 -137 -423t-345 -167q-167 0 -262.5 105.5t-95.5 289.5zM557 1249q0 -79 26.5 -123.5t74.5 -44.5q77 0 138 119.5t61 271.5q0 79 -27.5 123.5t-75.5 44.5q-77 0 -137 -118.5t-60 -272.5z" />
<glyph unicode="&#x2074;" horiz-adv-x="967" d="M219 1032l45 239q136 189 452 553h382l-124 -581h111l-44 -211h-111l-29 -136h-252l29 136h-459zM488 1233h239l87 402h-13q-3 -3 -28.5 -33t-29 -34t-26 -30.5t-28.5 -34t-26.5 -32.5t-30.5 -38t-29.5 -38t-34.5 -45.5t-35.5 -48t-41.5 -56.5z" />
<glyph unicode="&#x2075;" horiz-adv-x="956" d="M288 1164q0 15 1 30h235q4 -51 41.5 -82t95.5 -31q62 0 103.5 41.5t40.5 104.5q0 53 -34 85.5t-90 32.5q-73 0 -119 -57h-238l154 536h639l-45 -211h-427l-58 -174h12q69 77 193 77q112 0 185.5 -75t74.5 -190q0 -165 -112 -273t-284 -108q-161 0 -265 83t-103 211z" />
<glyph unicode="&#x2076;" horiz-adv-x="954" d="M264 1201q0 177 155 356q34 50 120.5 134.5t148.5 132.5h350v-18q-60 -44 -162 -128t-137 -118q-48 -42 -71 -84l13 -2q53 34 134 34q104 0 174 -76t70 -191q0 -158 -118 -263t-295 -105q-164 0 -273 93t-109 235zM523 1207q1 -53 38.5 -88.5t92.5 -35.5q59 0 100 39.5 t41 95.5q0 53 -38 89.5t-93 36.5q-58 0 -99 -40t-42 -97z" />
<glyph unicode="&#x2077;" horiz-adv-x="857" d="M236 896l527 706l2 14h-430l44 208h708l-43 -208l-517 -720h-291z" />
<glyph unicode="&#x2078;" horiz-adv-x="997" d="M262 1142q0 97 71.5 167.5t192.5 92.5l3 12q-62 22 -99 69t-36 104q-1 113 106 188t270 75q152 0 255.5 -73.5t103.5 -180.5q0 -87 -60.5 -148.5t-158.5 -75.5l-3 -13q77 -25 121 -80.5t44 -127.5q-1 -123 -118.5 -202t-300.5 -79q-173 0 -282 76t-109 196zM539 1165 q0 -47 35.5 -78t91.5 -31q59 0 98.5 35t39.5 87q0 47 -36 78.5t-91 31.5q-58 0 -98 -35.5t-40 -87.5zM640 1555q0 -41 31 -69t78 -28q51 0 86 32.5t35 79.5q0 41 -31 68.5t-79 27.5q-51 0 -85.5 -32t-34.5 -79z" />
<glyph unicode="&#x2079;" horiz-adv-x="954" d="M324 1479q0 157 117.5 261t294.5 104q165 0 273.5 -93t109.5 -235q-2 -177 -155 -356q-30 -46 -118 -131.5t-151 -135.5h-350v18q60 45 161.5 128.5t137.5 117.5q46 42 71 84l-13 2q-50 -33 -128 -33q-107 0 -178.5 76.5t-71.5 192.5zM588 1499q0 -53 37.5 -89.5 t92.5 -36.5q59 0 100 40t41 97q0 53 -37.5 89t-92.5 36q-59 0 -100 -40t-41 -96z" />
<glyph unicode="&#x207a;" horiz-adv-x="964" d="M314 1258l45 223h247l54 248h226l-54 -248h256l-46 -223h-255l-53 -250h-226l53 250h-247z" />
<glyph unicode="&#x207c;" horiz-adv-x="964" d="M277 1080l45 223h728l-46 -223h-727zM351 1434l45 223h728l-45 -223h-728z" />
<glyph unicode="&#x207d;" horiz-adv-x="592" d="M274 1101q0 214 83 410.5t235 340.5h267q-140 -132 -228.5 -341t-88.5 -438q0 -163 54 -325h-243q-79 145 -79 353z" />
<glyph unicode="&#x207e;" horiz-adv-x="593" d="M137 748q141 132 229.5 340.5t88.5 439.5q0 165 -54 324h244q78 -143 78 -353q0 -214 -83 -410.5t-235 -340.5h-268z" />
<glyph unicode="&#x2080;" horiz-adv-x="1004" d="M16 -12q0 257 135 421.5t344 164.5q169 0 265 -104t96 -287q0 -256 -137 -423t-345 -167q-167 0 -262.5 105.5t-95.5 289.5zM286 -27q0 -79 26.5 -123.5t74.5 -44.5q77 0 138 119.5t61 271.5q0 79 -27.5 123.5t-75.5 44.5q-77 0 -137 -118.5t-60 -272.5z" />
<glyph unicode="&#x2081;" horiz-adv-x="760" d="M42 155l49 238l266 155h268l-197 -928h-268l146 680h-13z" />
<glyph unicode="&#x2082;" horiz-adv-x="917" d="M-51 -380l40 192l322 233q132 94 178 142.5t46 92.5q0 40 -28 64t-74 24q-50 0 -86.5 -31.5t-46.5 -84.5v-1h-241q9 141 121 232t277 91q150 0 244.5 -75.5t94.5 -194.5q0 -85 -55 -158t-195 -173q-167 -119 -192 -132l-2 -12h360l-43 -209h-720z" />
<glyph unicode="&#x2083;" horiz-adv-x="944" d="M-14 -75h249q-4 -51 30 -83t91 -32q58 0 94 30t36 80q0 39 -33 64.5t-84 25.5h-99l37 178h113q58 0 95.5 28.5t37.5 72.5q0 38 -30 61.5t-79 23.5q-44 0 -78 -22.5t-47 -61.5h-241q25 130 131 207t258 77q149 0 245.5 -71.5t96.5 -181.5q0 -90 -63.5 -154t-160.5 -71 l-1 -13q79 -18 121 -68t42 -126q0 -130 -108.5 -212.5t-281.5 -82.5q-175 0 -281.5 95t-89.5 236z" />
<glyph unicode="&#x2084;" horiz-adv-x="966" d="M-52 -244l45 239q136 189 452 553h382l-124 -581h111l-44 -211h-111l-29 -136h-252l29 136h-459zM217 -43h239l87 402h-13q-3 -3 -28.5 -33t-29 -34t-26 -30.5t-28.5 -34t-26.5 -32.5t-30.5 -38t-29.5 -38t-34.5 -45.5t-35.5 -48t-41.5 -56.5z" />
<glyph unicode="&#x2085;" horiz-adv-x="956" d="M17 -112q0 15 1 30h235q4 -51 41.5 -82t95.5 -31q62 0 103.5 41.5t40.5 104.5q0 53 -34 85.5t-90 32.5q-73 0 -119 -57h-238l154 536h639l-45 -211h-427l-58 -174h12q69 77 193 77q112 0 185.5 -75t74.5 -190q0 -165 -112 -273t-284 -108q-161 0 -265 83t-103 211z" />
<glyph unicode="&#x2086;" horiz-adv-x="954" d="M-7 -75q0 177 155 356q34 50 120.5 134.5t148.5 132.5h350v-18q-60 -44 -162 -128t-137 -118q-48 -42 -71 -84l13 -2q53 34 134 34q104 0 174 -76t70 -191q0 -158 -118 -263t-295 -105q-164 0 -273 93t-109 235zM252 -69q1 -53 38.5 -88.5t92.5 -35.5q59 0 100 39.5 t41 95.5q0 53 -38 89.5t-93 36.5q-58 0 -99 -40t-42 -97z" />
<glyph unicode="&#x2087;" horiz-adv-x="857" d="M-35 -380l527 706l2 14h-430l44 208h708l-43 -208l-517 -720h-291z" />
<glyph unicode="&#x2088;" horiz-adv-x="997" d="M-9 -134q0 97 71.5 167.5t192.5 92.5l3 12q-62 22 -99 69t-36 104q-1 113 106 188t270 75q152 0 255.5 -73.5t103.5 -180.5q0 -87 -60.5 -148.5t-158.5 -75.5l-3 -13q77 -25 121 -80.5t44 -127.5q-1 -123 -118.5 -202t-300.5 -79q-173 0 -282 76t-109 196zM268 -111 q0 -47 35.5 -78t91.5 -31q59 0 98.5 35t39.5 87q0 47 -36 78.5t-91 31.5q-58 0 -98 -35.5t-40 -87.5zM369 279q0 -41 31 -69t78 -28q51 0 86 32.5t35 79.5q0 41 -31 68.5t-79 27.5q-51 0 -85.5 -32t-34.5 -79z" />
<glyph unicode="&#x2089;" horiz-adv-x="955" d="M53 203q0 157 117.5 261t294.5 104q165 0 273.5 -93t109.5 -235q-2 -177 -155 -356q-30 -46 -118 -131.5t-151 -135.5h-350v18q60 45 161.5 128.5t137.5 117.5q46 42 71 84l-13 2q-50 -33 -128 -33q-107 0 -178.5 76.5t-71.5 192.5zM317 223q0 -53 37.5 -89.5t92.5 -36.5 q59 0 100 40t41 97q0 53 -37.5 89t-92.5 36q-59 0 -100 -40t-41 -96z" />
<glyph unicode="&#x208a;" horiz-adv-x="964" d="M43 -18l45 223h247l54 248h226l-54 -248h256l-46 -223h-255l-53 -250h-226l53 250h-247z" />
<glyph unicode="&#x208c;" horiz-adv-x="964" d="M6 -196l45 223h728l-46 -223h-727zM80 158l45 223h728l-45 -223h-728z" />
<glyph unicode="&#x208d;" horiz-adv-x="592" d="M3 -175q0 214 83 410.5t235 340.5h267q-140 -132 -228.5 -341t-88.5 -438q0 -163 54 -325h-243q-79 145 -79 353z" />
<glyph unicode="&#x208e;" horiz-adv-x="593" d="M-134 -528q141 132 229.5 340.5t88.5 439.5q0 165 -54 324h244q78 -143 78 -353q0 -214 -83 -410.5t-235 -340.5h-268z" />
<glyph unicode="&#x20ac;" d="M152 481l34 157l166 1q2 78 13 145h-147l34 160h152q85 244 290.5 385t496.5 141q76 0 170 -13.5t145 -31.5l-54 -258q-42 15 -114.5 26t-135.5 11q-168 0 -290 -67.5t-186 -192.5h523l-35 -160h-540q-10 -67 -10 -127v-17l518 2l-34 -161h-451q52 -121 180 -184.5 t322 -63.5q33 0 62 4l-55 -261q-24 -3 -69 -3q-307 0 -514 137t-257 371h-214z" />
<glyph unicode="&#x2122;" horiz-adv-x="2449" d="M328 1212l47 231h871l-47 -231h-304l-150 -697h-263l150 697h-304zM1211 515l197 928h297l138 -503h18l360 503h317l-197 -928h-239l125 584h-18l-352 -508h-132l-130 508h-18l-125 -584h-241z" />
<glyph unicode="&#x2202;" horiz-adv-x="1351" d="M170 412q0 154 68 281.5t186.5 200.5t260.5 73q115 0 213.5 -53.5t137.5 -136.5l18 -1q2 12 2 41q0 175 -115 321.5t-302 209.5l137 230q257 -114 393 -314.5t136 -468.5q0 -224 -89.5 -415.5t-243 -303t-332.5 -111.5q-206 0 -338 125.5t-132 321.5zM458 428 q0 -96 58 -155t153 -59q117 0 206.5 94t128.5 258q-38 69 -112.5 112t-156.5 43q-114 0 -195.5 -86t-81.5 -207z" />
<glyph unicode="&#x220f;" horiz-adv-x="1656" d="M255 -290l315 1475h-226l53 258h1389l-53 -258h-226l-315 -1475h-283l316 1475h-372l-316 -1475h-282z" />
<glyph unicode="&#x2211;" horiz-adv-x="1329" d="M85 -286l52 251l596 614l3 12l-335 601l52 251h954l-52 -251h-639l-2 -10l334 -611l-3 -12l-584 -584l-2 -10h633l-52 -251h-955z" />
<glyph unicode="&#x221a;" horiz-adv-x="1478" d="M101 711h280l52 -687h18l682 1419h551l-51 -248h-329l-715 -1442h-382z" />
<glyph unicode="&#x221e;" horiz-adv-x="1874" d="M124 566q0 202 137.5 334.5t346.5 132.5q242 0 404 -241q181 242 438 242q178 0 292.5 -112t114.5 -285q0 -202 -138 -335t-347 -133q-241 0 -404 241q-182 -242 -437 -242q-179 0 -293 112t-114 286zM380 580q0 -69 54.5 -118t132.5 -49q157 0 292 188q-56 90 -124 139 t-138 49q-93 0 -155 -59.5t-62 -149.5zM1122 601q55 -90 123.5 -138.5t137.5 -48.5q93 0 155.5 59t62.5 149q0 69 -54.5 118t-132.5 49q-157 0 -292 -188z" />
<glyph unicode="&#x222b;" horiz-adv-x="1206" d="M-43 -275l75 222q40 -17 98 -17q135 0 191 152l405 1101q61 163 171.5 243.5t279.5 80.5q101 0 176 -31l-75 -222q-38 18 -97 18q-136 0 -191 -151l-406 -1102q-60 -163 -170 -244t-280 -81q-102 0 -177 31z" />
<glyph unicode="&#x2248;" d="M155 138q15 175 108 280t225 105q56 0 104 -21t81 -51t62.5 -60t61 -51t62.5 -21q95 0 118 137h213q-17 -175 -110.5 -282t-222.5 -107q-54 0 -101.5 21.5t-80.5 52t-62 61t-60.5 52t-63.5 21.5q-94 0 -120 -137h-214zM265 618q14 175 107 280t226 105q56 0 104 -21 t81 -51t62 -60t60.5 -51t62.5 -21q96 0 118 137h214q-17 -175 -111 -282t-223 -107q-54 0 -101 21.5t-80 52t-62.5 61t-61 52t-62.5 21.5q-96 0 -120 -137h-214z" />
<glyph unicode="&#x2260;" d="M147 232l50 243h374l131 220h-458l49 242h553l118 198h252l-118 -198h268l-49 -242h-363l-131 -220h447l-50 -243h-541l-138 -232h-252l138 232h-280z" />
<glyph unicode="&#x2264;" d="M121 38l49 236h1046l-48 -236h-1047zM257 673l46 225l1110 301l-55 -258l-699 -153l-5 -19l634 -155l-50 -243z" />
<glyph unicode="&#x2265;" d="M122 38l48 236h1047l-49 -236h-1046zM194 371l54 258l700 156l4 18l-633 154l50 242l980 -301l-46 -225z" />
<glyph unicode="&#x25ca;" horiz-adv-x="1306" d="M173 722l535 683h321l245 -757l-520 -662h-343zM474 691l142 -458l18 -1l338 447l-142 457l-18 1z" />
<glyph unicode="&#x25fc;" horiz-adv-x="1105" d="M0 0v1105h1105v-1105h-1105z" />
<glyph unicode="&#xf8ff;" horiz-adv-x="1969" d="M173 791q-3 188 76 324q60 102 160 164t214 64q51 2 109 -18.5t108 -41.5t78 -21q27 0 83 20t127 40.5t134 20.5q31 0 66 -6t84.5 -22.5t99 -55.5t85.5 -95q-149 -93 -187 -249q-12 -47 -12 -97q3 -75 29 -140t60 -104t70.5 -67t59 -39.5t26.5 -11.5q-1 -1 -6 -16 t-14.5 -40t-23 -55.5t-35.5 -70t-48 -75.5q-34 -51 -58.5 -83t-60 -68.5t-75 -54t-83.5 -17.5q-56 0 -140 37t-154 37q-61 0 -112 -18.5t-95.5 -37t-89.5 -18.5q-44 0 -84.5 18.5t-78 56.5t-62.5 69.5t-62 83.5q-79 114 -132.5 272.5t-55.5 314.5zM908 1366q-26 131 91 277 q52 61 127 98.5t145 37.5q9 -163 -101 -283q-47 -63 -119.5 -101t-142.5 -29z" />
<glyph unicode="&#xfb01;" horiz-adv-x="1422" d="M153 0l184 863h-174l47 229h171l25 126q31 155 129 226t274 71q87 0 182 -22l-42 -205q-39 11 -112 11q-123 0 -148 -118l-18 -89h230l-47 -229h-224l-184 -863h-293zM907 0l235 1103h293l-235 -1103h-293zM1181 1400q0 65 47.5 108t124.5 43t124.5 -40t47.5 -102 q0 -65 -47.5 -108.5t-124.5 -43.5t-124.5 40.5t-47.5 102.5z" />
<glyph unicode="&#xfb02;" horiz-adv-x="1422" d="M153 0l184 863h-174l47 229h171l25 126q31 155 129 226t274 71q87 0 182 -22l-42 -205q-39 11 -112 11q-123 0 -148 -118l-18 -89h230l-47 -229h-224l-184 -863h-293zM904 0l324 1524h293l-324 -1524h-293z" />
<glyph horiz-adv-x="1490" d="M-4 0l760 1286h375l213 -1286h-321l-45 333h-486l-190 -333h-306zM606 550h349l-62 487h-13z" />
<glyph horiz-adv-x="1490" d="M-4 0l760 1286h375l213 -1286h-321l-45 333h-486l-190 -333h-306zM606 550h349l-62 487h-13zM813 1662q0 103 70 170.5t176 67.5q105 0 175 -67.5t70 -170.5q0 -104 -70 -172.5t-175 -68.5t-175.5 68.5t-70.5 172.5zM953 1661q0 -46 29.5 -75t75.5 -29t76 29.5t30 74.5 q0 44 -30 73.5t-76 29.5t-75.5 -29.5t-29.5 -73.5z" />
<glyph horiz-adv-x="1534" d="M180 568q0 263 102 471.5t283 324.5t408 116q163 0 296.5 -66t209.5 -182t76 -257q0 -28 -2 -43h-294v14q-5 120 -88.5 193t-216.5 73q-129 0 -236 -81t-168 -224t-61 -318q0 -166 84.5 -262.5t230.5 -96.5q123 0 220 64t132 170h299q-43 -209 -202 -342t-390 -155 l-48 -69q156 -19 156 -158q0 -90 -69 -142t-186 -52q-94 0 -161 29l25 125q51 -21 118 -21q97 0 97 54q0 56 -111 56h-62l16 100l52 79q-235 26 -372.5 187.5t-137.5 412.5z" />
<glyph horiz-adv-x="1274" d="M100 0l274 1286h956l-50 -247h-654l-63 -280h617l-45 -218h-617l-65 -294h654l-51 -247h-956z" />
<glyph horiz-adv-x="651" d="M100 0l274 1286h302l-274 -1286h-302z" />
<glyph horiz-adv-x="1626" d="M160 555q0 165 58 309t158.5 245.5t240.5 160t299 58.5q286 0 465.5 -168.5t179.5 -432.5q0 -220 -99 -396.5t-271.5 -274.5t-384.5 -98q-287 0 -466.5 167t-179.5 430zM470 577q0 -159 94.5 -255t248.5 -96q183 0 310.5 138.5t127.5 346.5q0 158 -94.5 253.5 t-247.5 95.5q-185 0 -312 -136.5t-127 -346.5z" />
<glyph horiz-adv-x="1382" d="M79 372h292q10 -82 92.5 -130.5t210.5 -48.5q122 0 190.5 41t68.5 115q0 55 -44.5 92t-150.5 70l-142 44q-344 108 -344 365q0 184 147 293.5t396 109.5q237 0 390.5 -112.5t160.5 -292.5h-285q-11 82 -82 129t-182 47q-113 0 -179 -39.5t-66 -108.5q0 -51 46.5 -88.5 t146.5 -68.5l134 -41q177 -56 264.5 -144.5t87.5 -219.5q0 -199 -150.5 -310t-422.5 -111q-254 0 -412.5 111.5t-166.5 297.5z" />
<glyph horiz-adv-x="1565" d="M203 429q0 57 14 124l156 733h307l-155 -729q-9 -45 -9 -87q0 -108 78 -173t207 -65q128 0 214.5 72.5t114.5 200.5l166 781h307l-178 -839q-47 -223 -219.5 -354.5t-420.5 -131.5q-259 0 -420.5 128t-161.5 340z" />
<glyph horiz-adv-x="1218" d="M133 441q0 195 76 351t215.5 245.5t317.5 89.5q193 0 317 -107t137 -254q2 -13 2 -43h-276q-4 76 -59.5 120.5t-139.5 44.5q-131 0 -215 -122t-84 -303q0 -120 58 -183t150 -63q82 0 141 40.5t84 115.5h279q-27 -160 -152.5 -270t-315.5 -125l-56 -80q156 -19 156 -158 q0 -90 -69 -142t-186 -52q-94 0 -161 29l25 125q51 -21 118 -21q97 0 97 54q0 56 -111 56h-62l16 100l65 97q-171 32 -269 152.5t-98 302.5z" />
<glyph horiz-adv-x="599" d="M79 0l234 1103h291l-234 -1103h-291zM369 1438q0 70 46.5 117t114.5 47t114.5 -47t46.5 -117t-46.5 -117t-114.5 -47t-114.5 47t-46.5 117z" />
<glyph horiz-adv-x="1883" d="M100 0l307 1443h304l-307 -1443h-304zM441 1590l343 318h315l-381 -318h-277zM737 382q0 21 1 31h293v-9q1 -77 49.5 -122t130.5 -45q167 0 212 209l213 997h302l-222 -1042q-44 -213 -176.5 -325.5t-341.5 -112.5q-210 0 -338 116.5t-123 302.5zM1672 1590l343 318h315 l-381 -318h-277z" />
<glyph horiz-adv-x="1194" d="M79 0l234 1103h291l-234 -1103h-291zM333 1281l323 353h310l-361 -353h-272zM415 -362l48 226q25 -6 63 -6q62 0 96.5 29t48.5 91l240 1125h291l-247 -1158q-33 -154 -139 -236t-270 -83q-61 0 -131 12zM931 1281l323 353h310l-361 -353h-272z" />
<glyph horiz-adv-x="1351" d="M81 252l54 261l637 930h318l-614 -914l-4 -16h348l77 353h281l-77 -359h182l-53 -255h-176l-55 -252h-289l54 252h-683z" />
<glyph horiz-adv-x="1417" d="M177 447q0 318 327 646q23 26 163 158.5t204 191.5h403q-62 -45 -270.5 -233t-252.5 -240q-42 -45 -68 -84l16 -5q83 62 205 62q167 0 281 -121.5t114 -299.5q0 -239 -165.5 -395.5t-419.5 -156.5q-237 0 -387 133.5t-150 343.5zM471 468q-2 -106 71.5 -178t182.5 -72 q114 0 194.5 77t81.5 188q1 107 -71.5 179.5t-181.5 72.5q-113 0 -194.5 -78t-82.5 -189z" />
<glyph horiz-adv-x="1420" d="M288 928q0 239 165.5 395.5t419.5 156.5q237 0 387 -133t150 -344q0 -313 -327 -646q-23 -26 -174.5 -171t-204.5 -194h-403q60 45 275.5 240t259.5 248q45 49 68 85l-16 5q-81 -63 -195 -63q-172 0 -288.5 121t-116.5 300zM586 967q-1 -107 71.5 -179.5t181.5 -72.5 q113 0 194.5 78t82.5 189q2 107 -71.5 179t-182.5 72q-114 0 -194 -77.5t-82 -188.5z" />
<glyph d="M186 522q0 204 54 383t146.5 305.5t221.5 199.5t275 73q232 0 367.5 -152t135.5 -410q0 -205 -54 -384t-147 -305.5t-222 -199t-276 -72.5q-231 0 -366 152t-135 410zM490 506q0 -139 54.5 -218t151.5 -79q101 0 190 100.5t142.5 269.5t53.5 359q0 138 -54.5 216.5 t-151.5 78.5q-101 0 -190 -100t-142.5 -268.5t-53.5 -358.5z" />
<glyph d="M432 892l60 294l429 257h301l-307 -1443h-302l243 1134h-18z" />
<glyph d="M125 0l47 224l556 449q203 164 266.5 237.5t63.5 149.5q0 77 -59.5 126.5t-152.5 49.5q-95 0 -164 -57t-88 -152l-1 -5h-279q17 201 174 329.5t384 128.5q209 0 347 -111.5t138 -280.5q0 -70 -20.5 -128t-75 -126t-133.5 -139t-213 -177l-316 -251l-4 -18h630l-51 -249 h-1049z" />
<glyph d="M159 380q0 20 5 60h283v-3q-8 -95 64.5 -158.5t191.5 -63.5q121 0 195.5 63.5t74.5 167.5q0 81 -67 132t-174 51h-158l46 226h192q116 0 188.5 58.5t72.5 152.5q0 78 -62 125.5t-162 47.5q-88 0 -155.5 -47t-92.5 -124h-279q39 189 188.5 300.5t363.5 111.5t352.5 -106.5 t138.5 -271.5q0 -139 -96.5 -242.5t-243.5 -122.5l-3 -18q122 -28 187 -105.5t65 -194.5q0 -131 -73.5 -235t-205 -162.5t-296.5 -58.5q-238 0 -389 116.5t-151 300.5z" />
<glyph d="M98 252l49 279q234 313 761 912h439l-201 -940h189l-51 -251h-189l-55 -252h-288l55 252h-709zM419 494h444l154 714h-16q-334 -378 -579 -698z" />
<glyph d="M170 389q0 13 2 38h279v-3q2 -95 73.5 -153.5t183.5 -58.5q126 0 207 83.5t81 211.5q0 107 -67 170t-174 63q-69 0 -133 -29.5t-104 -77.5h-278l243 810h898l-53 -251h-656l-111 -347l18 -1q112 114 288 114q177 0 296.5 -119t119.5 -299q0 -253 -163.5 -415t-426.5 -162 q-225 0 -374 121.5t-149 304.5z" />
<glyph d="M193 541q0 187 50 357t141 299q96 137 230.5 210.5t294.5 73.5q142 0 256 -54.5t179.5 -152.5t68.5 -221h-295q-10 82 -71.5 130.5t-154.5 48.5q-139 0 -242 -124.5t-143 -338.5l18 -1q64 87 158 133.5t204 46.5q188 0 309 -119.5t121 -306.5q0 -156 -76.5 -284 t-210.5 -201.5t-296 -73.5q-253 0 -397 153.5t-144 424.5zM490 439q0 -101 69 -165.5t178 -64.5q121 0 203.5 82.5t82.5 203.5q0 100 -67.5 164t-171.5 64q-124 0 -209 -82.5t-85 -201.5z" />
<glyph d="M209 0l870 1176l4 19h-704l51 248h1019l-52 -251l-859 -1192h-329z" />
<glyph d="M133 366q0 158 111 273t289 141l4 17q-90 37 -143 110t-53 159q0 179 154 296.5t387 117.5q214 0 359.5 -107.5t145.5 -265.5q0 -138 -90.5 -237t-239.5 -124l-4 -18q114 -40 179 -124.5t65 -192.5q0 -129 -77 -231.5t-215 -159.5t-311 -57q-247 0 -404 112.5t-157 290.5 zM450 396q0 -92 70.5 -147.5t186.5 -55.5q122 0 203 68.5t81 171.5q0 91 -72 148t-186 57q-122 0 -202.5 -69t-80.5 -173zM629 1035q0 -78 60 -128t154 -50q103 0 173.5 63.5t70.5 155.5q0 78 -60.5 128t-155.5 50q-104 0 -173 -62.5t-69 -156.5z" />
<glyph d="M162 379h296q7 -77 69.5 -122.5t160.5 -45.5q144 0 248 124.5t139 335.5l-17 1q-64 -88 -157 -134t-203 -46q-190 0 -314 120.5t-124 305.5q0 241 167.5 401.5t418.5 160.5t393.5 -155t142.5 -428q0 -183 -50 -352t-141 -298q-96 -137 -230 -210.5t-290 -73.5 q-213 0 -357 117.5t-152 298.5zM556 944q0 -100 66.5 -163.5t170.5 -63.5q123 0 207.5 82t84.5 201q0 102 -67.5 166t-176.5 64q-121 0 -203 -82.5t-82 -203.5z" />
<glyph horiz-adv-x="723" d="M189.5 282q-10.5 52 22.5 94q31 53 79.5 68.5t102.5 -11.5q52 -27 63 -79t-21 -94q-32 -52 -80.5 -68t-102.5 11q-53 27 -63.5 79zM345.5 1023.5q-10.5 51.5 22.5 94.5q31 53 79 68.5t103 -12.5q52 -27 63 -78.5t-21 -94.5q-32 -52 -80.5 -68t-102.5 11 q-53 28 -63.5 79.5z" />
<glyph horiz-adv-x="1004" d="M206 883q0 257 135 421.5t344 164.5q169 0 265 -104t96 -287q0 -256 -137 -423t-345 -167q-167 0 -262.5 105.5t-95.5 289.5zM476 868q0 -79 26.5 -123.5t74.5 -44.5q77 0 138 119.5t61 271.5q0 79 -27.5 123.5t-75.5 44.5q-77 0 -137 -118.5t-60 -272.5z" />
<glyph horiz-adv-x="759" d="M232 1050l49 238l266 155h268l-197 -928h-268l146 680h-13z" />
<glyph horiz-adv-x="917" d="M140 515l40 192l322 233q132 94 178 142.5t46 92.5q0 40 -28 64t-74 24q-50 0 -86.5 -31.5t-46.5 -84.5v-1h-241q9 141 121 232t277 91q150 0 244.5 -75.5t94.5 -194.5q0 -85 -55 -158t-195 -173q-167 -119 -192 -132l-2 -12h360l-43 -209h-720z" />
<glyph horiz-adv-x="944" d="M177 820h249q-4 -51 30 -83t91 -32q59 0 94.5 30.5t35.5 79.5q0 39 -33 64.5t-84 25.5h-99l37 178h113q58 0 95.5 28.5t37.5 72.5q0 38 -30 61.5t-79 23.5q-44 0 -78 -22.5t-47 -61.5h-241q25 130 131 207t258 77q149 0 245.5 -71.5t96.5 -181.5q0 -90 -63.5 -154 t-160.5 -71l-1 -13q79 -18 121 -68t42 -126q0 -130 -108.5 -212.5t-281.5 -82.5q-175 0 -281.5 95t-89.5 236z" />
<glyph horiz-adv-x="966" d="M138 651l45 239q136 189 452 553h382l-124 -581h111l-44 -211h-111l-29 -136h-252l29 136h-459zM407 852h239l87 402h-13q-3 -3 -28.5 -33t-29 -34t-26 -30.5t-28.5 -34t-26.5 -32.5t-30.5 -38t-29.5 -38t-34.5 -45.5t-35.5 -48t-41.5 -56.5z" />
<glyph horiz-adv-x="956" d="M207 783q0 15 1 30h235q4 -51 41.5 -82t95.5 -31q62 0 103.5 41.5t40.5 104.5q0 53 -34 85.5t-90 32.5q-73 0 -119 -57h-238l154 536h639l-45 -211h-427l-58 -174h12q69 77 193 77q112 0 185.5 -75t74.5 -190q0 -165 -112 -273t-284 -108q-161 0 -265 83t-103 211z" />
<glyph horiz-adv-x="954" d="M183 820q0 177 155 356q34 50 120.5 134.5t148.5 132.5h350v-18q-60 -44 -162 -128t-137 -118q-48 -42 -71 -84l13 -2q53 34 134 34q104 0 174 -76t70 -191q0 -158 -118 -263t-295 -105q-164 0 -273 93t-109 235zM442 826q1 -53 38.5 -88.5t92.5 -35.5q59 0 100 39.5 t41 95.5q0 53 -38 89.5t-93 36.5q-58 0 -99 -40t-42 -97z" />
<glyph horiz-adv-x="857" d="M156 515l527 706l2 14h-430l44 208h708l-43 -208l-517 -720h-291z" />
<glyph horiz-adv-x="997" d="M182 761q0 97 71.5 167.5t192.5 92.5l3 12q-62 22 -99 69t-36 104q-1 113 106 188t270 75q152 0 255.5 -73.5t103.5 -180.5q0 -87 -60.5 -148.5t-158.5 -75.5l-3 -13q77 -25 121 -80.5t44 -127.5q-1 -123 -118.5 -202t-300.5 -79q-173 0 -282 76t-109 196zM459 784 q0 -47 35.5 -78t91.5 -31q59 0 98.5 35t39.5 87q0 47 -36 78.5t-91 31.5q-58 0 -98 -35.5t-40 -87.5zM560 1174q0 -41 31 -69t78 -28q51 0 86 32.5t35 79.5q0 41 -31 68.5t-79 27.5q-51 0 -85.5 -32t-34.5 -79z" />
<glyph horiz-adv-x="955" d="M244 1098q0 157 117.5 261t294.5 104q165 0 273.5 -93t109.5 -235q-2 -177 -155 -356q-30 -46 -118 -131.5t-151 -135.5h-350v18q60 45 161.5 128.5t137.5 117.5q46 42 71 84l-13 2q-50 -33 -128 -33q-107 0 -178.5 76.5t-71.5 192.5zM508 1118q0 -53 37.5 -89.5 t92.5 -36.5q59 0 100 40t41 97q0 53 -37.5 89t-92.5 36q-59 0 -100 -40t-41 -96z" />
<glyph horiz-adv-x="964" d="M234 877l45 223h247l54 248h226l-54 -248h256l-46 -223h-255l-53 -250h-226l53 250h-247z" />
<glyph horiz-adv-x="964" d="M197 699l45 223h728l-46 -223h-727zM271 1053l45 223h728l-45 -223h-728z" />
<glyph horiz-adv-x="592" d="M193 720q0 214 83 410.5t235 340.5h267q-140 -132 -228.5 -341t-88.5 -438q0 -163 54 -325h-243q-79 145 -79 353z" />
<glyph horiz-adv-x="593" d="M42 367q141 132 229.5 340.5t88.5 439.5q0 165 -54 324h244q78 -143 78 -353q0 -214 -83 -410.5t-235 -340.5h-268z" />
<glyph horiz-adv-x="802" d="M194 428q0 322 123.5 623.5t347.5 519.5h308q-220 -216 -349.5 -523t-129.5 -645q0 -286 88 -551h-270q-53 106 -85.5 264t-32.5 312z" />
<glyph horiz-adv-x="802" d="M-36 -148q219 216 349 523t130 645q0 286 -88 551h270q53 -106 85.5 -264t32.5 -312q0 -322 -123.5 -623.5t-347.5 -519.5h-308z" />
<glyph horiz-adv-x="847" d="M40 -111l358 1684h575l-46 -223h-294l-267 -1239h307l-46 -222h-587z" />
<glyph horiz-adv-x="848" d="M-22 -111l45 223h301l267 1239h-300l46 222h580l-358 -1684h-581z" />
<glyph horiz-adv-x="927" d="M170 601l57 277q95 0 141.5 45.5t71.5 162.5l43 194q42 199 165 283t351 84h99l-45 -220h-45q-116 0 -175 -46.5t-83 -158.5l-52 -237q-24 -112 -86.5 -169.5t-171.5 -67.5l-4 -18q78 -11 120.5 -56t42.5 -119q0 -37 -9 -81l-57 -260q-11 -52 -11 -85q0 -66 42 -94 t139 -28h45l-45 -216h-98q-172 0 -272.5 70t-100.5 187q0 58 15 128l48 218q12 57 12 96q0 60 -32 85.5t-105 25.5z" />
<glyph horiz-adv-x="927" d="M-15 -209l46 219h45q116 0 175 46.5t83 158.5l52 237q24 113 86.5 170t171.5 68l4 18q-78 11 -120.5 55.5t-42.5 118.5q0 37 9 82l57 259q11 52 11 85q0 66 -42 94t-139 28h-45l45 217h98q172 0 272.5 -70.5t100.5 -187.5q0 -58 -15 -127l-48 -219q-12 -55 -12 -95 q0 -61 32 -86t105 -25l-57 -277q-94 0 -141 -46t-72 -162l-43 -194q-42 -199 -165 -283t-351 -84h-100z" />
<glyph horiz-adv-x="1880" d="M182 618q0 196 71.5 369.5t195 297t297 195t370.5 71.5q216 0 387.5 -86t267.5 -240.5t96 -349.5q0 -175 -62 -319.5t-170.5 -226.5t-241.5 -82q-106 0 -173.5 45.5t-67.5 117.5q0 5 0.5 13.5t0.5 11.5l-18 -3q-81 -142 -236 -142q-136 0 -218 93.5t-82 249.5 q0 206 116 348.5t283 142.5q88 0 153.5 -44t81.5 -116l18 -1l25 125h207l-121 -557q-5 -24 -5 -38q0 -39 22.5 -60t63.5 -21q61 0 117 64t90 170t34 222q0 230 -162.5 375t-418.5 145q-153 0 -290 -59t-235.5 -160t-156.5 -241.5t-58 -296.5q0 -273 186.5 -435.5 t499.5 -161.5q103 0 153 15l-34 -163q-88 -16 -176 -16q-237 0 -421.5 94t-286.5 264.5t-102 389.5zM826 643q0 -78 39.5 -123.5t107.5 -45.5q88 0 149 82t61 200q0 80 -40 127.5t-108 47.5q-87 0 -148 -84.5t-61 -203.5z" />
<glyph horiz-adv-x="772" d="M-67 -159l783 1731h275l-789 -1731h-269z" />
<glyph horiz-adv-x="749" d="M131 -160l369 1732h267l-369 -1732h-267z" />
<glyph horiz-adv-x="771" d="M311 1572h267l32 -1731h-266z" />
<glyph horiz-adv-x="891" d="M216 575l57 273h657l-57 -273h-657z" />
<glyph horiz-adv-x="1140" d="M49 575l56 273h1139l-56 -273h-1139z" />
<glyph horiz-adv-x="2049" d="M49 575l56 273h2048l-56 -273h-2048z" />
<glyph horiz-adv-x="1032" d="M256 711q0 142 98.5 241t238.5 99t238.5 -99t98.5 -241t-98.5 -241.5t-238.5 -99.5t-238.5 99.5t-98.5 241.5z" />
<glyph d="M286 620l48 235l1059 461l-63 -306l-723 -278l-3 -19l589 -331l-59 -292z" />
<glyph d="M171 90l63 307l723 278l4 18l-590 332l60 291l848 -530l-48 -234z" />
<glyph d="M147 167l49 236h1046l-48 -236h-1047zM283 802l46 225l1110 301l-55 -258l-699 -153l-5 -19l634 -155l-50 -243z" />
<glyph d="M147 167l48 236h1047l-49 -236h-1046zM219 500l54 258l700 156l4 18l-633 154l50 242l980 -301l-46 -225z" />
<glyph d="M169 332l53 259h1073l-53 -259h-1073zM269 811l53 259h1073l-53 -259h-1073z" />
<glyph d="M175 361l50 243h374l131 220h-458l49 242h553l118 198h252l-118 -198h268l-49 -242h-363l-131 -220h447l-50 -243h-541l-138 -232h-252l138 232h-280z" />
<glyph d="M219 584l53 258h405l87 408h261l-87 -408h413l-53 -258h-413l-87 -409h-261l87 409h-405z" />
<glyph d="M222 601l47 225h1080l-47 -225h-1080zM528 316q0 73 45.5 120.5t120.5 47.5q74 0 119.5 -46t45.5 -112q0 -73 -45 -120t-120 -47t-120.5 45.5t-45.5 111.5zM693 1100q0 73 45.5 120t120.5 47q74 0 119.5 -45.5t45.5 -111.5q0 -73 -45 -120t-120 -47t-120.5 45.5 t-45.5 111.5z" />
<glyph d="M177 200l46 225h997l-46 -225h-997zM300 779l46 224h373l52 234h251l-51 -234h374l-46 -224h-374l-51 -234h-252l51 234h-373z" />
<glyph d="M263 267q15 175 108 280t225 105q56 0 104 -21t81 -51t62.5 -60t61 -51t62.5 -21q95 0 118 137h213q-17 -175 -110.5 -282t-222.5 -107q-54 0 -101.5 21.5t-80.5 52t-62 61t-60.5 52t-63.5 21.5q-94 0 -120 -137h-214zM373 747q14 175 107 280t226 105q56 0 104 -21 t81 -51t62 -60t60.5 -51t62.5 -21q96 0 118 137h214q-17 -175 -111 -282t-223 -107q-54 0 -101 21.5t-80 52t-62.5 61t-61 52t-62.5 21.5q-96 0 -120 -137h-214z" />
<glyph d="M273 761l53 258h1045l-137 -654h-255l84 396h-790z" />
</font>
</defs>
</svg>
