<?xml version="1.0" standalone="no"?>
<!DOCTYPE svg PUBLIC "-//W3C//DTD SVG 1.1//EN" "http://www.w3.org/Graphics/SVG/1.1/DTD/svg11.dtd" >
<svg xmlns="http://www.w3.org/2000/svg" xmlns:xlink="http://www.w3.org/1999/xlink" version="1.1">
<metadata></metadata>
<defs>
<font id="sf_ui_textitalic" horiz-adv-x="1328" >
<font-face units-per-em="2048" ascent="1638" descent="-410" />
<missing-glyph horiz-adv-x="578" />
<glyph horiz-adv-x="0" />
<glyph unicode="&#xd;" horiz-adv-x="0" />
<glyph unicode=" "  horiz-adv-x="578" />
<glyph unicode="&#x09;" horiz-adv-x="578" />
<glyph unicode="&#xa0;" horiz-adv-x="578" />
<glyph unicode="!" horiz-adv-x="636" d="M145 121q0 60 39.5 100t99.5 40t99 -40t39 -100t-39 -99.5t-99 -39.5t-99.5 39.5t-39.5 99.5zM275 480l188 964h200l-222 -964h-166z" />
<glyph unicode="&#x22;" horiz-adv-x="895" d="M311 904l115 539h160l-115 -539h-160zM688 904l115 539h160l-115 -539h-160z" />
<glyph unicode="#" horiz-adv-x="1296" d="M99 413l61 144h212l143 344h-212l59 143h212l167 399h151l-166 -399h298l167 399h152l-168 -399h212l-60 -143h-212l-144 -344h212l-59 -144h-212l-172 -413h-152l173 413h-299l-172 -413h-151l172 413h-212zM520 554h301l145 349h-302z" />
<glyph unicode="$" d="M163 390h182q13 -93 72.5 -156t154.5 -89l113 533l-51 21q-142 59 -217.5 151.5t-75.5 215.5q0 179 139 294.5t365 115.5h10l26 124h134l-30 -142q147 -38 238 -146t93 -244h-181q-27 173 -185 226l-104 -491l17 -7q169 -73 254.5 -166t85.5 -226q0 -197 -146.5 -317.5 t-373.5 -120.5h-15l-23 -108h-134l27 126q-158 38 -262.5 148.5t-112.5 257.5zM531 1077q0 -76 47 -126.5t145 -94.5l97 457q-126 0 -207.5 -68t-81.5 -168zM703 129q144 1 226.5 72t82.5 182q0 84 -49.5 139.5t-154.5 103.5z" />
<glyph unicode="%" horiz-adv-x="1610" d="M130 0l711 752l653 691h188l-723 -766l-639 -677h-190zM262 1066q0 167 102.5 284.5t247.5 117.5q121 0 195.5 -81.5t74.5 -213.5q0 -166 -102.5 -284.5t-246.5 -118.5q-122 0 -196.5 81t-74.5 215zM420 1065q0 -75 33 -120.5t88 -45.5q74 0 128.5 82.5t54.5 195.5 q0 75 -31.5 118.5t-86.5 43.5q-75 0 -130.5 -82t-55.5 -192zM934 271q0 167 102.5 284.5t247.5 117.5q121 0 195.5 -81.5t74.5 -213.5q0 -166 -102.5 -284.5t-246.5 -118.5q-122 0 -196.5 81t-74.5 215zM1092 270q0 -75 33 -120.5t88 -45.5q74 0 128.5 82.5t54.5 195.5 q0 75 -31.5 118.5t-86.5 43.5q-75 0 -130.5 -82t-55.5 -192z" />
<glyph unicode="&#x26;" horiz-adv-x="1457" d="M112 376q0 287 375 433l62 24q-116 170 -116 288q0 148 115.5 252t284.5 104q151 0 249.5 -82t98.5 -207q0 -130 -98 -239.5t-297 -176.5l291 -427q120 136 137 363l4 54h168l-5 -61q-24 -293 -212 -493l139 -208h-213l-62 96q-178 -123 -433 -123q-133 0 -245 52.5 t-177.5 145.5t-65.5 205zM292 388q0 -115 86 -189.5t230 -74.5q203 0 341 101l-322 487l-57 -21q-135 -50 -206.5 -128.5t-71.5 -174.5zM605 1116q0 -89 104 -231q152 46 226.5 124.5t74.5 164.5q0 73 -51.5 116t-132.5 43q-91 0 -156 -63.5t-65 -153.5z" />
<glyph unicode="'" horiz-adv-x="518" d="M311 904l115 539h160l-115 -539h-160z" />
<glyph unicode="(" horiz-adv-x="728" d="M192 330q0 312 117.5 607.5t327.5 505.5h192q-223 -231 -342.5 -518.5t-119.5 -597.5q0 -319 92 -604h-154q-49 105 -81 279t-32 328z" />
<glyph unicode=")" horiz-adv-x="728" d="M27 -277q223 231 342 518.5t119 597.5q0 319 -92 604h154q49 -105 81 -279t32 -328q0 -312 -117 -607.5t-327 -505.5h-192z" />
<glyph unicode="*" horiz-adv-x="1032" d="M243 912l319 121l-257 171l101 122l233 -202l53 325l144 -12l-85 -323l309 154l45 -134l-318 -121l256 -171l-100 -123l-234 201l-52 -323l-144 12l85 322l-309 -154z" />
<glyph unicode="+" d="M203 506l33 148h431l92 435h152l-92 -435h433l-33 -148h-431l-93 -435h-152l93 435h-433z" />
<glyph unicode="," horiz-adv-x="628" d="M50 -367l217 569h202l-269 -569h-150z" />
<glyph unicode="-" horiz-adv-x="966" d="M201 499l35 163h656l-35 -163h-656z" />
<glyph unicode="." horiz-adv-x="608" d="M114 120q0 54 38.5 92t91.5 38q54 0 92 -38t38 -92q0 -53 -38 -91.5t-92 -38.5q-53 0 -91.5 38.5t-38.5 91.5z" />
<glyph unicode="/" horiz-adv-x="712" d="M-69 -325l816 1768h154l-818 -1768h-152z" />
<glyph unicode="0" horiz-adv-x="1290" d="M203 482q0 209 52.5 394.5t141 316.5t209.5 207.5t254 76.5q195 0 311.5 -143t116.5 -377q0 -210 -52 -395t-140 -315t-208.5 -205.5t-254.5 -75.5q-196 0 -313 141t-117 375zM383 485q0 -169 69 -265t194 -96q123 0 229.5 111.5t169.5 304t63 416.5q0 168 -68.5 265 t-190.5 97q-123 0 -231 -112.5t-171.5 -305t-63.5 -415.5z" />
<glyph unicode="1" horiz-adv-x="955" d="M267 961l44 206l443 276h179l-307 -1443h-180l260 1223h-16z" />
<glyph unicode="2" horiz-adv-x="1237" d="M101 0l29 139l615 545q191 170 249.5 247t58.5 160q0 99 -74 164t-187 65q-119 0 -203 -69t-104 -184v-1q-20 0 -83.5 0.5t-93.5 0.5q21 182 159.5 296t337.5 114q185 0 309 -105t124 -261q0 -121 -83.5 -236t-321.5 -324l-426 -373l-4 -16h702l-34 -162h-970z" />
<glyph unicode="3" horiz-adv-x="1284" d="M163 352q0 10 2 32h174v-8q0 -112 89.5 -182.5t231.5 -70.5q160 0 254.5 83t94.5 224q0 104 -87 169.5t-224 65.5h-156l32 154h209q130 0 220 82.5t90 202.5q0 96 -74.5 155.5t-194.5 59.5q-104 0 -190 -62.5t-115 -160.5h-177q37 172 173.5 276.5t324.5 104.5 q190 0 315 -101t125 -253q0 -143 -90 -246t-240 -132l-3 -16q119 -26 183 -101t64 -189q0 -209 -152 -341t-393 -132q-205 0 -345 111.5t-141 274.5z" />
<glyph unicode="4" horiz-adv-x="1318" d="M121 299l27 171q280 360 821 973h274l-209 -983h205l-34 -161h-205l-64 -299h-176l64 299h-703zM339 459h520l173 817h-12q-316 -352 -679 -805z" />
<glyph unicode="5" horiz-adv-x="1267" d="M176 358q0 14 2 28h178v-7q0 -113 84.5 -184t218.5 -71q159 0 257 106.5t98 274.5q0 130 -82 207t-209 77q-90 0 -165.5 -34t-126.5 -95h-178l244 783h796l-35 -161h-646l-133 -437l16 -2q110 97 273 97q180 0 305.5 -117.5t125.5 -295.5q0 -247 -149 -404t-397 -157 q-202 0 -339.5 113.5t-137.5 278.5z" />
<glyph unicode="6" horiz-adv-x="1305" d="M198 491q0 180 44.5 353.5t125.5 312.5q91 155 223.5 237.5t291.5 82.5q191 0 319 -112t136 -286h-186q-10 109 -87 173.5t-198 64.5q-166 0 -285 -144t-177 -414l16 -2q69 91 169 141t215 50q189 0 310 -115t121 -296q0 -159 -74 -290t-203 -206t-285 -75 q-218 0 -347 142t-129 383zM385 415q0 -130 82.5 -209.5t218.5 -79.5q152 0 257.5 113t105.5 277q0 124 -80 201t-207 77q-157 0 -267 -110t-110 -269z" />
<glyph unicode="7" horiz-adv-x="1167" d="M147 0l920 1266l3 16h-737l35 161h925l-36 -167l-913 -1276h-197z" />
<glyph unicode="8" horiz-adv-x="1308" d="M147 347q0 167 110 287.5t277 136.5l4 16q-85 41 -133 112.5t-48 157.5q0 181 140.5 300.5t352.5 119.5q189 0 317.5 -100t128.5 -248q0 -142 -87.5 -245t-230.5 -131l-4 -16q109 -41 170.5 -123t61.5 -185q0 -202 -156 -332.5t-395 -130.5q-223 0 -365.5 106.5 t-142.5 274.5zM335 371q0 -116 88 -183t240 -67q157 0 258.5 86t101.5 220q0 113 -91 183t-237 70q-156 0 -258 -87.5t-102 -221.5zM533 1045q0 -97 76 -157t198 -60q133 0 219.5 79t86.5 200q0 97 -75.5 156t-199.5 59q-135 0 -220 -77t-85 -200z" />
<glyph unicode="9" horiz-adv-x="1306" d="M154 362h186q10 -109 87 -172.5t198 -63.5q166 0 285 144t177 414l-16 2q-69 -91 -169 -141t-215 -50q-189 0 -310 116t-121 297q0 159 74 289.5t203 205t285 74.5q218 0 347 -141t129 -382q0 -181 -44.5 -356t-125.5 -314q-91 -155 -223.5 -236.5t-291.5 -81.5 q-191 0 -319 111t-136 285zM443 929q0 -124 80 -202t207 -78q157 0 267 111t110 270q0 130 -82.5 208.5t-218.5 78.5q-152 0 -257.5 -112.5t-105.5 -275.5z" />
<glyph unicode=":" horiz-adv-x="608" d="M114 120q0 54 38.5 92t91.5 38q54 0 92 -38t38 -92q0 -53 -38 -91.5t-92 -38.5q-53 0 -91.5 38.5t-38.5 91.5zM275 889q0 54 38.5 92t91.5 38q54 0 92 -38t38 -92q0 -53 -38 -91.5t-92 -38.5q-53 0 -91.5 38.5t-38.5 91.5z" />
<glyph unicode=";" horiz-adv-x="608" d="M-24 -367l217 569h202l-269 -569h-150zM275 889q0 54 38.5 92t91.5 38q54 0 92 -38t38 -92q0 -53 -38 -91.5t-92 -38.5q-53 0 -91.5 38.5t-38.5 91.5z" />
<glyph unicode="&#x3c;" d="M276 564l30 142l988 433l-40 -188l-790 -327l-3 -16l625 -445l-39 -184z" />
<glyph unicode="=" horiz-adv-x="1329" d="M167 312l32 149h1008l-32 -149h-1008zM249 700l32 149h1008l-32 -149h-1008z" />
<glyph unicode="&#x3e;" d="M152 -21l40 188l790 327l3 16l-625 445l39 184l771 -585l-30 -142z" />
<glyph unicode="?" horiz-adv-x="1050" d="M247 1089q34 169 153.5 268t309.5 99q183 0 298.5 -96t115.5 -234q0 -128 -80.5 -234t-209.5 -164q-108 -48 -154 -95.5t-60 -126.5l-11 -60h-179l18 82q27 122 86.5 187t181.5 120q112 52 164.5 118.5t52.5 153.5q0 80 -62.5 136t-172.5 56q-102 0 -175 -55.5 t-102 -154.5h-174zM317 121q0 61 39 100.5t100 39.5t99.5 -39t38.5 -101q0 -61 -38.5 -100t-99.5 -39t-100 39t-39 100z" />
<glyph unicode="@" horiz-adv-x="1880" d="M242 482q0 204 70.5 381.5t193.5 303.5t296.5 198.5t371.5 72.5q209 0 380.5 -85.5t269 -235t97.5 -331.5t-62 -333.5t-169.5 -238.5t-237.5 -87q-94 0 -155.5 49t-61.5 123q0 3 0.5 8t0.5 8l-16 1q-38 -67 -101 -102.5t-143 -35.5q-142 0 -227 90t-85 240 q0 215 118.5 362.5t291.5 147.5q88 0 158 -47t86 -116h16l26 124h157l-131 -603q-4 -21 -4 -31q0 -91 107 -91q74 0 143 74.5t110.5 196.5t41.5 254q0 231 -177 382t-448 151q-160 0 -304.5 -64t-248.5 -172t-165 -258.5t-61 -317.5q0 -183 88 -323t248 -216.5t369 -76.5 q142 0 215 25l-27 -126q-108 -25 -235 -25q-229 0 -411 92.5t-283.5 258t-101.5 373.5zM826 521q0 -94 50 -149t135 -55q112 0 192 100.5t80 241.5q0 98 -53.5 158.5t-141.5 60.5q-110 0 -186 -104t-76 -253z" />
<glyph unicode="A" horiz-adv-x="1380" d="M11 0l845 1443h167l226 -1443h-176l-58 413h-579l-232 -413h-193zM522 566h473l-95 641h-16z" />
<glyph unicode="B" horiz-adv-x="1346" d="M123 0l307 1443h501q185 0 295.5 -86.5t110.5 -231.5q0 -136 -85 -236.5t-227 -131.5l-4 -16q116 -20 182.5 -95.5t66.5 -187.5q0 -200 -156.5 -329t-400.5 -129h-590zM340 159h367q159 0 265.5 81.5t106.5 202.5q0 223 -296 223h-335zM481 821h298q165 0 268 74t103 193 q0 196 -288 196h-283z" />
<glyph unicode="C" horiz-adv-x="1463" d="M201 554q0 197 58 368.5t158.5 293t241.5 191.5t303 70q235 0 390 -136.5t155 -342.5v-6h-183v2q-11 145 -113 230.5t-263 85.5q-155 0 -283.5 -97t-202.5 -266t-74 -374q0 -203 106 -321.5t287 -118.5q146 0 258 67.5t151 179.5h190q-54 -193 -219 -303.5t-400 -110.5 q-252 0 -406 161.5t-154 426.5z" />
<glyph unicode="D" horiz-adv-x="1486" d="M125 0l305 1443h403q299 0 464 -167.5t165 -463.5q0 -171 -58 -322.5t-157.5 -258.5t-237.5 -169t-293 -62h-591zM341 160h382q117 0 220 49t176 134t115 204.5t42 255.5q0 227 -120.5 353.5t-336.5 126.5h-239z" />
<glyph unicode="E" horiz-adv-x="1219" d="M123 0l307 1443h896l-35 -162h-711l-100 -463h675l-34 -160h-674l-106 -496h712l-34 -162h-896z" />
<glyph unicode="F" horiz-adv-x="1170" d="M123 0l307 1443h878l-35 -162h-693l-107 -496h637l-34 -160h-637l-131 -625h-185z" />
<glyph unicode="G" horiz-adv-x="1525" d="M202 562q0 195 57.5 365.5t158 291t242 189.5t303.5 69q225 0 377.5 -126t166.5 -323q1 -8 1 -36h-183q-11 146 -112.5 232t-263.5 86q-156 0 -284.5 -95.5t-202 -263t-73.5 -370.5q0 -208 111 -328t302 -120q172 0 298.5 107t161.5 283l11 55h-400l34 158h584l-42 -196 q-60 -280 -232.5 -427t-440.5 -147q-257 0 -415.5 164t-158.5 432z" />
<glyph unicode="H" horiz-adv-x="1522" d="M123 0l307 1443h184l-133 -624h788l133 624h184l-307 -1443h-185l140 657h-788l-140 -657h-183z" />
<glyph unicode="I" horiz-adv-x="550" d="M123 0l307 1443h184l-307 -1443h-184z" />
<glyph unicode="J" horiz-adv-x="1102" d="M96 337h181q2 -94 62 -148t161 -54q208 0 265 269l221 1039h179l-228 -1080q-40 -191 -157.5 -294t-301.5 -103q-174 0 -284 106q-99 97 -99 237q0 14 1 28z" />
<glyph unicode="K" horiz-adv-x="1349" d="M123 0l307 1443h179l-149 -701h16l772 701h235l-702 -635l449 -808h-210l-381 697l-229 -204l-107 -493h-180z" />
<glyph unicode="L" horiz-adv-x="1164" d="M123 0l307 1443h184l-273 -1281h694l-34 -162h-878z" />
<glyph unicode="M" horiz-adv-x="1792" d="M123 0l307 1443h200l242 -1194h16l746 1194h222l-307 -1443h-172l234 1102h-12l-685 -1092h-152l-221 1092h-12l-234 -1102h-172z" />
<glyph unicode="N" horiz-adv-x="1520" d="M123 0l307 1443h177l534 -1153h16l245 1153h182l-307 -1443h-179l-533 1150h-16l-244 -1150h-182z" />
<glyph unicode="O" horiz-adv-x="1579" d="M201 563q0 194 59.5 364t162.5 290.5t248 190t311 69.5t299.5 -77t208 -213.5t74.5 -306.5q0 -261 -100 -470t-277.5 -326.5t-399.5 -117.5q-253 0 -419.5 169.5t-166.5 427.5zM391 579q0 -200 113 -323t297 -123q163 0 294 94t205 261t74 376q0 199 -112.5 322.5 t-293.5 123.5q-162 0 -294.5 -95.5t-207.5 -263t-75 -372.5z" />
<glyph unicode="P" horiz-adv-x="1304" d="M123 0l307 1443h507q177 0 295.5 -107.5t118.5 -282.5q0 -124 -44.5 -226t-122.5 -170t-183 -105t-225 -37h-360l-109 -515h-184zM450 675h315q182 0 290 95.5t108 266.5q0 116 -78 181t-211 65h-294z" />
<glyph unicode="Q" horiz-adv-x="1579" d="M201 563q0 194 59.5 364t162.5 290.5t248 190t311 69.5q252 0 417 -169t165 -428q0 -263 -103 -476t-287 -329l123 -238h-192l-85 164q-105 -35 -233 -35q-253 0 -419.5 169.5t-166.5 427.5zM391 579q0 -200 113.5 -323t296.5 -123q77 0 141 18l-136 262h194l96 -186 q131 95 204.5 263t73.5 374q0 199 -112.5 322.5t-293.5 123.5q-162 0 -294 -95t-207.5 -263t-75.5 -373z" />
<glyph unicode="R" horiz-adv-x="1338" d="M123 0l307 1443h499q196 0 313.5 -104t117.5 -278q0 -168 -105.5 -294t-281.5 -168l207 -599h-196l-188 571h-368l-121 -571h-184zM462 731h348q159 0 259.5 87.5t100.5 225.5q0 110 -66.5 174.5t-179.5 64.5h-344z" />
<glyph unicode="S" horiz-adv-x="1276" d="M119 400h182q26 -125 126.5 -198t246.5 -73q149 0 241.5 70.5t92.5 185.5q0 89 -61.5 150t-201.5 110l-137 48q-148 52 -229.5 149t-81.5 221q0 178 145.5 296t363.5 118q206 0 348 -118t158 -302h-181q-28 122 -116.5 189.5t-219.5 67.5q-134 0 -221 -66.5t-87 -168.5 q0 -77 57 -134t175 -100l130 -47q178 -64 264 -160t86 -230q0 -196 -150.5 -319t-389.5 -123q-222 0 -366.5 116t-173.5 318z" />
<glyph unicode="T" horiz-adv-x="1291" d="M303 1281l34 162h1110l-34 -162h-463l-272 -1281h-184l272 1281h-463z" />
<glyph unicode="U" horiz-adv-x="1524" d="M233 414v8q0 57 13 122l188 899h184l-186 -887q-13 -60 -13 -118v-15q5 -137 93 -214t256 -77q162 0 277.5 96t151.5 263l203 952h184l-210 -987q-50 -236 -211 -363t-427 -127q-120 0 -216 34.5t-157.5 95.5t-95 142t-34.5 176z" />
<glyph unicode="V" horiz-adv-x="1380" d="M316 1443h170l186 -1204h16l671 1204h199l-838 -1443h-178z" />
<glyph unicode="W" horiz-adv-x="1982" d="M337 1443h165l58 -1173h12l572 1173h162l94 -1173h12l541 1173h186l-692 -1443h-177l-97 1139h-12l-560 -1139h-177z" />
<glyph unicode="X" horiz-adv-x="1390" d="M31 0l655 752l-323 691h206l249 -574h16l508 574h205l-649 -727l332 -716h-194l-268 586h-16l-517 -586h-204z" />
<glyph unicode="Y" horiz-adv-x="1344" d="M317 1443h187l268 -649h16l526 649h207l-692 -848l-124 -595h-184l132 621z" />
<glyph unicode="Z" horiz-adv-x="1355" d="M84 0l27 128l1048 1137l4 16h-779l34 162h1022l-27 -128l-1045 -1137l-3 -16h820l-34 -162h-1067z" />
<glyph unicode="[" horiz-adv-x="758" d="M83 -240l358 1684h452l-29 -136h-284l-300 -1413h296l-29 -135h-464z" />
<glyph unicode="\" horiz-adv-x="712" d="M311 1443h144l64 -1768h-142z" />
<glyph unicode="]" horiz-adv-x="758" d="M1 -240l29 136h284l300 1413h-296l29 134h464l-358 -1683h-452z" />
<glyph unicode="^" horiz-adv-x="828" d="M168 815l396 609h184l138 -609h-161l-88 463h-16l-284 -463h-169z" />
<glyph unicode="_" horiz-adv-x="916" d="M-120 -235l27 128h936l-27 -128h-936z" />
<glyph unicode="`" horiz-adv-x="1094" d="M594 1601h214l180 -338h-188z" />
<glyph unicode="a" horiz-adv-x="1126" d="M106 279q0 159 120.5 251t344.5 102l306 14l16 73q6 33 6 51q0 82 -61 127.5t-170 45.5q-91 0 -152 -35t-87 -100h-182q36 133 153.5 211t281.5 78q178 0 285 -82.5t107 -219.5q0 -43 -9 -88l-150 -707h-167l30 141h-16q-57 -75 -143 -117.5t-183 -42.5q-141 0 -235.5 86 t-94.5 212zM283 298q0 -74 58 -121t149 -47q121 0 214 71.5t117 181.5l27 124l-287 -14q-132 -7 -205 -58.5t-73 -136.5z" />
<glyph unicode="b" horiz-adv-x="1259" d="M110 0l320 1506h172l-120 -575h16q123 166 338 166q163 0 272.5 -118.5t109.5 -298.5q0 -194 -72.5 -354.5t-199.5 -252.5t-280 -92q-112 0 -205.5 61.5t-125.5 156.5h-16l-44 -199h-165zM382 434q0 -137 73 -217.5t198 -80.5q165 0 275 148t110 370q0 136 -68.5 212 t-190.5 76q-167 0 -282 -147t-115 -361z" />
<glyph unicode="c" horiz-adv-x="1135" d="M156 438q0 187 73 337.5t203.5 236t292.5 85.5q159 0 273.5 -84.5t139.5 -217.5q3 -15 5 -47h-176q-8 84 -80.5 139t-175.5 55q-160 0 -267 -138t-107 -343q0 -150 72.5 -236.5t197.5 -86.5q100 0 172 44.5t103 125.5h179q-33 -147 -162 -237t-307 -90q-197 0 -316.5 125 t-119.5 332z" />
<glyph unicode="d" horiz-adv-x="1265" d="M153 418q0 192 74 348t201 243.5t281 87.5q116 0 205 -60.5t118 -157.5h16l133 627h175l-320 -1506h-166l31 147h-16q-59 -77 -148.5 -121.5t-191.5 -44.5q-166 0 -279 120.5t-113 316.5zM333 444q0 -137 74 -222.5t193 -85.5q110 0 200 67t141.5 183.5t51.5 257.5 q0 137 -73 217.5t-198 80.5q-166 0 -277.5 -141t-111.5 -357z" />
<glyph unicode="e" horiz-adv-x="1176" d="M157 432q0 297 156.5 481t404.5 184q174 0 291.5 -116.5t118.5 -319.5q0 -86 -13 -162h-777q-2 -36 -2 -54q0 -80 23.5 -141t63 -96t86 -52.5t97.5 -17.5q197 0 271 137h183q-34 -129 -158 -211.5t-307 -82.5q-188 0 -313 120t-125 331zM361 638h585q2 12 2 45 q0 112 -64.5 187t-181.5 75q-122 0 -212.5 -83t-128.5 -224z" />
<glyph unicode="f" horiz-adv-x="741" d="M174 0l194 934h-179l30 144h179l20 105q31 165 121 239t254 74q62 0 121 -10l-29 -144q-40 9 -109 9q-75 0 -120.5 -42t-62.5 -131l-19 -100h245l-30 -144h-245l-194 -934h-176z" />
<glyph unicode="g" horiz-adv-x="1247" d="M66 -106h183q12 -68 83 -113t185 -45q139 0 221 65t108 177l47 200h-16q-116 -162 -326 -162q-167 0 -279.5 120.5t-112.5 310.5q0 141 41 263t112.5 206.5t170.5 132.5t212 48q114 0 209.5 -61.5t127.5 -156.5h16l42 199h167l-244 -1130q-36 -167 -169.5 -264 t-340.5 -97q-182 0 -304.5 90t-132.5 217zM339 473q0 -143 71 -224t194 -81q165 0 273 132.5t108 343.5q0 137 -75 217.5t-202 80.5q-162 0 -265.5 -128.5t-103.5 -340.5z" />
<glyph unicode="h" horiz-adv-x="1236" d="M110 0l322 1506h175l-127 -589h16q126 180 333 180q153 0 249.5 -95.5t96.5 -228.5q0 -56 -14 -124l-138 -649h-175l132 619q13 63 13 105q0 99 -63.5 158.5t-173.5 59.5q-125 0 -214.5 -79.5t-116.5 -204.5l-140 -658h-175z" />
<glyph unicode="i" horiz-adv-x="516" d="M110 0l231 1078h176l-231 -1078h-176zM379 1417q0 49 35.5 84.5t84.5 35.5t84.5 -35.5t35.5 -84.5t-35.5 -84.5t-84.5 -35.5t-84.5 35.5t-35.5 84.5z" />
<glyph unicode="j" horiz-adv-x="516" d="M-164 -394l33 152q31 -3 53 -3q76 0 115 36t58 125l247 1162h172l-252 -1185q-32 -151 -115.5 -220.5t-229.5 -70.5q-44 0 -81 4zM379 1417q0 49 35.5 84.5t84.5 35.5t84.5 -35.5t35.5 -84.5t-35.5 -84.5t-84.5 -35.5t-84.5 35.5t-35.5 84.5z" />
<glyph unicode="k" horiz-adv-x="1086" d="M110 0l320 1506h174l-185 -870h16l546 442h227l-565 -465l363 -613h-201l-301 516l-130 -94l-90 -422h-174z" />
<glyph unicode="l" horiz-adv-x="516" d="M110 0l320 1506h176l-320 -1506h-176z" />
<glyph unicode="m" horiz-adv-x="1782" d="M100 0l229 1078h167l-35 -166h16q44 81 126.5 133t171.5 52q112 0 189 -58.5t96 -138.5h16q54 86 142 141.5t204 55.5q132 0 218.5 -83t86.5 -211q0 -56 -14 -124l-144 -679h-175l138 649q13 63 13 105q0 80 -51.5 134t-140.5 54q-99 0 -180 -72.5t-107 -193.5l-144 -676 h-175l138 649q13 63 13 105q0 80 -51.5 134t-140.5 54q-98 0 -179.5 -70.5t-105.5 -183.5l-146 -688h-175z" />
<glyph unicode="n" horiz-adv-x="1218" d="M100 0l229 1078h167l-34 -161h16q126 180 337 180q151 0 246.5 -95.5t95.5 -228.5q0 -56 -14 -124l-138 -649h-175l132 619q13 63 13 105q0 98 -63 158t-170 60q-122 0 -211 -79.5t-116 -204.5l-140 -658h-175z" />
<glyph unicode="o" horiz-adv-x="1212" d="M155 427q0 137 39.5 258.5t111.5 213t181 145t240 53.5q197 0 318 -124t121 -320q0 -105 -24 -204t-72.5 -184t-116 -148.5t-159.5 -99.5t-198 -36q-197 0 -319 124.5t-122 321.5zM338 448q0 -137 75.5 -224.5t204.5 -87.5q145 0 254.5 136t109.5 340q0 154 -72.5 242 t-198.5 88q-171 0 -272 -139t-101 -355z" />
<glyph unicode="p" horiz-adv-x="1254" d="M28 -360l306 1438h166l-31 -147h16q59 77 150.5 121.5t193.5 44.5q164 0 274 -118.5t110 -298.5q0 -194 -72.5 -354.5t-199.5 -252.5t-280 -92q-116 0 -205 60.5t-118 157.5h-16l-121 -559h-173zM377 434q0 -137 73 -217.5t198 -80.5q165 0 275 148t110 370 q0 136 -68.5 212t-190.5 76q-167 0 -282 -147t-115 -361z" />
<glyph unicode="q" horiz-adv-x="1251" d="M152 414q0 189 72.5 346t199.5 247t280 90q112 0 205.5 -61.5t125.5 -156.5h16l42 199h167l-306 -1438h-172l106 507h-16q-123 -166 -338 -166q-164 0 -273 123t-109 310zM332 440q0 -144 68.5 -224t190.5 -80q167 0 282 147t115 361q0 137 -73 217.5t-198 80.5 q-165 0 -275 -143.5t-110 -358.5z" />
<glyph unicode="r" horiz-adv-x="791" d="M92 0l229 1078h166l-29 -137h16q104 156 289 156q87 0 126 -15l-37 -165q-58 13 -136 13q-130 0 -206.5 -71t-108.5 -222l-135 -637h-174z" />
<glyph unicode="s" horiz-adv-x="1052" d="M98 289h177q21 -73 87.5 -118t165.5 -45q109 0 179 47t70 121q0 103 -135 146l-165 53q-127 41 -188.5 108.5t-61.5 173.5q0 143 114.5 232.5t289.5 89.5q169 0 276 -80t129 -215h-171q-17 70 -80 109.5t-157 39.5q-99 0 -163.5 -45t-64.5 -115q0 -97 151 -146l146 -47 q135 -43 196 -112.5t61 -178.5q0 -142 -123 -234t-311 -92q-177 0 -293.5 85t-128.5 223z" />
<glyph unicode="t" horiz-adv-x="744" d="M191 934l30 144h182l55 269h175l-57 -269h250l-30 -144h-250l-123 -578q-12 -57 -12 -97q0 -116 136 -116q38 0 69 4l-31 -145q-58 -10 -101 -10q-117 0 -187.5 56t-70.5 162q0 40 11 93l135 631h-181z" />
<glyph unicode="u" horiz-adv-x="1215" d="M172 294q0 67 15 140l135 644h175l-131 -619q-14 -68 -14 -121q0 -202 219 -202q128 0 222 82t121 212l138 648h174l-229 -1078h-166l33 146h-16q-47 -73 -137 -119t-207 -46q-146 0 -239 89t-93 224z" />
<glyph unicode="v" horiz-adv-x="1110" d="M238 1078h173l126 -856h16l468 856h191l-622 -1078h-183z" />
<glyph unicode="w" horiz-adv-x="1586" d="M237 1078h157l49 -853h16l411 853h175l57 -862h16l396 862h173l-532 -1078h-175l-70 827h-16l-411 -827h-174z" />
<glyph unicode="x" horiz-adv-x="1076" d="M18 0l484 548l-258 530h188l179 -401h16l337 401h205l-481 -539l256 -539h-181l-185 405h-16l-339 -405h-205z" />
<glyph unicode="y" horiz-adv-x="1112" d="M40 -380l26 147q39 -13 102 -13q56 0 103.5 40.5t101.5 140.5l39 73l-175 1070h171l128 -857h16l472 857h189l-686 -1196q-91 -159 -172.5 -216.5t-196.5 -57.5q-37 0 -118 12z" />
<glyph unicode="z" horiz-adv-x="1104" d="M77 0l27 126l764 792l3 16h-594l32 144h826l-29 -129l-758 -789l-3 -16h593l-31 -144h-830z" />
<glyph unicode="{" horiz-adv-x="823" d="M151 519l41 191q100 0 148.5 47t74.5 166l59 275q36 170 152 247t310 77h50l-30 -141h-45q-125 0 -191 -52t-91 -173l-63 -296q-24 -114 -81 -171.5t-149 -66.5l-3 -16q63 -15 100.5 -55t37.5 -102q0 -32 -10 -84l-71 -334q-10 -50 -10 -80q0 -76 47 -112.5t148 -36.5h45 l-29 -136h-48q-152 0 -242.5 67t-90.5 176q0 52 13 110l61 289q12 55 12 95q0 63 -34 89.5t-111 26.5z" />
<glyph unicode="|" horiz-adv-x="676" d="M135 -326l376 1769h148l-376 -1769h-148z" />
<glyph unicode="}" horiz-adv-x="824" d="M-30 -334l30 141h45q125 0 191 52t91 173l63 296q24 114 81 171.5t149 66.5l3 16q-63 15 -100.5 55t-37.5 102q0 32 10 84l71 334q10 50 10 80q0 76 -47 112.5t-148 36.5h-45l29 136h48q152 0 242.5 -67t90.5 -176q0 -52 -13 -110l-61 -289q-12 -55 -12 -95 q0 -63 34 -89.5t111 -26.5l-41 -191q-100 0 -148.5 -47t-74.5 -166l-59 -275q-36 -170 -152 -247t-310 -77h-50z" />
<glyph unicode="~" horiz-adv-x="1202" d="M56 573q18 155 106 242t206 87q55 0 102.5 -23.5t80 -57t60.5 -67t58 -57t60 -23.5q108 0 138 167h171q-18 -155 -106 -242t-206 -87q-56 0 -104 23.5t-80 57t-60.5 67t-58.5 57t-60 23.5q-54 0 -87 -40.5t-49 -126.5h-171z" />
<glyph unicode="&#xa1;" horiz-adv-x="636" d="M87 -342l222 964h166l-188 -964h-200zM328 981q0 60 39 99.5t99 39.5t99.5 -39.5t39.5 -99.5t-39.5 -100t-99.5 -40t-99 40t-39 100z" />
<glyph unicode="&#xa2;" d="M283 638q0 181 69 328.5t192.5 234.5t278.5 95l31 147h172l-35 -165q109 -32 182 -107t92 -176q4 -29 5 -47h-176q-8 84 -80.5 139t-175.5 55q-160 0 -267 -138t-107 -343q0 -151 73 -239t197 -88q100 0 172 44.5t103 125.5h179q-31 -139 -148.5 -227.5t-282.5 -98.5 l-38 -178h-172l41 194q-141 39 -223 157t-82 287z" />
<glyph unicode="&#xa3;" d="M94 0l32 152q49 8 101 30t103 58.5t91 83.5t64.5 110.5t24.5 133.5q0 30 -5 85h-314l30 144h269q-10 116 -10 171q0 240 140.5 374.5t427.5 134.5q89 0 186.5 -18t155.5 -47l-35 -158q-47 27 -137.5 45.5t-174.5 18.5q-174 0 -273.5 -80.5t-99.5 -237.5q0 -73 11 -203 h428l-30 -144h-389q2 -40 2 -57q0 -335 -271 -426l-3 -16h771l-33 -154h-1062z" />
<glyph unicode="&#xa5;" d="M292 269l29 136h278l35 166h-278l29 136h225l-301 736h187l268 -649h16l526 649h207l-601 -736h207l-29 -136h-274l-35 -166h274l-29 -136h-273l-55 -269h-185l57 269h-278z" />
<glyph unicode="&#xa7;" horiz-adv-x="1032" d="M57 51h177q18 -73 79.5 -118t153.5 -45q102 0 165.5 47t63.5 121q0 50 -27.5 85t-97.5 61l-145 53q-240 88 -240 284q0 108 73 184.5t192 100.5l4 18q-83 49 -118.5 103.5t-35.5 135.5q0 142 108 229t276 87q161 0 263.5 -81t121.5 -214h-171q-14 67 -72.5 108t-144.5 41 q-91 0 -149.5 -45t-58.5 -115q0 -49 34 -84t107 -62l126 -47q126 -47 186.5 -111.5t60.5 -169.5t-69.5 -188t-190.5 -112l-3 -12q81 -50 114.5 -105t33.5 -135q0 -141 -116.5 -231.5t-297.5 -90.5q-165 0 -279 86t-123 222zM359 563q0 -103 141 -156l92 -34q100 17 159.5 74 t59.5 137q0 110 -125 156l-86 31q-103 -9 -172 -67t-69 -141z" />
<glyph unicode="&#xa8;" horiz-adv-x="1094" d="M458 1384q0 50 35.5 85.5t85.5 35.5t85.5 -35.5t35.5 -85.5t-35.5 -85.5t-85.5 -35.5t-85.5 35.5t-35.5 85.5zM862 1384q0 50 35.5 85.5t85.5 35.5t85.5 -35.5t35.5 -85.5t-35.5 -85.5t-85.5 -35.5t-85.5 35.5t-35.5 85.5z" />
<glyph unicode="&#xa9;" horiz-adv-x="1742" d="M168 528q0 190 68 356t186.5 284.5t284.5 186.5t356 68q205 0 372 -91t262 -250.5t95 -355.5q0 -127 -31 -245t-87 -216.5t-137.5 -180t-180 -137.5t-216 -87t-244.5 -31q-199 0 -366.5 93t-264.5 254t-97 352zM312 546q0 -161 79 -293.5t217 -208t305 -75.5 q152 0 288 57.5t234 156t155.5 235.5t57.5 290q0 248 -171 411.5t-430 163.5q-202 0 -371 -97.5t-266.5 -267t-97.5 -372.5zM601 563q0 213 121 353.5t305 140.5q135 0 220 -71t94 -191h-132q-6 63 -60.5 104.5t-131.5 41.5q-120 0 -200.5 -103.5t-80.5 -257.5 q0 -113 54.5 -179t148.5 -66q75 0 129 33t77 94h134q-25 -110 -121.5 -177.5t-229.5 -67.5q-147 0 -237 95t-90 251z" />
<glyph unicode="&#xaa;" horiz-adv-x="942" d="M184 776q0 134 102.5 211.5t290.5 84.5l249 11l13 60q5 31 4 40q1 64 -48 100.5t-135 36.5q-148 0 -191 -107h-168q29 114 130 181t242 67q153 0 245 -70t92 -186q0 -42 -7 -73l-126 -591h-160l25 117h-14q-46 -61 -117 -95.5t-153 -34.5q-117 0 -195.5 71t-78.5 177z M351 796q0 -58 46 -95t119 -37q96 0 170 55.5t93 141.5l21 99l-228 -11q-104 -5 -162.5 -45.5t-58.5 -107.5z" />
<glyph unicode="&#xab;" horiz-adv-x="1390" d="M207 561l2 8l439 416h219l-453 -432l-3 -16l248 -392h-190zM685 561l2 8l439 416h219l-453 -432l-3 -16l248 -392h-190z" />
<glyph unicode="&#xac;" d="M238 506l31 148h948l-112 -528h-148l81 380h-800z" />
<glyph unicode="&#xad;" horiz-adv-x="966" d="M201 499l35 163h656l-35 -163h-656z" />
<glyph unicode="&#xae;" horiz-adv-x="1261" d="M237 887q0 144 69.5 264t189.5 189t263 69q108 0 204.5 -41t166 -110.5t110.5 -166t41 -204.5q0 -143 -69 -263t-189 -189.5t-264 -69.5q-218 0 -370 152t-152 370zM341 887q0 -175 120.5 -296.5t294.5 -121.5q176 0 298.5 121.5t122.5 296.5t-121.5 296.5t-296.5 121.5 t-296.5 -121.5t-121.5 -296.5zM497 655l106 499h241q65 0 109 -39.5t44 -93.5q0 -69 -41.5 -114t-109.5 -56l96 -196h-120l-90 183h-98l-39 -183h-98zM652 922h124q109 0 109 83q0 26 -19.5 43t-56.5 17h-127z" />
<glyph unicode="&#xaf;" horiz-adv-x="1094" d="M423 1286l29 136h674l-29 -136h-674z" />
<glyph unicode="&#xb0;" horiz-adv-x="820" d="M319 1194q0 119 82.5 202t201.5 83t202 -83.5t83 -201.5t-83 -201.5t-202 -83.5t-201.5 83t-82.5 202zM446 1194q0 -63 47 -109.5t110 -46.5q66 0 112 46t46 110q0 65 -46 111t-112 46q-63 0 -110 -46t-47 -111z" />
<glyph unicode="&#xb1;" d="M119 112l31 148h1018l-31 -148h-1018zM236 662l29 136h433l63 291h152l-63 -291h433l-29 -136h-433l-62 -291h-152l62 291h-433z" />
<glyph unicode="&#xb2;" horiz-adv-x="855" d="M245 900l27 126l356 297q126 104 164.5 151t38.5 95q0 53 -38.5 86.5t-99.5 33.5q-62 0 -107.5 -38t-57.5 -101v-3h-162q11 122 106.5 201t234.5 79q128 0 212.5 -69t84.5 -173q0 -80 -55 -152t-217 -203l-212 -178l-2 -11h403l-30 -141h-646z" />
<glyph unicode="&#xb3;" horiz-adv-x="867" d="M278 1165h165q0 -66 46 -106.5t122 -40.5q81 0 130.5 43.5t49.5 114.5q0 55 -44.5 89.5t-115.5 34.5h-99l26 129h123q73 0 121 41t48 104q0 52 -40 84t-105 32q-57 0 -101.5 -32t-61.5 -85h-161q24 116 116 185t222 69q131 0 216 -66t85 -167q0 -88 -59.5 -153 t-152.5 -79l-1 -11q75 -16 115.5 -64.5t40.5 -121.5q0 -126 -100 -207.5t-255 -81.5q-156 0 -251 83t-79 206z" />
<glyph unicode="&#xb4;" horiz-adv-x="1094" d="M519 1263l324 338h220l-350 -338h-194z" />
<glyph unicode="&#xb6;" horiz-adv-x="1321" d="M350 950q0 218 161.5 355.5t416.5 137.5h200l-354 -1663h-180l169 795q-181 0 -297 105.5t-116 269.5zM921 -220l354 1663h180l-354 -1663h-180z" />
<glyph unicode="&#xb7;" horiz-adv-x="630" d="M271 739q0 62 40 102t102 40q61 0 100.5 -40t39.5 -102t-39.5 -102t-100.5 -40q-62 0 -102 40t-40 102z" />
<glyph unicode="&#xb8;" horiz-adv-x="1094" d="M194 -455l23 108q65 -28 147 -28q48 0 76 19t28 51q0 72 -134 72h-53l13 90l113 182h141l-111 -179q179 -20 179 -156q0 -85 -69.5 -140t-177.5 -55q-95 0 -175 36z" />
<glyph unicode="&#xb9;" horiz-adv-x="680" d="M337 1470l36 169l270 164h173l-192 -903h-174l154 725h-11z" />
<glyph unicode="&#xba;" horiz-adv-x="1024" d="M226 918q0 152 65 277t179 196.5t253 71.5q173 0 274 -108t101 -293q0 -152 -65 -277.5t-178.5 -197.5t-250.5 -72q-173 0 -275.5 109t-102.5 294zM403 941q0 -130 58 -204t161 -74q125 0 212 112t87 274q0 123 -59 194.5t-160 71.5q-128 0 -213.5 -107t-85.5 -267z" />
<glyph unicode="&#xbb;" horiz-adv-x="1393" d="M165 145l453 432l3 16l-248 392h190l262 -416l-2 -8l-439 -416h-219zM646 145l453 432l3 16l-248 392h190l262 -416l-2 -8l-439 -416h-219z" />
<glyph unicode="&#xbf;" horiz-adv-x="1049" d="M40 -24q0 128 80.5 234t209.5 164q108 48 154 95.5t60 126.5l11 60h179l-18 -82q-27 -122 -86.5 -187t-181.5 -120q-112 -52 -164.5 -118.5t-52.5 -153.5q0 -80 62.5 -136t172.5 -56q102 0 175 55.5t102 154.5h174q-34 -169 -153.5 -268t-309.5 -99q-183 0 -298.5 96 t-115.5 234zM570 981q0 61 38.5 100t99.5 39t100 -39t39 -100t-39 -100.5t-100 -39.5t-99.5 39t-38.5 101z" />
<glyph unicode="&#xc0;" horiz-adv-x="1380" d="M11 0l845 1443h167l226 -1443h-176l-58 413h-579l-232 -413h-193zM522 566h473l-95 641h-16zM659 1873h206l184 -298h-184z" />
<glyph unicode="&#xc1;" horiz-adv-x="1380" d="M11 0l845 1443h167l226 -1443h-176l-58 413h-579l-232 -413h-193zM522 566h473l-95 641h-16zM877 1575l373 298h226l-395 -298h-204z" />
<glyph unicode="&#xc2;" horiz-adv-x="1380" d="M11 0l845 1443h167l226 -1443h-176l-58 413h-579l-232 -413h-193zM522 566h473l-95 641h-16zM608 1575l310 298h202l184 -298h-185l-105 186h-16l-183 -186h-207z" />
<glyph unicode="&#xc3;" horiz-adv-x="1380" d="M11 0l845 1443h167l226 -1443h-176l-58 413h-579l-232 -413h-193zM522 566h473l-95 641h-16zM592 1620q20 118 91.5 185.5t167.5 67.5q56 0 104.5 -25.5t76 -56t60 -56t61.5 -25.5q90 0 115 118h142q-20 -118 -91.5 -185.5t-167.5 -67.5q-47 0 -87 17t-67.5 40.5 t-51.5 47.5t-48.5 41t-48.5 17q-89 0 -114 -118h-142z" />
<glyph unicode="&#xc4;" horiz-adv-x="1380" d="M11 0l845 1443h167l226 -1443h-176l-58 413h-579l-232 -413h-193zM522 566h473l-95 641h-16zM670 1696q0 50 35.5 85.5t85.5 35.5t85.5 -35.5t35.5 -85.5t-35.5 -85.5t-85.5 -35.5t-85.5 35.5t-35.5 85.5zM1074 1696q0 50 35.5 85.5t85.5 35.5t85.5 -35.5t35.5 -85.5 t-35.5 -85.5t-85.5 -35.5t-85.5 35.5t-35.5 85.5z" />
<glyph unicode="&#xc5;" horiz-adv-x="1380" d="M11 0l845 1443h167l226 -1443h-176l-58 413h-579l-232 -413h-193zM522 566h473l-95 641h-16zM783 1800q0 96 68 162.5t164 66.5t164 -66.5t68 -162.5t-68 -162.5t-164 -66.5t-164 66.5t-68 162.5zM893 1800q0 -53 35 -88t87 -35t87 35t35 88t-35 88t-87 35t-87 -35 t-35 -88z" />
<glyph unicode="&#xc6;" horiz-adv-x="1966" d="M9 0l958 1443h1110l-35 -162h-658l-100 -473h621l-34 -160h-621l-104 -486h658l-34 -162h-838l98 459h-527l-307 -459h-187zM605 612h457l145 680h-147z" />
<glyph unicode="&#xc7;" horiz-adv-x="1466" d="M201 554q0 197 58 368.5t158.5 293t241.5 191.5t303 70q235 0 390 -136.5t155 -342.5v-6h-183v2q-11 145 -113 230.5t-263 85.5q-155 0 -283.5 -97t-202.5 -266t-74 -374q0 -203 106 -321.5t287 -118.5q146 0 258 67.5t151 179.5h190q-49 -177 -194 -285.5t-352 -125.5 l-68 -109q179 -20 179 -156q0 -85 -69.5 -140t-177.5 -55q-95 0 -175 36l23 108q65 -28 147 -28q48 0 76 19t28 51q0 72 -134 72h-53l13 90l70 112q-224 23 -358 181t-134 404z" />
<glyph unicode="&#xc8;" horiz-adv-x="1219" d="M123 0l307 1443h896l-35 -162h-711l-100 -463h675l-34 -160h-674l-106 -496h712l-34 -162h-896zM597 1873h206l184 -298h-184z" />
<glyph unicode="&#xc9;" horiz-adv-x="1219" d="M123 0l307 1443h896l-35 -162h-711l-100 -463h675l-34 -160h-674l-106 -496h712l-34 -162h-896zM815 1575l373 298h226l-395 -298h-204z" />
<glyph unicode="&#xca;" horiz-adv-x="1219" d="M123 0l307 1443h896l-35 -162h-711l-100 -463h675l-34 -160h-674l-106 -496h712l-34 -162h-896zM546 1575l310 298h202l184 -298h-185l-105 186h-16l-183 -186h-207z" />
<glyph unicode="&#xcb;" horiz-adv-x="1219" d="M123 0l307 1443h896l-35 -162h-711l-100 -463h675l-34 -160h-674l-106 -496h712l-34 -162h-896zM608 1696q0 50 35.5 85.5t85.5 35.5t85.5 -35.5t35.5 -85.5t-35.5 -85.5t-85.5 -35.5t-85.5 35.5t-35.5 85.5zM1012 1696q0 50 35.5 85.5t85.5 35.5t85.5 -35.5t35.5 -85.5 t-35.5 -85.5t-85.5 -35.5t-85.5 35.5t-35.5 85.5z" />
<glyph unicode="&#xcc;" horiz-adv-x="550" d="M123 0l307 1443h184l-307 -1443h-184zM242 1873h206l184 -298h-184z" />
<glyph unicode="&#xcd;" horiz-adv-x="550" d="M123 0l307 1443h184l-307 -1443h-184zM460 1575l373 298h226l-395 -298h-204z" />
<glyph unicode="&#xce;" horiz-adv-x="550" d="M123 0l307 1443h184l-307 -1443h-184zM191 1575l310 298h202l184 -298h-185l-105 186h-16l-183 -186h-207z" />
<glyph unicode="&#xcf;" horiz-adv-x="550" d="M123 0l307 1443h184l-307 -1443h-184zM253 1696q0 50 35.5 85.5t85.5 35.5t85.5 -35.5t35.5 -85.5t-35.5 -85.5t-85.5 -35.5t-85.5 35.5t-35.5 85.5zM657 1696q0 50 35.5 85.5t85.5 35.5t85.5 -35.5t35.5 -85.5t-35.5 -85.5t-85.5 -35.5t-85.5 35.5t-35.5 85.5z" />
<glyph unicode="&#xd0;" horiz-adv-x="1486" d="M64 663l35 163h201l130 617h403q299 0 464 -167.5t165 -463.5q0 -171 -58 -322.5t-157.5 -258.5t-237.5 -169t-293 -62h-591l140 663h-201zM341 160h382q117 0 220 49t176 134t115 204.5t42 255.5q0 227 -120.5 353.5t-336.5 126.5h-239l-97 -457h202l-35 -163h-202z" />
<glyph unicode="&#xd1;" horiz-adv-x="1520" d="M123 0l307 1443h177l534 -1153h16l245 1153h182l-307 -1443h-179l-533 1150h-16l-244 -1150h-182zM669 1620q20 118 91.5 185.5t167.5 67.5q56 0 104.5 -25.5t76 -56t60 -56t61.5 -25.5q90 0 115 118h142q-20 -118 -91.5 -185.5t-167.5 -67.5q-47 0 -87 17t-67.5 40.5 t-51.5 47.5t-48.5 41t-48.5 17q-89 0 -114 -118h-142z" />
<glyph unicode="&#xd2;" horiz-adv-x="1579" d="M201 563q0 194 59.5 364t162.5 290.5t248 190t311 69.5t299.5 -77t208 -213.5t74.5 -306.5q0 -261 -100 -470t-277.5 -326.5t-399.5 -117.5q-253 0 -419.5 169.5t-166.5 427.5zM391 579q0 -200 113 -323t297 -123q163 0 294 94t205 261t74 376q0 199 -112.5 322.5 t-293.5 123.5q-162 0 -294.5 -95.5t-207.5 -263t-75 -372.5zM697 1871h206l184 -298h-184z" />
<glyph unicode="&#xd3;" horiz-adv-x="1579" d="M201 563q0 194 59.5 364t162.5 290.5t248 190t311 69.5t299.5 -77t208 -213.5t74.5 -306.5q0 -261 -100 -470t-277.5 -326.5t-399.5 -117.5q-253 0 -419.5 169.5t-166.5 427.5zM391 579q0 -200 113 -323t297 -123q163 0 294 94t205 261t74 376q0 199 -112.5 322.5 t-293.5 123.5q-162 0 -294.5 -95.5t-207.5 -263t-75 -372.5zM915 1573l373 298h226l-395 -298h-204z" />
<glyph unicode="&#xd4;" horiz-adv-x="1579" d="M201 563q0 194 59.5 364t162.5 290.5t248 190t311 69.5t299.5 -77t208 -213.5t74.5 -306.5q0 -261 -100 -470t-277.5 -326.5t-399.5 -117.5q-253 0 -419.5 169.5t-166.5 427.5zM391 579q0 -200 113 -323t297 -123q163 0 294 94t205 261t74 376q0 199 -112.5 322.5 t-293.5 123.5q-162 0 -294.5 -95.5t-207.5 -263t-75 -372.5zM646 1573l310 298h202l184 -298h-185l-105 186h-16l-183 -186h-207z" />
<glyph unicode="&#xd5;" horiz-adv-x="1579" d="M201 563q0 194 59.5 364t162.5 290.5t248 190t311 69.5t299.5 -77t208 -213.5t74.5 -306.5q0 -261 -100 -470t-277.5 -326.5t-399.5 -117.5q-253 0 -419.5 169.5t-166.5 427.5zM391 579q0 -200 113 -323t297 -123q163 0 294 94t205 261t74 376q0 199 -112.5 322.5 t-293.5 123.5q-162 0 -294.5 -95.5t-207.5 -263t-75 -372.5zM630 1618q20 118 91.5 185.5t167.5 67.5q56 0 104.5 -25.5t76 -56t60 -56t61.5 -25.5q90 0 115 118h142q-20 -118 -91.5 -185.5t-167.5 -67.5q-47 0 -87 17t-67.5 40.5t-51.5 47.5t-48.5 41t-48.5 17 q-89 0 -114 -118h-142z" />
<glyph unicode="&#xd6;" horiz-adv-x="1579" d="M201 563q0 194 59.5 364t162.5 290.5t248 190t311 69.5t299.5 -77t208 -213.5t74.5 -306.5q0 -261 -100 -470t-277.5 -326.5t-399.5 -117.5q-253 0 -419.5 169.5t-166.5 427.5zM391 579q0 -200 113 -323t297 -123q163 0 294 94t205 261t74 376q0 199 -112.5 322.5 t-293.5 123.5q-162 0 -294.5 -95.5t-207.5 -263t-75 -372.5zM708 1694q0 50 35.5 85.5t85.5 35.5t85.5 -35.5t35.5 -85.5t-35.5 -85.5t-85.5 -35.5t-85.5 35.5t-35.5 85.5zM1112 1694q0 50 35.5 85.5t85.5 35.5t85.5 -35.5t35.5 -85.5t-35.5 -85.5t-85.5 -35.5t-85.5 35.5 t-35.5 85.5z" />
<glyph unicode="&#xd8;" horiz-adv-x="1551" d="M201 563q0 194 59.5 364t162.5 290.5t248 190t311 69.5q182 0 325 -93l81 104l98 -69l-86 -112q164 -169 164 -427q0 -261 -100 -470t-277.5 -326.5t-399.5 -117.5q-190 0 -338 101l-87 -114l-100 76l93 120q-154 167 -154 414zM391 579q0 -165 79 -280l728 943 q-97 68 -230 68q-162 0 -294.5 -95.5t-207.5 -263t-75 -372.5zM558 208q103 -75 243 -75q163 0 294 94t205 261t74 376q0 175 -88 294z" />
<glyph unicode="&#xd9;" horiz-adv-x="1524" d="M233 414q-1 60 13 130l188 899h184l-186 -887q-15 -68 -13 -133q5 -137 93 -214t256 -77q162 0 277.5 96t151.5 263l203 952h184l-210 -987q-50 -236 -211 -363t-427 -127q-120 0 -216 34.5t-157.5 95.5t-95 142t-34.5 176zM728 1873h206l184 -298h-184z" />
<glyph unicode="&#xda;" horiz-adv-x="1524" d="M233 414q-1 60 13 130l188 899h184l-186 -887q-15 -68 -13 -133q5 -137 93 -214t256 -77q162 0 277.5 96t151.5 263l203 952h184l-210 -987q-50 -236 -211 -363t-427 -127q-120 0 -216 34.5t-157.5 95.5t-95 142t-34.5 176zM946 1575l373 298h226l-395 -298h-204z" />
<glyph unicode="&#xdb;" horiz-adv-x="1524" d="M233 414q-1 60 13 130l188 899h184l-186 -887q-15 -68 -13 -133q5 -137 93 -214t256 -77q162 0 277.5 96t151.5 263l203 952h184l-210 -987q-50 -236 -211 -363t-427 -127q-120 0 -216 34.5t-157.5 95.5t-95 142t-34.5 176zM677 1575l310 298h202l184 -298h-185l-105 186 h-16l-183 -186h-207z" />
<glyph unicode="&#xdc;" horiz-adv-x="1524" d="M233 414q-1 60 13 130l188 899h184l-186 -887q-15 -68 -13 -133q5 -137 93 -214t256 -77q162 0 277.5 96t151.5 263l203 952h184l-210 -987q-50 -236 -211 -363t-427 -127q-120 0 -216 34.5t-157.5 95.5t-95 142t-34.5 176zM739 1696q0 50 35.5 85.5t85.5 35.5 t85.5 -35.5t35.5 -85.5t-35.5 -85.5t-85.5 -35.5t-85.5 35.5t-35.5 85.5zM1143 1696q0 50 35.5 85.5t85.5 35.5t85.5 -35.5t35.5 -85.5t-35.5 -85.5t-85.5 -35.5t-85.5 35.5t-35.5 85.5z" />
<glyph unicode="&#xdd;" horiz-adv-x="1344" d="M317 1443h187l268 -649h16l526 649h207l-692 -848l-124 -595h-184l132 621zM856 1575l373 298h226l-395 -298h-204z" />
<glyph unicode="&#xde;" horiz-adv-x="1280" d="M124 0l307 1443h179l-57 -266h332q171 0 278.5 -99t107.5 -257q0 -212 -152.5 -342t-400.5 -130h-340l-74 -349h-180zM412 509h295q178 0 277 78t99 218q0 99 -66.5 155.5t-192.5 56.5h-304z" />
<glyph unicode="&#xdf;" horiz-adv-x="1338" d="M165 0l228 1072q35 166 156 259.5t299 93.5q170 0 283 -92.5t113 -232.5t-92 -235.5t-238 -108.5l-4 -18q146 -15 231.5 -98t85.5 -209q0 -194 -142.5 -321.5t-360.5 -127.5q-119 0 -208 34l33 152q34 -13 87.5 -22.5t96.5 -9.5q134 0 228 84t94 205q0 106 -82.5 169 t-219.5 63h-71l36 170h79q113 0 193 71t80 171q0 91 -64 147t-168 56q-109 0 -182.5 -65.5t-99.5 -185.5l-217 -1021h-174z" />
<glyph unicode="&#xe0;" horiz-adv-x="1126" d="M106 279q0 159 120.5 251t344.5 102l306 14l16 73q6 33 6 51q0 82 -61 127.5t-170 45.5q-91 0 -152 -35t-87 -100h-182q36 133 153.5 211t281.5 78q178 0 285 -82.5t107 -219.5q0 -43 -9 -88l-150 -707h-167l30 141h-16q-57 -75 -143 -117.5t-183 -42.5q-141 0 -235.5 86 t-94.5 212zM283 298q0 -74 58 -121t149 -47q121 0 214 71.5t117 181.5l27 124l-287 -14q-132 -7 -205 -58.5t-73 -136.5zM403 1601h214l180 -338h-188z" />
<glyph unicode="&#xe1;" horiz-adv-x="1126" d="M106 279q0 159 120.5 251t344.5 102l306 14l16 73q6 33 6 51q0 82 -61 127.5t-170 45.5q-91 0 -152 -35t-87 -100h-182q36 133 153.5 211t281.5 78q178 0 285 -82.5t107 -219.5q0 -43 -9 -88l-150 -707h-167l30 141h-16q-57 -75 -143 -117.5t-183 -42.5q-141 0 -235.5 86 t-94.5 212zM283 298q0 -74 58 -121t149 -47q121 0 214 71.5t117 181.5l27 124l-287 -14q-132 -7 -205 -58.5t-73 -136.5zM641 1263l324 338h220l-350 -338h-194z" />
<glyph unicode="&#xe2;" horiz-adv-x="1126" d="M106 279q0 159 120.5 251t344.5 102l306 14l16 73q6 33 6 51q0 82 -61 127.5t-170 45.5q-91 0 -152 -35t-87 -100h-182q36 133 153.5 211t281.5 78q178 0 285 -82.5t107 -219.5q0 -43 -9 -88l-150 -707h-167l30 141h-16q-57 -75 -143 -117.5t-183 -42.5q-141 0 -235.5 86 t-94.5 212zM283 298q0 -74 58 -121t149 -47q121 0 214 71.5t117 181.5l27 124l-287 -14q-132 -7 -205 -58.5t-73 -136.5zM337 1228l354 340h202l210 -340h-187l-129 227h-16l-225 -227h-209z" />
<glyph unicode="&#xe3;" horiz-adv-x="1126" d="M106 279q0 159 120.5 251t344.5 102l306 14l16 73q6 33 6 51q0 82 -61 127.5t-170 45.5q-91 0 -152 -35t-87 -100h-182q36 133 153.5 211t281.5 78q178 0 285 -82.5t107 -219.5q0 -43 -9 -88l-150 -707h-167l30 141h-16q-57 -75 -143 -117.5t-183 -42.5q-141 0 -235.5 86 t-94.5 212zM283 298q0 -74 58 -121t149 -47q121 0 214 71.5t117 181.5l27 124l-287 -14q-132 -7 -205 -58.5t-73 -136.5zM372 1262q15 130 87.5 202t175.5 72q49 0 88.5 -19t64.5 -46t47 -54t46.5 -46t51.5 -19q89 0 115 139h142q-15 -130 -87.5 -202t-175.5 -72 q-49 0 -89 19t-65.5 46t-47.5 54t-46.5 46t-50.5 19q-45 0 -73 -33.5t-41 -105.5h-142z" />
<glyph unicode="&#xe4;" horiz-adv-x="1126" d="M106 279q0 159 120.5 251t344.5 102l306 14l16 73q6 33 6 51q0 82 -61 127.5t-170 45.5q-91 0 -152 -35t-87 -100h-182q36 133 153.5 211t281.5 78q178 0 285 -82.5t107 -219.5q0 -43 -9 -88l-150 -707h-167l30 141h-16q-57 -75 -143 -117.5t-183 -42.5q-141 0 -235.5 86 t-94.5 212zM283 298q0 -74 58 -121t149 -47q121 0 214 71.5t117 181.5l27 124l-287 -14q-132 -7 -205 -58.5t-73 -136.5zM433 1349q0 50 35.5 85.5t85.5 35.5t85.5 -35.5t35.5 -85.5t-35.5 -85.5t-85.5 -35.5t-85.5 35.5t-35.5 85.5zM837 1349q0 50 35.5 85.5t85.5 35.5 t85.5 -35.5t35.5 -85.5t-35.5 -85.5t-85.5 -35.5t-85.5 35.5t-35.5 85.5z" />
<glyph unicode="&#xe5;" horiz-adv-x="1126" d="M106 279q0 159 120.5 251t344.5 102l306 14l16 73q6 33 6 51q0 82 -61 127.5t-170 45.5q-91 0 -152 -35t-87 -100h-182q36 133 153.5 211t281.5 78q178 0 285 -82.5t107 -219.5q0 -43 -9 -88l-150 -707h-167l30 141h-16q-57 -75 -143 -117.5t-183 -42.5q-141 0 -235.5 86 t-94.5 212zM283 298q0 -74 58 -121t149 -47q121 0 214 71.5t117 181.5l27 124l-287 -14q-132 -7 -205 -58.5t-73 -136.5zM548 1457q0 96 68 162.5t164 66.5t164 -66.5t68 -162.5t-68 -162.5t-164 -66.5t-164 66.5t-68 162.5zM658 1457q0 -53 35 -88t87 -35t87 35t35 88 t-35 88t-87 35t-87 -35t-35 -88z" />
<glyph unicode="&#xe6;" horiz-adv-x="1866" d="M106 279q0 160 120.5 251.5t344.5 101.5l306 14l16 73q6 33 6 51q0 82 -61 127.5t-170 45.5q-91 0 -152 -35t-87 -100h-182q36 133 153.5 211t281.5 78q121 0 211 -43t135 -125h16q141 168 364 168q174 0 291.5 -116.5t118.5 -319.5q0 -86 -13 -162h-777q-2 -36 -2 -56 q0 -80 23.5 -141t63 -95.5t86 -51.5t97.5 -17q197 0 271 137h183q-34 -129 -160.5 -211.5t-316.5 -82.5q-126 0 -234 65.5t-151 174.5h-15q-59 -102 -173 -171t-244 -69q-154 0 -252 85t-98 213zM283 298q0 -74 58 -121t149 -47q121 0 214 71.5t117 181.5l27 124l-287 -14 q-132 -7 -205 -58.5t-73 -136.5zM1051 638h585q2 12 2 45q0 112 -64.5 187t-181.5 75q-122 0 -212.5 -83t-128.5 -224z" />
<glyph unicode="&#xe7;" horiz-adv-x="1146" d="M156 438q0 187 73 337.5t203.5 236t292.5 85.5q159 0 273.5 -84.5t139.5 -217.5q3 -15 5 -47h-176q-8 84 -80.5 139t-175.5 55q-160 0 -267 -138t-107 -343q0 -150 72.5 -236.5t197.5 -86.5q100 0 172 44.5t103 125.5h179q-32 -144 -156 -233t-297 -94l-75 -121 q179 -20 179 -156q0 -85 -69.5 -140t-177.5 -55q-95 0 -175 36l23 108q65 -28 147 -28q48 0 76 19t28 51q0 72 -134 72h-53l13 90l85 137q-147 35 -233 153t-86 291z" />
<glyph unicode="&#xe8;" horiz-adv-x="1170" d="M157 432q0 297 156.5 481t404.5 184q174 0 291.5 -116.5t118.5 -319.5q0 -86 -13 -162h-777q-2 -36 -2 -54q0 -80 23.5 -141t63 -96t86 -52.5t97.5 -17.5q197 0 271 137h183q-34 -129 -158 -211.5t-307 -82.5q-188 0 -313 120t-125 331zM361 638h585q2 12 2 45 q0 112 -64.5 187t-181.5 75q-122 0 -212.5 -83t-128.5 -224zM414 1601h214l180 -338h-188z" />
<glyph unicode="&#xe9;" horiz-adv-x="1170" d="M157 432q0 297 156.5 481t404.5 184q174 0 291.5 -116.5t118.5 -319.5q0 -86 -13 -162h-777q-2 -36 -2 -54q0 -80 23.5 -141t63 -96t86 -52.5t97.5 -17.5q197 0 271 137h183q-34 -129 -158 -211.5t-307 -82.5q-188 0 -313 120t-125 331zM361 638h585q2 12 2 45 q0 112 -64.5 187t-181.5 75q-122 0 -212.5 -83t-128.5 -224zM652 1263l324 338h220l-350 -338h-194z" />
<glyph unicode="&#xea;" horiz-adv-x="1170" d="M157 432q0 297 156.5 481t404.5 184q174 0 291.5 -116.5t118.5 -319.5q0 -86 -13 -162h-777q-2 -36 -2 -54q0 -80 23.5 -141t63 -96t86 -52.5t97.5 -17.5q197 0 271 137h183q-34 -129 -158 -211.5t-307 -82.5q-188 0 -313 120t-125 331zM348 1228l354 340h202l210 -340 h-187l-129 227h-16l-225 -227h-209zM361 638h585q2 12 2 45q0 112 -64.5 187t-181.5 75q-122 0 -212.5 -83t-128.5 -224z" />
<glyph unicode="&#xeb;" horiz-adv-x="1170" d="M157 432q0 297 156.5 481t404.5 184q174 0 291.5 -116.5t118.5 -319.5q0 -86 -13 -162h-777q-2 -36 -2 -54q0 -80 23.5 -141t63 -96t86 -52.5t97.5 -17.5q197 0 271 137h183q-34 -129 -158 -211.5t-307 -82.5q-188 0 -313 120t-125 331zM361 638h585q2 12 2 45 q0 112 -64.5 187t-181.5 75q-122 0 -212.5 -83t-128.5 -224zM444 1349q0 50 35.5 85.5t85.5 35.5t85.5 -35.5t35.5 -85.5t-35.5 -85.5t-85.5 -35.5t-85.5 35.5t-35.5 85.5zM848 1349q0 50 35.5 85.5t85.5 35.5t85.5 -35.5t35.5 -85.5t-35.5 -85.5t-85.5 -35.5t-85.5 35.5 t-35.5 85.5z" />
<glyph unicode="&#xec;" horiz-adv-x="516" d="M112 0l229 1078h172l-229 -1078h-172zM131 1601h214l180 -338h-188z" />
<glyph unicode="&#xed;" horiz-adv-x="516" d="M112 0l229 1078h172l-229 -1078h-172zM369 1263l324 338h220l-350 -338h-194z" />
<glyph unicode="&#xee;" horiz-adv-x="516" d="M65 1228l354 340h202l210 -340h-187l-129 227h-16l-225 -227h-209zM112 0l229 1078h172l-229 -1078h-172z" />
<glyph unicode="&#xef;" horiz-adv-x="516" d="M112 0l229 1078h172l-229 -1078h-172zM161 1349q0 50 35.5 85.5t85.5 35.5t85.5 -35.5t35.5 -85.5t-35.5 -85.5t-85.5 -35.5t-85.5 35.5t-35.5 85.5zM565 1349q0 50 35.5 85.5t85.5 35.5t85.5 -35.5t35.5 -85.5t-35.5 -85.5t-85.5 -35.5t-85.5 35.5t-35.5 85.5z" />
<glyph unicode="&#xf0;" horiz-adv-x="1188" d="M141 403q0 183 68 334t188.5 238t268.5 87q115 0 211 -56t131 -143l15 -1q-6 184 -112 385l-351 -106l-7 128l292 89q-36 52 -122 149h191q58 -69 81 -104l233 71l8 -128l-181 -55q119 -249 119 -494q0 -171 -39 -321q-61 -231 -205.5 -363t-341.5 -132 q-196 0 -321.5 120t-125.5 302zM323 434q0 -137 75.5 -217t203.5 -80q72 0 142 39t121.5 103t83.5 151t32 177q0 130 -82.5 213t-211.5 83q-156 0 -260 -134.5t-104 -334.5z" />
<glyph unicode="&#xf1;" horiz-adv-x="1215" d="M100 0l229 1078h167l-34 -161h16q126 180 337 180q151 0 246.5 -95.5t95.5 -228.5q0 -56 -14 -124l-138 -649h-175l132 619q13 63 13 105q0 98 -63 158t-170 60q-122 0 -211 -79.5t-116 -204.5l-140 -658h-175zM455 1262q15 130 87.5 202t175.5 72q49 0 88.5 -19 t64.5 -46t47 -54t46.5 -46t51.5 -19q89 0 115 139h142q-15 -130 -87.5 -202t-175.5 -72q-49 0 -89 19t-65.5 46t-47.5 54t-46.5 46t-50.5 19q-45 0 -73 -33.5t-41 -105.5h-142z" />
<glyph unicode="&#xf2;" horiz-adv-x="1210" d="M155 427q0 137 39.5 258.5t111.5 213t181 145t240 53.5q197 0 318 -124t121 -320q0 -105 -24 -204t-72.5 -184t-116 -148.5t-159.5 -99.5t-198 -36q-197 0 -319 124.5t-122 321.5zM338 448q0 -137 75.5 -224.5t204.5 -87.5q145 0 254.5 136t109.5 340q0 154 -72.5 242 t-198.5 88q-171 0 -272 -139t-101 -355zM429 1601h214l180 -338h-188z" />
<glyph unicode="&#xf3;" horiz-adv-x="1210" d="M155 427q0 137 39.5 258.5t111.5 213t181 145t240 53.5q197 0 318 -124t121 -320q0 -105 -24 -204t-72.5 -184t-116 -148.5t-159.5 -99.5t-198 -36q-197 0 -319 124.5t-122 321.5zM338 448q0 -137 75.5 -224.5t204.5 -87.5q145 0 254.5 136t109.5 340q0 154 -72.5 242 t-198.5 88q-171 0 -272 -139t-101 -355zM667 1263l324 338h220l-350 -338h-194z" />
<glyph unicode="&#xf4;" horiz-adv-x="1210" d="M155 427q0 137 39.5 258.5t111.5 213t181 145t240 53.5q197 0 318 -124t121 -320q0 -105 -24 -204t-72.5 -184t-116 -148.5t-159.5 -99.5t-198 -36q-197 0 -319 124.5t-122 321.5zM338 448q0 -137 75.5 -224.5t204.5 -87.5q145 0 254.5 136t109.5 340q0 154 -72.5 242 t-198.5 88q-171 0 -272 -139t-101 -355zM363 1228l354 340h202l210 -340h-187l-129 227h-16l-225 -227h-209z" />
<glyph unicode="&#xf5;" horiz-adv-x="1210" d="M155 427q0 137 39.5 258.5t111.5 213t181 145t240 53.5q197 0 318 -124t121 -320q0 -105 -24 -204t-72.5 -184t-116 -148.5t-159.5 -99.5t-198 -36q-197 0 -319 124.5t-122 321.5zM338 448q0 -137 75.5 -224.5t204.5 -87.5q145 0 254.5 136t109.5 340q0 154 -72.5 242 t-198.5 88q-171 0 -272 -139t-101 -355zM398 1262q15 130 87.5 202t175.5 72q49 0 88.5 -19t64.5 -46t47 -54t46.5 -46t51.5 -19q89 0 115 139h142q-15 -130 -87.5 -202t-175.5 -72q-49 0 -89 19t-65.5 46t-47.5 54t-46.5 46t-50.5 19q-45 0 -73 -33.5t-41 -105.5h-142z" />
<glyph unicode="&#xf6;" horiz-adv-x="1210" d="M155 427q0 137 39.5 258.5t111.5 213t181 145t240 53.5q197 0 318 -124t121 -320q0 -105 -24 -204t-72.5 -184t-116 -148.5t-159.5 -99.5t-198 -36q-197 0 -319 124.5t-122 321.5zM338 448q0 -137 75.5 -224.5t204.5 -87.5q145 0 254.5 136t109.5 340q0 154 -72.5 242 t-198.5 88q-171 0 -272 -139t-101 -355zM459 1349q0 50 35.5 85.5t85.5 35.5t85.5 -35.5t35.5 -85.5t-35.5 -85.5t-85.5 -35.5t-85.5 35.5t-35.5 85.5zM863 1349q0 50 35.5 85.5t85.5 35.5t85.5 -35.5t35.5 -85.5t-35.5 -85.5t-85.5 -35.5t-85.5 35.5t-35.5 85.5z" />
<glyph unicode="&#xf7;" d="M203 506l31 148h1018l-31 -148h-1018zM519 223q0 54 36 89.5t90 35.5q53 0 88.5 -35.5t35.5 -89.5q0 -55 -35.5 -90t-88.5 -35q-54 0 -90 35.5t-36 89.5zM670 937q0 54 36 89.5t90 35.5q53 0 88.5 -35.5t35.5 -89.5q0 -55 -35 -90t-89 -35t-90 35.5t-36 89.5z" />
<glyph unicode="&#xf8;" horiz-adv-x="1212" d="M129 32l108 121q-82 115 -82 274q0 137 39.5 258.5t111.5 213t181 145t240 53.5q166 0 278 -89l99 110l86 -64l-109 -123q85 -114 85 -278q0 -105 -24 -204t-72.5 -184t-116 -148.5t-159.5 -99.5t-198 -36q-165 0 -281 91l-97 -109zM338 448q0 -82 29 -151l521 580 q-70 65 -177 65q-171 0 -272 -139t-101 -355zM433 204q73 -68 185 -68q145 0 254.5 136t109.5 340q0 99 -31 173z" />
<glyph unicode="&#xf9;" horiz-adv-x="1215" d="M172 294q0 67 15 140l135 644h175l-131 -619q-14 -68 -14 -121q0 -202 219 -202q128 0 222 82t121 212l138 648h174l-229 -1078h-166l33 146h-16q-47 -73 -137 -119t-207 -46q-146 0 -239 89t-93 224zM470 1601h214l180 -338h-188z" />
<glyph unicode="&#xfa;" horiz-adv-x="1215" d="M172 294q0 67 15 140l135 644h175l-131 -619q-14 -68 -14 -121q0 -202 219 -202q128 0 222 82t121 212l138 648h174l-229 -1078h-166l33 146h-16q-47 -73 -137 -119t-207 -46q-146 0 -239 89t-93 224zM708 1263l324 338h220l-350 -338h-194z" />
<glyph unicode="&#xfb;" horiz-adv-x="1215" d="M172 294q0 67 15 140l135 644h175l-131 -619q-14 -68 -14 -121q0 -202 219 -202q128 0 222 82t121 212l138 648h174l-229 -1078h-166l33 146h-16q-47 -73 -137 -119t-207 -46q-146 0 -239 89t-93 224zM404 1228l354 340h202l210 -340h-187l-129 227h-16l-225 -227h-209z " />
<glyph unicode="&#xfc;" horiz-adv-x="1215" d="M172 294q0 67 15 140l135 644h175l-131 -619q-14 -68 -14 -121q0 -202 219 -202q128 0 222 82t121 212l138 648h174l-229 -1078h-166l33 146h-16q-47 -73 -137 -119t-207 -46q-146 0 -239 89t-93 224zM500 1349q0 50 35.5 85.5t85.5 35.5t85.5 -35.5t35.5 -85.5 t-35.5 -85.5t-85.5 -35.5t-85.5 35.5t-35.5 85.5zM904 1349q0 50 35.5 85.5t85.5 35.5t85.5 -35.5t35.5 -85.5t-35.5 -85.5t-85.5 -35.5t-85.5 35.5t-35.5 85.5z" />
<glyph unicode="&#xfd;" horiz-adv-x="1112" d="M40 -380l26 147q39 -13 102 -13q56 0 103.5 40.5t101.5 140.5l39 73l-175 1070h171l128 -857h16l472 857h189l-686 -1196q-91 -159 -172.5 -216.5t-196.5 -57.5q-37 0 -118 12zM668 1263l324 338h220l-350 -338h-194z" />
<glyph unicode="&#xfe;" horiz-adv-x="1260" d="M33 -360l397 1866h172l-120 -575h16q123 166 338 166q163 0 272.5 -118.5t109.5 -298.5q0 -194 -72.5 -354.5t-199.5 -252.5t-280 -92q-116 0 -205 60.5t-118 157.5h-16l-121 -559h-173zM382 434q0 -137 73 -217.5t198 -80.5q165 0 275 148t110 370q0 136 -68.5 212 t-190.5 76q-167 0 -282 -147t-115 -361z" />
<glyph unicode="&#xff;" horiz-adv-x="1112" d="M40 -380l26 147q39 -13 102 -13q56 0 103.5 40.5t101.5 140.5l39 73l-175 1070h171l128 -857h16l472 857h189l-686 -1196q-91 -159 -172.5 -216.5t-196.5 -57.5q-37 0 -118 12zM460 1349q0 50 35.5 85.5t85.5 35.5t85.5 -35.5t35.5 -85.5t-35.5 -85.5t-85.5 -35.5 t-85.5 35.5t-35.5 85.5zM864 1349q0 50 35.5 85.5t85.5 35.5t85.5 -35.5t35.5 -85.5t-35.5 -85.5t-85.5 -35.5t-85.5 35.5t-35.5 85.5z" />
<glyph unicode="&#x131;" horiz-adv-x="516" d="M112 0l229 1078h172l-229 -1078h-172z" />
<glyph unicode="&#x152;" horiz-adv-x="2325" d="M201 563q0 194 59.5 364t162.5 290.5t248 190t311 69.5q162 0 288 -77.5t189 -202.5l17 1l52 245h896l-35 -162h-711l-100 -463h675l-34 -160h-674l-106 -496h712l-34 -162h-896l30 140l-16 -1q-178 -173 -448 -173q-253 0 -419.5 169.5t-166.5 427.5zM391 579 q0 -200 113.5 -323t296.5 -123q163 0 294 94t205 261t74 376q0 199 -112.5 322.5t-293.5 123.5q-162 0 -294 -95t-207.5 -263t-75.5 -373z" />
<glyph unicode="&#x153;" horiz-adv-x="1991" d="M155 427q0 294 160.5 482t411.5 188q130 0 225 -60t144 -172h16q71 113 178 172.5t243 59.5q181 0 295 -121t115 -315q0 -90 -13 -162h-777q-2 -52 -2 -56q0 -138 74 -221.5t196 -83.5q197 0 271 137h183q-35 -134 -162 -214t-303 -80q-129 0 -226.5 57t-151.5 165h-16 q-156 -222 -423 -222q-195 0 -316.5 123.5t-121.5 322.5zM338 448q0 -140 77 -226t203 -86q99 0 183 64t132.5 173.5t48.5 238.5q0 154 -72 242t-199 88q-167 0 -270 -136.5t-103 -357.5zM1176 638h585q2 12 2 45q0 118 -67.5 190t-178.5 72q-120 0 -211 -82t-130 -225z" />
<glyph unicode="&#x178;" horiz-adv-x="1344" d="M317 1443h187l268 -649h16l526 649h207l-692 -848l-124 -595h-184l132 621zM649 1696q0 50 35.5 85.5t85.5 35.5t85.5 -35.5t35.5 -85.5t-35.5 -85.5t-85.5 -35.5t-85.5 35.5t-35.5 85.5zM1053 1696q0 50 35.5 85.5t85.5 35.5t85.5 -35.5t35.5 -85.5t-35.5 -85.5 t-85.5 -35.5t-85.5 35.5t-35.5 85.5z" />
<glyph unicode="&#x192;" d="M32 26l37 159q98 -45 203 -45q100 0 159.5 45.5t98.5 154.5l141 395h-336l31 144h356l81 227q130 366 464 366q119 0 217 -39l-35 -149q-84 32 -193 32q-112 0 -177.5 -53.5t-105.5 -167.5l-77 -216h369l-31 -144h-390l-144 -408q-66 -183 -171.5 -264.5t-274.5 -81.5 q-87 0 -222 45z" />
<glyph unicode="&#x2c6;" horiz-adv-x="1094" d="M365 1228l354 340h202l210 -340h-187l-129 227h-16l-225 -227h-209z" />
<glyph unicode="&#x2c7;" horiz-adv-x="1094" d="M437 1568h185l129 -227h16l225 227h211l-354 -340h-202z" />
<glyph unicode="&#x2d8;" horiz-adv-x="1094" d="M457 1514q0 20 3 42h151q-2 -16 -2 -31q0 -77 53.5 -122.5t144.5 -45.5q101 0 162 51t75 148h156q-14 -148 -122 -238t-278 -90q-161 0 -252 80.5t-91 205.5z" />
<glyph unicode="&#x2d9;" horiz-adv-x="1094" d="M660 1415q0 52 37.5 89.5t90.5 37.5t90.5 -37.5t37.5 -89.5q0 -53 -38 -90.5t-90 -37.5t-90 37.5t-38 90.5z" />
<glyph unicode="&#x2da;" horiz-adv-x="1095" d="M565 1457q0 96 68 162.5t164 66.5t164 -66.5t68 -162.5t-68 -162.5t-164 -66.5t-164 66.5t-68 162.5zM675 1457q0 -53 35 -88t87 -35t87 35t35 88t-35 88t-87 35t-87 -35t-35 -88z" />
<glyph unicode="&#x2db;" horiz-adv-x="1094" d="M266 -239q0 86 66 174t170 140l119 -24q-83 -51 -136.5 -123t-53.5 -133q0 -47 31.5 -72t90.5 -25q30 0 45 3l-26 -123q-23 -10 -80 -10q-107 0 -166.5 50.5t-59.5 142.5z" />
<glyph unicode="&#x2dc;" horiz-adv-x="1094" d="M395 1294q15 130 87.5 202t175.5 72q49 0 88.5 -19t64.5 -46t47 -54t46.5 -46t51.5 -19q89 0 115 139h142q-15 -130 -87.5 -202t-175.5 -72q-49 0 -89 19t-65.5 46t-47.5 54t-46.5 46t-50.5 19q-45 0 -73 -33.5t-41 -105.5h-142z" />
<glyph unicode="&#x2dd;" horiz-adv-x="1094" d="M324 1263l324 338h210l-352 -338h-182zM724 1263l324 338h210l-352 -338h-182z" />
<glyph unicode="&#x3a9;" horiz-adv-x="1590" d="M94 0l35 162h311l4 18q-115 85 -177 214t-62 294q0 232 93.5 411.5t265 278.5t395.5 99q269 0 426 -155.5t157 -415.5q0 -222 -108.5 -418t-291.5 -308l-4 -18h311l-35 -162h-526l44 204q423 249 423 689q0 192 -111.5 304.5t-308.5 112.5q-249 0 -396.5 -168 t-147.5 -451q0 -158 69.5 -283t203.5 -204l-44 -204h-526z" />
<glyph unicode="&#x3c0;" horiz-adv-x="1371" d="M215 0l196 924h-192l33 154h1195l-33 -154h-216l-136 -638q-11 -55 -11 -74q0 -40 19 -55.5t71 -15.5q33 0 56 4l-31 -145q-39 -10 -103 -10q-185 0 -185 170q0 38 19 131l134 633h-453l-197 -924h-166z" />
<glyph unicode="&#x401;" horiz-adv-x="1239" d="M133 0l307 1443h896l-35 -162h-711l-100 -463h675l-34 -160h-674l-106 -496h712l-34 -162h-896zM618 1696q0 50 35.5 85.5t85.5 35.5t85.5 -35.5t35.5 -85.5t-35.5 -85.5t-85.5 -35.5t-85.5 35.5t-35.5 85.5zM1022 1696q0 50 35.5 85.5t85.5 35.5t85.5 -35.5t35.5 -85.5 t-35.5 -85.5t-85.5 -35.5t-85.5 35.5t-35.5 85.5z" />
<glyph unicode="&#x402;" horiz-adv-x="1739" d="M316 1281l35 162h1110l-35 -162h-463l-110 -520h12q60 64 152 105t198 41q210 0 321 -116t111 -310q0 -214 -147 -355.5t-372 -141.5q-52 0 -92 4.5t-54 9.5l-13 4l35 161q39 -16 124 -16q148 0 241.5 96t93.5 237q0 122 -66 193.5t-202 71.5q-120 0 -227.5 -64 t-162.5 -146l-114 -535h-184l272 1281h-463z" />
<glyph unicode="&#x403;" horiz-adv-x="1168" d="M133 0l307 1443h868l-35 -162h-683l-272 -1281h-185zM717 1575l373 298h226l-395 -298h-204z" />
<glyph unicode="&#x404;" horiz-adv-x="1476" d="M234.5 346.5q-49.5 185.5 5.5 453.5q32 150 97 273.5t159 213.5t220.5 140t272.5 50q134 0 250 -56.5t189 -161.5t76 -236v-15h-183q-7 137 -106.5 220t-248.5 83q-191 0 -334 -134t-202 -358h652l-34 -162h-647q-26 -245 72 -385t299 -140q145 0 256 76.5t164 193.5h183 q-69 -202 -235 -319t-387 -117q-199 0 -334 97.5t-184.5 283z" />
<glyph unicode="&#x405;" horiz-adv-x="1296" d="M129 400h182q26 -125 126.5 -198t246.5 -73q149 0 241.5 70.5t92.5 185.5q0 89 -61.5 150t-201.5 110l-137 48q-148 52 -229.5 149t-81.5 221q0 178 145.5 296t363.5 118q206 0 348 -118t158 -302h-181q-28 122 -116.5 189.5t-219.5 67.5q-134 0 -221 -66.5t-87 -168.5 q0 -77 57 -134t175 -100l130 -47q178 -64 264 -160t86 -230q0 -196 -150.5 -319t-389.5 -123q-222 0 -366.5 116t-173.5 318z" />
<glyph unicode="&#x406;" horiz-adv-x="570" d="M133 0l307 1443h184l-307 -1443h-184z" />
<glyph unicode="&#x407;" horiz-adv-x="571" d="M133 0l307 1443h184l-307 -1443h-184zM263 1696q0 50 35.5 85.5t85.5 35.5t85.5 -35.5t35.5 -85.5t-35.5 -85.5t-85.5 -35.5t-85.5 35.5t-35.5 85.5zM667 1696q0 50 35.5 85.5t85.5 35.5t85.5 -35.5t35.5 -85.5t-35.5 -85.5t-85.5 -35.5t-85.5 35.5t-35.5 85.5z" />
<glyph unicode="&#x408;" horiz-adv-x="1122" d="M106 337h181q2 -94 62 -148t161 -54q208 0 265 269l221 1039h179l-228 -1080q-40 -191 -157.5 -294t-301.5 -103q-174 0 -283.5 106.5t-98.5 264.5z" />
<glyph unicode="&#x409;" horiz-adv-x="2157" d="M-20 1l34 161q22 -6 53 -6q59 0 105.5 28t81.5 84t60 121t50 158l243 896h871l-110 -515h278q205 0 333 -112.5t128 -298.5q0 -78 -25.5 -153.5t-74.5 -141t-115 -115.5t-153 -78.5t-182 -28.5h-570l273 1281h-521l-203 -741q-30 -109 -60.5 -189.5t-72 -151t-91 -114.5 t-116 -69t-148.5 -25q-41 0 -68 10zM1205 160h333q160 0 270.5 96.5t110.5 233.5q0 139 -83.5 208.5t-226.5 69.5h-274z" />
<glyph unicode="&#x40a;" horiz-adv-x="2177" d="M133 0l307 1443h184l-133 -624h708l133 624h184l-133 -625h301q191 0 311 -99t120 -262q0 -87 -37 -168.5t-102.5 -146t-165 -103.5t-215.5 -39h-570l140 657h-709l-140 -657h-183zM1243 160h333q161 0 256 78t95 198q0 110 -75.5 166t-204.5 56h-298z" />
<glyph unicode="&#x40b;" horiz-adv-x="1769" d="M316 1281l35 162h1110l-35 -162h-463l-110 -518h16q171 144 366 144q226 0 333 -140.5t56 -379.5l-83 -387h-184l84 395q35 167 -28 258.5t-213 91.5q-115 0 -223 -59.5t-172 -150.5l-114 -535h-184l272 1281h-463z" />
<glyph unicode="&#x40c;" horiz-adv-x="1351" d="M133 0l307 1443h184l-135 -634h42l731 634h235l-836 -712l560 -731h-210l-511 665h-42l-141 -665h-184zM807 1575l373 298h226l-395 -298h-204z" />
<glyph unicode="&#x40e;" horiz-adv-x="1333" d="M193 3l34 162q29 -8 78 -8q83 0 148 35.5t125 115.5l-251 1135h189l189 -929h16l574 929h205l-687 -1071q-65 -101 -118.5 -166t-118 -117t-139 -75.5t-167.5 -23.5q-55 0 -77 13zM630 1874h156q-17 -81 25 -130.5t123 -49.5q82 0 145.5 49.5t80.5 130.5h156 q-29 -139 -135.5 -218.5t-258.5 -79.5q-157 0 -239 80.5t-53 217.5z" />
<glyph unicode="&#x40f;" horiz-adv-x="1517" d="M133 0l307 1443h180l-272 -1279h768l272 1279h183l-307 -1443h-482l-61 -285h-167l61 285h-482z" />
<glyph unicode="&#x410;" horiz-adv-x="1400" d="M21 0l845 1443h167l226 -1443h-176l-58 413h-579l-232 -413h-193zM532 566h473l-95 641h-16z" />
<glyph unicode="&#x411;" horiz-adv-x="1321" d="M133 0l307 1443h855l-35 -162h-670l-88 -413h290q205 0 333 -104t128 -277q0 -92 -40.5 -179.5t-111 -156t-175 -110t-223.5 -41.5h-570zM351 160h333q160 0 270.5 88t110.5 212t-83.5 186t-226.5 62h-287z" />
<glyph unicode="&#x412;" horiz-adv-x="1366" d="M133 0l307 1443h501q185 0 295.5 -86.5t110.5 -231.5q0 -136 -85 -236.5t-227 -131.5l-4 -16q116 -20 182.5 -95.5t66.5 -187.5q0 -200 -156.5 -329t-400.5 -129h-590zM350 159h367q159 0 265.5 81.5t106.5 202.5q0 223 -296 223h-335zM491 821h298q165 0 268 74t103 193 q0 196 -288 196h-283z" />
<glyph unicode="&#x413;" horiz-adv-x="1168" d="M133 0l307 1443h868l-35 -162h-683l-272 -1281h-185z" />
<glyph unicode="&#x414;" horiz-adv-x="1510" d="M-81 -285l95 447h107q84 40 139.5 132t95.5 241l248 908h903l-273 -1281h180l-95 -447h-167l61 285h-1066l-61 -285h-167zM347 162h703l238 1119h-555l-206 -750q-37 -133 -75.5 -215t-101.5 -142z" />
<glyph unicode="&#x415;" horiz-adv-x="1239" d="M133 0l307 1443h896l-35 -162h-711l-100 -463h675l-34 -160h-674l-106 -496h712l-34 -162h-896z" />
<glyph unicode="&#x416;" horiz-adv-x="2067" d="M-5 0l859 765l-468 678h206l430 -637h42l136 637h180l-136 -637h42l702 637h235l-800 -710l514 -733h-210l-470 667h-42l-142 -667h-180l142 667h-42l-754 -667h-244z" />
<glyph unicode="&#x417;" horiz-adv-x="1279" d="M136 380h174q5 -109 88 -182.5t233 -73.5q161 0 263.5 80.5t102.5 211.5q0 117 -78.5 180t-227.5 63h-189l34 162h195q152 0 251 79t99 197q0 104 -64.5 162t-189.5 58t-219 -65t-130 -179h-175q54 191 201 297.5t346 106.5q197 0 309 -102.5t112 -259.5 q0 -143 -90.5 -241.5t-246.5 -125.5l-4 -16q121 -25 188 -103.5t67 -203.5q0 -132 -72 -237t-199 -163.5t-285 -58.5q-117 0 -210 32.5t-153 89.5t-93 131t-37 161z" />
<glyph unicode="&#x418;" horiz-adv-x="1538" d="M133 0l307 1443h182l-242 -1136h16l1014 1136h182l-307 -1443h-182l241 1132h-16l-1013 -1132h-182z" />
<glyph unicode="&#x419;" horiz-adv-x="1538" d="M133 0l307 1443h182l-242 -1136h16l1014 1136h182l-307 -1443h-182l241 1132h-16l-1013 -1132h-182zM733 1874h156q-17 -81 25 -130.5t123 -49.5q82 0 145.5 49.5t80.5 130.5h156q-29 -139 -135.5 -218.5t-258.5 -79.5q-157 0 -239 80.5t-53 217.5z" />
<glyph unicode="&#x41a;" horiz-adv-x="1351" d="M133 0l307 1443h184l-135 -634h42l731 634h235l-836 -712l560 -731h-210l-511 665h-42l-141 -665h-184z" />
<glyph unicode="&#x41b;" horiz-adv-x="1434" d="M-20 1l34 161q22 -6 53 -6q59 0 105.5 28t81.5 84t60 121t50 158l243 896h881l-307 -1443h-184l272 1281h-530l-203 -741q-30 -109 -60.5 -189.5t-72 -151t-91 -114.5t-116 -69t-148.5 -25q-41 0 -68 10z" />
<glyph unicode="&#x41c;" horiz-adv-x="1812" d="M133 0l307 1443h200l242 -1194h16l746 1194h222l-307 -1443h-172l234 1102h-12l-685 -1092h-152l-221 1092h-12l-234 -1102h-172z" />
<glyph unicode="&#x41d;" horiz-adv-x="1542" d="M133 0l307 1443h184l-133 -624h788l133 624h184l-307 -1443h-185l140 657h-788l-140 -657h-183z" />
<glyph unicode="&#x41e;" horiz-adv-x="1599" d="M211 563q0 194 59.5 364t162.5 290.5t248 190t311 69.5t299.5 -77t208 -213.5t74.5 -306.5q0 -261 -100 -470t-277.5 -326.5t-399.5 -117.5q-253 0 -419.5 169.5t-166.5 427.5zM401 579q0 -200 113 -323t297 -123q163 0 294 94t205 261t74 376q0 199 -112.5 322.5 t-293.5 123.5q-162 0 -294.5 -95.5t-207.5 -263t-75 -372.5z" />
<glyph unicode="&#x41f;" horiz-adv-x="1517" d="M133 0l307 1443h1131l-307 -1443h-180l272 1279h-768l-272 -1279h-183z" />
<glyph unicode="&#x420;" horiz-adv-x="1320" d="M132 0l307 1443h507q177 0 295.5 -107.5t118.5 -282.5q0 -124 -44.5 -226t-122.5 -170t-183 -105t-225 -37h-360l-109 -515h-184zM459 675h315q182 0 290 95.5t108 266.5q0 116 -78 181t-211 65h-294z" />
<glyph unicode="&#x421;" horiz-adv-x="1486" d="M214 552q0 197 58 368.5t158.5 294t242 192.5t302.5 70q235 0 390 -138t155 -347h-183q-11 146 -113 232t-263 86q-155 0 -283.5 -97.5t-202.5 -267t-74 -374.5q0 -203 106 -322.5t287 -119.5q146 0 258 67.5t151 179.5h190q-54 -193 -219 -303.5t-400 -110.5 q-252 0 -406 162t-154 428z" />
<glyph unicode="&#x422;" horiz-adv-x="1319" d="M313 1281l34 162h1110l-34 -162h-463l-272 -1281h-184l272 1281h-463z" />
<glyph unicode="&#x423;" horiz-adv-x="1333" d="M193 3l34 162q29 -8 78 -8q83 0 148 35.5t125 115.5l-251 1135h189l189 -929h16l574 929h205l-687 -1071q-65 -101 -118.5 -166t-118 -117t-139 -75.5t-167.5 -23.5q-55 0 -77 13z" />
<glyph unicode="&#x424;" horiz-adv-x="1700" d="M206 623q0 192 100 350t277.5 250.5t398.5 98.5l30 141h178l-30 -141q243 -10 383 -142t140 -350q0 -192 -100 -350t-277.5 -250.5t-398.5 -98.5l-32 -151h-178l32 151q-243 10 -383 142t-140 350zM389 627q0 -151 99.5 -240.5t274.5 -94.5l185 869 q-242 -10 -400.5 -161.5t-158.5 -372.5zM941 292q242 10 400.5 161.5t158.5 372.5q0 151 -99.5 240.5t-274.5 94.5z" />
<glyph unicode="&#x425;" horiz-adv-x="1410" d="M41 0l655 752l-323 691h206l249 -574h16l508 574h205l-649 -727l332 -716h-194l-268 586h-16l-517 -586h-204z" />
<glyph unicode="&#x426;" horiz-adv-x="1575" d="M132 0l309 1443h180l-272 -1279h768l272 1279h183l-273 -1281h180l-95 -447h-167l61 285h-1146z" />
<glyph unicode="&#x427;" horiz-adv-x="1419" d="M303 1078l78 365h180l-78 -365q-20 -109 -2 -192.5t87.5 -133.5t181.5 -50q138 0 253.5 62t177.5 154l112 525h180l-307 -1443h-180l145 680h-16q-170 -144 -399 -144q-157 0 -263 71.5t-144 194.5t-6 276z" />
<glyph unicode="&#x428;" horiz-adv-x="1974" d="M133 0l307 1443h184l-273 -1281h518l273 1281h184l-273 -1281h518l273 1281h184l-307 -1443h-1588z" />
<glyph unicode="&#x429;" horiz-adv-x="2032" d="M134 0l307 1443h184l-273 -1281h518l273 1281h184l-273 -1281h518l273 1281h184l-273 -1281h180l-95 -447h-167l61 285h-1601z" />
<glyph unicode="&#x42a;" horiz-adv-x="1503" d="M276 1281l35 162h513l-110 -515h278q205 0 333 -112.5t128 -298.5q0 -78 -25.5 -153.5t-74.5 -141t-115 -115.5t-153 -78.5t-182 -28.5h-570l273 1281h-330zM551 160h333q160 0 270.5 96.5t110.5 233.5q0 139 -83.5 208.5t-226.5 69.5h-274z" />
<glyph unicode="&#x42b;" horiz-adv-x="1760" d="M133 0l307 1443h184l-110 -515h278q205 0 333 -112.5t128 -298.5q0 -78 -25.5 -153.5t-74.5 -141t-115 -115.5t-153 -78.5t-182 -28.5h-570zM351 160h333q160 0 270.5 96.5t110.5 233.5q0 139 -83.5 208.5t-226.5 69.5h-274zM1323 0l307 1443h184l-307 -1443h-184z" />
<glyph unicode="&#x42c;" horiz-adv-x="1303" d="M133 0l307 1443h184l-110 -515h278q205 0 333 -112.5t128 -298.5q0 -78 -25.5 -153.5t-74.5 -141t-115 -115.5t-153 -78.5t-182 -28.5h-570zM351 160h333q160 0 270.5 96.5t110.5 233.5q0 139 -83.5 208.5t-226.5 69.5h-274z" />
<glyph unicode="&#x42d;" horiz-adv-x="1475" d="M158 402h185q18 -124 115 -197t237 -73q198 0 344.5 144t199.5 381h-650l34 162h640q17 231 -82 361.5t-292 130.5q-152 0 -267.5 -84.5t-168.5 -218.5h-183q68 224 238 346.5t400 122.5q199 0 334 -97.5t184.5 -283t-5.5 -453.5q-32 -150 -97 -273.5t-159 -213.5 t-220.5 -140t-272.5 -50q-130 0 -243 52.5t-187.5 153.5t-83.5 230z" />
<glyph unicode="&#x42e;" horiz-adv-x="2096" d="M133 0l307 1443h184l-133 -624h267q32 143 99 263.5t161 208.5t217.5 137t261.5 49q155 0 285.5 -73.5t208 -208.5t77.5 -304q0 -183 -55.5 -351t-152 -295t-238 -203t-303.5 -76q-166 0 -298 69t-211 206.5t-79 323.5q0 47 3 92h-278l-140 -657h-183zM918 594 q0 -216 113 -339t288 -123q155 0 285 100t203.5 267.5t73.5 362.5q0 207 -112.5 327.5t-285.5 120.5q-158 0 -287.5 -93.5t-203.5 -258t-74 -364.5z" />
<glyph unicode="&#x42f;" horiz-adv-x="1359" d="M40 0l525 564q-127 43 -199.5 140t-72.5 232q0 95 40.5 186.5t111 162.5t175 114.5t223.5 43.5h570l-307 -1443h-184l114 535h-263l-497 -535h-236zM481 963q0 -134 83.5 -201t226.5 -67h279l125 588h-333q-160 0 -270.5 -93.5t-110.5 -226.5z" />
<glyph unicode="&#x430;" horiz-adv-x="1146" d="M116 279q0 159 120.5 251t344.5 102l306 14l16 73q6 33 6 51q0 82 -61 127.5t-170 45.5q-91 0 -152 -35t-87 -100h-182q36 133 153.5 211t281.5 78q178 0 285 -82.5t107 -219.5q0 -43 -9 -88l-150 -707h-167l30 141h-16q-57 -75 -143 -117.5t-183 -42.5q-141 0 -235.5 86 t-94.5 212zM293 298q0 -74 58 -121t149 -47q121 0 214 71.5t117 181.5l27 124l-287 -14q-132 -7 -205 -58.5t-73 -136.5z" />
<glyph unicode="&#x431;" horiz-adv-x="1232" d="M163 429q0 157 70 397q29 99 59 176t69 148.5t86.5 122t107.5 90t136.5 60.5t169.5 25l133 6q76 4 149.5 18.5t107.5 26t36 13.5l-32 -154q-8 -6 -26 -15.5t-92 -27t-169 -21.5l-135 -6q-78 -4 -140.5 -25.5t-107 -55.5t-82.5 -87.5t-63.5 -109t-52.5 -132.5h16 q133 179 344 179q191 0 307 -125.5t116 -318.5q0 -102 -23 -195t-70 -172.5t-114 -138.5t-160 -92.5t-203 -33.5q-195 0 -316 124.5t-121 323.5zM340 440q0 -141 75 -222.5t207 -81.5q148 0 256 127.5t108 308.5q0 157 -71 243.5t-200 86.5q-170 0 -272.5 -131t-102.5 -331z " />
<glyph unicode="&#x432;" horiz-adv-x="1123" d="M110 0l229 1078h416q147 0 229 -65.5t82 -180.5q0 -95 -65 -166t-170 -91l-3 -16q95 -14 146 -70.5t51 -136.5q0 -155 -122 -253.5t-329 -98.5h-464zM317 144h284q111 0 177 53t66 141q0 78 -50.5 113t-153.5 35h-251zM420 630h232q112 0 173 52t61 128q0 124 -160 124 h-241z" />
<glyph unicode="&#x433;" horiz-adv-x="935" d="M110 0l229 1078h675l-30 -144h-499l-199 -934h-176z" />
<glyph unicode="&#x434;" horiz-adv-x="1267" d="M-86 -285l92 429h90q56 36 110.5 127t87.5 206l170 601h745l-198 -934h172l-92 -429h-162l61 285h-853l-61 -285h-162zM300 144h535l168 790h-415l-132 -461q-64 -224 -153 -313z" />
<glyph unicode="&#x435;" horiz-adv-x="1190" d="M167 432q0 297 156.5 481t404.5 184q174 0 291.5 -116.5t118.5 -319.5q0 -86 -13 -162h-777q-2 -36 -2 -54q0 -80 23.5 -141t63 -96t86 -52.5t97.5 -17.5q197 0 271 137h183q-34 -129 -158 -211.5t-307 -82.5q-188 0 -313 120t-125 331zM371 638h585q2 12 2 45 q0 112 -64.5 187t-181.5 75q-122 0 -212.5 -83t-128.5 -224z" />
<glyph unicode="&#x436;" horiz-adv-x="1624" d="M-7 0l596 585l-313 493h184l285 -454h54l96 454h173l-96 -454h48l483 454h217l-574 -525l368 -553h-196l-327 494h-47l-105 -494h-173l105 494h-54l-502 -494h-222z" />
<glyph unicode="&#x437;" horiz-adv-x="1081" d="M124 330h171q2 -86 69 -140.5t169 -54.5q116 0 191.5 58t78.5 145q3 78 -46 114t-159 36h-163l34 144h163q94 0 156.5 46t63.5 117q3 73 -43.5 110.5t-138.5 37.5q-211 0 -296 -190h-171q57 161 183.5 252.5t300.5 91.5q165 0 258.5 -74t88.5 -199q-3 -90 -63 -159 t-151 -86l-4 -16q83 -20 127 -77t41 -142q-3 -103 -64 -186t-165.5 -130t-232.5 -47q-169 0 -282 97t-116 252z" />
<glyph unicode="&#x438;" horiz-adv-x="1247" d="M110 0l229 1078h174l-172 -806h16l713 806h176l-229 -1078h-174l172 808h-16l-712 -808h-177z" />
<glyph unicode="&#x439;" horiz-adv-x="1247" d="M110 0l229 1078h174l-172 -806h16l713 806h176l-229 -1078h-174l172 808h-16l-712 -808h-177zM527 1556h150q-18 -86 20 -148t123 -62q89 0 152 61.5t81 148.5h156q-32 -147 -135 -237.5t-269 -90.5q-152 0 -230 93.5t-48 234.5z" />
<glyph unicode="&#x43a;" horiz-adv-x="1081" d="M110 0l229 1078h176l-96 -451h43l493 451h219l-586 -519l383 -559h-205l-333 491h-43l-104 -491h-176z" />
<glyph unicode="&#x43b;" horiz-adv-x="1183" d="M-10 2l34 158q21 -8 52 -8q73 0 128.5 78.5t102.5 246.5l170 601h705l-229 -1078h-176l199 934h-373l-132 -461q-79 -275 -169.5 -378.5t-250.5 -103.5q-36 0 -61 11z" />
<glyph unicode="&#x43c;" horiz-adv-x="1542" d="M110 0l229 1078h209l208 -836h16l565 836h204l-229 -1078h-176l163 767h-19l-498 -737h-134l-184 737h-19l-163 -767h-172z" />
<glyph unicode="&#x43d;" horiz-adv-x="1222" d="M110 0l229 1078h176l-95 -446h530l95 446h176l-229 -1078h-176l104 488h-530l-104 -488h-176z" />
<glyph unicode="&#x43e;" horiz-adv-x="1230" d="M165 427q0 137 39.5 258.5t111.5 213t181 145t240 53.5q197 0 318 -124t121 -320q0 -105 -24 -204t-72.5 -184t-116 -148.5t-159.5 -99.5t-198 -36q-197 0 -319 124.5t-122 321.5zM348 448q0 -137 75.5 -224.5t204.5 -87.5q145 0 254.5 136t109.5 340q0 154 -72.5 242 t-198.5 88q-171 0 -272 -139t-101 -355z" />
<glyph unicode="&#x43f;" horiz-adv-x="1212" d="M110 0l229 1078h872l-229 -1078h-176l199 934h-520l-199 -934h-176z" />
<glyph unicode="&#x440;" horiz-adv-x="1263" d="M33 -360l306 1438h166l-31 -147h16q59 77 150.5 121.5t193.5 44.5q164 0 274 -118.5t110 -298.5q0 -194 -72.5 -354.5t-199.5 -252.5t-280 -92q-116 0 -205 60.5t-118 157.5h-16l-121 -559h-173zM382 434q0 -137 73 -217.5t198 -80.5q165 0 275 148t110 370 q0 136 -68.5 212t-190.5 76q-167 0 -282 -147t-115 -361z" />
<glyph unicode="&#x441;" horiz-adv-x="1166" d="M170 470q0 119 39 231t110 200t179.5 141t236.5 53q89 0 167 -30t130.5 -79.5t85 -111.5t37.5 -126h-175q-13 79 -85 136t-164 57q-118 0 -206.5 -65.5t-132 -169t-43.5 -227.5q0 -164 68.5 -253.5t204.5 -89.5q186 0 281 189h186q-66 -157 -187.5 -250.5t-286.5 -93.5 q-222 0 -333.5 129.5t-111.5 359.5z" />
<glyph unicode="&#x442;" horiz-adv-x="962" d="M189 934l30 144h862l-30 -144h-343l-199 -934h-176l199 934h-343z" />
<glyph unicode="&#x443;" horiz-adv-x="1132" d="M50 -380l26 147q39 -13 102 -13q56 0 103.5 40.5t101.5 140.5l39 73l-175 1070h171l128 -857h16l472 857h189l-686 -1196q-91 -159 -172.5 -216.5t-196.5 -57.5q-37 0 -118 12z" />
<glyph unicode="&#x444;" horiz-adv-x="1553" d="M160 440q0 136 47.5 254.5t135 207.5t221.5 141.5t298 53.5l74 346h172l-74 -346q204 -8 334.5 -132.5t130.5 -326.5q0 -136 -47.5 -254.5t-135 -207.5t-221.5 -141.5t-298 -53.5l-73 -341h-172l73 341q-204 8 -334.5 132.5t-130.5 326.5zM340 462q0 -153 85.5 -239.5 t231.5 -90.5l173 814q-227 -9 -358.5 -146.5t-131.5 -337.5zM829 132q227 9 358.5 146.5t131.5 337.5q0 153 -85.5 239.5t-231.5 90.5z" />
<glyph unicode="&#x445;" horiz-adv-x="1096" d="M28 0l484 548l-258 530h188l179 -401h16l337 401h205l-481 -539l256 -539h-181l-185 405h-16l-339 -405h-205z" />
<glyph unicode="&#x446;" horiz-adv-x="1269" d="M110 0l229 1078h176l-199 -934h520l199 934h176l-199 -934h172l-91 -429h-162l61 285h-882z" />
<glyph unicode="&#x447;" horiz-adv-x="1137" d="M243 788l61 290h176l-63 -296q-25 -118 17 -181.5t155 -63.5q91 0 165.5 41.5t119.5 94.5l86 405h176l-229 -1078h-176l103 486h-16q-135 -102 -276 -102q-172 0 -254.5 110.5t-44.5 293.5z" />
<glyph unicode="&#x448;" horiz-adv-x="1672" d="M110 0l229 1078h177l-198 -934h401l198 934h176l-198 -934h402l198 934h176l-229 -1078h-1332z" />
<glyph unicode="&#x449;" horiz-adv-x="1730" d="M110 0l229 1078h177l-198 -934h401l198 934h176l-198 -934h402l198 934h176l-198 -934h172l-91 -429h-162l61 285h-1343z" />
<glyph unicode="&#x44a;" horiz-adv-x="1218" d="M189 934l30 144h463l-73 -346h203q156 0 246.5 -81.5t90.5 -210.5q0 -193 -135.5 -316.5t-357.5 -123.5h-379l198 934h-286zM484 144h203q128 0 207 80.5t79 195.5q0 78 -51 123t-141 45h-203z" />
<glyph unicode="&#x44b;" horiz-adv-x="1436" d="M110 0l229 1078h176l-73 -346h199q156 0 246.5 -81.5t90.5 -210.5q0 -193 -135.5 -316.5t-357.5 -123.5h-375zM317 144h199q128 0 207 80.5t79 195.5q0 78 -51 123t-141 45h-199zM1030 0l229 1078h176l-229 -1078h-176z" />
<glyph unicode="&#x44c;" horiz-adv-x="1047" d="M110 0l229 1078h176l-73 -346h199q156 0 246.5 -81.5t90.5 -210.5q0 -193 -135.5 -316.5t-357.5 -123.5h-375zM317 144h199q128 0 207 80.5t79 195.5q0 78 -51 123t-141 45h-199z" />
<glyph unicode="&#x44d;" horiz-adv-x="1192" d="M142 325h174q8 -82 74 -135.5t168 -53.5q146 0 243.5 95t127.5 254h-494l31 144h478q2 144 -72 228.5t-205 84.5q-98 0 -172 -50t-119 -144h-174q57 161 183.5 255t303.5 94q196 0 316 -121.5t120 -324.5q0 -137 -39 -258.5t-111 -213t-181 -145t-241 -53.5 q-190 0 -297.5 99t-113.5 245z" />
<glyph unicode="&#x44e;" horiz-adv-x="1685" d="M110 0l229 1078h176l-95 -446h214q50 208 192.5 336.5t350.5 128.5q195 0 314.5 -124t119.5 -320q0 -105 -24 -204t-72 -184t-114.5 -148.5t-158 -99.5t-196.5 -36q-194 0 -315 124.5t-121 321.5q0 21 2 61h-222l-104 -488h-176zM791 440q0 -136 74.5 -220t202.5 -84 q143 0 251 136t108 340q0 154 -71 242t-195 88q-112 0 -197 -67t-129 -180.5t-44 -254.5z" />
<glyph unicode="&#x44f;" horiz-adv-x="1087" d="M20 0l392 420q-88 32 -138 102.5t-50 165.5q0 165 129.5 277.5t357.5 112.5h379l-229 -1078h-176l82 386h-169l-356 -386h-222zM400 699q0 -79 51.5 -124t143.5 -45h203l86 404h-203q-124 0 -202.5 -68t-78.5 -167z" />
<glyph unicode="&#x451;" horiz-adv-x="1190" d="M167 432q0 297 156.5 481t404.5 184q174 0 291.5 -116.5t118.5 -319.5q0 -86 -13 -162h-777q-2 -36 -2 -54q0 -80 23.5 -141t63 -96t86 -52.5t97.5 -17.5q197 0 271 137h183q-34 -129 -158 -211.5t-307 -82.5q-188 0 -313 120t-125 331zM371 638h585q2 12 2 45 q0 112 -64.5 187t-181.5 75q-122 0 -212.5 -83t-128.5 -224zM454 1349q0 50 35.5 85.5t85.5 35.5t85.5 -35.5t35.5 -85.5t-35.5 -85.5t-85.5 -35.5t-85.5 35.5t-35.5 85.5zM858 1349q0 50 35.5 85.5t85.5 35.5t85.5 -35.5t35.5 -85.5t-35.5 -85.5t-85.5 -35.5t-85.5 35.5 t-35.5 85.5z" />
<glyph unicode="&#x452;" horiz-adv-x="1268" d="M120 0l275 1287h-147l26 124h148l20 95h173l-21 -95h236l-26 -124h-236l-77 -355h16q71 88 149.5 126.5t189.5 38.5q143 0 240.5 -92.5t97.5 -250.5q0 -52 -12 -109l-160 -749q-33 -153 -106.5 -224t-215.5 -71h-105l37 162h55q61 0 104 38.5t59 113.5l150 708 q8 41 10 81q3 114 -60 176t-170 62q-124 0 -214.5 -75.5t-123.5 -228.5l-136 -638h-176z" />
<glyph unicode="&#x453;" horiz-adv-x="951" d="M120 0l229 1078h675l-30 -144h-499l-199 -934h-176zM563 1263l324 338h220l-350 -338h-194z" />
<glyph unicode="&#x454;" horiz-adv-x="1166" d="M170 470q0 119 39 231t110 200t179.5 141t236.5 53q89 0 167 -30t130.5 -79.5t85 -111.5t37.5 -126h-175q-13 79 -85 136t-164 57q-138 0 -234 -86t-129 -223h497l-30 -144h-486q-3 -167 66 -259.5t207 -92.5q186 0 281 189h186q-66 -157 -187.5 -250.5t-286.5 -93.5 q-222 0 -333.5 129.5t-111.5 359.5z" />
<glyph unicode="&#x455;" horiz-adv-x="1072" d="M108 289h177q21 -73 87.5 -118t165.5 -45q109 0 179 47t70 121q0 103 -135 146l-165 53q-127 41 -188.5 108.5t-61.5 173.5q0 143 114.5 232.5t289.5 89.5q169 0 276 -80t129 -215h-171q-17 70 -80 109.5t-157 39.5q-99 0 -163.5 -45t-64.5 -115q0 -97 151 -146l146 -47 q135 -43 196 -112.5t61 -178.5q0 -142 -123 -234t-311 -92q-177 0 -293.5 85t-128.5 223z" />
<glyph unicode="&#x456;" horiz-adv-x="536" d="M120 0l231 1078h176l-231 -1078h-176zM389 1417q0 49 35.5 84.5t84.5 35.5t84.5 -35.5t35.5 -84.5t-35.5 -84.5t-84.5 -35.5t-84.5 35.5t-35.5 84.5z" />
<glyph unicode="&#x457;" horiz-adv-x="523" d="M142 0l229 1078h172l-229 -1078h-172zM191 1349q0 50 35.5 85.5t85.5 35.5t85.5 -35.5t35.5 -85.5t-35.5 -85.5t-85.5 -35.5t-85.5 35.5t-35.5 85.5zM595 1349q0 50 35.5 85.5t85.5 35.5t85.5 -35.5t35.5 -85.5t-35.5 -85.5t-85.5 -35.5t-85.5 35.5t-35.5 85.5z" />
<glyph unicode="&#x458;" horiz-adv-x="536" d="M-154 -394l33 152q32 -3 53 -3q76 0 115 36t58 125l247 1162h172l-252 -1185q-32 -151 -115.5 -220.5t-229.5 -70.5q-44 0 -81 4zM389 1417q0 49 35.5 84.5t84.5 35.5t84.5 -35.5t35.5 -84.5t-35.5 -84.5t-84.5 -35.5t-84.5 35.5t-35.5 84.5z" />
<glyph unicode="&#x459;" horiz-adv-x="1713" d="M-10 2l34 158q21 -8 52 -8q73 0 128.5 78.5t102.5 246.5l170 601h705l-74 -346h199q156 0 246.5 -81.5t90.5 -210.5q0 -193 -135.5 -316.5t-357.5 -123.5h-375l198 934h-371l-132 -461q-79 -275 -169.5 -378.5t-250.5 -103.5q-36 0 -61 11zM984 144h198q128 0 207 80.5 t79 195.5q0 78 -51 123t-141 45h-198z" />
<glyph unicode="&#x45a;" horiz-adv-x="1753" d="M110 0l229 1078h176l-90 -426h530l90 426h176l-90 -426h216q151 0 239 -77t88 -194q0 -165 -133 -273t-350 -108h-375l108 508h-530l-108 -508h-176zM1023 144h199q122 0 199 63.5t77 147.5q0 74 -47.5 113.5t-134.5 39.5h-216z" />
<glyph unicode="&#x45b;" horiz-adv-x="1266" d="M120 0l275 1287h-147l26 124h148l20 95h175l-20 -95h233l-26 -124h-234l-80 -370h16q126 180 333 180q153 0 249.5 -95.5t96.5 -228.5q0 -56 -14 -124l-138 -649h-175l132 619q13 63 13 105q0 99 -63.5 158.5t-173.5 59.5q-125 0 -214.5 -79.5t-116.5 -204.5l-140 -658 h-175z" />
<glyph unicode="&#x45c;" horiz-adv-x="1081" d="M110 0l229 1078h176l-96 -451h43l493 451h219l-586 -519l383 -559h-205l-333 491h-43l-104 -491h-176zM631 1263l324 338h220l-350 -338h-194z" />
<glyph unicode="&#x45e;" horiz-adv-x="1132" d="M50 -380l26 147q39 -13 102 -13q56 0 103.5 40.5t101.5 140.5l39 73l-175 1070h171l128 -857h16l472 857h189l-686 -1196q-91 -159 -172.5 -216.5t-196.5 -57.5q-37 0 -118 12zM467 1556h150q-18 -86 20 -148t123 -62q89 0 152 61.5t81 148.5h156q-32 -147 -135 -237.5 t-269 -90.5q-152 0 -230 93.5t-48 234.5z" />
<glyph unicode="&#x45f;" horiz-adv-x="1212" d="M110 0l229 1078h176l-199 -934h520l199 934h176l-229 -1078h-355l-61 -285h-162l61 285h-355z" />
<glyph unicode="&#x490;" horiz-adv-x="1168" d="M133 0l307 1443h701l60 285h167l-95 -447h-683l-272 -1281h-185z" />
<glyph unicode="&#x491;" horiz-adv-x="935" d="M110 0l229 1078h513l61 285h162l-91 -429h-499l-199 -934h-176z" />
<glyph unicode="&#x2000;" horiz-adv-x="1014" />
<glyph unicode="&#x2001;" horiz-adv-x="2029" />
<glyph unicode="&#x2002;" horiz-adv-x="1014" />
<glyph unicode="&#x2003;" horiz-adv-x="2029" />
<glyph unicode="&#x2004;" horiz-adv-x="676" />
<glyph unicode="&#x2005;" horiz-adv-x="507" />
<glyph unicode="&#x2006;" horiz-adv-x="338" />
<glyph unicode="&#x2007;" horiz-adv-x="338" />
<glyph unicode="&#x2008;" horiz-adv-x="253" />
<glyph unicode="&#x2009;" horiz-adv-x="405" />
<glyph unicode="&#x200a;" horiz-adv-x="112" />
<glyph unicode="&#x2010;" horiz-adv-x="966" d="M201 499l35 163h656l-35 -163h-656z" />
<glyph unicode="&#x2011;" horiz-adv-x="966" d="M201 499l35 163h656l-35 -163h-656z" />
<glyph unicode="&#x2012;" horiz-adv-x="966" d="M201 499l35 163h656l-35 -163h-656z" />
<glyph unicode="&#x2013;" horiz-adv-x="1254" d="M46 499l35 163h1254l-35 -163h-1254z" />
<glyph unicode="&#x2014;" horiz-adv-x="2048" d="M46 499l35 163h2048l-35 -163h-2048z" />
<glyph unicode="&#x2018;" horiz-adv-x="605" d="M391 1443h180l22 -539h-160z" />
<glyph unicode="&#x2019;" horiz-adv-x="605" d="M276 904l252 539h180l-272 -539h-160z" />
<glyph unicode="&#x201a;" horiz-adv-x="605" d="M-5 -417l252 539h180l-272 -539h-160z" />
<glyph unicode="&#x201c;" horiz-adv-x="1013" d="M391 1443h180l22 -539h-160zM799 1443h180l22 -539h-160z" />
<glyph unicode="&#x201d;" horiz-adv-x="1013" d="M276 904l252 539h180l-272 -539h-160zM684 904l252 539h180l-272 -539h-160z" />
<glyph unicode="&#x201e;" horiz-adv-x="1013" d="M-5 -417l252 539h180l-272 -539h-160zM403 -417l252 539h180l-272 -539h-160z" />
<glyph unicode="&#x2020;" horiz-adv-x="1032" d="M285 930l31 148h293l66 311h152l-66 -311h293l-31 -148h-293l-132 -620h-152l132 620h-293z" />
<glyph unicode="&#x2021;" horiz-adv-x="1032" d="M205 560l33 148h294l60 283h-295l31 148h293l53 250h152l-53 -250h293l-31 -148h-295l-60 -283h296l-33 -148h-293l-53 -250h-152l53 250h-293z" />
<glyph unicode="&#x2022;" horiz-adv-x="1032" d="M275 580q0 128 88 216t216 88t216 -88t88 -216t-88 -216t-216 -88t-216 88t-88 216z" />
<glyph unicode="&#x2026;" horiz-adv-x="1642" d="M114 120q0 54 38.5 92t91.5 38q54 0 92 -38t38 -92q0 -53 -38 -91.5t-92 -38.5q-53 0 -91.5 38.5t-38.5 91.5zM632 120q0 54 38.5 92t91.5 38q54 0 92 -38t38 -92q0 -53 -38 -91.5t-92 -38.5q-53 0 -91.5 38.5t-38.5 91.5zM1138 120q0 54 38.5 92t91.5 38q54 0 92 -38 t38 -92q0 -53 -38 -91.5t-92 -38.5q-53 0 -91.5 38.5t-38.5 91.5z" />
<glyph unicode="&#x202f;" horiz-adv-x="405" />
<glyph unicode="&#x2030;" horiz-adv-x="2310" d="M130 0l711 752l653 691h188l-723 -766l-639 -677h-190zM262 1066q0 167 102.5 284.5t247.5 117.5q121 0 195.5 -81.5t74.5 -213.5q0 -166 -102.5 -284.5t-246.5 -118.5q-122 0 -196.5 81t-74.5 215zM420 1065q0 -75 33 -120.5t88 -45.5q74 0 128.5 82.5t54.5 195.5 q0 75 -31.5 118.5t-86.5 43.5q-75 0 -130.5 -82t-55.5 -192zM934 271q0 167 102.5 284.5t247.5 117.5q121 0 195.5 -81.5t74.5 -213.5q0 -166 -102.5 -284.5t-246.5 -118.5q-122 0 -196.5 81t-74.5 215zM1092 270q0 -75 33 -120.5t88 -45.5q74 0 128.5 82.5t54.5 195.5 q0 75 -31.5 118.5t-86.5 43.5q-75 0 -130.5 -82t-55.5 -192zM1634 271q0 167 102.5 284.5t247.5 117.5q121 0 195.5 -81.5t74.5 -213.5q0 -166 -102.5 -284.5t-246.5 -118.5q-122 0 -196.5 81t-74.5 215zM1792 270q0 -75 33 -120.5t88 -45.5q74 0 128.5 82.5t54.5 195.5 q0 75 -31.5 118.5t-86.5 43.5q-75 0 -130.5 -82t-55.5 -192z" />
<glyph unicode="&#x2039;" horiz-adv-x="912" d="M207 561l2 8l439 416h219l-453 -432l-3 -16l248 -392h-190z" />
<glyph unicode="&#x203a;" horiz-adv-x="912" d="M165 145l453 432l3 16l-248 392h190l262 -416l-2 -8l-439 -416h-219z" />
<glyph unicode="&#x2044;" horiz-adv-x="564" d="M-183 0l496 758l448 685h173l-472 -721l-472 -722h-173z" />
<glyph unicode="&#x205f;" horiz-adv-x="507" />
<glyph unicode="&#x2070;" horiz-adv-x="902" d="M310 1220q0 260 124.5 434t306.5 174q140 0 222.5 -94t83.5 -251q0 -261 -124.5 -434.5t-307.5 -173.5q-140 0 -222.5 94t-82.5 251zM485 1213q0 -92 36 -144.5t100 -52.5q66 0 124 65t92.5 174.5t34.5 234.5q0 92 -36 144.5t-100 52.5q-66 0 -124 -65t-92.5 -174.5 t-34.5 -234.5z" />
<glyph unicode="&#x2074;" horiz-adv-x="884" d="M242 1066l28 156q164 216 484 581h254l-127 -596h120l-30 -141h-120l-35 -166h-166l35 166h-443zM430 1203h288l98 465h-9q-180 -204 -375 -456z" />
<glyph unicode="&#x2075;" horiz-adv-x="862" d="M291.5 1145.5q-0.5 6.5 0.5 14.5h162q1 -64 47 -103.5t120 -39.5q82 0 135.5 56.5t53.5 143.5q0 70 -43.5 112.5t-114.5 42.5q-95 0 -155 -71h-161l152 502h549l-30 -141h-410l-72 -233l10 -1q71 68 180 68q111 0 186 -74.5t75 -185.5q1 -159 -100.5 -259t-262.5 -100 q-138 0 -230 74.5t-91 186.5q0 1 -0.5 7.5z" />
<glyph unicode="&#x2076;" horiz-adv-x="883" d="M294 1177q0 192 204 397q21 22 121 120t114 109h230q-22 -15 -160.5 -143t-167.5 -160q-22 -20 -42 -49l9 -4q52 41 130 41q106 0 177.5 -75.5t71.5 -187.5q0 -144 -104 -243t-256 -99q-140 0 -233.5 84t-93.5 210zM461 1184q1 -68 47.5 -113t117.5 -45q77 0 130.5 53.5 t53.5 129.5q0 69 -46.5 114.5t-117.5 45.5q-77 0 -130.5 -54t-54.5 -131z" />
<glyph unicode="&#x2077;" horiz-adv-x="781" d="M260 900l551 752l2 11h-445l31 140h625l-31 -142l-544 -761h-189z" />
<glyph unicode="&#x2078;" horiz-adv-x="917" d="M284 1126q1 101 70 173.5t179 86.5l3 11q-57 24 -89.5 69.5t-31.5 99.5q-1 112 94 186.5t238 74.5q130 0 219.5 -66.5t88.5 -163.5q0 -87 -56.5 -150t-148.5 -79l-2 -11q71 -25 111 -77.5t40 -119.5q0 -124 -105 -204t-266 -80q-152 0 -248 70t-96 180zM467 1143 q-1 -61 45.5 -98t123.5 -37q81 0 134 46t53 116q1 61 -46.5 99t-122.5 38q-80 0 -133.5 -47t-53.5 -117zM580 1549q0 -52 40 -85t102 -33q68 0 114 42.5t46 105.5q0 52 -39.5 85t-102.5 33q-69 0 -114.5 -42t-45.5 -106z" />
<glyph unicode="&#x2079;" horiz-adv-x="884" d="M356 1476q0 143 103.5 240t256.5 97q140 0 233.5 -84t94.5 -210q-1 -192 -205 -397q-13 -14 -115 -114t-119 -115h-230q21 15 159 142.5t169 160.5q20 20 41 49l-9 4q-48 -41 -118 -41q-111 0 -186 77t-75 191zM528 1488q-1 -69 45.5 -115t117.5 -46q77 0 131 54t54 131 q-1 69 -47.5 114t-116.5 45q-77 0 -131 -53.5t-53 -129.5z" />
<glyph unicode="&#x207a;" horiz-adv-x="854" d="M311 1298l28 134h264l56 262h135l-56 -262h265l-28 -134h-265l-56 -262h-135l56 262h-264z" />
<glyph unicode="&#x207c;" horiz-adv-x="855" d="M282 1160l28 134h664l-28 -134h-664zM341 1436l28 133h664l-28 -133h-664z" />
<glyph unicode="&#x207d;" horiz-adv-x="526" d="M324 1159q-1 201 76.5 389.5t214.5 319.5h178q-143 -147 -220.5 -334.5t-77.5 -386.5q0 -180 56 -354h-154q-32 66 -52.5 167t-20.5 199z" />
<glyph unicode="&#x207e;" horiz-adv-x="527" d="M179 793q142 146 219.5 333.5t77.5 387.5q0 182 -55 354h154q32 -66 52.5 -168t20.5 -198q0 -202 -77 -390t-214 -319h-178z" />
<glyph unicode="&#x2080;" horiz-adv-x="902" d="M42 -40q0 260 124.5 434t306.5 174q140 0 222.5 -94t83.5 -251q0 -261 -124.5 -434.5t-307.5 -173.5q-140 0 -222.5 94t-82.5 251zM217 -47q0 -92 36 -144.5t100 -52.5q66 0 124 65t92.5 174.5t34.5 234.5q0 92 -36 144.5t-100 52.5q-66 0 -124 -65t-92.5 -174.5 t-34.5 -234.5z" />
<glyph unicode="&#x2081;" horiz-adv-x="681" d="M70 210l36 169l270 164h173l-192 -903h-174l154 725h-11z" />
<glyph unicode="&#x2082;" horiz-adv-x="855" d="M-23 -360l27 126l356 297q126 104 164.5 151t38.5 95q0 53 -38.5 86.5t-99.5 33.5q-62 0 -107.5 -38t-57.5 -101v-3h-162q11 122 106.5 201t234.5 79q128 0 212.5 -69t84.5 -173q0 -80 -55 -152t-217 -203l-212 -178l-2 -11h403l-30 -141h-646z" />
<glyph unicode="&#x2083;" horiz-adv-x="867" d="M10 -95h165q0 -66 46 -106.5t122 -40.5q81 0 130.5 43.5t49.5 114.5q0 55 -44.5 89.5t-115.5 34.5h-99l26 129h123q73 0 121 41t48 104q0 52 -40 84t-105 32q-57 0 -101.5 -32t-61.5 -85h-161q24 116 116 185t222 69q131 0 216 -66t85 -167q0 -88 -59.5 -153t-152.5 -79 l-1 -11q75 -16 115.5 -64.5t40.5 -121.5q0 -126 -100 -207.5t-255 -81.5q-156 0 -251 83t-79 206z" />
<glyph unicode="&#x2084;" horiz-adv-x="884" d="M-26 -194l28 156q164 216 484 581h254l-127 -596h120l-30 -141h-120l-35 -166h-166l35 166h-443zM162 -57h288l98 465h-9q-180 -204 -375 -456z" />
<glyph unicode="&#x2085;" horiz-adv-x="862" d="M24 -100h162q1 -64 47 -103.5t120 -39.5q82 0 135.5 56.5t53.5 143.5q0 70 -43.5 112.5t-114.5 42.5q-95 0 -155 -71h-161l152 502h549l-30 -141h-410l-72 -233l10 -1q71 68 180 68q111 0 186 -74.5t75 -185.5q1 -159 -100.5 -259t-262.5 -100q-138 0 -230 74.5 t-91 186.5v22z" />
<glyph unicode="&#x2086;" horiz-adv-x="883" d="M26 -83q0 192 204 397q21 22 121 120t114 109h230q-22 -15 -160.5 -143t-167.5 -160q-22 -20 -42 -49l9 -4q52 41 130 41q106 0 177.5 -75.5t71.5 -187.5q0 -144 -104 -243t-256 -99q-140 0 -233.5 84t-93.5 210zM193 -76q1 -68 47.5 -113t117.5 -45q77 0 130.5 53.5 t53.5 129.5q0 69 -46.5 114.5t-117.5 45.5q-77 0 -130.5 -54t-54.5 -131z" />
<glyph unicode="&#x2087;" horiz-adv-x="782" d="M-7 -360l551 752l2 11h-445l31 140h625l-31 -142l-544 -761h-189z" />
<glyph unicode="&#x2088;" horiz-adv-x="917" d="M16 -134q1 101 70 173.5t179 86.5l3 11q-57 24 -89.5 69.5t-31.5 99.5q-1 112 94 186.5t238 74.5q130 0 219.5 -66.5t88.5 -163.5q0 -87 -56.5 -150t-148.5 -79l-2 -11q71 -25 111 -77.5t40 -119.5q0 -124 -105 -204t-266 -80q-152 0 -248 70t-96 180zM199 -117 q-1 -61 45.5 -98t123.5 -37q81 0 134 46t53 116q1 61 -46.5 99t-122.5 38q-80 0 -133.5 -47t-53.5 -117zM312 289q0 -52 40 -85t102 -33q68 0 114 42.5t46 105.5q0 52 -39.5 85t-102.5 33q-69 0 -114.5 -42t-45.5 -106z" />
<glyph unicode="&#x2089;" horiz-adv-x="885" d="M89 216q0 143 103.5 240t256.5 97q140 0 233.5 -84t94.5 -210q-1 -192 -205 -397q-13 -14 -115 -114t-119 -115h-230q21 15 159 142.5t169 160.5q20 20 41 49l-9 4q-48 -41 -118 -41q-111 0 -186 77t-75 191zM261 228q-1 -69 45.5 -115t117.5 -46q77 0 131 54t54 131 q-1 69 -47.5 114t-116.5 45q-77 0 -131 -53.5t-53 -129.5z" />
<glyph unicode="&#x208a;" horiz-adv-x="855" d="M44 38l28 134h264l56 262h135l-56 -262h265l-28 -134h-265l-56 -262h-135l56 262h-264z" />
<glyph unicode="&#x208c;" horiz-adv-x="855" d="M14 -100l28 134h664l-28 -134h-664zM73 176l28 133h664l-28 -133h-664z" />
<glyph unicode="&#x208d;" horiz-adv-x="527" d="M57 -101q-1 201 76.5 389.5t214.5 319.5h178q-143 -147 -220.5 -334.5t-77.5 -386.5q0 -180 56 -354h-154q-32 66 -52.5 167t-20.5 199z" />
<glyph unicode="&#x208e;" horiz-adv-x="526" d="M-89 -467q142 146 219.5 333.5t77.5 387.5q0 182 -55 354h154q32 -66 52.5 -168t20.5 -198q0 -202 -77 -390t-214 -319h-178z" />
<glyph unicode="&#x20ac;" d="M157 494l29 136h185v2q0 98 15 187h-157l29 136h161q80 242 278.5 377t483.5 135q56 0 136.5 -10.5t128.5 -22.5l-37 -164q-118 30 -237 30q-201 0 -343 -89.5t-209 -255.5h493l-29 -136h-504q-16 -80 -16 -177v-12h477l-29 -136h-427q49 -164 200 -258.5t370 -94.5 q6 0 16.5 0.5t14.5 0.5l-35 -164q-8 -1 -41 -1q-276 0 -475 143t-249 374h-229z" />
<glyph unicode="&#x2122;" horiz-adv-x="2263" d="M383 1303l30 140h789l-30 -140h-316l-162 -763h-157l162 763h-316zM1160 540l192 903h160l176 -670h16l458 670h182l-192 -903h-144l132 624h-16l-411 -598h-104l-155 598h-16l-132 -624h-146z" />
<glyph unicode="&#x2202;" horiz-adv-x="1201" d="M152 353q0 160 73 297t198 216.5t272 79.5q103 0 196.5 -45t135.5 -115l16 -2q3 36 3 71q0 209 -116 363t-321 217l77 147q236 -67 377 -258.5t141 -444.5q0 -245 -89.5 -455t-242.5 -332.5t-332 -122.5q-172 0 -280 107t-108 277zM337 369q0 -108 63 -173.5t166 -65.5 q149 0 270.5 137t168.5 359q-47 73 -128.5 115t-176.5 42q-148 0 -255.5 -122.5t-107.5 -291.5z" />
<glyph unicode="&#x220f;" horiz-adv-x="1512" d="M305 -290l334 1571h-202l35 162h1186l-35 -162h-200l-334 -1571h-180l334 1571h-424l-334 -1571h-180z" />
<glyph unicode="&#x2211;" horiz-adv-x="1294" d="M148 -280l34 158l617 698l2 11l-320 698l33 158h894l-34 -159h-701l-1 -9l324 -708l-2 -11l-609 -668l-2 -9h693l-34 -159h-894z" />
<glyph unicode="&#x221a;" horiz-adv-x="1398" d="M135 668h172l56 -730h16l728 1505h484l-34 -162h-349l-744 -1513h-236z" />
<glyph unicode="&#x221e;" horiz-adv-x="1851" d="M152 554q0 196 132.5 323t337.5 127q116 0 222.5 -68t173.5 -185q183 253 440 253q166 0 272 -98t106 -253q0 -196 -132.5 -323t-337.5 -127q-116 0 -222.5 68t-173.5 185q-183 -253 -440 -253q-166 0 -272 98t-106 253zM325 567q0 -89 63 -148t157 -59q108 0 203.5 62 t167.5 181q-52 110 -136 175t-171 65q-123 0 -203.5 -78.5t-80.5 -197.5zM1072 604q52 -110 136 -175t171 -65q123 0 203.5 78.5t80.5 197.5q0 89 -63 148t-157 59q-108 0 -203.5 -62t-167.5 -181z" />
<glyph unicode="&#x222b;" horiz-adv-x="1102" d="M5 -294l30 144q57 -15 94 -15q70 0 118.5 42t79.5 131l408 1158q56 158 144 229t241 71q32 0 103 -16l-31 -144q-57 15 -93 15q-70 0 -118.5 -42t-79.5 -131l-408 -1158q-56 -158 -144 -229t-241 -71q-34 0 -103 16z" />
<glyph unicode="&#x2248;" d="M136 162q18 155 106 242t206 87q55 0 102.5 -23.5t80 -57t60.5 -67t58 -57t60 -23.5q108 0 138 167h171q-18 -155 -106 -242t-206 -87q-56 0 -104 23.5t-80 57t-60.5 67t-58.5 57t-60 23.5q-54 0 -87 -40.5t-49 -126.5h-171zM229 600q18 155 106 242t206 87 q55 0 102.5 -23.5t80 -57t60.5 -67t58 -57t60 -23.5q108 0 138 167h171q-18 -155 -106 -242t-206 -87q-56 0 -104 23.5t-80 57t-60.5 67t-58.5 57t-60 23.5q-54 0 -87 -40.5t-49 -126.5h-171z" />
<glyph unicode="&#x2260;" d="M166 312l32 149h405l146 239h-500l31 149h561l144 235h133l-144 -235h314l-31 -149h-375l-146 -239h470l-32 -149h-530l-191 -312h-133l191 312h-345z" />
<glyph unicode="&#x2264;" d="M124 112l31 148h1007l-31 -148h-1007zM254 724l31 148l1073 306l-36 -169l-817 -206l-4 -16l729 -210l-34 -159z" />
<glyph unicode="&#x2265;" d="M125 112l31 148h1007l-31 -148h-1007zM189 418l36 169l817 210l4 16l-729 206l35 159l941 -306l-31 -148z" />
<glyph unicode="&#x25ca;" horiz-adv-x="1178" d="M209 652l515 681h178l225 -681l-515 -682h-178zM386 638l164 -493h16l384 521l-164 492h-16z" />
<glyph unicode="&#x25fc;" horiz-adv-x="1080" d="M0 0v1080h1080v-1080h-1080z" />
<glyph unicode="&#xf8ff;" horiz-adv-x="1963" d="M185 791q-3 188 76 324q60 102 160 164t214 64q51 2 109 -18.5t108 -41.5t78 -21q27 0 83 20t127 40.5t134 20.5q31 0 66 -6t84.5 -22.5t99 -55.5t85.5 -95q-149 -93 -187 -249q-12 -47 -12 -97q3 -75 29 -140t60 -104t70.5 -67t59 -39.5t26.5 -11.5q-1 -1 -6 -16 t-14.5 -40t-23 -55.5t-35.5 -70t-48 -75.5q-34 -51 -58.5 -83t-60 -68.5t-75 -54t-83.5 -17.5q-56 0 -140 37t-154 37q-61 0 -112 -18.5t-95.5 -37t-89.5 -18.5q-44 0 -84.5 18.5t-78 56.5t-62.5 69.5t-62 83.5q-79 114 -132.5 272.5t-55.5 314.5zM920 1366q-26 131 91 277 q52 61 127 98.5t145 37.5q9 -163 -101 -283q-47 -63 -119.5 -101t-142.5 -29z" />
<glyph unicode="&#xfb01;" horiz-adv-x="1242" d="M174 0l194 934h-179l30 144h179l20 105q31 165 121 239t254 74q62 0 121 -10l-29 -144q-40 9 -109 9q-75 0 -120.5 -42t-62.5 -131l-19 -100h245l-30 -144h-245l-194 -934h-176zM836 0l231 1078h176l-231 -1078h-176zM1105 1417q0 49 35.5 84.5t84.5 35.5t84.5 -35.5 t35.5 -84.5t-35.5 -84.5t-84.5 -35.5t-84.5 35.5t-35.5 84.5z" />
<glyph unicode="&#xfb02;" horiz-adv-x="1242" d="M174 0l194 934h-179l30 144h179l20 105q31 165 121 239t254 74q62 0 121 -10l-29 -144q-40 9 -109 9q-75 0 -120.5 -42t-62.5 -131l-19 -100h245l-30 -144h-245l-194 -934h-176zM836 0l320 1506h176l-320 -1506h-176z" />
<glyph horiz-adv-x="1380" d="M9 0l811 1313h178l253 -1313h-180l-72 413h-548l-248 -413h-194zM542 566h430l-95 550h-6z" />
<glyph horiz-adv-x="1380" d="M9 0l811 1313h178l253 -1313h-180l-72 413h-548l-248 -413h-194zM542 566h430l-95 550h-6zM752 1670q0 96 68 162.5t164 66.5t164 -66.5t68 -162.5t-68 -162.5t-164 -66.5t-164 66.5t-68 162.5zM862 1670q0 -53 35 -88t87 -35t87 35t35 88t-35 88t-87 35t-87 -35t-35 -88 z" />
<glyph horiz-adv-x="1466" d="M201 554q0 197 58 368.5t158.5 293t241.5 191.5t303 70q235 0 390 -136.5t155 -342.5v-6h-183v2q-11 145 -113 230.5t-263 85.5q-155 0 -283.5 -97t-202.5 -266t-74 -374q0 -203 106 -321.5t287 -118.5q146 0 258 67.5t151 179.5h190q-51 -181 -200.5 -290t-364.5 -122 l-51 -82q180 -7 180 -150q0 -78 -66.5 -123t-178.5 -45q-28 0 -71 6.5t-65 15.5l21 98q45 -14 108 -14q109 0 109 58q0 62 -124 62h-66l12 68l63 108q-221 24 -353 182t-132 402z" />
<glyph horiz-adv-x="1220" d="M124 0l279 1313h894l-34 -162h-714l-85 -398h677l-34 -160h-677l-92 -431h714l-34 -162h-894z" />
<glyph horiz-adv-x="546" d="M123 0l279 1313h180l-279 -1313h-180z" />
<glyph horiz-adv-x="1579" d="M175 571q0 164 56.5 309t153 248.5t232.5 163.5t289 60q271 0 435 -169.5t164 -448.5q0 -162 -56.5 -305.5t-153 -246t-232.5 -162t-289 -59.5q-273 0 -436 166t-163 444zM363 582q0 -206 115 -329.5t306 -123.5q147 0 269.5 79.5t193 218.5t70.5 306q0 205 -114.5 328 t-305.5 123q-148 0 -270.5 -79.5t-193 -218t-70.5 -304.5z" />
<glyph horiz-adv-x="1305" d="M55 377h182q18 -111 124.5 -179t258.5 -68q155 0 240 57t85 159q0 76 -52 127t-168 90l-164 55q-324 108 -324 351q0 171 137 274.5t366 103.5q210 0 353 -112t156 -287h-181q-20 111 -109.5 173.5t-224.5 62.5q-146 0 -229 -53.5t-83 -148.5q0 -126 228 -204l142 -49 q338 -117 338 -363q0 -188 -138.5 -294t-388.5 -106q-228 0 -380 113.5t-168 297.5z" />
<glyph horiz-adv-x="1524" d="M228 419q0 54 15 127l163 767h183l-164 -771q-10 -47 -10 -94q0 -142 98.5 -230t272.5 -88q165 0 278 94.5t146 249.5l178 839h182l-184 -867q-46 -218 -210.5 -350.5t-402.5 -132.5q-249 0 -397 127t-148 329z" />
<glyph horiz-adv-x="1146" d="M156 438q0 187 73 337.5t203.5 236t292.5 85.5q159 0 273.5 -84.5t139.5 -217.5q3 -15 5 -47h-176q-8 84 -80.5 139t-175.5 55q-160 0 -267 -138t-107 -343q0 -150 72.5 -236.5t197.5 -86.5q100 0 172 44.5t103 125.5h179q-33 -147 -162 -237t-307 -90h-1l-60 -95 q180 -7 180 -150q0 -78 -66.5 -123t-178.5 -45q-28 0 -71 6.5t-65 15.5l21 98q45 -14 108 -14q109 0 109 58q0 62 -124 62h-66l12 68l78 134q-144 36 -228 153.5t-84 288.5z" />
<glyph horiz-adv-x="516" d="M112 0l229 1078h172l-229 -1078h-172zM371 1415q0 52 37.5 89.5t90.5 37.5t90.5 -37.5t37.5 -89.5q0 -53 -37.5 -90.5t-90.5 -37.5t-90.5 37.5t-37.5 90.5z" />
<glyph horiz-adv-x="1650" d="M123 0l307 1443h184l-307 -1443h-184zM458 1575l373 298h226l-395 -298h-204zM644 337h181q2 -94 62 -148t161 -54q208 0 265 269l221 1039h179l-228 -1080q-40 -191 -157.5 -294t-301.5 -103q-174 0 -283.5 106.5t-98.5 264.5zM1560 1575l373 298h226l-395 -298h-204z " />
<glyph horiz-adv-x="1032" d="M112 0l229 1078h172l-229 -1078h-172zM352 -394l33 152q31 -3 53 -3q76 0 115 36t58 125l247 1162h172l-252 -1185q-32 -151 -115.5 -220.5t-229.5 -70.5q-44 0 -81 4zM369 1263l324 338h220l-350 -338h-194zM887 1263l324 338h220l-350 -338h-194z" />
<glyph horiz-adv-x="1240" d="M97 299l34 160l718 984h192l-708 -972l-2 -12h484l88 415h175l-88 -414h195l-34 -161h-195l-64 -299h-175l64 299h-684z" />
<glyph horiz-adv-x="1330" d="M204 432q0 143 78.5 289.5t243.5 312.5l408 409h224l-531 -514q-30 -28 -56 -62l12 -9q35 33 96 54t121 21q173 0 288.5 -124t115.5 -311q0 -143 -70 -261.5t-192.5 -186.5t-269.5 -68q-205 0 -336.5 126.5t-131.5 323.5zM372 450q0 -134 88.5 -222t224.5 -88 q145 0 244.5 99t99.5 245q0 136 -88.5 224.5t-222.5 88.5q-144 0 -245 -101t-101 -246z" />
<glyph horiz-adv-x="1330" d="M333 961q0 143 70 261.5t192.5 186.5t269.5 68q205 0 336.5 -126.5t131.5 -323.5q0 -141 -78.5 -286.5t-243.5 -315.5l-432 -443h-224l555 548q33 34 56 62l-12 9q-33 -31 -90.5 -53t-106.5 -22q-185 0 -304.5 122.5t-119.5 312.5zM508 975q0 -136 88.5 -224.5 t222.5 -88.5q144 0 245 101t101 246q0 134 -88.5 222t-224.5 88q-146 0 -245 -99.5t-99 -244.5z" />
<glyph d="M214 482q0 209 52.5 394.5t141 316.5t209.5 207.5t254 76.5q195 0 311.5 -143t116.5 -377q0 -210 -52 -395t-140 -315t-208.5 -205.5t-254.5 -75.5q-196 0 -313 141t-117 375zM394 485q0 -169 69 -265t194 -96q123 0 229.5 111.5t169.5 304t63 416.5q0 168 -68.5 265 t-190.5 97q-123 0 -231 -112.5t-171.5 -305t-63.5 -415.5z" />
<glyph d="M457 961l44 206l443 276h179l-307 -1443h-180l260 1223h-16z" />
<glyph d="M130 0l29 139l615 547q191 170 249.5 247t58.5 160q0 99 -74 163t-187 64q-119 0 -203 -68.5t-104 -182.5v-1q-20 0 -83.5 0.5t-93.5 0.5q21 181 159 294.5t338 113.5q185 0 309 -104t124 -260q0 -122 -83.5 -237t-321.5 -323l-426 -375l-4 -16h702l-34 -162h-970z" />
<glyph d="M169 350q0 10 2 32h174v-8q0 -112 89.5 -181.5t231.5 -69.5q160 0 254.5 82t94.5 223q0 104 -87 170.5t-224 66.5h-156l32 154h209q130 0 220 83.5t90 203.5q0 96 -74.5 154.5t-194.5 58.5q-105 0 -190.5 -62t-114.5 -159h-177q37 172 173.5 275.5t324.5 103.5 q190 0 315 -100t125 -252q0 -143 -90.5 -247t-239.5 -133l-3 -16q118 -25 182.5 -101.5t64.5 -190.5q0 -208 -152 -339.5t-393 -131.5q-205 0 -345 110.5t-141 273.5z" />
<glyph d="M130 299l27 171q280 360 821 973h274l-209 -983h206l-34 -161h-206l-64 -299h-176l64 299h-703zM348 459h520l173 817h-12q-316 -352 -679 -805z" />
<glyph d="M181 357q0 14 2 28h178v-7q0 -113 84 -183t219 -70q159 0 256.5 106t97.5 274q0 130 -81.5 207t-208.5 77q-90 0 -165.5 -34t-126.5 -95h-178l244 783h795l-35 -161h-645l-133 -437l16 -2q110 97 273 97q180 0 305 -117.5t125 -295.5q0 -247 -148.5 -403.5t-396.5 -156.5 q-202 0 -339.5 112.5t-137.5 277.5z" />
<glyph d="M203 489q0 181 44.5 356t125.5 314q91 155 223.5 236.5t291.5 81.5q191 0 319 -111t136 -285h-186q-10 109 -87 172.5t-198 63.5q-166 0 -285 -144t-177 -414l16 -2q69 91 169 141t215 50q189 0 310 -116t121 -297q0 -159 -74 -289.5t-203 -205t-285 -74.5 q-218 0 -347 141t-129 382zM390 413q0 -130 82.5 -208.5t218.5 -78.5q152 0 257.5 112.5t105.5 275.5q0 124 -80 202t-207 78q-157 0 -267 -111t-110 -270z" />
<glyph d="M226 0l923 1266l3 16h-740l35 161h928l-36 -167l-916 -1276h-197z" />
<glyph d="M157 347q0 167 110 287.5t277 136.5l4 16q-85 41 -133 112.5t-48 157.5q0 181 140.5 300.5t352.5 119.5q189 0 317.5 -100t128.5 -248q0 -142 -87.5 -245t-230.5 -131l-4 -16q109 -41 170.5 -123t61.5 -185q0 -202 -156 -332.5t-395 -130.5q-223 0 -365.5 106.5 t-142.5 274.5zM345 371q0 -116 88 -183t240 -67q157 0 258.5 86t101.5 220q0 113 -91 183t-237 70q-156 0 -258 -87.5t-102 -221.5zM543 1045q0 -97 76 -157t198 -60q133 0 219.5 79t86.5 200q0 97 -75.5 156t-199.5 59q-135 0 -220 -77t-85 -200z" />
<glyph d="M172 362h186q10 -109 86.5 -172.5t197.5 -63.5q166 0 285 144t177 414l-16 2q-69 -91 -169 -141t-215 -50q-189 0 -309.5 115.5t-120.5 297.5q0 119 43.5 224.5t118 181t178.5 119.5t221 44q218 0 347 -141t129 -382q0 -181 -44.5 -356t-125.5 -314 q-91 -155 -223.5 -236.5t-291.5 -81.5q-191 0 -318.5 111t-135.5 285zM461 929q0 -124 79.5 -202t206.5 -78q157 0 267 111t110 270q0 130 -82.5 208.5t-218.5 78.5q-152 0 -257 -112.5t-105 -275.5z" />
<glyph horiz-adv-x="630" d="M114 290q0 62 40 102t102 40q61 0 100.5 -40t39.5 -102t-39.5 -102t-100.5 -40q-62 0 -102 40t-40 102zM275 1067q0 62 40 102.5t102 40.5q61 0 100.5 -40.5t39.5 -102.5t-39.5 -102t-100.5 -40q-62 0 -102 40t-40 102z" />
<glyph horiz-adv-x="902" d="M233 860q0 260 124.5 434t306.5 174q140 0 222.5 -94t83.5 -251q0 -261 -124.5 -434.5t-307.5 -173.5q-140 0 -222.5 94t-82.5 251zM408 853q0 -92 36 -144.5t100 -52.5q66 0 124 65t92.5 174.5t34.5 234.5q0 92 -36 144.5t-100 52.5q-66 0 -124 -65t-92.5 -174.5 t-34.5 -234.5z" />
<glyph horiz-adv-x="680" d="M261 1110l36 169l270 164h173l-192 -903h-174l154 725h-11z" />
<glyph horiz-adv-x="855" d="M169 540l27 126l356 297q126 104 164.5 151t38.5 95q0 53 -38.5 86.5t-99.5 33.5q-62 0 -107.5 -38t-57.5 -101v-3h-162q11 122 106.5 201t234.5 79q128 0 212.5 -69t84.5 -173q0 -80 -55 -152t-217 -203l-212 -178l-2 -11h403l-30 -141h-646z" />
<glyph horiz-adv-x="866" d="M201 805h165q0 -66 46 -106.5t122 -40.5q81 0 130.5 43.5t49.5 114.5q0 55 -44.5 89.5t-115.5 34.5h-99l26 129h123q73 0 121 41t48 104q0 52 -40 84t-105 32q-57 0 -101.5 -32t-61.5 -85h-161q24 116 116 185t222 69q131 0 216 -66t85 -167q0 -88 -59.5 -153t-152.5 -79 l-1 -11q75 -16 115.5 -64.5t40.5 -121.5q0 -126 -100 -207.5t-255 -81.5q-156 0 -251 83t-79 206z" />
<glyph horiz-adv-x="884" d="M165 706l28 156q164 216 484 581h254l-127 -596h120l-30 -141h-120l-35 -166h-166l35 166h-443zM353 843h288l98 465h-9q-180 -204 -375 -456z" />
<glyph horiz-adv-x="862" d="M214.5 785.5q-0.5 6.5 0.5 14.5h162q1 -64 47 -103.5t120 -39.5q82 0 135.5 56.5t53.5 143.5q0 70 -43.5 112.5t-114.5 42.5q-95 0 -155 -71h-161l152 502h549l-30 -141h-410l-72 -233l10 -1q71 68 180 68q111 0 186 -74.5t75 -185.5q1 -159 -100.5 -259t-262.5 -100 q-138 0 -230 74.5t-91 186.5q0 1 -0.5 7.5z" />
<glyph horiz-adv-x="883" d="M217 817q0 192 204 397q21 22 121 120t114 109h230q-22 -15 -160.5 -143t-167.5 -160q-22 -20 -42 -49l9 -4q52 41 130 41q106 0 177.5 -75.5t71.5 -187.5q0 -144 -104 -243t-256 -99q-140 0 -233.5 84t-93.5 210zM384 824q1 -68 47.5 -113t117.5 -45q77 0 130.5 53.5 t53.5 129.5q0 69 -46.5 114.5t-117.5 45.5q-77 0 -130.5 -54t-54.5 -131z" />
<glyph horiz-adv-x="781" d="M184 540l551 752l2 11h-445l31 140h625l-31 -142l-544 -761h-189z" />
<glyph horiz-adv-x="917" d="M207 766q1 101 70 173.5t179 86.5l3 11q-57 24 -89.5 69.5t-31.5 99.5q-1 112 94 186.5t238 74.5q130 0 219.5 -66.5t88.5 -163.5q0 -87 -56.5 -150t-148.5 -79l-2 -11q71 -25 111 -77.5t40 -119.5q0 -124 -105 -204t-266 -80q-152 0 -248 70t-96 180zM390 783 q-1 -61 45.5 -98t123.5 -37q81 0 134 46t53 116q1 61 -46.5 99t-122.5 38q-80 0 -133.5 -47t-53.5 -117zM503 1189q0 -52 40 -85t102 -33q68 0 114 42.5t46 105.5q0 52 -39.5 85t-102.5 33q-69 0 -114.5 -42t-45.5 -106z" />
<glyph horiz-adv-x="885" d="M280 1116q0 143 103.5 240t256.5 97q140 0 233.5 -84t94.5 -210q-1 -192 -205 -397q-13 -14 -115 -114t-119 -115h-230q21 15 159 142.5t169 160.5q20 20 41 49l-9 4q-48 -41 -118 -41q-111 0 -186 77t-75 191zM452 1128q-1 -69 45.5 -115t117.5 -46q77 0 131 54t54 131 q-1 69 -47.5 114t-116.5 45q-77 0 -131 -53.5t-53 -129.5z" />
<glyph horiz-adv-x="855" d="M235 938l28 134h264l56 262h135l-56 -262h265l-28 -134h-265l-56 -262h-135l56 262h-264z" />
<glyph horiz-adv-x="855" d="M206 800l28 134h664l-28 -134h-664zM265 1076l28 133h664l-28 -133h-664z" />
<glyph horiz-adv-x="526" d="M248 799q-1 201 76.5 389.5t214.5 319.5h178q-143 -147 -220.5 -334.5t-77.5 -386.5q0 -180 56 -354h-154q-32 66 -52.5 167t-20.5 199z" />
<glyph horiz-adv-x="526" d="M102 433q142 146 219.5 333.5t77.5 387.5q0 182 -55 354h154q32 -66 52.5 -168t20.5 -198q0 -202 -77 -390t-214 -319h-178z" />
<glyph horiz-adv-x="728" d="M192 470q0 312 117.5 607.5t327.5 505.5h192q-223 -231 -342.5 -518.5t-119.5 -597.5q0 -319 92 -604h-154q-49 105 -81 279t-32 328z" />
<glyph horiz-adv-x="727" d="M86 -137q223 231 342 518.5t119 597.5q0 319 -92 604h154q49 -105 81 -279t32 -328q0 -312 -117 -607.5t-327 -505.5h-192z" />
<glyph horiz-adv-x="757" d="M83 -100l358 1684h452l-29 -136h-284l-300 -1413h296l-29 -135h-464z" />
<glyph horiz-adv-x="757" d="M59 -100l29 136h284l300 1413h-296l29 134h464l-358 -1683h-452z" />
<glyph horiz-adv-x="824" d="M162 659l41 191q100 0 148.5 47t74.5 166l59 275q36 170 152 247t310 77h50l-30 -141h-45q-125 0 -191 -52t-91 -173l-63 -296q-24 -114 -81 -171.5t-149 -66.5l-3 -16q63 -15 100.5 -55t37.5 -102q0 -32 -10 -84l-71 -334q-10 -50 -10 -80q0 -76 47 -112.5t148 -36.5h45 l-29 -136h-48q-152 0 -242.5 67t-90.5 176q0 52 13 110l61 289q12 56 12 95q0 63 -34 89.5t-111 26.5z" />
<glyph horiz-adv-x="824" d="M19 -194l30 141h45q125 0 191 52t91 173l63 296q24 114 81 171.5t149 66.5l3 16q-63 15 -100.5 55t-37.5 102q0 32 10 84l71 334q10 50 10 80q0 76 -47 112.5t-148 36.5h-45l29 136h48q152 0 242.5 -67t90.5 -176q0 -52 -13 -110l-61 -289q-12 -56 -12 -95 q0 -63 34 -89.5t111 -26.5l-41 -191q-100 0 -148.5 -47t-74.5 -166l-59 -275q-36 -170 -152 -247t-310 -77h-50z" />
<glyph horiz-adv-x="1879" d="M202 603q0 204 70.5 381.5t193.5 303.5t296.5 198.5t371.5 72.5q209 0 380.5 -85.5t269 -235t97.5 -331.5t-62 -333.5t-169.5 -238.5t-237.5 -87q-94 0 -155.5 49t-61.5 123q0 3 0.5 8.5t0.5 7.5l-16 1q-38 -67 -101 -102.5t-143 -35.5q-142 0 -227 90t-85 240 q0 215 118.5 362.5t291.5 147.5q88 0 158 -47t86 -116h16l26 124h157l-131 -603q-4 -21 -4 -31q0 -91 107 -91q74 0 143 74.5t110.5 196.5t41.5 254q0 231 -177 382t-448 151q-160 0 -304.5 -64t-248.5 -172t-165 -258.5t-61 -317.5q0 -183 88 -323t248 -216.5t369 -76.5 q142 0 215 25l-27 -126q-108 -25 -235 -25q-229 0 -411 92.5t-283.5 258t-101.5 373.5zM786 642q0 -94 50 -149t135 -55q112 0 192 100.5t80 241.5q0 98 -53.5 158.5t-141.5 60.5q-110 0 -186 -104t-76 -253z" />
<glyph horiz-adv-x="713" d="M-39 -185l816 1768h154l-818 -1768h-152z" />
<glyph horiz-adv-x="676" d="M164 -186l376 1769h148l-376 -1769h-148z" />
<glyph horiz-adv-x="711" d="M340 1583h144l64 -1768h-142z" />
<glyph horiz-adv-x="889" d="M231 639l35 163h656l-35 -163h-656z" />
<glyph horiz-adv-x="1255" d="M76 639l35 163h1254l-35 -163h-1254z" />
<glyph horiz-adv-x="2049" d="M76 639l35 163h2048l-35 -163h-2048z" />
<glyph horiz-adv-x="1032" d="M305 720q0 128 88 216t216 88t216 -88t88 -216t-88 -216t-216 -88t-216 88t-88 216z" />
<glyph d="M306 704l30 142l988 433l-40 -188l-790 -327l-3 -16l625 -445l-39 -184z" />
<glyph d="M181 119l40 188l790 327l3 16l-625 445l39 184l771 -585l-30 -142z" />
<glyph d="M154 252l31 148h1007l-31 -148h-1007zM284 864l31 148l1073 306l-36 -169l-817 -206l-4 -16l729 -210l-34 -159z" />
<glyph d="M155 252l31 148h1007l-31 -148h-1007zM219 558l36 169l817 210l4 16l-729 206l35 159l941 -306l-31 -148z" />
<glyph horiz-adv-x="1329" d="M190 422l32 149h1008l-32 -149h-1008zM272 810l32 149h1008l-32 -149h-1008z" />
<glyph d="M196 452l32 149h405l146 239h-500l31 149h561l144 235h133l-144 -235h314l-31 -149h-375l-146 -239h470l-32 -149h-530l-191 -312h-133l191 312h-345z" />
<glyph d="M232 646l33 148h431l92 435h152l-92 -435h433l-33 -148h-431l-93 -435h-152l93 435h-433z" />
<glyph d="M233 646l31 148h1018l-31 -148h-1018zM549 363q0 54 36 89.5t90 35.5q53 0 88.5 -35.5t35.5 -89.5q0 -55 -35.5 -90t-88.5 -35q-54 0 -90 35.5t-36 89.5zM700 1077q0 54 36 89.5t90 35.5q53 0 88.5 -35.5t35.5 -89.5q0 -55 -35 -90t-89 -35t-90 35.5t-36 89.5z" />
<glyph d="M149 252l31 148h1018l-31 -148h-1018zM266 802l29 136h433l63 291h152l-63 -291h433l-29 -136h-433l-62 -291h-152l62 291h-433z" />
<glyph d="M206 302q18 155 106 242t206 87q55 0 102.5 -23.5t80 -57t60.5 -67t58 -57t60 -23.5q108 0 138 167h171q-18 -155 -106 -242t-206 -87q-56 0 -104 23.5t-80 57t-60.5 67t-58.5 57t-60 23.5q-54 0 -87 -40.5t-49 -126.5h-171zM299 740q18 155 106 242t206 87 q55 0 102.5 -23.5t80 -57t60.5 -67t58 -57t60 -23.5q108 0 138 167h171q-18 -155 -106 -242t-206 -87q-56 0 -104 23.5t-80 57t-60.5 67t-58.5 57t-60 23.5q-54 0 -87 -40.5t-49 -126.5h-171z" />
<glyph d="M300 796l31 148h948l-112 -528h-148l81 380h-800z" />
</font>
</defs>
</svg>
